%TF.GenerationSoftware,KiCad,Pcbnew,10.0.0*%
%TF.CreationDate,2026-04-06T21:24:33+02:00*%
%TF.ProjectId,BT,42542e6b-6963-4616-945f-706362585858,rev?*%
%TF.SameCoordinates,Original*%
%TF.FileFunction,Copper,L4,Bot*%
%TF.FilePolarity,Positive*%
%FSLAX45Y45*%
G04 Gerber Fmt 4.5, Leading zero omitted, Abs format (unit mm)*
G04 Created by KiCad (PCBNEW 10.0.0) date 2026-04-06 21:24:33*
%MOMM*%
%LPD*%
G01*
G04 APERTURE LIST*
G04 Aperture macros list*
%AMRoundRect*
0 Rectangle with rounded corners*
0 $1 Rounding radius*
0 $2 $3 $4 $5 $6 $7 $8 $9 X,Y pos of 4 corners*
0 Add a 4 corners polygon primitive as box body*
4,1,4,$2,$3,$4,$5,$6,$7,$8,$9,$2,$3,0*
0 Add four circle primitives for the rounded corners*
1,1,$1+$1,$2,$3*
1,1,$1+$1,$4,$5*
1,1,$1+$1,$6,$7*
1,1,$1+$1,$8,$9*
0 Add four rect primitives between the rounded corners*
20,1,$1+$1,$2,$3,$4,$5,0*
20,1,$1+$1,$4,$5,$6,$7,0*
20,1,$1+$1,$6,$7,$8,$9,0*
20,1,$1+$1,$8,$9,$2,$3,0*%
G04 Aperture macros list end*
%TA.AperFunction,ComponentPad*%
%ADD10C,0.500000*%
%TD*%
%TA.AperFunction,ComponentPad*%
%ADD11R,1.650000X1.650000*%
%TD*%
%TA.AperFunction,ComponentPad*%
%ADD12C,1.650000*%
%TD*%
%TA.AperFunction,ComponentPad*%
%ADD13RoundRect,0.250000X0.625000X-0.350000X0.625000X0.350000X-0.625000X0.350000X-0.625000X-0.350000X0*%
%TD*%
%TA.AperFunction,ComponentPad*%
%ADD14O,1.750000X1.200000*%
%TD*%
%TA.AperFunction,HeatsinkPad*%
%ADD15C,0.600000*%
%TD*%
%TA.AperFunction,ComponentPad*%
%ADD16C,1.800000*%
%TD*%
%TA.AperFunction,ViaPad*%
%ADD17C,0.600000*%
%TD*%
%TA.AperFunction,Conductor*%
%ADD18C,0.200000*%
%TD*%
G04 APERTURE END LIST*
D10*
%TO.P,U4,4,VOUT_4*%
%TO.N,+3V3*%
X15316000Y-11026000D03*
X15316000Y-11126000D03*
X15411000Y-11030000D03*
X15411000Y-11112000D03*
%TO.P,U4,5,SW_5*%
%TO.N,unconnected-(U4-SW-Pad5)_3*%
X15567000Y-11030000D03*
%TO.N,unconnected-(U4-SW-Pad5)_1*%
X15567000Y-11112000D03*
%TO.N,unconnected-(U4-SW-Pad5)*%
X15662000Y-11026000D03*
%TO.N,unconnected-(U4-SW-Pad5)_4*%
X15662000Y-11126000D03*
%TO.P,U4,10,GND_10*%
%TO.N,GND*%
X15489000Y-10848000D03*
X15489000Y-10948000D03*
X15489000Y-11048000D03*
X15489000Y-11148000D03*
%TD*%
D11*
%TO.P,J1,1,1_1*%
%TO.N,+3V3*%
X13080000Y-9096000D03*
D12*
%TO.P,J1,2,2_2*%
%TO.N,/BCK*%
X13334000Y-9096000D03*
%TO.P,J1,3,3_3*%
%TO.N,/DIN*%
X13588000Y-9096000D03*
%TO.P,J1,4,4_4*%
%TO.N,/LRCK*%
X13842000Y-9096000D03*
%TO.P,J1,5,5_5*%
%TO.N,GND*%
X14096000Y-9096000D03*
%TD*%
D10*
%TO.P,U5,4,VOUT_4*%
%TO.N,+6V*%
X16376000Y-11026000D03*
X16376000Y-11126000D03*
X16471000Y-11030000D03*
X16471000Y-11112000D03*
%TO.P,U5,5,SW_5*%
%TO.N,unconnected-(U5-SW-Pad5)*%
X16627000Y-11030000D03*
%TO.N,unconnected-(U5-SW-Pad5)_2*%
X16627000Y-11112000D03*
%TO.N,unconnected-(U5-SW-Pad5)_1*%
X16722000Y-11026000D03*
%TO.N,unconnected-(U5-SW-Pad5)_4*%
X16722000Y-11126000D03*
%TO.P,U5,10,GND_10*%
%TO.N,GND*%
X16549000Y-10848000D03*
X16549000Y-10948000D03*
X16549000Y-11048000D03*
X16549000Y-11148000D03*
%TD*%
D13*
%TO.P,J2,1,Pin_1_1*%
%TO.N,/LED_CON*%
X16915000Y-10311000D03*
D14*
%TO.P,J2,2,Pin_2_2*%
%TO.N,/BUTTON_CON*%
X16915000Y-10111000D03*
%TO.P,J2,3,Pin_3_3*%
%TO.N,GND*%
X16915000Y-9911000D03*
%TD*%
D15*
%TO.P,U2,39,EP_39*%
%TO.N,GND*%
X12922000Y-10544750D03*
X13062000Y-10544750D03*
X12852000Y-10474750D03*
X12992000Y-10474750D03*
X13132000Y-10474750D03*
X12922000Y-10404750D03*
X13062000Y-10404750D03*
X12852000Y-10334750D03*
X12992000Y-10334750D03*
X13132000Y-10334750D03*
X12922000Y-10264750D03*
X13062000Y-10264750D03*
%TD*%
D16*
%TO.P,TP1,1,1_1*%
%TO.N,GND*%
X15279000Y-9521000D03*
%TD*%
D13*
%TO.P,J3,1,Pin_1_1*%
%TO.N,/KL30*%
X16914000Y-9371000D03*
D14*
%TO.P,J3,2,Pin_2_2*%
%TO.N,GND*%
X16914000Y-9171000D03*
%TO.P,J3,3,Pin_3_3*%
%TO.N,/R_OUT*%
X16914000Y-8971000D03*
%TO.P,J3,4,Pin_4_4*%
%TO.N,/L_OUT*%
X16914000Y-8771000D03*
%TO.P,J3,5,Pin_5_5*%
%TO.N,/R_IN*%
X16914000Y-8571000D03*
%TO.P,J3,6,Pin_6_6*%
%TO.N,/L_IN*%
X16914000Y-8371000D03*
%TD*%
D16*
%TO.P,TP3,1,1_1*%
%TO.N,Net-(C15-Pad2)*%
X15994000Y-9521000D03*
%TD*%
%TO.P,TP2,1,1_1*%
%TO.N,Net-(C14-Pad2)*%
X16579000Y-9521000D03*
%TD*%
D17*
%TO.N,+3V3*%
X13909000Y-11471000D03*
X12404000Y-8781000D03*
X15458645Y-11270645D03*
X12319000Y-11281000D03*
X12451500Y-11493500D03*
X14396500Y-8723500D03*
X14024000Y-8166000D03*
X14689000Y-10791000D03*
X15458645Y-11380645D03*
X12209000Y-8151000D03*
X15896500Y-10523500D03*
X15458645Y-11500645D03*
X12409000Y-11281000D03*
X13211500Y-11493500D03*
%TO.N,+12V*%
X16866500Y-8016000D03*
X16144000Y-10401000D03*
%TO.N,GND*%
X15973645Y-11261355D03*
X12969000Y-8261000D03*
X13959000Y-8483500D03*
X16214000Y-11261711D03*
X15609000Y-9198500D03*
X13894000Y-8166000D03*
X16259355Y-10523500D03*
X15182568Y-11177661D03*
X14969000Y-9251000D03*
X12149000Y-11129774D03*
X13861500Y-10823500D03*
X12316500Y-8528500D03*
X15419000Y-8406000D03*
X14729000Y-8891000D03*
X12234000Y-9508500D03*
X14164000Y-8391000D03*
X12799000Y-9068500D03*
X14279000Y-10001000D03*
X16559355Y-10523500D03*
X12509000Y-8531000D03*
X15169355Y-11501355D03*
X14291500Y-8941000D03*
X17029000Y-11081000D03*
X16819000Y-11281000D03*
X14719000Y-8501000D03*
X15219000Y-10721000D03*
X13409000Y-8831000D03*
X15144355Y-10526355D03*
X15988645Y-11185645D03*
X12751500Y-11493500D03*
X15169355Y-11261355D03*
X14924000Y-7846000D03*
X14729000Y-9051000D03*
X16128645Y-11185645D03*
X12611500Y-11493500D03*
X13799000Y-8916000D03*
X13503458Y-8162939D03*
X15068645Y-11188500D03*
X14386500Y-8976000D03*
X13199000Y-8331000D03*
X14918645Y-11185645D03*
X13199000Y-8191000D03*
X13331500Y-7711000D03*
X12501074Y-8356576D03*
X15179000Y-8361000D03*
X16811500Y-11500645D03*
X15779000Y-11191000D03*
X13051500Y-7666000D03*
X14311500Y-8388500D03*
X15179000Y-8051000D03*
X16889000Y-11191000D03*
X12169000Y-8528500D03*
X15439355Y-10526355D03*
X13909000Y-11321000D03*
X15279000Y-8611000D03*
X12235002Y-11004568D03*
X12151500Y-11493500D03*
X15898645Y-11185645D03*
X15979000Y-11501000D03*
X14891500Y-8893500D03*
X14699000Y-10001000D03*
X16219355Y-11501355D03*
X13862596Y-7691000D03*
%TO.N,/SW_TO_BT_AUDIO*%
X12689000Y-10411000D03*
X16159000Y-7731000D03*
%TO.N,Net-(R24-Pad1)*%
X15046500Y-9056000D03*
X15344000Y-8201000D03*
%TO.N,Net-(R25-Pad1)*%
X15819000Y-8346000D03*
X15284000Y-9281000D03*
%TO.N,/SCK*%
X13529000Y-8483500D03*
X12501500Y-8898500D03*
%TO.N,/MCLK*%
X12746500Y-9171000D03*
X13632536Y-9503209D03*
%TO.N,Net-(C14-Pad2)*%
X14726500Y-7691000D03*
X15284000Y-8853500D03*
%TO.N,Net-(U3B-+)*%
X15416500Y-7967500D03*
X15139000Y-8531000D03*
%TO.N,/ESP_EN*%
X14289000Y-10411000D03*
X14289000Y-10761000D03*
X12904000Y-11293500D03*
%TO.N,Net-(C8-Pad1)*%
X15589000Y-7841000D03*
X14486500Y-8703500D03*
%TO.N,/DAC_MCLK_EN*%
X13124000Y-10968500D03*
X12169000Y-8878500D03*
%TO.N,+6V*%
X14819000Y-9318500D03*
X17116500Y-10621355D03*
X16519000Y-11381000D03*
%TO.N,/DAC_FLT*%
X13286500Y-8818500D03*
X13211500Y-9616000D03*
%TO.N,/DAC_MUTEn*%
X13829000Y-8483500D03*
X12359000Y-9601000D03*
X12796500Y-8718500D03*
%TO.N,/BUTTON_CON*%
X13346500Y-11493500D03*
%TO.N,/LED*%
X16621500Y-10021000D03*
X13504000Y-10973500D03*
%TD*%
%TO.N,+3V3*%
D18*
X15839000Y-11391000D02*
X15839000Y-10581000D01*
X15729355Y-11500645D02*
X15839000Y-11391000D01*
X15458645Y-11500645D02*
X15729355Y-11500645D01*
X15839000Y-10581000D02*
X15896500Y-10523500D01*
X15896500Y-10523500D02*
X15905789Y-10523500D01*
X15905789Y-10523500D02*
X15908289Y-10521000D01*
%TO.N,/SW_TO_BT_AUDIO*%
X12739000Y-7871000D02*
X12249000Y-8361000D01*
X12309000Y-9441000D02*
X12309000Y-9551000D01*
X12249000Y-9611000D02*
X12249000Y-9971000D01*
X12249000Y-9971000D02*
X12689000Y-10411000D01*
X12249000Y-8361000D02*
X12249000Y-9381000D01*
X14759000Y-7871000D02*
X12739000Y-7871000D01*
X14899000Y-7731000D02*
X14759000Y-7871000D01*
X12249000Y-9381000D02*
X12309000Y-9441000D01*
X16159000Y-7731000D02*
X14899000Y-7731000D01*
X12309000Y-9551000D02*
X12249000Y-9611000D01*
%TO.N,Net-(R24-Pad1)*%
X15046500Y-8763500D02*
X15046500Y-9056000D01*
X15344000Y-8201000D02*
X15344000Y-8466000D01*
X15344000Y-8466000D02*
X15046500Y-8763500D01*
%TO.N,Net-(R25-Pad1)*%
X15819000Y-8346000D02*
X15819000Y-8746000D01*
X15819000Y-8746000D02*
X15284000Y-9281000D01*
%TO.N,/SCK*%
X12819000Y-8483500D02*
X12501500Y-8801000D01*
X13529000Y-8483500D02*
X12819000Y-8483500D01*
X12501500Y-8801000D02*
X12501500Y-8898500D01*
%TO.N,Net-(U3B-+)*%
X15139000Y-8531000D02*
X15239000Y-8431000D01*
X15239000Y-8145000D02*
X15416500Y-7967500D01*
X15239000Y-8431000D02*
X15239000Y-8145000D01*
%TO.N,/ESP_EN*%
X12904000Y-11293500D02*
X12906500Y-11296000D01*
X14289000Y-10761000D02*
X14289000Y-10411000D01*
X12906500Y-11296000D02*
X13754000Y-11296000D01*
X14289000Y-10411000D02*
X14289000Y-10391000D01*
X13754000Y-11296000D02*
X14289000Y-10761000D01*
%TO.N,Net-(C8-Pad1)*%
X14486500Y-8703500D02*
X14486500Y-8641000D01*
X15286500Y-7841000D02*
X15589000Y-7841000D01*
X14486500Y-8641000D02*
X15286500Y-7841000D01*
%TO.N,/DAC_MCLK_EN*%
X12169000Y-10013500D02*
X13124000Y-10968500D01*
X12169000Y-8878500D02*
X12169000Y-10013500D01*
%TO.N,+6V*%
X16964000Y-11258500D02*
X16964000Y-10773855D01*
X16964000Y-10773855D02*
X17116500Y-10621355D01*
X16519000Y-11381000D02*
X16841500Y-11381000D01*
X16841500Y-11381000D02*
X16964000Y-11258500D01*
%TO.N,/DAC_FLT*%
X13211500Y-8893500D02*
X13211500Y-9616000D01*
X13271500Y-8833500D02*
X13211500Y-8893500D01*
%TO.N,/DAC_MUTEn*%
X12644000Y-8871000D02*
X12859000Y-8656000D01*
X13656500Y-8656000D02*
X13829000Y-8483500D01*
X12859000Y-8656000D02*
X13656500Y-8656000D01*
X12644000Y-9316000D02*
X12644000Y-8871000D01*
X12359000Y-9601000D02*
X12644000Y-9316000D01*
%TO.N,/BUTTON_CON*%
X13451500Y-11388500D02*
X14444000Y-11388500D01*
X14444000Y-11388500D02*
X15721500Y-10111000D01*
X15721500Y-10111000D02*
X16915000Y-10111000D01*
X13346500Y-11493500D02*
X13451500Y-11388500D01*
%TO.N,/LED*%
X15311500Y-10298500D02*
X14179000Y-10298500D01*
X16621500Y-10021000D02*
X15589000Y-10021000D01*
X15589000Y-10021000D02*
X15311500Y-10298500D01*
X14179000Y-10298500D02*
X13504000Y-10973500D01*
%TD*%
%TA.AperFunction,Conductor*%
%TO.N,GND*%
G36*
X12217308Y-8921982D02*
G01*
X12218950Y-8927052D01*
X12218950Y-9384957D01*
X12220998Y-9392599D01*
X12224954Y-9399451D01*
X12275338Y-9449835D01*
X12277061Y-9452296D01*
X12278139Y-9454609D01*
X12278950Y-9458264D01*
X12278950Y-9533445D01*
X12278428Y-9536403D01*
X12277555Y-9538801D01*
X12275544Y-9541959D01*
X12224954Y-9592549D01*
X12220998Y-9599401D01*
X12218950Y-9607043D01*
X12218950Y-9974957D01*
X12220998Y-9982599D01*
X12224954Y-9989451D01*
X12623322Y-10387819D01*
X12623851Y-10388398D01*
X12624282Y-10388916D01*
X12625195Y-10390441D01*
X12629706Y-10395426D01*
X12629820Y-10395562D01*
X12629838Y-10395614D01*
X12630326Y-10396234D01*
X12631396Y-10397807D01*
X12632326Y-10399588D01*
X12633283Y-10402097D01*
X12634426Y-10405094D01*
X12634743Y-10406109D01*
X12635186Y-10407905D01*
X12635261Y-10408203D01*
X12637485Y-10416696D01*
X12636936Y-10422588D01*
X12632728Y-10426748D01*
X12626831Y-10427229D01*
X12623001Y-10425004D01*
X12202662Y-10004665D01*
X12200939Y-10002204D01*
X12200695Y-10001681D01*
X12199860Y-9999891D01*
X12199050Y-9996236D01*
X12199050Y-8941333D01*
X12199311Y-8939226D01*
X12199580Y-8938154D01*
X12199905Y-8931616D01*
X12200047Y-8930432D01*
X12200403Y-8928559D01*
X12201005Y-8926644D01*
X12202405Y-8923517D01*
X12206524Y-8919270D01*
X12212410Y-8918663D01*
X12217308Y-8921982D01*
G37*
%TD.AperFunction*%
%TA.AperFunction,Conductor*%
G36*
X17541733Y-7591572D02*
G01*
X17542902Y-7591997D01*
X17547434Y-7595799D01*
X17547791Y-7596417D01*
X17548950Y-7600743D01*
X17548950Y-11540775D01*
X17548428Y-11543734D01*
X17548003Y-11544902D01*
X17544201Y-11549433D01*
X17543719Y-11549712D01*
X17543583Y-11549790D01*
X17539257Y-11550950D01*
X15506120Y-11550950D01*
X15500560Y-11548926D01*
X15497601Y-11543802D01*
X15498629Y-11537975D01*
X15501751Y-11534834D01*
X15502573Y-11534353D01*
X15502875Y-11534177D01*
X15503829Y-11533695D01*
X15505136Y-11533134D01*
X15505688Y-11532897D01*
X15507254Y-11532395D01*
X15508835Y-11532049D01*
X15509926Y-11531810D01*
X15511288Y-11531624D01*
X15518433Y-11531224D01*
X15519074Y-11531068D01*
X15519606Y-11530939D01*
X15521648Y-11530695D01*
X15734511Y-11530695D01*
X15735550Y-11530095D01*
X15740954Y-11528647D01*
X15747806Y-11524691D01*
X15753401Y-11519096D01*
X15863046Y-11409451D01*
X15863949Y-11407887D01*
X15867002Y-11402599D01*
X15867708Y-11399963D01*
X15868961Y-11395287D01*
X15868987Y-11395225D01*
X15869050Y-11394956D01*
X15869050Y-11374411D01*
X16468950Y-11374411D01*
X16468950Y-11387589D01*
X16469047Y-11387952D01*
X16469047Y-11387952D01*
X16470924Y-11394956D01*
X16472361Y-11400319D01*
X16472361Y-11400319D01*
X16473677Y-11402599D01*
X16478950Y-11411731D01*
X16488269Y-11421050D01*
X16499681Y-11427639D01*
X16512411Y-11431050D01*
X16512411Y-11431050D01*
X16525589Y-11431050D01*
X16525589Y-11431050D01*
X16538319Y-11427639D01*
X16538867Y-11427323D01*
X16540509Y-11426631D01*
X16540507Y-11426626D01*
X16540706Y-11426548D01*
X16540860Y-11426484D01*
X16540904Y-11426471D01*
X16555518Y-11419055D01*
X16556218Y-11418683D01*
X16556263Y-11418658D01*
X16556295Y-11418640D01*
X16556987Y-11418237D01*
X16557593Y-11417867D01*
X16559073Y-11416966D01*
X16559192Y-11416895D01*
X16563231Y-11414532D01*
X16564185Y-11414050D01*
X16565492Y-11413489D01*
X16566044Y-11413252D01*
X16567609Y-11412750D01*
X16569190Y-11412404D01*
X16570281Y-11412166D01*
X16571644Y-11411980D01*
X16578788Y-11411580D01*
X16579429Y-11411424D01*
X16579962Y-11411294D01*
X16582004Y-11411050D01*
X16846656Y-11411050D01*
X16847695Y-11410450D01*
X16853099Y-11409002D01*
X16859951Y-11405046D01*
X16865546Y-11399451D01*
X16988046Y-11276951D01*
X16992002Y-11270099D01*
X16994050Y-11262456D01*
X16994050Y-11258403D01*
X17108950Y-11258403D01*
X17108950Y-11283597D01*
X17112891Y-11308478D01*
X17112891Y-11308480D01*
X17120675Y-11332436D01*
X17120676Y-11332437D01*
X17120676Y-11332437D01*
X17120676Y-11332438D01*
X17120676Y-11332439D01*
X17130108Y-11350950D01*
X17132112Y-11354883D01*
X17132113Y-11354884D01*
X17132113Y-11354884D01*
X17146921Y-11375266D01*
X17164734Y-11393079D01*
X17185116Y-11407887D01*
X17205428Y-11418237D01*
X17207562Y-11419324D01*
X17211780Y-11420695D01*
X17231520Y-11427109D01*
X17231521Y-11427109D01*
X17231522Y-11427109D01*
X17231552Y-11427114D01*
X17231552Y-11427114D01*
X17256403Y-11431050D01*
X17256403Y-11431050D01*
X17256404Y-11431050D01*
X17256404Y-11431050D01*
X17281596Y-11431050D01*
X17281596Y-11431050D01*
X17306479Y-11427109D01*
X17306479Y-11427109D01*
X17306480Y-11427109D01*
X17306482Y-11427108D01*
X17306533Y-11427095D01*
X17306659Y-11427050D01*
X17321468Y-11422239D01*
X17325126Y-11421050D01*
X17330438Y-11419324D01*
X17352885Y-11407887D01*
X17373266Y-11393079D01*
X17391079Y-11375266D01*
X17405887Y-11354884D01*
X17417324Y-11332438D01*
X17421351Y-11320046D01*
X17422248Y-11317284D01*
X17423988Y-11311929D01*
X17425109Y-11308480D01*
X17425109Y-11308479D01*
X17425109Y-11308478D01*
X17429050Y-11283596D01*
X17429050Y-11258404D01*
X17427577Y-11249102D01*
X17425109Y-11233521D01*
X17425109Y-11233519D01*
X17425104Y-11233506D01*
X17420909Y-11220595D01*
X17417416Y-11209844D01*
X17417370Y-11209685D01*
X17417324Y-11209562D01*
X17417324Y-11209562D01*
X17417324Y-11209562D01*
X17417324Y-11209561D01*
X17405887Y-11187115D01*
X17391079Y-11166734D01*
X17373266Y-11148921D01*
X17359903Y-11139212D01*
X17353436Y-11134513D01*
X17353435Y-11134513D01*
X17352884Y-11134113D01*
X17330440Y-11122677D01*
X17330439Y-11122676D01*
X17330438Y-11122676D01*
X17330437Y-11122676D01*
X17330437Y-11122676D01*
X17330436Y-11122675D01*
X17306480Y-11114891D01*
X17306478Y-11114891D01*
X17281597Y-11110950D01*
X17281597Y-11110950D01*
X17281596Y-11110950D01*
X17256404Y-11110950D01*
X17256403Y-11110950D01*
X17256403Y-11110950D01*
X17231522Y-11114891D01*
X17231520Y-11114891D01*
X17207564Y-11122675D01*
X17207562Y-11122676D01*
X17207560Y-11122677D01*
X17185116Y-11134113D01*
X17184565Y-11134513D01*
X17184564Y-11134513D01*
X17180824Y-11137231D01*
X17164734Y-11148921D01*
X17164734Y-11148921D01*
X17146921Y-11166734D01*
X17132513Y-11186564D01*
X17132513Y-11186565D01*
X17132113Y-11187116D01*
X17120677Y-11209560D01*
X17120676Y-11209562D01*
X17120675Y-11209564D01*
X17112891Y-11233520D01*
X17112891Y-11233522D01*
X17108950Y-11258403D01*
X16994050Y-11258403D01*
X16994050Y-11254544D01*
X16994050Y-10791411D01*
X16994572Y-10788452D01*
X16995445Y-10786054D01*
X16997456Y-10782896D01*
X17093319Y-10687033D01*
X17094994Y-10685727D01*
X17095941Y-10685161D01*
X17100795Y-10680767D01*
X17101732Y-10680030D01*
X17103308Y-10678958D01*
X17105089Y-10678029D01*
X17110595Y-10675928D01*
X17111610Y-10675611D01*
X17113393Y-10675173D01*
X17113521Y-10675141D01*
X17113538Y-10675136D01*
X17113702Y-10675094D01*
X17122147Y-10672883D01*
X17123013Y-10672636D01*
X17123065Y-10672620D01*
X17123109Y-10672606D01*
X17123940Y-10672330D01*
X17133727Y-10668840D01*
X17134180Y-10668673D01*
X17134231Y-10668653D01*
X17134232Y-10668652D01*
X17134393Y-10668570D01*
X17135299Y-10668223D01*
X17135295Y-10668212D01*
X17135819Y-10667995D01*
X17147231Y-10661405D01*
X17156550Y-10652087D01*
X17163139Y-10640674D01*
X17166550Y-10627945D01*
X17166550Y-10614766D01*
X17163139Y-10602037D01*
X17156550Y-10590624D01*
X17147231Y-10581305D01*
X17140324Y-10577317D01*
X17135819Y-10574716D01*
X17135819Y-10574716D01*
X17135819Y-10574716D01*
X17123089Y-10571305D01*
X17123089Y-10571305D01*
X17109911Y-10571305D01*
X17109911Y-10571305D01*
X17107509Y-10571949D01*
X17097306Y-10574683D01*
X17097190Y-10574712D01*
X17097182Y-10574716D01*
X17097181Y-10574716D01*
X17085768Y-10581305D01*
X17076450Y-10590624D01*
X17069861Y-10602036D01*
X17069857Y-10602045D01*
X17069827Y-10602165D01*
X17069697Y-10602649D01*
X17069025Y-10604298D01*
X17069030Y-10604300D01*
X17068950Y-10604481D01*
X17068883Y-10604646D01*
X17068859Y-10604689D01*
X17068859Y-10604689D01*
X17063768Y-10620271D01*
X17063536Y-10621031D01*
X17063513Y-10621112D01*
X17063309Y-10621883D01*
X17062730Y-10624268D01*
X17062694Y-10624410D01*
X17061513Y-10628920D01*
X17061179Y-10629935D01*
X17060429Y-10631814D01*
X17059677Y-10633277D01*
X17058201Y-10635578D01*
X17057369Y-10636674D01*
X17052600Y-10642009D01*
X17051972Y-10643040D01*
X17050701Y-10644657D01*
X16945549Y-10749809D01*
X16939954Y-10755404D01*
X16935998Y-10762257D01*
X16933950Y-10769899D01*
X16933950Y-11240945D01*
X16933428Y-11243903D01*
X16932556Y-11246301D01*
X16930544Y-11249459D01*
X16832665Y-11347338D01*
X16830204Y-11349061D01*
X16827891Y-11350139D01*
X16824236Y-11350950D01*
X16581833Y-11350950D01*
X16581050Y-11350914D01*
X16580379Y-11350853D01*
X16578654Y-11350420D01*
X16571940Y-11350085D01*
X16571763Y-11350069D01*
X16571714Y-11350046D01*
X16570930Y-11349952D01*
X16569060Y-11349596D01*
X16567143Y-11348994D01*
X16561765Y-11346586D01*
X16560822Y-11346093D01*
X16559238Y-11345134D01*
X16559238Y-11345134D01*
X16559127Y-11345068D01*
X16559127Y-11345068D01*
X16559117Y-11345062D01*
X16559102Y-11345053D01*
X16559099Y-11345051D01*
X16558978Y-11344980D01*
X16551482Y-11340595D01*
X16551442Y-11340571D01*
X16551441Y-11340571D01*
X16551440Y-11340570D01*
X16550668Y-11340140D01*
X16550577Y-11340092D01*
X16549785Y-11339695D01*
X16547539Y-11338630D01*
X16540395Y-11335242D01*
X16539980Y-11335050D01*
X16539929Y-11335028D01*
X16539929Y-11335028D01*
X16539886Y-11335008D01*
X16538780Y-11334627D01*
X16538319Y-11334361D01*
X16538319Y-11334361D01*
X16538319Y-11334361D01*
X16536926Y-11333987D01*
X16536925Y-11333987D01*
X16528617Y-11331761D01*
X16525589Y-11330950D01*
X16525589Y-11330950D01*
X16512411Y-11330950D01*
X16512411Y-11330950D01*
X16511082Y-11331306D01*
X16499806Y-11334327D01*
X16499690Y-11334356D01*
X16499682Y-11334360D01*
X16499681Y-11334361D01*
X16488268Y-11340950D01*
X16478950Y-11350268D01*
X16472439Y-11361546D01*
X16472439Y-11361546D01*
X16472361Y-11361681D01*
X16472361Y-11361681D01*
X16472361Y-11361681D01*
X16468950Y-11374411D01*
X15869050Y-11374411D01*
X15869050Y-11020068D01*
X16330950Y-11020068D01*
X16330950Y-11031932D01*
X16334020Y-11043388D01*
X16334020Y-11043388D01*
X16337146Y-11048802D01*
X16339951Y-11053661D01*
X16339951Y-11053661D01*
X16348339Y-11062049D01*
X16353248Y-11064884D01*
X16357894Y-11067566D01*
X16359412Y-11068679D01*
X16360539Y-11069712D01*
X16363271Y-11074960D01*
X16361990Y-11080736D01*
X16361785Y-11081059D01*
X16358814Y-11083903D01*
X16348338Y-11089951D01*
X16339951Y-11098338D01*
X16334020Y-11108612D01*
X16330950Y-11120068D01*
X16330950Y-11131932D01*
X16333598Y-11141816D01*
X16334020Y-11143389D01*
X16336711Y-11148049D01*
X16339951Y-11153661D01*
X16348339Y-11162049D01*
X16353606Y-11165090D01*
X16355282Y-11167088D01*
X16358611Y-11167980D01*
X16358611Y-11167980D01*
X16358611Y-11167980D01*
X16370069Y-11171050D01*
X16370069Y-11171050D01*
X16370069Y-11171050D01*
X16381931Y-11171050D01*
X16381989Y-11171041D01*
X16382180Y-11170983D01*
X16384353Y-11170401D01*
X16393389Y-11167980D01*
X16403661Y-11162049D01*
X16412049Y-11153661D01*
X16417980Y-11143389D01*
X16418242Y-11142410D01*
X16419511Y-11139688D01*
X16420083Y-11138872D01*
X16424930Y-11135478D01*
X16430824Y-11135994D01*
X16430825Y-11135994D01*
X16431103Y-11136124D01*
X16434534Y-11139268D01*
X16434606Y-11139212D01*
X16434922Y-11139624D01*
X16434937Y-11139638D01*
X16434951Y-11139661D01*
X16443339Y-11148049D01*
X16448606Y-11151090D01*
X16450282Y-11153088D01*
X16453611Y-11153980D01*
X16453611Y-11153980D01*
X16453611Y-11153980D01*
X16465069Y-11157050D01*
X16465069Y-11157050D01*
X16465069Y-11157050D01*
X16476931Y-11157050D01*
X16476989Y-11157041D01*
X16477180Y-11156983D01*
X16479353Y-11156401D01*
X16488389Y-11153980D01*
X16498661Y-11148049D01*
X16507049Y-11139661D01*
X16512980Y-11129389D01*
X16516050Y-11117931D01*
X16516050Y-11106069D01*
X16516050Y-11106068D01*
X16512980Y-11094611D01*
X16510289Y-11089951D01*
X16507049Y-11084339D01*
X16500905Y-11078195D01*
X16499182Y-11075734D01*
X16498656Y-11074607D01*
X16498141Y-11068713D01*
X16498326Y-11068024D01*
X16500565Y-11064146D01*
X16502661Y-11062049D01*
X16502661Y-11062049D01*
X16507049Y-11057661D01*
X16512980Y-11047389D01*
X16516050Y-11035931D01*
X16516050Y-11024069D01*
X16516050Y-11024069D01*
X16516050Y-11024069D01*
X16516050Y-11024068D01*
X16581950Y-11024068D01*
X16581950Y-11035932D01*
X16585015Y-11047371D01*
X16585020Y-11047389D01*
X16588642Y-11053661D01*
X16590951Y-11057661D01*
X16597095Y-11063805D01*
X16598818Y-11066266D01*
X16599343Y-11067393D01*
X16599859Y-11073287D01*
X16599859Y-11073288D01*
X16599674Y-11073977D01*
X16597435Y-11077854D01*
X16590951Y-11084338D01*
X16585020Y-11094612D01*
X16581950Y-11106068D01*
X16581950Y-11117932D01*
X16585020Y-11129388D01*
X16585020Y-11129389D01*
X16587748Y-11134113D01*
X16590951Y-11139661D01*
X16599339Y-11148049D01*
X16604606Y-11151090D01*
X16606282Y-11153088D01*
X16609611Y-11153980D01*
X16609611Y-11153980D01*
X16609611Y-11153980D01*
X16621069Y-11157050D01*
X16621069Y-11157050D01*
X16621069Y-11157050D01*
X16632931Y-11157050D01*
X16632989Y-11157041D01*
X16633180Y-11156983D01*
X16635353Y-11156401D01*
X16644389Y-11153980D01*
X16654661Y-11148049D01*
X16663049Y-11139661D01*
X16663049Y-11139661D01*
X16663373Y-11139239D01*
X16664674Y-11137879D01*
X16665447Y-11137231D01*
X16671007Y-11135207D01*
X16676567Y-11137230D01*
X16676567Y-11137230D01*
X16676803Y-11137428D01*
X16679598Y-11141816D01*
X16680020Y-11143388D01*
X16680020Y-11143389D01*
X16681864Y-11146582D01*
X16683214Y-11148921D01*
X16685951Y-11153661D01*
X16694339Y-11162049D01*
X16699606Y-11165090D01*
X16701282Y-11167088D01*
X16704611Y-11167980D01*
X16704611Y-11167980D01*
X16704611Y-11167980D01*
X16716069Y-11171050D01*
X16716069Y-11171050D01*
X16716069Y-11171050D01*
X16727931Y-11171050D01*
X16727989Y-11171041D01*
X16728180Y-11170983D01*
X16730353Y-11170401D01*
X16739389Y-11167980D01*
X16749661Y-11162049D01*
X16758049Y-11153661D01*
X16763980Y-11143389D01*
X16767050Y-11131931D01*
X16767050Y-11120069D01*
X16767050Y-11120068D01*
X16763980Y-11108611D01*
X16760713Y-11102952D01*
X16758049Y-11098339D01*
X16749661Y-11089951D01*
X16740106Y-11084435D01*
X16738588Y-11083321D01*
X16737461Y-11082289D01*
X16734729Y-11077040D01*
X16736009Y-11071264D01*
X16736215Y-11070941D01*
X16739185Y-11068097D01*
X16739388Y-11067980D01*
X16739389Y-11067980D01*
X16749661Y-11062049D01*
X16758049Y-11053661D01*
X16763980Y-11043389D01*
X16767050Y-11031931D01*
X16767050Y-11020069D01*
X16767050Y-11020068D01*
X16763980Y-11008611D01*
X16760358Y-11002339D01*
X16758049Y-10998339D01*
X16749661Y-10989951D01*
X16749661Y-10989951D01*
X16744394Y-10986910D01*
X16742718Y-10984912D01*
X16739389Y-10984020D01*
X16727931Y-10980950D01*
X16727931Y-10980950D01*
X16716068Y-10980950D01*
X16704611Y-10984020D01*
X16694338Y-10989951D01*
X16685951Y-10998339D01*
X16681599Y-11005877D01*
X16679668Y-11008178D01*
X16678906Y-11008817D01*
X16678905Y-11008818D01*
X16673345Y-11010842D01*
X16667785Y-11008818D01*
X16667785Y-11008817D01*
X16667022Y-11008177D01*
X16665092Y-11005877D01*
X16663049Y-11002339D01*
X16654661Y-10993951D01*
X16649394Y-10990910D01*
X16647718Y-10988912D01*
X16644389Y-10988020D01*
X16632931Y-10984950D01*
X16632931Y-10984950D01*
X16621068Y-10984950D01*
X16609611Y-10988020D01*
X16599338Y-10993951D01*
X16590951Y-11002338D01*
X16585020Y-11012612D01*
X16581950Y-11024068D01*
X16516050Y-11024068D01*
X16512980Y-11012611D01*
X16510790Y-11008818D01*
X16507049Y-11002339D01*
X16498661Y-10993951D01*
X16498661Y-10993951D01*
X16493394Y-10990910D01*
X16491718Y-10988912D01*
X16488389Y-10988020D01*
X16476931Y-10984950D01*
X16476931Y-10984950D01*
X16465068Y-10984950D01*
X16453611Y-10988020D01*
X16443338Y-10993951D01*
X16434951Y-11002339D01*
X16434916Y-11002387D01*
X16434821Y-11002564D01*
X16432908Y-11005877D01*
X16430978Y-11008178D01*
X16430461Y-11008612D01*
X16430215Y-11008818D01*
X16424655Y-11010842D01*
X16419095Y-11008818D01*
X16419094Y-11008818D01*
X16418332Y-11008178D01*
X16416401Y-11005877D01*
X16412049Y-10998339D01*
X16403661Y-10989951D01*
X16403661Y-10989951D01*
X16398394Y-10986910D01*
X16396718Y-10984912D01*
X16393389Y-10984020D01*
X16381931Y-10980950D01*
X16381931Y-10980950D01*
X16370068Y-10980950D01*
X16358611Y-10984020D01*
X16348338Y-10989951D01*
X16339951Y-10998338D01*
X16334020Y-11008612D01*
X16330950Y-11020068D01*
X15869050Y-11020068D01*
X15869050Y-10598555D01*
X15869571Y-10595597D01*
X15870445Y-10593198D01*
X15872456Y-10590041D01*
X15873319Y-10589178D01*
X15874994Y-10587872D01*
X15875941Y-10587305D01*
X15880795Y-10582912D01*
X15881732Y-10582175D01*
X15883308Y-10581103D01*
X15885089Y-10580174D01*
X15890595Y-10578073D01*
X15891610Y-10577756D01*
X15893393Y-10577317D01*
X15893521Y-10577285D01*
X15893538Y-10577281D01*
X15893702Y-10577239D01*
X15902146Y-10575028D01*
X15903013Y-10574781D01*
X15903065Y-10574764D01*
X15903109Y-10574751D01*
X15903940Y-10574474D01*
X15913727Y-10570985D01*
X15914180Y-10570817D01*
X15914231Y-10570797D01*
X15914232Y-10570797D01*
X15914393Y-10570715D01*
X15915299Y-10570368D01*
X15915295Y-10570356D01*
X15915819Y-10570139D01*
X15917097Y-10569401D01*
X15927231Y-10563550D01*
X15936550Y-10554231D01*
X15943139Y-10542819D01*
X15946550Y-10530089D01*
X15946550Y-10516911D01*
X15943139Y-10504181D01*
X15936550Y-10492769D01*
X15927231Y-10483450D01*
X15915819Y-10476861D01*
X15903089Y-10473450D01*
X15903089Y-10473450D01*
X15889911Y-10473450D01*
X15889911Y-10473450D01*
X15888480Y-10473833D01*
X15877306Y-10476827D01*
X15877190Y-10476857D01*
X15877182Y-10476860D01*
X15877181Y-10476861D01*
X15865768Y-10483450D01*
X15856450Y-10492768D01*
X15849861Y-10504181D01*
X15849857Y-10504190D01*
X15849826Y-10504309D01*
X15849697Y-10504793D01*
X15849025Y-10506443D01*
X15849030Y-10506445D01*
X15848950Y-10506626D01*
X15848883Y-10506791D01*
X15848859Y-10506834D01*
X15848859Y-10506834D01*
X15843768Y-10522415D01*
X15843536Y-10523175D01*
X15843513Y-10523257D01*
X15843309Y-10524027D01*
X15842730Y-10526412D01*
X15842694Y-10526555D01*
X15841513Y-10531065D01*
X15841179Y-10532080D01*
X15840429Y-10533959D01*
X15839677Y-10535421D01*
X15838201Y-10537723D01*
X15837369Y-10538819D01*
X15832600Y-10544153D01*
X15832599Y-10544154D01*
X15831972Y-10545185D01*
X15830701Y-10546802D01*
X15820549Y-10556954D01*
X15820549Y-10556954D01*
X15814954Y-10562549D01*
X15814954Y-10562549D01*
X15810998Y-10569401D01*
X15808950Y-10577043D01*
X15808950Y-11373445D01*
X15808428Y-11376403D01*
X15807555Y-11378801D01*
X15805544Y-11381959D01*
X15720520Y-11466983D01*
X15718059Y-11468706D01*
X15715747Y-11469784D01*
X15712091Y-11470595D01*
X15521478Y-11470595D01*
X15520694Y-11470559D01*
X15520024Y-11470498D01*
X15518299Y-11470065D01*
X15511585Y-11469730D01*
X15511408Y-11469714D01*
X15511358Y-11469691D01*
X15510575Y-11469597D01*
X15508704Y-11469241D01*
X15506788Y-11468639D01*
X15501409Y-11466231D01*
X15500467Y-11465737D01*
X15498883Y-11464779D01*
X15498883Y-11464779D01*
X15498772Y-11464713D01*
X15498771Y-11464712D01*
X15498761Y-11464706D01*
X15498747Y-11464697D01*
X15498744Y-11464696D01*
X15498623Y-11464625D01*
X15491085Y-11460215D01*
X15490312Y-11459785D01*
X15490222Y-11459737D01*
X15489430Y-11459340D01*
X15487184Y-11458275D01*
X15480040Y-11454886D01*
X15479624Y-11454695D01*
X15479574Y-11454672D01*
X15479574Y-11454672D01*
X15479530Y-11454653D01*
X15478424Y-11454272D01*
X15477963Y-11454005D01*
X15477963Y-11454005D01*
X15477963Y-11454005D01*
X15476570Y-11453632D01*
X15476569Y-11453632D01*
X15468625Y-11451503D01*
X15465234Y-11450595D01*
X15465234Y-11450595D01*
X15452055Y-11450595D01*
X15452055Y-11450595D01*
X15449654Y-11451238D01*
X15439451Y-11453972D01*
X15439334Y-11454001D01*
X15439327Y-11454005D01*
X15439326Y-11454005D01*
X15427913Y-11460595D01*
X15418595Y-11469913D01*
X15412005Y-11481326D01*
X15412005Y-11481327D01*
X15412001Y-11481334D01*
X15411972Y-11481451D01*
X15408886Y-11492969D01*
X15408595Y-11494055D01*
X15408595Y-11507234D01*
X15411383Y-11517639D01*
X15411773Y-11519096D01*
X15412005Y-11519963D01*
X15418595Y-11531376D01*
X15422324Y-11535105D01*
X15424047Y-11537566D01*
X15424467Y-11538468D01*
X15424983Y-11544362D01*
X15421592Y-11549208D01*
X15421340Y-11549384D01*
X15416376Y-11550950D01*
X13380901Y-11550950D01*
X13377942Y-11550428D01*
X13377615Y-11550309D01*
X13377129Y-11550132D01*
X13372597Y-11546329D01*
X13371570Y-11540501D01*
X13373972Y-11535888D01*
X13374246Y-11535614D01*
X13376037Y-11534239D01*
X13377231Y-11533550D01*
X13386550Y-11524231D01*
X13393139Y-11512819D01*
X13393303Y-11512207D01*
X13393976Y-11510556D01*
X13393970Y-11510554D01*
X13394056Y-11510359D01*
X13394119Y-11510204D01*
X13394141Y-11510165D01*
X13399231Y-11494585D01*
X13399460Y-11493837D01*
X13399485Y-11493750D01*
X13399691Y-11492969D01*
X13400270Y-11490586D01*
X13400304Y-11490452D01*
X13401487Y-11485933D01*
X13401820Y-11484921D01*
X13402571Y-11483040D01*
X13403321Y-11481580D01*
X13404799Y-11479275D01*
X13405630Y-11478181D01*
X13410400Y-11472846D01*
X13411028Y-11471815D01*
X13412299Y-11470198D01*
X13460335Y-11422162D01*
X13462796Y-11420439D01*
X13465109Y-11419360D01*
X13468764Y-11418550D01*
X13868260Y-11418550D01*
X13871218Y-11419071D01*
X13872154Y-11419412D01*
X13876687Y-11423215D01*
X13877714Y-11429042D01*
X13877714Y-11429043D01*
X13877661Y-11429345D01*
X13875259Y-11433960D01*
X13870292Y-11438927D01*
X13868950Y-11440269D01*
X13862361Y-11451681D01*
X13862360Y-11451682D01*
X13862356Y-11451690D01*
X13862327Y-11451806D01*
X13860309Y-11459339D01*
X13858950Y-11464411D01*
X13858950Y-11477589D01*
X13862361Y-11490319D01*
X13862361Y-11490319D01*
X13864824Y-11494585D01*
X13868950Y-11501731D01*
X13878269Y-11511050D01*
X13889681Y-11517639D01*
X13902411Y-11521050D01*
X13902411Y-11521050D01*
X13915589Y-11521050D01*
X13915589Y-11521050D01*
X13928319Y-11517639D01*
X13939731Y-11511050D01*
X13949050Y-11501731D01*
X13955639Y-11490319D01*
X13959050Y-11477589D01*
X13959050Y-11464411D01*
X13955639Y-11451681D01*
X13949050Y-11440269D01*
X13943176Y-11434395D01*
X13941453Y-11431934D01*
X13941041Y-11431050D01*
X13941032Y-11431032D01*
X13940517Y-11425137D01*
X13943910Y-11420291D01*
X13944163Y-11420114D01*
X13949124Y-11418550D01*
X14449156Y-11418550D01*
X14450195Y-11417950D01*
X14455599Y-11416502D01*
X14462451Y-11412546D01*
X14468046Y-11406951D01*
X14610942Y-11264055D01*
X15408595Y-11264055D01*
X15408595Y-11277234D01*
X15411369Y-11287589D01*
X15412005Y-11289963D01*
X15418595Y-11301376D01*
X15427913Y-11310694D01*
X15427913Y-11310694D01*
X15429709Y-11311731D01*
X15434420Y-11314451D01*
X15439073Y-11317137D01*
X15440700Y-11318875D01*
X15442969Y-11320186D01*
X15444993Y-11325746D01*
X15442969Y-11331306D01*
X15440668Y-11333237D01*
X15439854Y-11333707D01*
X15439777Y-11333745D01*
X15427913Y-11340595D01*
X15418595Y-11349913D01*
X15412005Y-11361326D01*
X15412005Y-11361327D01*
X15412001Y-11361334D01*
X15411972Y-11361451D01*
X15408758Y-11373445D01*
X15408595Y-11374055D01*
X15408595Y-11387234D01*
X15410664Y-11394956D01*
X15410664Y-11394956D01*
X15412005Y-11399963D01*
X15413527Y-11402599D01*
X15418595Y-11411376D01*
X15427913Y-11420694D01*
X15427913Y-11420694D01*
X15428587Y-11421083D01*
X15439326Y-11427284D01*
X15452055Y-11430695D01*
X15452056Y-11430695D01*
X15465234Y-11430695D01*
X15465234Y-11430695D01*
X15477963Y-11427284D01*
X15489376Y-11420695D01*
X15498695Y-11411376D01*
X15505284Y-11399963D01*
X15508695Y-11387234D01*
X15508695Y-11374055D01*
X15505284Y-11361326D01*
X15499274Y-11350917D01*
X15498694Y-11349913D01*
X15498694Y-11349913D01*
X15489376Y-11340595D01*
X15489375Y-11340594D01*
X15488587Y-11340139D01*
X15488587Y-11340139D01*
X15478950Y-11334575D01*
X15478704Y-11334427D01*
X15477546Y-11333707D01*
X15477486Y-11333630D01*
X15477156Y-11333449D01*
X15475984Y-11332629D01*
X15472591Y-11327782D01*
X15473106Y-11321888D01*
X15476620Y-11318052D01*
X15477429Y-11317586D01*
X15477506Y-11317548D01*
X15477963Y-11317284D01*
X15489376Y-11310695D01*
X15498695Y-11301376D01*
X15505284Y-11289963D01*
X15508695Y-11277234D01*
X15508695Y-11264055D01*
X15505284Y-11251326D01*
X15498695Y-11239913D01*
X15489376Y-11230595D01*
X15477963Y-11224005D01*
X15465234Y-11220595D01*
X15465234Y-11220595D01*
X15452055Y-11220595D01*
X15452055Y-11220595D01*
X15449654Y-11221238D01*
X15439451Y-11223972D01*
X15439334Y-11224001D01*
X15439327Y-11224005D01*
X15439326Y-11224005D01*
X15427913Y-11230595D01*
X15418595Y-11239913D01*
X15412083Y-11251191D01*
X15412083Y-11251191D01*
X15412005Y-11251326D01*
X15412005Y-11251326D01*
X15412005Y-11251326D01*
X15408595Y-11264055D01*
X14610942Y-11264055D01*
X14854929Y-11020068D01*
X15270950Y-11020068D01*
X15270950Y-11031932D01*
X15274020Y-11043388D01*
X15274020Y-11043388D01*
X15277146Y-11048802D01*
X15279951Y-11053661D01*
X15279951Y-11053661D01*
X15288339Y-11062049D01*
X15293248Y-11064884D01*
X15297894Y-11067566D01*
X15299412Y-11068679D01*
X15300539Y-11069712D01*
X15303271Y-11074960D01*
X15301990Y-11080736D01*
X15301785Y-11081059D01*
X15298814Y-11083903D01*
X15288338Y-11089951D01*
X15279951Y-11098338D01*
X15274020Y-11108612D01*
X15270950Y-11120068D01*
X15270950Y-11131932D01*
X15273598Y-11141816D01*
X15274020Y-11143389D01*
X15276711Y-11148049D01*
X15279951Y-11153661D01*
X15288339Y-11162049D01*
X15293606Y-11165090D01*
X15295282Y-11167088D01*
X15298611Y-11167980D01*
X15298611Y-11167980D01*
X15298611Y-11167980D01*
X15310069Y-11171050D01*
X15310069Y-11171050D01*
X15310069Y-11171050D01*
X15321931Y-11171050D01*
X15321989Y-11171041D01*
X15322180Y-11170983D01*
X15324353Y-11170401D01*
X15333389Y-11167980D01*
X15343661Y-11162049D01*
X15352049Y-11153661D01*
X15357980Y-11143389D01*
X15358242Y-11142410D01*
X15359511Y-11139688D01*
X15360083Y-11138872D01*
X15364930Y-11135478D01*
X15370824Y-11135994D01*
X15370825Y-11135994D01*
X15371103Y-11136124D01*
X15374534Y-11139268D01*
X15374606Y-11139212D01*
X15374922Y-11139624D01*
X15374937Y-11139638D01*
X15374951Y-11139661D01*
X15383339Y-11148049D01*
X15388606Y-11151090D01*
X15390282Y-11153088D01*
X15393611Y-11153980D01*
X15393611Y-11153980D01*
X15393611Y-11153980D01*
X15405069Y-11157050D01*
X15405069Y-11157050D01*
X15405069Y-11157050D01*
X15416931Y-11157050D01*
X15416989Y-11157041D01*
X15417180Y-11156983D01*
X15419353Y-11156401D01*
X15428389Y-11153980D01*
X15438661Y-11148049D01*
X15447049Y-11139661D01*
X15452980Y-11129389D01*
X15456050Y-11117931D01*
X15456050Y-11106069D01*
X15456050Y-11106068D01*
X15452980Y-11094611D01*
X15450289Y-11089951D01*
X15447049Y-11084339D01*
X15440905Y-11078195D01*
X15439182Y-11075734D01*
X15438656Y-11074607D01*
X15438141Y-11068713D01*
X15438326Y-11068024D01*
X15440565Y-11064146D01*
X15442661Y-11062049D01*
X15442661Y-11062049D01*
X15447049Y-11057661D01*
X15452980Y-11047389D01*
X15456050Y-11035931D01*
X15456050Y-11024069D01*
X15456050Y-11024069D01*
X15456050Y-11024069D01*
X15456050Y-11024068D01*
X15521950Y-11024068D01*
X15521950Y-11035932D01*
X15525015Y-11047371D01*
X15525020Y-11047389D01*
X15528642Y-11053661D01*
X15530951Y-11057661D01*
X15537095Y-11063805D01*
X15538818Y-11066266D01*
X15539343Y-11067393D01*
X15539859Y-11073287D01*
X15539859Y-11073288D01*
X15539674Y-11073977D01*
X15537435Y-11077854D01*
X15530951Y-11084338D01*
X15525020Y-11094612D01*
X15521950Y-11106068D01*
X15521950Y-11117932D01*
X15525020Y-11129388D01*
X15525020Y-11129389D01*
X15527748Y-11134113D01*
X15530951Y-11139661D01*
X15539339Y-11148049D01*
X15544606Y-11151090D01*
X15546282Y-11153088D01*
X15549611Y-11153980D01*
X15549611Y-11153980D01*
X15549611Y-11153980D01*
X15561069Y-11157050D01*
X15561069Y-11157050D01*
X15561069Y-11157050D01*
X15572931Y-11157050D01*
X15572989Y-11157041D01*
X15573180Y-11156983D01*
X15575353Y-11156401D01*
X15584389Y-11153980D01*
X15594661Y-11148049D01*
X15603049Y-11139661D01*
X15603049Y-11139661D01*
X15603373Y-11139239D01*
X15604674Y-11137879D01*
X15605447Y-11137231D01*
X15611007Y-11135207D01*
X15616567Y-11137230D01*
X15616567Y-11137230D01*
X15616803Y-11137428D01*
X15619598Y-11141816D01*
X15620020Y-11143388D01*
X15620020Y-11143389D01*
X15621864Y-11146582D01*
X15623214Y-11148921D01*
X15625951Y-11153661D01*
X15634339Y-11162049D01*
X15639606Y-11165090D01*
X15641282Y-11167088D01*
X15644611Y-11167980D01*
X15644611Y-11167980D01*
X15644611Y-11167980D01*
X15656069Y-11171050D01*
X15656069Y-11171050D01*
X15656069Y-11171050D01*
X15667931Y-11171050D01*
X15667989Y-11171041D01*
X15668180Y-11170983D01*
X15670353Y-11170401D01*
X15679389Y-11167980D01*
X15689661Y-11162049D01*
X15698049Y-11153661D01*
X15703980Y-11143389D01*
X15707050Y-11131931D01*
X15707050Y-11120069D01*
X15707050Y-11120068D01*
X15703980Y-11108611D01*
X15700713Y-11102952D01*
X15698049Y-11098339D01*
X15689661Y-11089951D01*
X15680106Y-11084435D01*
X15678588Y-11083321D01*
X15677461Y-11082289D01*
X15674729Y-11077040D01*
X15676009Y-11071264D01*
X15676215Y-11070941D01*
X15679185Y-11068097D01*
X15679388Y-11067980D01*
X15679389Y-11067980D01*
X15689661Y-11062049D01*
X15698049Y-11053661D01*
X15703980Y-11043389D01*
X15707050Y-11031931D01*
X15707050Y-11020069D01*
X15707050Y-11020068D01*
X15703980Y-11008611D01*
X15700358Y-11002339D01*
X15698049Y-10998339D01*
X15689661Y-10989951D01*
X15689661Y-10989951D01*
X15684394Y-10986910D01*
X15682718Y-10984912D01*
X15679389Y-10984020D01*
X15667931Y-10980950D01*
X15667931Y-10980950D01*
X15656068Y-10980950D01*
X15644611Y-10984020D01*
X15634338Y-10989951D01*
X15625951Y-10998339D01*
X15621599Y-11005877D01*
X15619668Y-11008178D01*
X15618906Y-11008817D01*
X15618905Y-11008818D01*
X15613345Y-11010842D01*
X15607785Y-11008818D01*
X15607785Y-11008817D01*
X15607022Y-11008177D01*
X15605092Y-11005877D01*
X15603049Y-11002339D01*
X15594661Y-10993951D01*
X15589394Y-10990910D01*
X15587718Y-10988912D01*
X15584389Y-10988020D01*
X15572931Y-10984950D01*
X15572931Y-10984950D01*
X15561068Y-10984950D01*
X15549611Y-10988020D01*
X15539338Y-10993951D01*
X15530951Y-11002338D01*
X15525020Y-11012612D01*
X15521950Y-11024068D01*
X15456050Y-11024068D01*
X15452980Y-11012611D01*
X15450790Y-11008818D01*
X15447049Y-11002339D01*
X15438661Y-10993951D01*
X15438661Y-10993951D01*
X15433394Y-10990910D01*
X15431718Y-10988912D01*
X15428389Y-10988020D01*
X15416931Y-10984950D01*
X15416931Y-10984950D01*
X15405068Y-10984950D01*
X15393611Y-10988020D01*
X15383338Y-10993951D01*
X15374951Y-11002339D01*
X15374916Y-11002387D01*
X15374821Y-11002564D01*
X15372908Y-11005877D01*
X15370978Y-11008178D01*
X15370461Y-11008612D01*
X15370215Y-11008818D01*
X15364655Y-11010842D01*
X15359095Y-11008818D01*
X15359094Y-11008818D01*
X15358332Y-11008178D01*
X15356401Y-11005877D01*
X15352049Y-10998339D01*
X15343661Y-10989951D01*
X15343661Y-10989951D01*
X15338394Y-10986910D01*
X15336718Y-10984912D01*
X15333389Y-10984020D01*
X15321931Y-10980950D01*
X15321931Y-10980950D01*
X15310068Y-10980950D01*
X15298611Y-10984020D01*
X15288338Y-10989951D01*
X15279951Y-10998338D01*
X15274020Y-11008612D01*
X15270950Y-11020068D01*
X14854929Y-11020068D01*
X15480586Y-10394411D01*
X16093950Y-10394411D01*
X16093950Y-10407589D01*
X16097361Y-10420319D01*
X16103950Y-10431731D01*
X16113269Y-10441050D01*
X16124681Y-10447639D01*
X16137411Y-10451050D01*
X16137411Y-10451050D01*
X16150589Y-10451050D01*
X16150589Y-10451050D01*
X16163319Y-10447639D01*
X16174731Y-10441050D01*
X16184050Y-10431731D01*
X16190639Y-10420319D01*
X16194050Y-10407589D01*
X16194050Y-10394411D01*
X16190639Y-10381681D01*
X16184050Y-10370269D01*
X16174731Y-10360950D01*
X16170086Y-10358268D01*
X16163319Y-10354361D01*
X16163319Y-10354361D01*
X16163319Y-10354361D01*
X16150589Y-10350950D01*
X16150589Y-10350950D01*
X16137411Y-10350950D01*
X16137411Y-10350950D01*
X16135617Y-10351431D01*
X16124806Y-10354327D01*
X16124690Y-10354357D01*
X16124682Y-10354360D01*
X16124681Y-10354361D01*
X16113268Y-10360950D01*
X16103950Y-10370268D01*
X16097439Y-10381546D01*
X16097439Y-10381546D01*
X16097361Y-10381681D01*
X16097361Y-10381681D01*
X16097361Y-10381681D01*
X16093950Y-10394411D01*
X15480586Y-10394411D01*
X15604423Y-10270574D01*
X16807450Y-10270574D01*
X16807450Y-10351426D01*
X16807450Y-10351428D01*
X16807450Y-10351429D01*
X16807450Y-10351431D01*
X16807735Y-10354469D01*
X16807735Y-10354469D01*
X16807735Y-10354470D01*
X16808983Y-10358036D01*
X16812220Y-10367287D01*
X16812221Y-10367288D01*
X16818472Y-10375758D01*
X16820285Y-10378215D01*
X16831212Y-10386279D01*
X16844030Y-10390765D01*
X16847073Y-10391050D01*
X16847074Y-10391050D01*
X16982926Y-10391050D01*
X16982927Y-10391050D01*
X16985970Y-10390765D01*
X16998788Y-10386279D01*
X17009715Y-10378215D01*
X17017779Y-10367288D01*
X17022265Y-10354470D01*
X17022550Y-10351427D01*
X17022550Y-10270573D01*
X17022265Y-10267530D01*
X17017779Y-10254712D01*
X17009715Y-10243785D01*
X16998788Y-10235721D01*
X16998788Y-10235721D01*
X16998788Y-10235721D01*
X16998788Y-10235721D01*
X16991092Y-10233028D01*
X16985970Y-10231235D01*
X16985970Y-10231235D01*
X16985970Y-10231235D01*
X16985018Y-10231146D01*
X16985018Y-10231146D01*
X16983137Y-10230970D01*
X16983036Y-10230958D01*
X16982928Y-10230950D01*
X16982927Y-10230950D01*
X16982927Y-10230950D01*
X16847073Y-10230950D01*
X16847073Y-10230950D01*
X16847072Y-10230950D01*
X16846963Y-10230958D01*
X16846863Y-10230970D01*
X16844031Y-10231235D01*
X16831212Y-10235721D01*
X16831212Y-10235721D01*
X16820286Y-10243784D01*
X16820284Y-10243786D01*
X16812221Y-10254712D01*
X16812221Y-10254712D01*
X16807735Y-10267531D01*
X16807450Y-10270569D01*
X16807450Y-10270571D01*
X16807450Y-10270572D01*
X16807450Y-10270574D01*
X15604423Y-10270574D01*
X15730335Y-10144662D01*
X15732796Y-10142939D01*
X15735109Y-10141860D01*
X15738764Y-10141050D01*
X16763326Y-10141050D01*
X16765595Y-10141442D01*
X16765611Y-10141376D01*
X16766023Y-10141478D01*
X16766023Y-10141478D01*
X16766023Y-10141478D01*
X16774151Y-10142674D01*
X16776212Y-10143244D01*
X16779625Y-10144662D01*
X16785441Y-10147078D01*
X16786468Y-10147587D01*
X16788759Y-10148918D01*
X16803324Y-10157380D01*
X16825689Y-10170482D01*
X16826409Y-10170884D01*
X16826494Y-10170930D01*
X16826846Y-10171108D01*
X16827258Y-10171317D01*
X16827260Y-10171318D01*
X16854853Y-10184578D01*
X16857898Y-10185602D01*
X16859650Y-10186192D01*
X16859651Y-10186192D01*
X16859652Y-10186192D01*
X16859653Y-10186192D01*
X16859668Y-10186196D01*
X16860734Y-10186558D01*
X16863165Y-10187565D01*
X16864150Y-10187974D01*
X16864150Y-10187974D01*
X16876590Y-10190448D01*
X16879615Y-10191050D01*
X16879615Y-10191050D01*
X16879616Y-10191050D01*
X16879616Y-10191050D01*
X16950384Y-10191050D01*
X16950384Y-10191050D01*
X16965850Y-10187974D01*
X16980418Y-10181939D01*
X16993529Y-10173179D01*
X17004679Y-10162029D01*
X17013439Y-10148918D01*
X17019474Y-10134350D01*
X17022550Y-10118884D01*
X17022550Y-10103116D01*
X17019474Y-10087650D01*
X17013439Y-10073082D01*
X17004679Y-10059971D01*
X16993529Y-10048821D01*
X16980418Y-10040061D01*
X16980417Y-10040060D01*
X16980417Y-10040060D01*
X16970238Y-10035844D01*
X16970234Y-10035842D01*
X16970117Y-10035794D01*
X16965850Y-10034026D01*
X16965849Y-10034026D01*
X16965010Y-10033859D01*
X16965010Y-10033859D01*
X16950385Y-10030950D01*
X16950385Y-10030950D01*
X16950384Y-10030950D01*
X16879616Y-10030950D01*
X16879615Y-10030950D01*
X16879615Y-10030950D01*
X16865016Y-10033854D01*
X16865015Y-10033854D01*
X16864151Y-10034026D01*
X16864150Y-10034026D01*
X16858252Y-10036469D01*
X16858154Y-10036507D01*
X16858113Y-10036508D01*
X16857173Y-10036821D01*
X16854888Y-10037404D01*
X16854887Y-10037404D01*
X16837618Y-10045665D01*
X16828242Y-10050150D01*
X16828240Y-10050151D01*
X16828240Y-10050151D01*
X16827485Y-10050531D01*
X16827405Y-10050573D01*
X16826663Y-10050986D01*
X16803326Y-10064619D01*
X16803148Y-10064724D01*
X16791498Y-10071684D01*
X16791055Y-10071931D01*
X16782221Y-10076530D01*
X16781150Y-10076999D01*
X16775108Y-10079167D01*
X16773286Y-10079606D01*
X16766421Y-10080486D01*
X16766265Y-10080533D01*
X16766095Y-10080584D01*
X16763605Y-10080950D01*
X16651571Y-10080950D01*
X16648311Y-10079764D01*
X16645797Y-10079090D01*
X16644971Y-10077910D01*
X16644748Y-10077674D01*
X16644782Y-10077641D01*
X16642403Y-10074243D01*
X16642919Y-10068349D01*
X16644642Y-10065888D01*
X16644916Y-10065614D01*
X16646706Y-10064240D01*
X16652231Y-10061050D01*
X16661550Y-10051731D01*
X16668139Y-10040319D01*
X16671550Y-10027589D01*
X16671550Y-10014411D01*
X16668139Y-10001681D01*
X16661550Y-9990269D01*
X16652231Y-9980950D01*
X16642565Y-9975369D01*
X16642296Y-9975214D01*
X16642296Y-9975214D01*
X16640819Y-9974361D01*
X16640819Y-9974361D01*
X16640819Y-9974361D01*
X16639171Y-9973919D01*
X16639171Y-9973919D01*
X16633217Y-9972324D01*
X16628089Y-9970950D01*
X16628089Y-9970950D01*
X16614911Y-9970950D01*
X16614911Y-9970950D01*
X16613588Y-9971304D01*
X16602945Y-9974156D01*
X16602944Y-9974156D01*
X16602181Y-9974361D01*
X16602181Y-9974361D01*
X16602181Y-9974361D01*
X16601224Y-9974913D01*
X16600791Y-9975104D01*
X16600589Y-9975117D01*
X16599990Y-9975369D01*
X16599992Y-9975374D01*
X16599809Y-9975445D01*
X16599644Y-9975515D01*
X16599596Y-9975528D01*
X16584980Y-9982946D01*
X16584571Y-9983163D01*
X16584277Y-9983320D01*
X16584275Y-9983321D01*
X16584275Y-9983321D01*
X16584202Y-9983362D01*
X16583516Y-9983762D01*
X16581420Y-9985038D01*
X16581289Y-9985116D01*
X16577270Y-9987467D01*
X16576315Y-9987949D01*
X16574457Y-9988747D01*
X16572891Y-9989250D01*
X16570218Y-9989834D01*
X16568855Y-9990020D01*
X16561712Y-9990420D01*
X16560538Y-9990705D01*
X16558496Y-9990950D01*
X15585044Y-9990950D01*
X15577526Y-9992964D01*
X15577409Y-9992994D01*
X15577402Y-9992997D01*
X15577401Y-9992998D01*
X15570549Y-9996954D01*
X15302665Y-10264838D01*
X15300204Y-10266561D01*
X15297891Y-10267640D01*
X15294236Y-10268450D01*
X14175044Y-10268450D01*
X14167526Y-10270464D01*
X14167409Y-10270494D01*
X14167402Y-10270497D01*
X14167401Y-10270498D01*
X14160549Y-10274454D01*
X13527181Y-10907822D01*
X13526601Y-10908351D01*
X13526083Y-10908782D01*
X13524558Y-10909695D01*
X13519577Y-10914203D01*
X13519438Y-10914319D01*
X13519387Y-10914338D01*
X13518766Y-10914826D01*
X13517193Y-10915896D01*
X13515410Y-10916826D01*
X13509904Y-10918927D01*
X13508889Y-10919244D01*
X13507096Y-10919685D01*
X13506803Y-10919760D01*
X13498354Y-10921972D01*
X13497520Y-10922209D01*
X13497520Y-10922209D01*
X13497518Y-10922210D01*
X13497425Y-10922238D01*
X13496563Y-10922525D01*
X13496559Y-10922526D01*
X13486776Y-10926014D01*
X13486774Y-10926015D01*
X13486772Y-10926016D01*
X13486490Y-10926120D01*
X13486275Y-10926200D01*
X13486228Y-10926218D01*
X13486141Y-10926262D01*
X13485153Y-10926625D01*
X13484682Y-10926860D01*
X13484681Y-10926861D01*
X13473268Y-10933450D01*
X13463950Y-10942768D01*
X13457361Y-10954181D01*
X13457360Y-10954182D01*
X13457356Y-10954190D01*
X13457327Y-10954306D01*
X13454354Y-10965405D01*
X13453950Y-10966911D01*
X13453950Y-10980089D01*
X13456075Y-10988020D01*
X13456075Y-10988020D01*
X13456915Y-10991154D01*
X13457361Y-10992819D01*
X13460548Y-10998339D01*
X13463950Y-11004231D01*
X13473269Y-11013550D01*
X13484681Y-11020139D01*
X13497411Y-11023550D01*
X13497411Y-11023550D01*
X13510589Y-11023550D01*
X13510589Y-11023550D01*
X13523319Y-11020139D01*
X13534731Y-11013550D01*
X13544050Y-11004231D01*
X13549985Y-10993951D01*
X13550639Y-10992819D01*
X13550639Y-10992819D01*
X13550803Y-10992207D01*
X13551476Y-10990556D01*
X13551470Y-10990554D01*
X13551556Y-10990359D01*
X13551619Y-10990204D01*
X13551641Y-10990165D01*
X13556731Y-10974585D01*
X13556960Y-10973837D01*
X13556985Y-10973750D01*
X13557191Y-10972969D01*
X13557770Y-10970586D01*
X13557804Y-10970452D01*
X13558987Y-10965934D01*
X13559320Y-10964921D01*
X13560071Y-10963040D01*
X13560821Y-10961580D01*
X13562299Y-10959275D01*
X13563130Y-10958181D01*
X13567900Y-10952846D01*
X13568528Y-10951815D01*
X13569799Y-10950198D01*
X14187835Y-10332162D01*
X14190296Y-10330439D01*
X14192609Y-10329360D01*
X14196264Y-10328550D01*
X15316656Y-10328550D01*
X15317695Y-10327950D01*
X15323099Y-10326502D01*
X15329951Y-10322546D01*
X15335546Y-10316951D01*
X15597835Y-10054662D01*
X15600296Y-10052939D01*
X15602609Y-10051860D01*
X15606264Y-10051050D01*
X16558667Y-10051050D01*
X16560774Y-10051311D01*
X16561846Y-10051580D01*
X16568383Y-10051906D01*
X16569567Y-10052047D01*
X16571440Y-10052404D01*
X16573357Y-10053006D01*
X16578736Y-10055414D01*
X16579678Y-10055908D01*
X16581244Y-10056855D01*
X16581244Y-10056855D01*
X16581250Y-10056858D01*
X16581331Y-10056907D01*
X16581345Y-10056916D01*
X16581523Y-10057021D01*
X16589057Y-10061428D01*
X16589058Y-10061429D01*
X16589059Y-10061430D01*
X16589838Y-10061863D01*
X16589929Y-10061911D01*
X16590314Y-10062104D01*
X16590717Y-10062305D01*
X16590718Y-10062306D01*
X16590719Y-10062307D01*
X16595311Y-10064485D01*
X16599467Y-10068696D01*
X16599945Y-10074594D01*
X16596519Y-10079418D01*
X16591604Y-10080950D01*
X15717544Y-10080950D01*
X15709901Y-10082998D01*
X15709901Y-10082998D01*
X15709901Y-10082998D01*
X15703049Y-10086954D01*
X14435165Y-11354838D01*
X14432704Y-11356561D01*
X14430391Y-11357639D01*
X14426736Y-11358450D01*
X13447543Y-11358450D01*
X13439901Y-11360498D01*
X13439899Y-11360499D01*
X13435571Y-11362998D01*
X13433049Y-11364454D01*
X13369681Y-11427822D01*
X13369101Y-11428351D01*
X13368583Y-11428782D01*
X13367058Y-11429695D01*
X13362077Y-11434203D01*
X13361938Y-11434319D01*
X13361887Y-11434337D01*
X13361266Y-11434825D01*
X13359693Y-11435896D01*
X13357910Y-11436826D01*
X13352404Y-11438927D01*
X13351389Y-11439244D01*
X13349596Y-11439685D01*
X13349303Y-11439760D01*
X13340854Y-11441972D01*
X13340020Y-11442209D01*
X13340020Y-11442209D01*
X13340018Y-11442210D01*
X13339925Y-11442238D01*
X13339063Y-11442525D01*
X13339059Y-11442526D01*
X13329276Y-11446014D01*
X13329274Y-11446015D01*
X13329272Y-11446016D01*
X13328990Y-11446120D01*
X13328775Y-11446200D01*
X13328728Y-11446218D01*
X13328641Y-11446262D01*
X13327653Y-11446625D01*
X13327182Y-11446860D01*
X13327181Y-11446861D01*
X13315768Y-11453450D01*
X13306450Y-11462768D01*
X13299861Y-11474181D01*
X13299860Y-11474182D01*
X13299856Y-11474190D01*
X13299827Y-11474306D01*
X13297944Y-11481334D01*
X13296450Y-11486911D01*
X13296450Y-11500089D01*
X13299861Y-11512819D01*
X13306450Y-11524231D01*
X13315769Y-11533550D01*
X13316386Y-11533906D01*
X13316628Y-11534046D01*
X13318857Y-11536702D01*
X13320697Y-11538542D01*
X13320823Y-11539974D01*
X13320898Y-11540289D01*
X13320852Y-11540300D01*
X13321215Y-11544436D01*
X13317823Y-11549284D01*
X13315100Y-11550554D01*
X13314954Y-11550594D01*
X13314726Y-11550655D01*
X13312485Y-11550950D01*
X13245901Y-11550950D01*
X13242942Y-11550428D01*
X13242615Y-11550309D01*
X13242129Y-11550132D01*
X13237597Y-11546329D01*
X13236570Y-11540501D01*
X13238972Y-11535888D01*
X13239246Y-11535614D01*
X13241037Y-11534239D01*
X13242231Y-11533550D01*
X13251550Y-11524231D01*
X13258139Y-11512819D01*
X13261550Y-11500089D01*
X13261550Y-11486911D01*
X13258139Y-11474181D01*
X13251550Y-11462769D01*
X13242231Y-11453450D01*
X13230819Y-11446861D01*
X13218089Y-11443450D01*
X13218089Y-11443450D01*
X13204911Y-11443450D01*
X13204911Y-11443450D01*
X13202509Y-11444093D01*
X13192306Y-11446827D01*
X13192190Y-11446856D01*
X13192182Y-11446860D01*
X13192181Y-11446861D01*
X13180768Y-11453450D01*
X13171450Y-11462768D01*
X13164861Y-11474181D01*
X13164860Y-11474182D01*
X13164856Y-11474190D01*
X13164827Y-11474306D01*
X13162944Y-11481334D01*
X13161450Y-11486911D01*
X13161450Y-11500089D01*
X13164861Y-11512819D01*
X13171450Y-11524231D01*
X13180769Y-11533550D01*
X13181386Y-11533906D01*
X13181628Y-11534046D01*
X13183857Y-11536702D01*
X13185697Y-11538542D01*
X13185823Y-11539974D01*
X13185898Y-11540289D01*
X13185852Y-11540300D01*
X13186215Y-11544436D01*
X13182823Y-11549284D01*
X13180100Y-11550554D01*
X13179954Y-11550594D01*
X13179726Y-11550655D01*
X13177485Y-11550950D01*
X12485901Y-11550950D01*
X12482942Y-11550428D01*
X12482615Y-11550309D01*
X12482129Y-11550132D01*
X12477597Y-11546329D01*
X12476570Y-11540501D01*
X12478972Y-11535888D01*
X12479246Y-11535614D01*
X12481037Y-11534239D01*
X12482231Y-11533550D01*
X12491550Y-11524231D01*
X12498139Y-11512819D01*
X12501550Y-11500089D01*
X12501550Y-11486911D01*
X12498139Y-11474181D01*
X12491550Y-11462769D01*
X12482231Y-11453450D01*
X12470819Y-11446861D01*
X12458089Y-11443450D01*
X12458089Y-11443450D01*
X12444911Y-11443450D01*
X12444911Y-11443450D01*
X12442509Y-11444093D01*
X12432306Y-11446827D01*
X12432190Y-11446856D01*
X12432182Y-11446860D01*
X12432181Y-11446861D01*
X12420768Y-11453450D01*
X12411450Y-11462768D01*
X12404861Y-11474181D01*
X12404860Y-11474182D01*
X12404856Y-11474190D01*
X12404827Y-11474306D01*
X12402944Y-11481334D01*
X12401450Y-11486911D01*
X12401450Y-11500089D01*
X12404861Y-11512819D01*
X12411450Y-11524231D01*
X12420769Y-11533550D01*
X12421386Y-11533906D01*
X12421628Y-11534046D01*
X12423857Y-11536702D01*
X12425697Y-11538542D01*
X12425823Y-11539974D01*
X12425898Y-11540289D01*
X12425852Y-11540300D01*
X12426215Y-11544436D01*
X12422823Y-11549284D01*
X12420100Y-11550554D01*
X12419954Y-11550594D01*
X12419726Y-11550655D01*
X12417485Y-11550950D01*
X12099225Y-11550950D01*
X12096266Y-11550428D01*
X12095098Y-11550003D01*
X12090566Y-11546200D01*
X12090209Y-11545582D01*
X12089050Y-11541257D01*
X12089050Y-11274411D01*
X12268950Y-11274411D01*
X12268950Y-11287589D01*
X12269047Y-11287952D01*
X12269047Y-11287952D01*
X12272361Y-11300318D01*
X12272361Y-11300319D01*
X12277072Y-11308478D01*
X12277072Y-11308478D01*
X12278950Y-11311731D01*
X12288269Y-11321050D01*
X12299681Y-11327639D01*
X12312411Y-11331050D01*
X12312411Y-11331050D01*
X12325589Y-11331050D01*
X12325589Y-11331050D01*
X12338319Y-11327639D01*
X12349731Y-11321050D01*
X12356805Y-11313976D01*
X12359266Y-11312253D01*
X12360393Y-11311728D01*
X12366287Y-11311212D01*
X12366976Y-11311397D01*
X12370854Y-11313636D01*
X12378269Y-11321050D01*
X12389681Y-11327639D01*
X12402411Y-11331050D01*
X12402411Y-11331050D01*
X12415589Y-11331050D01*
X12415589Y-11331050D01*
X12428319Y-11327639D01*
X12439731Y-11321050D01*
X12449050Y-11311731D01*
X12455639Y-11300319D01*
X12459050Y-11287589D01*
X12459050Y-11286911D01*
X12853950Y-11286911D01*
X12853950Y-11300089D01*
X12854047Y-11300452D01*
X12854047Y-11300452D01*
X12856792Y-11310694D01*
X12857361Y-11312819D01*
X12861902Y-11320683D01*
X12861902Y-11320684D01*
X12862113Y-11321050D01*
X12863950Y-11324231D01*
X12873269Y-11333550D01*
X12884681Y-11340139D01*
X12897411Y-11343550D01*
X12897411Y-11343550D01*
X12910589Y-11343550D01*
X12910589Y-11343550D01*
X12910589Y-11343550D01*
X12923319Y-11340139D01*
X12923372Y-11340108D01*
X12925008Y-11339445D01*
X12924993Y-11339403D01*
X12925392Y-11339259D01*
X12925393Y-11339259D01*
X12925393Y-11339259D01*
X12940373Y-11332156D01*
X12940621Y-11332037D01*
X12940642Y-11332026D01*
X12940771Y-11331962D01*
X12940776Y-11331960D01*
X12940786Y-11331955D01*
X12943487Y-11330606D01*
X12945808Y-11329447D01*
X12946695Y-11329064D01*
X12949290Y-11328113D01*
X12950719Y-11327725D01*
X12954334Y-11327068D01*
X12955494Y-11326937D01*
X12963539Y-11326579D01*
X12964832Y-11326277D01*
X12966801Y-11326050D01*
X13759156Y-11326050D01*
X13760195Y-11325450D01*
X13765599Y-11324002D01*
X13772451Y-11320046D01*
X13778046Y-11314451D01*
X14265820Y-10826677D01*
X14266398Y-10826149D01*
X14266915Y-10825718D01*
X14268441Y-10824805D01*
X14273428Y-10820292D01*
X14273561Y-10820181D01*
X14273612Y-10820162D01*
X14274232Y-10819675D01*
X14275808Y-10818603D01*
X14277589Y-10817674D01*
X14283095Y-10815573D01*
X14284110Y-10815256D01*
X14285893Y-10814817D01*
X14286021Y-10814785D01*
X14286038Y-10814781D01*
X14286202Y-10814739D01*
X14294646Y-10812528D01*
X14295513Y-10812281D01*
X14295565Y-10812264D01*
X14295609Y-10812251D01*
X14296440Y-10811974D01*
X14306227Y-10808485D01*
X14306680Y-10808317D01*
X14306731Y-10808297D01*
X14306732Y-10808297D01*
X14306893Y-10808215D01*
X14307799Y-10807868D01*
X14307795Y-10807856D01*
X14308319Y-10807639D01*
X14319731Y-10801050D01*
X14329050Y-10791731D01*
X14333277Y-10784411D01*
X14638950Y-10784411D01*
X14638950Y-10797589D01*
X14641869Y-10808485D01*
X14642361Y-10810319D01*
X14645285Y-10815383D01*
X14648950Y-10821731D01*
X14658269Y-10831050D01*
X14669681Y-10837639D01*
X14682411Y-10841050D01*
X14682411Y-10841050D01*
X14695589Y-10841050D01*
X14695589Y-10841050D01*
X14708319Y-10837639D01*
X14719731Y-10831050D01*
X14729050Y-10821731D01*
X14735639Y-10810319D01*
X14739050Y-10797589D01*
X14739050Y-10784411D01*
X14735639Y-10771681D01*
X14729050Y-10760269D01*
X14719731Y-10750950D01*
X14708319Y-10744361D01*
X14695589Y-10740950D01*
X14695589Y-10740950D01*
X14682411Y-10740950D01*
X14682411Y-10740950D01*
X14681730Y-10741132D01*
X14669806Y-10744327D01*
X14669690Y-10744357D01*
X14669682Y-10744360D01*
X14669681Y-10744361D01*
X14658268Y-10750950D01*
X14648950Y-10760268D01*
X14642439Y-10771546D01*
X14642439Y-10771546D01*
X14642361Y-10771681D01*
X14642361Y-10771681D01*
X14642361Y-10771681D01*
X14638950Y-10784411D01*
X14333277Y-10784411D01*
X14335639Y-10780319D01*
X14339050Y-10767589D01*
X14339050Y-10754411D01*
X14335639Y-10741681D01*
X14335322Y-10741132D01*
X14334631Y-10739491D01*
X14334626Y-10739493D01*
X14334550Y-10739299D01*
X14334484Y-10739141D01*
X14334471Y-10739096D01*
X14327055Y-10724482D01*
X14326683Y-10723782D01*
X14326639Y-10723703D01*
X14326237Y-10723014D01*
X14326236Y-10723012D01*
X14326235Y-10723010D01*
X14324964Y-10720924D01*
X14324886Y-10720793D01*
X14324863Y-10720754D01*
X14322533Y-10716770D01*
X14322051Y-10715816D01*
X14321252Y-10713956D01*
X14320750Y-10712391D01*
X14320166Y-10709719D01*
X14319980Y-10708355D01*
X14319973Y-10708230D01*
X14319580Y-10701212D01*
X14319294Y-10700038D01*
X14319050Y-10697996D01*
X14319050Y-10473833D01*
X14319086Y-10473050D01*
X14319147Y-10472379D01*
X14319580Y-10470654D01*
X14319914Y-10463940D01*
X14319930Y-10463764D01*
X14319953Y-10463715D01*
X14320047Y-10462932D01*
X14320403Y-10461060D01*
X14321005Y-10459144D01*
X14323414Y-10453763D01*
X14323908Y-10452822D01*
X14324862Y-10451244D01*
X14324909Y-10451165D01*
X14324913Y-10451159D01*
X14324914Y-10451158D01*
X14325019Y-10450979D01*
X14329428Y-10443443D01*
X14329863Y-10442661D01*
X14329911Y-10442571D01*
X14330305Y-10441783D01*
X14334758Y-10432395D01*
X14334949Y-10431980D01*
X14334972Y-10431929D01*
X14334972Y-10431929D01*
X14335035Y-10431735D01*
X14335432Y-10430846D01*
X14335422Y-10430842D01*
X14335639Y-10430319D01*
X14335639Y-10430319D01*
X14339050Y-10417589D01*
X14339050Y-10404411D01*
X14335639Y-10391681D01*
X14329050Y-10380269D01*
X14319731Y-10370950D01*
X14313389Y-10367288D01*
X14308319Y-10364361D01*
X14308319Y-10364361D01*
X14308319Y-10364361D01*
X14295589Y-10360950D01*
X14295589Y-10360950D01*
X14282411Y-10360950D01*
X14282411Y-10360950D01*
X14280009Y-10361593D01*
X14269806Y-10364327D01*
X14269690Y-10364357D01*
X14269682Y-10364360D01*
X14269681Y-10364361D01*
X14258268Y-10370950D01*
X14248950Y-10380268D01*
X14242361Y-10391681D01*
X14242360Y-10391682D01*
X14242356Y-10391690D01*
X14242327Y-10391806D01*
X14238950Y-10404411D01*
X14238950Y-10417589D01*
X14242361Y-10430318D01*
X14242361Y-10430319D01*
X14242362Y-10430321D01*
X14242678Y-10430868D01*
X14243369Y-10432510D01*
X14243374Y-10432508D01*
X14243447Y-10432696D01*
X14243515Y-10432857D01*
X14243528Y-10432904D01*
X14243528Y-10432904D01*
X14250946Y-10447520D01*
X14251310Y-10448205D01*
X14251352Y-10448281D01*
X14251760Y-10448981D01*
X14253037Y-10451078D01*
X14253115Y-10451209D01*
X14255467Y-10455229D01*
X14255949Y-10456184D01*
X14256748Y-10458044D01*
X14257250Y-10459609D01*
X14257636Y-10461375D01*
X14257834Y-10462281D01*
X14258020Y-10463644D01*
X14258420Y-10470788D01*
X14258420Y-10470789D01*
X14258705Y-10471962D01*
X14258950Y-10474004D01*
X14258950Y-10698166D01*
X14258914Y-10698950D01*
X14258853Y-10699621D01*
X14258420Y-10701345D01*
X14258085Y-10708058D01*
X14258069Y-10708236D01*
X14258046Y-10708286D01*
X14257952Y-10709070D01*
X14257597Y-10710939D01*
X14256994Y-10712857D01*
X14254586Y-10718236D01*
X14254092Y-10719178D01*
X14253143Y-10720747D01*
X14252983Y-10721015D01*
X14248570Y-10728560D01*
X14248131Y-10729349D01*
X14248084Y-10729439D01*
X14247694Y-10730218D01*
X14243245Y-10739598D01*
X14243049Y-10740024D01*
X14243028Y-10740071D01*
X14242957Y-10740288D01*
X14242802Y-10740722D01*
X14242571Y-10741318D01*
X14242361Y-10741681D01*
X14242361Y-10741681D01*
X14242361Y-10741681D01*
X14242206Y-10742258D01*
X14242206Y-10742259D01*
X14242197Y-10742293D01*
X14242113Y-10742499D01*
X14242037Y-10742694D01*
X14242030Y-10742703D01*
X14241524Y-10743943D01*
X14241529Y-10743946D01*
X14241450Y-10744127D01*
X14241383Y-10744291D01*
X14241359Y-10744334D01*
X14241358Y-10744334D01*
X14236268Y-10759915D01*
X14236036Y-10760675D01*
X14236013Y-10760757D01*
X14235809Y-10761527D01*
X14235230Y-10763912D01*
X14235194Y-10764055D01*
X14234013Y-10768565D01*
X14233679Y-10769580D01*
X14232929Y-10771459D01*
X14232177Y-10772921D01*
X14230701Y-10775223D01*
X14229869Y-10776319D01*
X14225100Y-10781653D01*
X14225100Y-10781654D01*
X14224472Y-10782685D01*
X14223201Y-10784302D01*
X13745165Y-11262338D01*
X13742704Y-11264061D01*
X13740777Y-11264959D01*
X13740438Y-11265118D01*
X13740391Y-11265139D01*
X13736736Y-11265950D01*
X12966915Y-11265950D01*
X12964768Y-11265679D01*
X12963757Y-11265420D01*
X12958216Y-11265118D01*
X12956976Y-11264959D01*
X12955928Y-11264748D01*
X12953905Y-11264071D01*
X12949929Y-11262168D01*
X12948719Y-11261464D01*
X12946558Y-11259959D01*
X12946409Y-11259856D01*
X12946401Y-11259851D01*
X12946263Y-11259757D01*
X12938411Y-11254483D01*
X12938409Y-11254482D01*
X12937308Y-11253792D01*
X12937183Y-11253719D01*
X12937182Y-11253719D01*
X12937182Y-11253718D01*
X12936686Y-11253450D01*
X12936030Y-11253095D01*
X12925806Y-11247972D01*
X12925192Y-11247677D01*
X12925055Y-11247614D01*
X12923915Y-11247205D01*
X12923319Y-11246861D01*
X12923319Y-11246861D01*
X12923319Y-11246861D01*
X12921230Y-11246301D01*
X12918416Y-11245547D01*
X12910589Y-11243450D01*
X12910589Y-11243450D01*
X12897411Y-11243450D01*
X12897411Y-11243450D01*
X12895009Y-11244093D01*
X12884806Y-11246827D01*
X12884690Y-11246856D01*
X12884682Y-11246860D01*
X12884681Y-11246861D01*
X12873268Y-11253450D01*
X12863950Y-11262768D01*
X12857439Y-11274046D01*
X12857439Y-11274046D01*
X12857361Y-11274181D01*
X12857361Y-11274181D01*
X12857361Y-11274181D01*
X12853950Y-11286911D01*
X12459050Y-11286911D01*
X12459050Y-11274411D01*
X12455639Y-11261681D01*
X12449050Y-11250269D01*
X12439731Y-11240950D01*
X12437935Y-11239913D01*
X12428319Y-11234361D01*
X12428319Y-11234361D01*
X12428319Y-11234361D01*
X12415589Y-11230950D01*
X12415589Y-11230950D01*
X12402411Y-11230950D01*
X12402411Y-11230950D01*
X12400009Y-11231593D01*
X12389806Y-11234327D01*
X12389690Y-11234356D01*
X12389682Y-11234360D01*
X12389681Y-11234361D01*
X12378269Y-11240950D01*
X12371195Y-11248023D01*
X12368734Y-11249747D01*
X12367607Y-11250272D01*
X12361713Y-11250788D01*
X12361024Y-11250603D01*
X12357146Y-11248364D01*
X12349731Y-11240950D01*
X12339796Y-11235214D01*
X12339796Y-11235214D01*
X12338319Y-11234361D01*
X12338319Y-11234361D01*
X12338319Y-11234361D01*
X12336671Y-11233919D01*
X12336671Y-11233919D01*
X12330717Y-11232324D01*
X12325589Y-11230950D01*
X12325589Y-11230950D01*
X12312411Y-11230950D01*
X12312411Y-11230950D01*
X12310009Y-11231593D01*
X12299806Y-11234327D01*
X12299690Y-11234356D01*
X12299682Y-11234360D01*
X12299681Y-11234361D01*
X12288268Y-11240950D01*
X12278950Y-11250268D01*
X12272439Y-11261546D01*
X12272439Y-11261546D01*
X12272361Y-11261681D01*
X12272361Y-11261681D01*
X12272361Y-11261681D01*
X12268950Y-11274411D01*
X12089050Y-11274411D01*
X12089050Y-8871911D01*
X12118950Y-8871911D01*
X12118950Y-8885089D01*
X12121345Y-8894026D01*
X12121345Y-8894026D01*
X12122361Y-8897819D01*
X12122678Y-8898368D01*
X12123369Y-8900010D01*
X12123374Y-8900008D01*
X12123447Y-8900194D01*
X12123515Y-8900357D01*
X12123528Y-8900404D01*
X12123528Y-8900404D01*
X12130946Y-8915020D01*
X12131310Y-8915705D01*
X12131352Y-8915781D01*
X12131760Y-8916481D01*
X12133037Y-8918578D01*
X12133115Y-8918709D01*
X12135467Y-8922729D01*
X12135949Y-8923684D01*
X12136748Y-8925544D01*
X12137250Y-8927109D01*
X12137350Y-8927567D01*
X12137834Y-8929781D01*
X12138020Y-8931144D01*
X12138420Y-8938288D01*
X12138420Y-8938289D01*
X12138705Y-8939462D01*
X12138950Y-8941504D01*
X12138950Y-10017457D01*
X12140998Y-10025099D01*
X12140998Y-10025099D01*
X12140998Y-10025099D01*
X12141676Y-10026273D01*
X12141676Y-10026273D01*
X12141697Y-10026309D01*
X12144954Y-10031951D01*
X13058322Y-10945319D01*
X13058851Y-10945898D01*
X13059282Y-10946416D01*
X13060195Y-10947941D01*
X13064706Y-10952926D01*
X13064820Y-10953062D01*
X13064838Y-10953114D01*
X13065326Y-10953734D01*
X13065715Y-10954306D01*
X13066396Y-10955307D01*
X13067326Y-10957088D01*
X13068283Y-10959597D01*
X13069426Y-10962594D01*
X13069743Y-10963609D01*
X13070186Y-10965405D01*
X13070261Y-10965703D01*
X13072471Y-10974142D01*
X13072472Y-10974145D01*
X13072472Y-10974146D01*
X13072712Y-10974989D01*
X13072741Y-10975085D01*
X13073025Y-10975939D01*
X13074505Y-10980089D01*
X13076517Y-10985731D01*
X13076685Y-10986185D01*
X13076703Y-10986234D01*
X13076786Y-10986396D01*
X13077132Y-10987300D01*
X13077144Y-10987295D01*
X13077361Y-10987819D01*
X13080901Y-10993951D01*
X13083950Y-10999231D01*
X13093269Y-11008550D01*
X13104681Y-11015139D01*
X13117411Y-11018550D01*
X13117411Y-11018550D01*
X13130589Y-11018550D01*
X13130589Y-11018550D01*
X13143319Y-11015139D01*
X13154731Y-11008550D01*
X13164050Y-10999231D01*
X13170639Y-10987819D01*
X13174050Y-10975089D01*
X13174050Y-10961911D01*
X13170639Y-10949181D01*
X13164050Y-10937769D01*
X13154731Y-10928450D01*
X13149025Y-10925155D01*
X13143318Y-10921861D01*
X13142706Y-10921697D01*
X13141057Y-10921025D01*
X13141055Y-10921030D01*
X13140867Y-10920947D01*
X13140707Y-10920882D01*
X13140666Y-10920859D01*
X13140665Y-10920859D01*
X13140665Y-10920859D01*
X13125084Y-10915768D01*
X13125084Y-10915768D01*
X13125081Y-10915767D01*
X13124329Y-10915537D01*
X13124242Y-10915513D01*
X13123472Y-10915309D01*
X13121089Y-10914730D01*
X13120942Y-10914693D01*
X13116434Y-10913513D01*
X13115420Y-10913179D01*
X13113541Y-10912429D01*
X13112079Y-10911678D01*
X13109777Y-10910202D01*
X13108681Y-10909369D01*
X13103346Y-10904600D01*
X13103346Y-10904600D01*
X13103346Y-10904600D01*
X13102315Y-10903972D01*
X13100698Y-10902701D01*
X12674401Y-10476404D01*
X12672935Y-10473260D01*
X12671633Y-10471006D01*
X12671883Y-10469588D01*
X12671892Y-10469265D01*
X12671940Y-10469267D01*
X12672661Y-10465179D01*
X12677193Y-10461375D01*
X12680151Y-10460854D01*
X12680539Y-10460854D01*
X12681842Y-10461025D01*
X12681849Y-10460976D01*
X12682411Y-10461050D01*
X12695589Y-10461050D01*
X12695589Y-10461050D01*
X12708319Y-10457639D01*
X12719731Y-10451050D01*
X12729050Y-10441731D01*
X12735639Y-10430319D01*
X12739050Y-10417589D01*
X12739050Y-10404411D01*
X12735639Y-10391681D01*
X12729050Y-10380269D01*
X12719731Y-10370950D01*
X12713389Y-10367288D01*
X12708318Y-10364361D01*
X12707706Y-10364197D01*
X12706057Y-10363525D01*
X12706055Y-10363530D01*
X12705867Y-10363447D01*
X12705707Y-10363382D01*
X12705666Y-10363359D01*
X12705665Y-10363359D01*
X12705665Y-10363359D01*
X12690084Y-10358268D01*
X12690084Y-10358268D01*
X12690081Y-10358267D01*
X12689329Y-10358037D01*
X12689242Y-10358013D01*
X12688472Y-10357809D01*
X12686089Y-10357230D01*
X12685942Y-10357193D01*
X12681434Y-10356013D01*
X12680420Y-10355679D01*
X12678541Y-10354929D01*
X12677079Y-10354178D01*
X12674777Y-10352702D01*
X12673681Y-10351869D01*
X12672653Y-10350950D01*
X12668346Y-10347100D01*
X12668346Y-10347100D01*
X12668346Y-10347100D01*
X12667315Y-10346472D01*
X12665698Y-10345201D01*
X12282662Y-9962165D01*
X12280939Y-9959704D01*
X12279860Y-9957391D01*
X12279050Y-9953736D01*
X12279050Y-9896000D01*
X16808916Y-9896000D01*
X16868961Y-9896000D01*
X16874522Y-9898024D01*
X16877480Y-9903148D01*
X16877611Y-9904650D01*
X16877611Y-9905647D01*
X16877500Y-9906063D01*
X16877500Y-9915937D01*
X16877611Y-9916353D01*
X16877611Y-9917350D01*
X16876782Y-9919629D01*
X16876257Y-9921998D01*
X16875789Y-9922356D01*
X16875588Y-9922910D01*
X16873487Y-9924123D01*
X16871563Y-9925600D01*
X16870699Y-9925733D01*
X16870464Y-9925869D01*
X16870161Y-9925815D01*
X16868961Y-9926000D01*
X16808916Y-9926000D01*
X16810574Y-9934335D01*
X16810575Y-9934337D01*
X16816605Y-9948894D01*
X16817078Y-9949602D01*
X16817078Y-9949602D01*
X16825360Y-9961997D01*
X16836503Y-9973140D01*
X16848897Y-9981422D01*
X16848898Y-9981422D01*
X16849372Y-9981739D01*
X16849606Y-9981895D01*
X16849606Y-9981895D01*
X16864164Y-9987925D01*
X16864165Y-9987926D01*
X16879620Y-9991000D01*
X16879621Y-9991000D01*
X16900000Y-9991000D01*
X16900000Y-9991000D01*
X16900000Y-9991000D01*
X16900000Y-9957039D01*
X16902024Y-9951479D01*
X16907148Y-9948520D01*
X16908650Y-9948389D01*
X16909647Y-9948389D01*
X16910063Y-9948500D01*
X16919937Y-9948500D01*
X16920353Y-9948389D01*
X16921350Y-9948389D01*
X16923629Y-9949218D01*
X16925998Y-9949743D01*
X16926356Y-9950211D01*
X16926910Y-9950412D01*
X16928123Y-9952513D01*
X16929600Y-9954437D01*
X16929733Y-9955301D01*
X16929869Y-9955537D01*
X16929815Y-9955839D01*
X16930000Y-9957039D01*
X16930000Y-9991000D01*
X16930000Y-9991000D01*
X16950379Y-9991000D01*
X16950379Y-9991000D01*
X16950380Y-9991000D01*
X16965835Y-9987926D01*
X16965836Y-9987925D01*
X16980394Y-9981895D01*
X16980394Y-9981895D01*
X16993497Y-9973140D01*
X17004640Y-9961997D01*
X17013395Y-9948894D01*
X17013395Y-9948894D01*
X17019425Y-9934336D01*
X17019426Y-9934335D01*
X17021084Y-9926000D01*
X16961039Y-9926000D01*
X16955479Y-9923976D01*
X16952520Y-9918852D01*
X16952389Y-9917350D01*
X16952389Y-9916353D01*
X16952500Y-9915937D01*
X16952500Y-9906063D01*
X16952389Y-9905647D01*
X16952389Y-9904650D01*
X16953218Y-9902371D01*
X16953743Y-9900003D01*
X16954211Y-9899644D01*
X16954412Y-9899090D01*
X16956513Y-9897877D01*
X16958437Y-9896400D01*
X16959301Y-9896267D01*
X16959537Y-9896131D01*
X16959839Y-9896185D01*
X16961039Y-9896000D01*
X17021084Y-9896000D01*
X17019426Y-9887665D01*
X17019425Y-9887664D01*
X17013395Y-9873106D01*
X17013395Y-9873106D01*
X17013178Y-9872781D01*
X17012922Y-9872398D01*
X17012922Y-9872397D01*
X17009691Y-9867562D01*
X17004640Y-9860003D01*
X16993497Y-9848860D01*
X16981103Y-9840578D01*
X16981102Y-9840578D01*
X16980394Y-9840105D01*
X16980394Y-9840105D01*
X16980394Y-9840105D01*
X16965837Y-9834075D01*
X16965835Y-9834074D01*
X16965835Y-9834074D01*
X16950380Y-9831000D01*
X16950380Y-9831000D01*
X16930000Y-9831000D01*
X16930000Y-9831000D01*
X16930000Y-9831000D01*
X16930000Y-9864961D01*
X16927976Y-9870521D01*
X16922852Y-9873480D01*
X16921350Y-9873611D01*
X16920352Y-9873611D01*
X16919937Y-9873500D01*
X16910063Y-9873500D01*
X16909648Y-9873611D01*
X16908650Y-9873611D01*
X16906370Y-9872781D01*
X16904002Y-9872256D01*
X16903643Y-9871789D01*
X16903090Y-9871588D01*
X16901877Y-9869487D01*
X16900400Y-9867562D01*
X16900267Y-9866699D01*
X16900131Y-9866463D01*
X16900185Y-9866161D01*
X16900000Y-9864961D01*
X16900000Y-9831000D01*
X16900000Y-9831000D01*
X16900000Y-9831000D01*
X16900000Y-9831000D01*
X16879620Y-9831000D01*
X16864165Y-9834074D01*
X16864165Y-9834074D01*
X16864163Y-9834075D01*
X16849606Y-9840105D01*
X16848897Y-9840578D01*
X16848890Y-9840583D01*
X16836503Y-9848860D01*
X16825360Y-9860003D01*
X16817078Y-9872397D01*
X16816605Y-9873106D01*
X16810575Y-9887663D01*
X16810574Y-9887665D01*
X16810574Y-9887665D01*
X16808916Y-9896000D01*
X12279050Y-9896000D01*
X12279050Y-9628555D01*
X12279571Y-9625597D01*
X12280445Y-9623198D01*
X12282456Y-9620041D01*
X12294310Y-9608186D01*
X12296770Y-9606464D01*
X12297673Y-9606043D01*
X12303567Y-9605527D01*
X12308414Y-9608921D01*
X12308414Y-9608921D01*
X12308985Y-9609737D01*
X12310255Y-9612459D01*
X12312361Y-9620319D01*
X12316992Y-9628340D01*
X12316992Y-9628340D01*
X12318950Y-9631731D01*
X12328269Y-9641050D01*
X12339681Y-9647639D01*
X12352411Y-9651050D01*
X12352411Y-9651050D01*
X12365589Y-9651050D01*
X12365589Y-9651050D01*
X12378319Y-9647639D01*
X12389731Y-9641050D01*
X12399050Y-9631731D01*
X12405639Y-9620319D01*
X12405803Y-9619707D01*
X12406476Y-9618056D01*
X12406470Y-9618054D01*
X12406556Y-9617859D01*
X12406619Y-9617704D01*
X12406641Y-9617665D01*
X12411731Y-9602085D01*
X12411960Y-9601337D01*
X12411985Y-9601250D01*
X12412191Y-9600469D01*
X12412770Y-9598086D01*
X12412804Y-9597952D01*
X12413987Y-9593434D01*
X12414320Y-9592421D01*
X12415071Y-9590540D01*
X12415821Y-9589080D01*
X12417299Y-9586775D01*
X12418130Y-9585681D01*
X12422900Y-9580346D01*
X12423528Y-9579315D01*
X12424799Y-9577698D01*
X12531497Y-9471000D01*
X12668046Y-9334451D01*
X12672002Y-9327599D01*
X12674050Y-9319956D01*
X12674050Y-9312044D01*
X12674050Y-9164411D01*
X12696450Y-9164411D01*
X12696450Y-9177589D01*
X12696666Y-9178395D01*
X12698939Y-9186878D01*
X12699861Y-9190319D01*
X12702338Y-9194609D01*
X12704584Y-9198500D01*
X12706450Y-9201731D01*
X12715769Y-9211050D01*
X12727181Y-9217639D01*
X12739911Y-9221050D01*
X12739911Y-9221050D01*
X12753089Y-9221050D01*
X12753089Y-9221050D01*
X12765819Y-9217639D01*
X12777231Y-9211050D01*
X12786550Y-9201731D01*
X12793139Y-9190319D01*
X12796550Y-9177589D01*
X12796550Y-9164411D01*
X12793139Y-9151681D01*
X12786550Y-9140269D01*
X12777231Y-9130950D01*
X12768505Y-9125912D01*
X12765819Y-9124361D01*
X12765819Y-9124361D01*
X12765819Y-9124361D01*
X12753089Y-9120950D01*
X12753089Y-9120950D01*
X12739911Y-9120950D01*
X12739911Y-9120950D01*
X12737509Y-9121593D01*
X12727306Y-9124327D01*
X12727190Y-9124357D01*
X12727182Y-9124360D01*
X12727181Y-9124361D01*
X12715768Y-9130950D01*
X12706450Y-9140268D01*
X12699861Y-9151681D01*
X12699860Y-9151682D01*
X12699856Y-9151690D01*
X12699827Y-9151806D01*
X12697221Y-9161532D01*
X12696450Y-9164411D01*
X12674050Y-9164411D01*
X12674050Y-9011524D01*
X12977450Y-9011524D01*
X12977450Y-9011525D01*
X12977450Y-9180475D01*
X12978613Y-9186323D01*
X12978613Y-9186323D01*
X12983045Y-9192955D01*
X12983045Y-9192955D01*
X12985448Y-9194561D01*
X12989677Y-9197387D01*
X12995525Y-9198550D01*
X12995526Y-9198550D01*
X13164474Y-9198550D01*
X13164475Y-9198550D01*
X13169617Y-9197527D01*
X13172620Y-9197462D01*
X13173849Y-9197651D01*
X13179036Y-9200496D01*
X13179300Y-9200797D01*
X13181297Y-9204901D01*
X13181301Y-9204918D01*
X13181450Y-9206518D01*
X13181450Y-9553166D01*
X13181414Y-9553950D01*
X13181353Y-9554621D01*
X13180920Y-9556345D01*
X13180585Y-9563058D01*
X13180569Y-9563236D01*
X13180546Y-9563286D01*
X13180452Y-9564070D01*
X13180097Y-9565939D01*
X13179494Y-9567857D01*
X13177086Y-9573236D01*
X13176592Y-9574178D01*
X13175643Y-9575747D01*
X13175483Y-9576015D01*
X13171070Y-9583560D01*
X13170631Y-9584349D01*
X13170584Y-9584439D01*
X13170194Y-9585218D01*
X13165745Y-9594598D01*
X13165549Y-9595024D01*
X13165528Y-9595071D01*
X13165457Y-9595288D01*
X13165301Y-9595723D01*
X13165070Y-9596318D01*
X13164861Y-9596681D01*
X13164861Y-9596681D01*
X13164861Y-9596681D01*
X13164707Y-9597256D01*
X13164706Y-9597258D01*
X13162352Y-9606043D01*
X13161450Y-9609411D01*
X13161450Y-9622589D01*
X13164861Y-9635319D01*
X13171450Y-9646731D01*
X13180769Y-9656050D01*
X13192181Y-9662639D01*
X13204911Y-9666050D01*
X13204911Y-9666050D01*
X13218089Y-9666050D01*
X13218089Y-9666050D01*
X13230819Y-9662639D01*
X13242231Y-9656050D01*
X13251550Y-9646731D01*
X13258139Y-9635319D01*
X13261550Y-9622589D01*
X13261550Y-9609411D01*
X13258139Y-9596681D01*
X13257822Y-9596132D01*
X13257131Y-9594491D01*
X13257126Y-9594493D01*
X13257050Y-9594299D01*
X13256984Y-9594141D01*
X13256971Y-9594096D01*
X13249555Y-9579482D01*
X13249183Y-9578782D01*
X13249139Y-9578703D01*
X13248737Y-9578014D01*
X13248736Y-9578012D01*
X13248735Y-9578010D01*
X13247464Y-9575924D01*
X13247386Y-9575793D01*
X13247363Y-9575754D01*
X13245033Y-9571770D01*
X13244551Y-9570816D01*
X13243752Y-9568956D01*
X13243250Y-9567391D01*
X13242666Y-9564719D01*
X13242480Y-9563355D01*
X13242473Y-9563230D01*
X13242080Y-9556212D01*
X13241794Y-9555038D01*
X13241550Y-9552996D01*
X13241550Y-9496620D01*
X13582486Y-9496620D01*
X13582486Y-9509798D01*
X13585897Y-9522528D01*
X13592486Y-9533940D01*
X13601805Y-9543259D01*
X13613218Y-9549848D01*
X13625947Y-9553259D01*
X13625947Y-9553259D01*
X13639125Y-9553259D01*
X13639126Y-9553259D01*
X13651855Y-9549848D01*
X13663268Y-9543259D01*
X13672586Y-9533940D01*
X13679176Y-9522528D01*
X13681905Y-9512342D01*
X15169000Y-9512342D01*
X15169000Y-9529658D01*
X15171709Y-9546759D01*
X15171709Y-9546760D01*
X15171709Y-9546760D01*
X15176286Y-9560845D01*
X15177059Y-9563225D01*
X15177059Y-9563226D01*
X15184919Y-9578652D01*
X15184920Y-9578653D01*
X15184920Y-9578653D01*
X15184921Y-9578655D01*
X15191322Y-9587465D01*
X15191322Y-9587465D01*
X15226921Y-9551865D01*
X15232284Y-9549364D01*
X15237999Y-9550896D01*
X15239154Y-9551865D01*
X15248135Y-9560845D01*
X15250635Y-9566208D01*
X15249104Y-9571923D01*
X15248135Y-9573078D01*
X15228793Y-9592420D01*
X15212535Y-9608678D01*
X15221347Y-9615080D01*
X15221347Y-9615080D01*
X15236774Y-9622941D01*
X15236775Y-9622941D01*
X15253240Y-9628291D01*
X15253241Y-9628291D01*
X15270342Y-9631000D01*
X15270343Y-9631000D01*
X15287657Y-9631000D01*
X15287657Y-9631000D01*
X15287658Y-9631000D01*
X15304758Y-9628291D01*
X15304760Y-9628291D01*
X15321082Y-9622987D01*
X15321223Y-9622942D01*
X15321223Y-9622942D01*
X15321225Y-9622941D01*
X15321226Y-9622941D01*
X15336651Y-9615081D01*
X15336653Y-9615080D01*
X15345465Y-9608678D01*
X15309865Y-9573078D01*
X15307364Y-9567716D01*
X15308896Y-9562001D01*
X15309864Y-9560846D01*
X15318845Y-9551865D01*
X15324208Y-9549365D01*
X15329923Y-9550896D01*
X15331078Y-9551865D01*
X15366678Y-9587465D01*
X15372986Y-9578782D01*
X15373079Y-9578654D01*
X15373079Y-9578654D01*
X15373080Y-9578653D01*
X15373081Y-9578652D01*
X15380941Y-9563226D01*
X15380941Y-9563225D01*
X15386291Y-9546760D01*
X15386291Y-9546758D01*
X15389000Y-9529658D01*
X15389000Y-9529657D01*
X15389000Y-9512343D01*
X15389000Y-9512342D01*
X15388999Y-9512338D01*
X15883950Y-9512338D01*
X15883950Y-9529662D01*
X15886660Y-9546770D01*
X15886660Y-9546771D01*
X15892012Y-9563243D01*
X15892012Y-9563244D01*
X15892012Y-9563244D01*
X15892013Y-9563245D01*
X15892013Y-9563246D01*
X15892014Y-9563247D01*
X15899857Y-9578640D01*
X15899857Y-9578640D01*
X15899863Y-9578653D01*
X15899877Y-9578679D01*
X15910059Y-9592693D01*
X15922307Y-9604941D01*
X15936321Y-9615123D01*
X15951755Y-9622987D01*
X15953859Y-9623671D01*
X15955962Y-9624354D01*
X15955962Y-9624354D01*
X15955962Y-9624354D01*
X15968228Y-9628340D01*
X15968229Y-9628340D01*
X15968230Y-9628340D01*
X15982403Y-9630585D01*
X15985338Y-9631050D01*
X15985338Y-9631050D01*
X15985339Y-9631050D01*
X15985339Y-9631050D01*
X16002661Y-9631050D01*
X16002661Y-9631050D01*
X16019770Y-9628340D01*
X16019771Y-9628340D01*
X16019771Y-9628340D01*
X16019773Y-9628339D01*
X16019824Y-9628326D01*
X16019950Y-9628282D01*
X16027476Y-9625836D01*
X16036244Y-9622987D01*
X16051679Y-9615123D01*
X16065693Y-9604941D01*
X16077941Y-9592693D01*
X16088123Y-9578679D01*
X16095987Y-9563245D01*
X16099677Y-9551890D01*
X16101340Y-9546772D01*
X16101340Y-9546771D01*
X16101340Y-9546770D01*
X16104050Y-9529661D01*
X16104050Y-9512339D01*
X16104050Y-9512338D01*
X16468950Y-9512338D01*
X16468950Y-9529662D01*
X16471660Y-9546770D01*
X16471660Y-9546771D01*
X16477012Y-9563243D01*
X16477012Y-9563244D01*
X16477012Y-9563244D01*
X16477013Y-9563245D01*
X16477013Y-9563246D01*
X16477014Y-9563247D01*
X16484857Y-9578640D01*
X16484857Y-9578640D01*
X16484863Y-9578653D01*
X16484877Y-9578679D01*
X16495059Y-9592693D01*
X16507307Y-9604941D01*
X16521321Y-9615123D01*
X16536755Y-9622987D01*
X16538859Y-9623671D01*
X16540962Y-9624354D01*
X16540962Y-9624354D01*
X16540962Y-9624354D01*
X16553228Y-9628340D01*
X16553229Y-9628340D01*
X16553230Y-9628340D01*
X16567403Y-9630585D01*
X16570338Y-9631050D01*
X16570338Y-9631050D01*
X16570339Y-9631050D01*
X16570339Y-9631050D01*
X16587661Y-9631050D01*
X16587661Y-9631050D01*
X16604770Y-9628340D01*
X16604771Y-9628340D01*
X16604771Y-9628340D01*
X16604773Y-9628339D01*
X16604824Y-9628326D01*
X16604950Y-9628282D01*
X16612476Y-9625836D01*
X16621244Y-9622987D01*
X16636679Y-9615123D01*
X16650693Y-9604941D01*
X16662941Y-9592693D01*
X16673123Y-9578679D01*
X16680987Y-9563245D01*
X16684677Y-9551890D01*
X16686340Y-9546772D01*
X16686340Y-9546771D01*
X16686340Y-9546770D01*
X16689050Y-9529661D01*
X16689050Y-9512339D01*
X16686340Y-9495230D01*
X16686340Y-9495228D01*
X16686335Y-9495214D01*
X16681713Y-9480990D01*
X16680987Y-9478756D01*
X16680987Y-9478756D01*
X16680987Y-9478756D01*
X16673123Y-9463321D01*
X16662941Y-9449307D01*
X16650693Y-9437059D01*
X16637245Y-9427288D01*
X16637229Y-9427277D01*
X16637229Y-9427277D01*
X16636678Y-9426876D01*
X16621246Y-9419013D01*
X16621245Y-9419013D01*
X16621245Y-9419013D01*
X16621244Y-9419013D01*
X16621244Y-9419012D01*
X16621243Y-9419012D01*
X16604771Y-9413660D01*
X16604771Y-9413660D01*
X16604770Y-9413660D01*
X16587662Y-9410950D01*
X16587662Y-9410950D01*
X16587661Y-9410950D01*
X16570339Y-9410950D01*
X16570338Y-9410950D01*
X16570338Y-9410950D01*
X16553230Y-9413660D01*
X16553228Y-9413660D01*
X16536757Y-9419012D01*
X16536756Y-9419013D01*
X16536754Y-9419013D01*
X16521321Y-9426876D01*
X16520770Y-9427277D01*
X16520767Y-9427279D01*
X16507307Y-9437058D01*
X16507307Y-9437059D01*
X16495059Y-9449307D01*
X16495058Y-9449307D01*
X16485279Y-9462767D01*
X16485277Y-9462771D01*
X16484876Y-9463321D01*
X16477013Y-9478754D01*
X16477013Y-9478755D01*
X16477012Y-9478756D01*
X16477012Y-9478757D01*
X16471660Y-9495228D01*
X16471660Y-9495230D01*
X16468950Y-9512338D01*
X16104050Y-9512338D01*
X16103705Y-9510161D01*
X16101340Y-9495230D01*
X16101340Y-9495228D01*
X16101335Y-9495214D01*
X16096713Y-9480990D01*
X16095987Y-9478756D01*
X16095987Y-9478756D01*
X16095987Y-9478756D01*
X16088123Y-9463321D01*
X16077941Y-9449307D01*
X16065693Y-9437059D01*
X16052245Y-9427288D01*
X16052229Y-9427277D01*
X16052229Y-9427277D01*
X16051678Y-9426876D01*
X16036246Y-9419013D01*
X16036245Y-9419013D01*
X16036245Y-9419013D01*
X16036244Y-9419013D01*
X16036244Y-9419012D01*
X16036243Y-9419012D01*
X16019771Y-9413660D01*
X16019771Y-9413660D01*
X16019770Y-9413660D01*
X16002662Y-9410950D01*
X16002662Y-9410950D01*
X16002661Y-9410950D01*
X15985339Y-9410950D01*
X15985338Y-9410950D01*
X15985338Y-9410950D01*
X15968230Y-9413660D01*
X15968228Y-9413660D01*
X15951757Y-9419012D01*
X15951756Y-9419013D01*
X15951754Y-9419013D01*
X15936321Y-9426876D01*
X15935770Y-9427277D01*
X15935767Y-9427279D01*
X15922307Y-9437058D01*
X15922307Y-9437059D01*
X15910059Y-9449307D01*
X15910058Y-9449307D01*
X15900279Y-9462767D01*
X15900277Y-9462771D01*
X15899876Y-9463321D01*
X15892013Y-9478754D01*
X15892013Y-9478755D01*
X15892012Y-9478756D01*
X15892012Y-9478757D01*
X15886660Y-9495228D01*
X15886660Y-9495230D01*
X15883950Y-9512338D01*
X15388999Y-9512338D01*
X15386291Y-9495242D01*
X15386291Y-9495240D01*
X15380941Y-9478775D01*
X15380941Y-9478774D01*
X15373080Y-9463348D01*
X15373080Y-9463347D01*
X15366678Y-9454535D01*
X15331078Y-9490135D01*
X15325716Y-9492635D01*
X15320000Y-9491104D01*
X15318845Y-9490135D01*
X15309865Y-9481154D01*
X15307364Y-9475792D01*
X15308896Y-9470077D01*
X15309864Y-9468922D01*
X15345465Y-9433322D01*
X15345464Y-9433322D01*
X15336655Y-9426921D01*
X15336652Y-9426920D01*
X15336652Y-9426920D01*
X15321226Y-9419059D01*
X15321225Y-9419059D01*
X15321221Y-9419058D01*
X15321216Y-9419056D01*
X15304760Y-9413709D01*
X15304760Y-9413709D01*
X15304759Y-9413709D01*
X15287658Y-9411000D01*
X15287658Y-9411000D01*
X15270342Y-9411000D01*
X15270342Y-9411000D01*
X15253241Y-9413709D01*
X15253240Y-9413709D01*
X15253240Y-9413709D01*
X15236784Y-9419056D01*
X15236774Y-9419059D01*
X15221347Y-9426920D01*
X15221346Y-9426920D01*
X15212535Y-9433322D01*
X15212535Y-9433322D01*
X15248135Y-9468922D01*
X15250635Y-9474284D01*
X15249104Y-9479999D01*
X15248135Y-9481155D01*
X15239154Y-9490135D01*
X15233792Y-9492636D01*
X15228077Y-9491104D01*
X15226922Y-9490135D01*
X15191322Y-9454535D01*
X15191322Y-9454535D01*
X15184920Y-9463346D01*
X15184920Y-9463347D01*
X15177059Y-9478774D01*
X15177056Y-9478784D01*
X15171709Y-9495240D01*
X15171709Y-9495240D01*
X15171709Y-9495241D01*
X15169000Y-9512342D01*
X13681905Y-9512342D01*
X13682586Y-9509798D01*
X13682586Y-9496620D01*
X13679176Y-9483890D01*
X13672586Y-9472478D01*
X13663268Y-9463159D01*
X13651855Y-9456570D01*
X13639126Y-9453159D01*
X13639125Y-9453159D01*
X13625947Y-9453159D01*
X13625947Y-9453159D01*
X13623546Y-9453802D01*
X13613342Y-9456536D01*
X13613226Y-9456566D01*
X13613218Y-9456569D01*
X13613217Y-9456570D01*
X13601805Y-9463159D01*
X13592486Y-9472477D01*
X13585975Y-9483755D01*
X13585975Y-9483755D01*
X13585897Y-9483890D01*
X13585897Y-9483890D01*
X13585897Y-9483890D01*
X13582486Y-9496620D01*
X13241550Y-9496620D01*
X13241550Y-9311911D01*
X14768950Y-9311911D01*
X14768950Y-9325089D01*
X14772361Y-9337819D01*
X14778950Y-9349231D01*
X14788269Y-9358550D01*
X14799681Y-9365139D01*
X14812411Y-9368550D01*
X14812411Y-9368550D01*
X14825589Y-9368550D01*
X14825589Y-9368550D01*
X14838319Y-9365139D01*
X14849731Y-9358550D01*
X14859050Y-9349231D01*
X14865639Y-9337819D01*
X14869050Y-9325089D01*
X14869050Y-9311911D01*
X14865639Y-9299181D01*
X14859050Y-9287769D01*
X14849731Y-9278450D01*
X14842735Y-9274411D01*
X15233950Y-9274411D01*
X15233950Y-9287589D01*
X15234047Y-9287952D01*
X15234047Y-9287952D01*
X15237056Y-9299181D01*
X15237361Y-9300319D01*
X15237361Y-9300319D01*
X15240691Y-9306086D01*
X15243950Y-9311731D01*
X15253269Y-9321050D01*
X15264681Y-9327639D01*
X15277411Y-9331050D01*
X15277411Y-9331050D01*
X15290589Y-9331050D01*
X15290589Y-9331050D01*
X15292365Y-9330574D01*
X16806450Y-9330574D01*
X16806450Y-9411426D01*
X16806450Y-9411428D01*
X16806450Y-9411429D01*
X16806450Y-9411431D01*
X16806735Y-9414469D01*
X16806735Y-9414469D01*
X16806735Y-9414470D01*
X16811092Y-9426920D01*
X16811220Y-9427287D01*
X16811221Y-9427288D01*
X16815674Y-9433322D01*
X16819285Y-9438215D01*
X16830212Y-9446279D01*
X16843030Y-9450765D01*
X16846073Y-9451050D01*
X16846074Y-9451050D01*
X16981926Y-9451050D01*
X16981927Y-9451050D01*
X16984970Y-9450765D01*
X16997788Y-9446279D01*
X17008715Y-9438215D01*
X17016779Y-9427288D01*
X17021265Y-9414470D01*
X17021550Y-9411427D01*
X17021550Y-9330573D01*
X17021265Y-9327530D01*
X17016779Y-9314712D01*
X17008715Y-9303785D01*
X16997788Y-9295721D01*
X16997788Y-9295721D01*
X16997788Y-9295721D01*
X16997788Y-9295721D01*
X16990092Y-9293028D01*
X16984970Y-9291235D01*
X16984970Y-9291235D01*
X16984970Y-9291235D01*
X16984018Y-9291146D01*
X16984018Y-9291146D01*
X16982137Y-9290970D01*
X16982036Y-9290958D01*
X16981928Y-9290950D01*
X16981927Y-9290950D01*
X16981927Y-9290950D01*
X16846073Y-9290950D01*
X16846073Y-9290950D01*
X16846072Y-9290950D01*
X16845963Y-9290958D01*
X16845863Y-9290970D01*
X16843031Y-9291235D01*
X16830212Y-9295721D01*
X16830212Y-9295721D01*
X16819286Y-9303784D01*
X16819284Y-9303786D01*
X16811221Y-9314712D01*
X16811221Y-9314712D01*
X16806735Y-9327531D01*
X16806450Y-9330569D01*
X16806450Y-9330571D01*
X16806450Y-9330572D01*
X16806450Y-9330574D01*
X15292365Y-9330574D01*
X15303319Y-9327639D01*
X15314731Y-9321050D01*
X15324050Y-9311731D01*
X15330639Y-9300319D01*
X15330803Y-9299707D01*
X15331476Y-9298056D01*
X15331470Y-9298054D01*
X15331556Y-9297859D01*
X15331619Y-9297704D01*
X15331641Y-9297665D01*
X15336731Y-9282085D01*
X15336960Y-9281337D01*
X15336985Y-9281250D01*
X15337191Y-9280469D01*
X15337770Y-9278086D01*
X15337804Y-9277952D01*
X15338987Y-9273434D01*
X15339320Y-9272421D01*
X15340071Y-9270540D01*
X15340821Y-9269080D01*
X15342299Y-9266775D01*
X15343130Y-9265681D01*
X15347900Y-9260346D01*
X15348528Y-9259315D01*
X15349799Y-9257698D01*
X15451497Y-9156000D01*
X16807916Y-9156000D01*
X16867961Y-9156000D01*
X16873522Y-9158024D01*
X16876480Y-9163148D01*
X16876611Y-9164650D01*
X16876611Y-9165647D01*
X16876500Y-9166063D01*
X16876500Y-9175937D01*
X16876611Y-9176353D01*
X16876611Y-9177350D01*
X16875782Y-9179629D01*
X16875257Y-9181998D01*
X16874789Y-9182356D01*
X16874588Y-9182910D01*
X16872487Y-9184123D01*
X16870563Y-9185600D01*
X16869699Y-9185733D01*
X16869464Y-9185869D01*
X16869161Y-9185815D01*
X16867961Y-9186000D01*
X16807916Y-9186000D01*
X16809574Y-9194335D01*
X16809575Y-9194337D01*
X16815605Y-9208894D01*
X16816078Y-9209602D01*
X16816078Y-9209602D01*
X16824360Y-9221997D01*
X16835503Y-9233140D01*
X16847897Y-9241422D01*
X16847898Y-9241422D01*
X16848372Y-9241739D01*
X16848606Y-9241895D01*
X16848606Y-9241895D01*
X16863164Y-9247925D01*
X16863165Y-9247926D01*
X16878620Y-9251000D01*
X16878621Y-9251000D01*
X16899000Y-9251000D01*
X16899000Y-9251000D01*
X16899000Y-9251000D01*
X16899000Y-9217039D01*
X16901024Y-9211479D01*
X16906148Y-9208520D01*
X16907650Y-9208389D01*
X16908647Y-9208389D01*
X16909063Y-9208500D01*
X16918937Y-9208500D01*
X16919353Y-9208389D01*
X16920350Y-9208389D01*
X16922629Y-9209218D01*
X16924998Y-9209743D01*
X16925356Y-9210211D01*
X16925910Y-9210412D01*
X16927123Y-9212513D01*
X16928600Y-9214437D01*
X16928733Y-9215301D01*
X16928869Y-9215537D01*
X16928815Y-9215839D01*
X16929000Y-9217039D01*
X16929000Y-9251000D01*
X16929000Y-9251000D01*
X16949379Y-9251000D01*
X16949379Y-9251000D01*
X16949380Y-9251000D01*
X16964835Y-9247926D01*
X16964836Y-9247925D01*
X16979394Y-9241895D01*
X16979394Y-9241895D01*
X16992497Y-9233140D01*
X17003640Y-9221997D01*
X17012395Y-9208894D01*
X17012395Y-9208894D01*
X17018425Y-9194336D01*
X17018426Y-9194335D01*
X17020084Y-9186000D01*
X16960039Y-9186000D01*
X16954479Y-9183976D01*
X16951520Y-9178852D01*
X16951389Y-9177350D01*
X16951389Y-9176353D01*
X16951500Y-9175937D01*
X16951500Y-9166063D01*
X16951389Y-9165647D01*
X16951389Y-9164650D01*
X16952218Y-9162371D01*
X16952743Y-9160003D01*
X16953211Y-9159644D01*
X16953412Y-9159090D01*
X16955513Y-9157877D01*
X16957437Y-9156400D01*
X16958301Y-9156267D01*
X16958537Y-9156131D01*
X16958839Y-9156185D01*
X16960039Y-9156000D01*
X17020084Y-9156000D01*
X17018426Y-9147665D01*
X17018425Y-9147664D01*
X17012395Y-9133106D01*
X17012395Y-9133106D01*
X17012178Y-9132781D01*
X17011922Y-9132398D01*
X17011922Y-9132397D01*
X17009940Y-9129431D01*
X17003640Y-9120003D01*
X16992497Y-9108860D01*
X16980103Y-9100578D01*
X16980102Y-9100578D01*
X16979394Y-9100105D01*
X16979394Y-9100105D01*
X16979394Y-9100105D01*
X16964837Y-9094075D01*
X16964835Y-9094074D01*
X16964835Y-9094074D01*
X16949380Y-9091000D01*
X16949380Y-9091000D01*
X16929000Y-9091000D01*
X16929000Y-9091000D01*
X16929000Y-9091000D01*
X16929000Y-9124961D01*
X16926976Y-9130521D01*
X16921852Y-9133480D01*
X16920350Y-9133611D01*
X16919352Y-9133611D01*
X16918937Y-9133500D01*
X16909063Y-9133500D01*
X16908648Y-9133611D01*
X16907650Y-9133611D01*
X16905370Y-9132781D01*
X16903002Y-9132256D01*
X16902643Y-9131789D01*
X16902090Y-9131588D01*
X16900877Y-9129487D01*
X16899400Y-9127562D01*
X16899267Y-9126699D01*
X16899131Y-9126463D01*
X16899185Y-9126161D01*
X16899000Y-9124961D01*
X16899000Y-9091000D01*
X16899000Y-9091000D01*
X16899000Y-9091000D01*
X16899000Y-9091000D01*
X16878620Y-9091000D01*
X16863165Y-9094074D01*
X16863165Y-9094074D01*
X16863163Y-9094075D01*
X16848606Y-9100105D01*
X16847897Y-9100578D01*
X16847890Y-9100583D01*
X16835503Y-9108860D01*
X16824360Y-9120003D01*
X16816078Y-9132397D01*
X16815605Y-9133106D01*
X16809575Y-9147663D01*
X16809574Y-9147665D01*
X16808775Y-9151682D01*
X16807916Y-9156000D01*
X15451497Y-9156000D01*
X15455288Y-9152209D01*
X15644382Y-8963115D01*
X16806450Y-8963115D01*
X16806450Y-8978885D01*
X16806505Y-8979160D01*
X16806505Y-8979161D01*
X16809366Y-8993543D01*
X16809366Y-8993543D01*
X16809526Y-8994349D01*
X16809526Y-8994350D01*
X16810786Y-8997391D01*
X16810849Y-8997543D01*
X16810850Y-8997545D01*
X16815560Y-9008917D01*
X16815560Y-9008917D01*
X16815561Y-9008918D01*
X16820154Y-9015793D01*
X16822151Y-9018781D01*
X16824321Y-9022029D01*
X16835471Y-9033179D01*
X16848582Y-9041939D01*
X16863150Y-9047974D01*
X16875590Y-9050448D01*
X16878615Y-9051050D01*
X16878615Y-9051050D01*
X16878616Y-9051050D01*
X16878616Y-9051050D01*
X16949384Y-9051050D01*
X16949384Y-9051050D01*
X16964850Y-9047974D01*
X16979418Y-9041939D01*
X16992529Y-9033179D01*
X17003679Y-9022029D01*
X17012439Y-9008918D01*
X17018474Y-8994350D01*
X17021550Y-8978884D01*
X17021550Y-8963116D01*
X17018474Y-8947650D01*
X17012439Y-8933082D01*
X17003679Y-8919971D01*
X16992529Y-8908821D01*
X16979418Y-8900061D01*
X16979417Y-8900060D01*
X16979417Y-8900060D01*
X16969238Y-8895844D01*
X16969234Y-8895842D01*
X16969117Y-8895794D01*
X16964850Y-8894026D01*
X16964849Y-8894026D01*
X16964010Y-8893859D01*
X16964010Y-8893859D01*
X16949385Y-8890950D01*
X16949385Y-8890950D01*
X16949384Y-8890950D01*
X16878616Y-8890950D01*
X16878615Y-8890950D01*
X16878615Y-8890950D01*
X16864043Y-8893849D01*
X16864043Y-8893849D01*
X16863151Y-8894026D01*
X16863150Y-8894026D01*
X16854616Y-8897561D01*
X16853994Y-8897819D01*
X16848582Y-8900061D01*
X16847874Y-8900534D01*
X16847866Y-8900539D01*
X16835471Y-8908821D01*
X16835471Y-8908821D01*
X16824321Y-8919971D01*
X16824321Y-8919972D01*
X16815563Y-8933079D01*
X16815563Y-8933079D01*
X16815561Y-8933082D01*
X16813296Y-8938550D01*
X16813296Y-8938550D01*
X16809565Y-8947556D01*
X16809565Y-8947557D01*
X16809526Y-8947650D01*
X16809526Y-8947651D01*
X16806450Y-8963115D01*
X15644382Y-8963115D01*
X15650923Y-8956574D01*
X15742358Y-8865139D01*
X15843046Y-8764451D01*
X15843817Y-8763115D01*
X16806450Y-8763115D01*
X16806450Y-8778885D01*
X16806505Y-8779160D01*
X16806505Y-8779161D01*
X16808181Y-8787589D01*
X16809526Y-8794349D01*
X16809526Y-8794350D01*
X16815561Y-8808918D01*
X16815561Y-8808918D01*
X16815561Y-8808918D01*
X16818421Y-8813199D01*
X16818589Y-8813450D01*
X16823667Y-8821050D01*
X16824321Y-8822029D01*
X16824322Y-8822029D01*
X16835470Y-8833178D01*
X16835471Y-8833179D01*
X16848582Y-8841939D01*
X16863150Y-8847974D01*
X16875590Y-8850448D01*
X16878615Y-8851050D01*
X16878615Y-8851050D01*
X16878616Y-8851050D01*
X16878616Y-8851050D01*
X16949384Y-8851050D01*
X16949384Y-8851050D01*
X16964850Y-8847974D01*
X16979418Y-8841939D01*
X16992529Y-8833179D01*
X17003679Y-8822029D01*
X17012439Y-8808918D01*
X17018474Y-8794350D01*
X17021550Y-8778884D01*
X17021550Y-8763116D01*
X17021238Y-8761546D01*
X17020453Y-8757599D01*
X17018474Y-8747650D01*
X17012439Y-8733082D01*
X17003679Y-8719971D01*
X16992529Y-8708821D01*
X16991362Y-8708041D01*
X16985585Y-8704181D01*
X16979418Y-8700061D01*
X16979417Y-8700060D01*
X16979417Y-8700060D01*
X16969238Y-8695844D01*
X16969234Y-8695842D01*
X16969117Y-8695794D01*
X16964850Y-8694026D01*
X16964849Y-8694026D01*
X16964010Y-8693859D01*
X16964010Y-8693859D01*
X16949385Y-8690950D01*
X16949385Y-8690950D01*
X16949384Y-8690950D01*
X16878616Y-8690950D01*
X16878615Y-8690950D01*
X16878615Y-8690950D01*
X16864043Y-8693849D01*
X16864043Y-8693849D01*
X16863151Y-8694026D01*
X16863150Y-8694026D01*
X16854616Y-8697561D01*
X16850943Y-8699083D01*
X16848582Y-8700061D01*
X16847874Y-8700534D01*
X16847866Y-8700539D01*
X16835471Y-8708821D01*
X16835471Y-8708821D01*
X16824321Y-8719971D01*
X16818565Y-8728586D01*
X16818565Y-8728586D01*
X16815561Y-8733081D01*
X16815560Y-8733083D01*
X16813599Y-8737819D01*
X16809565Y-8747556D01*
X16809565Y-8747557D01*
X16809526Y-8747650D01*
X16809526Y-8747651D01*
X16806450Y-8763115D01*
X15843817Y-8763115D01*
X15847002Y-8757599D01*
X15849050Y-8749956D01*
X15849050Y-8742044D01*
X15849050Y-8563115D01*
X16806450Y-8563115D01*
X16806450Y-8578885D01*
X16806505Y-8579160D01*
X16806505Y-8579161D01*
X16806881Y-8581050D01*
X16809526Y-8594349D01*
X16809526Y-8594350D01*
X16815561Y-8608918D01*
X16824321Y-8622029D01*
X16835471Y-8633179D01*
X16848582Y-8641939D01*
X16863150Y-8647974D01*
X16875590Y-8650448D01*
X16878615Y-8651050D01*
X16878615Y-8651050D01*
X16878616Y-8651050D01*
X16878616Y-8651050D01*
X16949384Y-8651050D01*
X16949384Y-8651050D01*
X16964850Y-8647974D01*
X16979418Y-8641939D01*
X16992529Y-8633179D01*
X17003679Y-8622029D01*
X17012439Y-8608918D01*
X17018474Y-8594350D01*
X17021550Y-8578884D01*
X17021550Y-8563116D01*
X17018474Y-8547650D01*
X17012439Y-8533082D01*
X17003679Y-8519971D01*
X16992529Y-8508821D01*
X16991944Y-8508430D01*
X16987087Y-8505185D01*
X16979418Y-8500061D01*
X16979417Y-8500060D01*
X16979417Y-8500060D01*
X16969238Y-8495844D01*
X16969234Y-8495842D01*
X16969117Y-8495794D01*
X16964850Y-8494026D01*
X16964849Y-8494026D01*
X16964010Y-8493859D01*
X16964010Y-8493859D01*
X16949385Y-8490950D01*
X16949385Y-8490950D01*
X16949384Y-8490950D01*
X16878616Y-8490950D01*
X16878615Y-8490950D01*
X16878615Y-8490950D01*
X16864043Y-8493849D01*
X16864043Y-8493849D01*
X16863151Y-8494026D01*
X16863150Y-8494026D01*
X16854616Y-8497561D01*
X16852822Y-8498304D01*
X16848582Y-8500061D01*
X16847874Y-8500534D01*
X16847866Y-8500539D01*
X16835471Y-8508821D01*
X16835471Y-8508821D01*
X16824321Y-8519971D01*
X16824321Y-8519971D01*
X16817527Y-8530139D01*
X16817527Y-8530139D01*
X16817087Y-8530798D01*
X16815561Y-8533082D01*
X16815560Y-8533083D01*
X16813694Y-8537589D01*
X16809565Y-8547556D01*
X16809565Y-8547557D01*
X16809526Y-8547650D01*
X16809526Y-8547651D01*
X16806450Y-8563115D01*
X15849050Y-8563115D01*
X15849050Y-8408833D01*
X15849086Y-8408050D01*
X15849147Y-8407379D01*
X15849580Y-8405654D01*
X15849914Y-8398939D01*
X15849930Y-8398764D01*
X15849953Y-8398715D01*
X15850047Y-8397932D01*
X15850403Y-8396059D01*
X15851005Y-8394144D01*
X15853415Y-8388762D01*
X15853907Y-8387823D01*
X15854858Y-8386249D01*
X15854864Y-8386240D01*
X15854911Y-8386163D01*
X15854916Y-8386154D01*
X15855021Y-8385976D01*
X15859428Y-8378443D01*
X15859863Y-8377660D01*
X15859911Y-8377571D01*
X15860305Y-8376783D01*
X15864758Y-8367395D01*
X15864949Y-8366980D01*
X15864972Y-8366929D01*
X15864972Y-8366929D01*
X15865006Y-8366825D01*
X15865268Y-8365962D01*
X15865639Y-8365319D01*
X15866230Y-8363115D01*
X16806450Y-8363115D01*
X16806450Y-8378885D01*
X16806505Y-8379160D01*
X16806505Y-8379160D01*
X16808724Y-8390314D01*
X16809526Y-8394350D01*
X16809526Y-8394350D01*
X16815561Y-8408918D01*
X16819604Y-8414970D01*
X16819604Y-8414970D01*
X16823691Y-8421086D01*
X16823691Y-8421086D01*
X16823691Y-8421086D01*
X16824321Y-8422029D01*
X16835471Y-8433179D01*
X16848582Y-8441939D01*
X16863150Y-8447974D01*
X16875590Y-8450448D01*
X16878615Y-8451050D01*
X16878615Y-8451050D01*
X16878616Y-8451050D01*
X16878616Y-8451050D01*
X16949384Y-8451050D01*
X16949384Y-8451050D01*
X16964850Y-8447974D01*
X16979418Y-8441939D01*
X16992529Y-8433179D01*
X17003679Y-8422029D01*
X17012439Y-8408918D01*
X17018474Y-8394350D01*
X17021550Y-8378884D01*
X17021550Y-8363116D01*
X17018474Y-8347650D01*
X17012439Y-8333082D01*
X17003679Y-8319971D01*
X16992529Y-8308821D01*
X16979418Y-8300061D01*
X16979417Y-8300060D01*
X16979417Y-8300060D01*
X16969238Y-8295844D01*
X16969234Y-8295842D01*
X16969117Y-8295794D01*
X16964850Y-8294026D01*
X16964849Y-8294026D01*
X16964010Y-8293859D01*
X16964010Y-8293859D01*
X16949385Y-8290950D01*
X16949385Y-8290950D01*
X16949384Y-8290950D01*
X16878616Y-8290950D01*
X16878615Y-8290950D01*
X16878615Y-8290950D01*
X16863997Y-8293858D01*
X16863997Y-8293858D01*
X16863151Y-8294026D01*
X16863150Y-8294026D01*
X16858506Y-8295950D01*
X16858399Y-8295994D01*
X16858393Y-8295997D01*
X16848582Y-8300060D01*
X16847873Y-8300534D01*
X16847866Y-8300539D01*
X16835471Y-8308821D01*
X16835471Y-8308821D01*
X16824321Y-8319971D01*
X16819838Y-8326681D01*
X16819838Y-8326681D01*
X16815561Y-8333081D01*
X16815560Y-8333082D01*
X16813957Y-8336954D01*
X16813957Y-8336954D01*
X16809565Y-8347556D01*
X16809565Y-8347557D01*
X16809526Y-8347650D01*
X16809526Y-8347651D01*
X16806450Y-8363115D01*
X15866230Y-8363115D01*
X15869050Y-8352589D01*
X15869050Y-8339411D01*
X15865639Y-8326681D01*
X15859050Y-8315269D01*
X15849731Y-8305950D01*
X15840359Y-8300539D01*
X15839796Y-8300214D01*
X15839796Y-8300214D01*
X15838319Y-8299361D01*
X15838319Y-8299361D01*
X15838319Y-8299361D01*
X15836671Y-8298919D01*
X15836671Y-8298919D01*
X15830717Y-8297324D01*
X15825589Y-8295950D01*
X15825589Y-8295950D01*
X15812411Y-8295950D01*
X15812411Y-8295950D01*
X15810009Y-8296593D01*
X15799806Y-8299327D01*
X15799690Y-8299356D01*
X15799682Y-8299360D01*
X15799681Y-8299361D01*
X15788268Y-8305950D01*
X15778950Y-8315268D01*
X15772361Y-8326681D01*
X15772356Y-8326690D01*
X15772327Y-8326806D01*
X15770646Y-8333082D01*
X15768950Y-8339411D01*
X15768950Y-8352589D01*
X15770143Y-8357043D01*
X15771770Y-8363116D01*
X15772361Y-8365319D01*
X15772678Y-8365868D01*
X15773369Y-8367510D01*
X15773374Y-8367508D01*
X15773447Y-8367694D01*
X15773515Y-8367856D01*
X15773528Y-8367904D01*
X15773528Y-8367904D01*
X15780946Y-8382520D01*
X15781310Y-8383205D01*
X15781352Y-8383281D01*
X15781760Y-8383981D01*
X15783037Y-8386078D01*
X15783115Y-8386209D01*
X15785467Y-8390229D01*
X15785949Y-8391184D01*
X15786748Y-8393044D01*
X15787250Y-8394609D01*
X15787350Y-8395067D01*
X15787834Y-8397281D01*
X15788020Y-8398644D01*
X15788420Y-8405788D01*
X15788420Y-8405789D01*
X15788705Y-8406962D01*
X15788950Y-8409004D01*
X15788950Y-8728445D01*
X15788428Y-8731403D01*
X15787555Y-8733801D01*
X15785544Y-8736959D01*
X15307181Y-9215322D01*
X15305506Y-9216628D01*
X15304558Y-9217195D01*
X15299705Y-9221587D01*
X15298766Y-9222326D01*
X15297193Y-9223396D01*
X15295410Y-9224326D01*
X15289904Y-9226427D01*
X15288889Y-9226744D01*
X15287096Y-9227185D01*
X15286803Y-9227260D01*
X15278354Y-9229472D01*
X15277520Y-9229709D01*
X15277520Y-9229709D01*
X15277518Y-9229710D01*
X15277425Y-9229738D01*
X15276563Y-9230025D01*
X15276559Y-9230026D01*
X15266776Y-9233514D01*
X15266774Y-9233515D01*
X15266772Y-9233516D01*
X15266490Y-9233620D01*
X15266275Y-9233700D01*
X15266228Y-9233718D01*
X15266141Y-9233762D01*
X15265153Y-9234125D01*
X15264682Y-9234360D01*
X15264681Y-9234361D01*
X15253268Y-9240950D01*
X15243950Y-9250268D01*
X15237439Y-9261546D01*
X15237439Y-9261546D01*
X15237361Y-9261681D01*
X15237361Y-9261681D01*
X15237361Y-9261681D01*
X15233950Y-9274411D01*
X14842735Y-9274411D01*
X14838319Y-9271861D01*
X14825589Y-9268450D01*
X14825589Y-9268450D01*
X14812411Y-9268450D01*
X14812411Y-9268450D01*
X14810063Y-9269079D01*
X14799806Y-9271827D01*
X14799690Y-9271857D01*
X14799682Y-9271860D01*
X14799681Y-9271861D01*
X14788268Y-9278450D01*
X14778950Y-9287768D01*
X14772439Y-9299046D01*
X14772439Y-9299046D01*
X14772361Y-9299181D01*
X14772361Y-9299181D01*
X14772361Y-9299181D01*
X14768950Y-9311911D01*
X13241550Y-9311911D01*
X13241550Y-9170986D01*
X13242071Y-9168028D01*
X13242412Y-9167092D01*
X13246215Y-9162559D01*
X13252042Y-9161532D01*
X13252346Y-9161585D01*
X13256960Y-9163987D01*
X13268628Y-9175656D01*
X13285424Y-9186879D01*
X13304087Y-9194609D01*
X13323900Y-9198550D01*
X13323900Y-9198550D01*
X13344100Y-9198550D01*
X13344100Y-9198550D01*
X13363913Y-9194609D01*
X13382576Y-9186879D01*
X13399372Y-9175656D01*
X13413656Y-9161372D01*
X13424879Y-9144576D01*
X13432609Y-9125913D01*
X13436550Y-9106100D01*
X13436550Y-9085900D01*
X13436550Y-9085899D01*
X13485450Y-9085899D01*
X13485450Y-9106101D01*
X13489391Y-9125912D01*
X13489391Y-9125912D01*
X13489391Y-9125913D01*
X13489391Y-9125913D01*
X13492525Y-9133480D01*
X13495231Y-9140011D01*
X13495231Y-9140011D01*
X13495231Y-9140011D01*
X13497121Y-9144576D01*
X13508344Y-9161372D01*
X13522628Y-9175656D01*
X13539424Y-9186879D01*
X13558087Y-9194609D01*
X13577900Y-9198550D01*
X13577900Y-9198550D01*
X13598100Y-9198550D01*
X13598100Y-9198550D01*
X13617913Y-9194609D01*
X13636576Y-9186879D01*
X13653372Y-9175656D01*
X13667656Y-9161372D01*
X13678879Y-9144576D01*
X13686609Y-9125913D01*
X13690550Y-9106100D01*
X13690550Y-9085900D01*
X13690550Y-9085899D01*
X13739450Y-9085899D01*
X13739450Y-9106101D01*
X13743391Y-9125912D01*
X13743391Y-9125912D01*
X13743391Y-9125913D01*
X13743391Y-9125913D01*
X13746525Y-9133480D01*
X13749231Y-9140011D01*
X13749231Y-9140011D01*
X13749231Y-9140011D01*
X13751121Y-9144576D01*
X13762344Y-9161372D01*
X13776628Y-9175656D01*
X13793424Y-9186879D01*
X13812087Y-9194609D01*
X13831900Y-9198550D01*
X13831900Y-9198550D01*
X13852100Y-9198550D01*
X13852100Y-9198550D01*
X13871913Y-9194609D01*
X13890576Y-9186879D01*
X13907372Y-9175656D01*
X13921656Y-9161372D01*
X13932879Y-9144576D01*
X13940609Y-9125913D01*
X13944550Y-9106100D01*
X13944550Y-9085904D01*
X13993500Y-9085904D01*
X13993500Y-9106096D01*
X13997439Y-9125899D01*
X14005165Y-9144552D01*
X14005166Y-9144552D01*
X14013604Y-9157182D01*
X14013605Y-9157182D01*
X14040386Y-9130400D01*
X14045748Y-9127900D01*
X14051464Y-9129431D01*
X14052619Y-9130401D01*
X14061599Y-9139381D01*
X14064100Y-9144744D01*
X14062568Y-9150459D01*
X14061599Y-9151614D01*
X14034818Y-9178395D01*
X14047447Y-9186834D01*
X14047447Y-9186834D01*
X14047447Y-9186834D01*
X14066102Y-9194561D01*
X14066102Y-9194561D01*
X14085904Y-9198500D01*
X14085905Y-9198500D01*
X14106095Y-9198500D01*
X14106095Y-9198500D01*
X14106096Y-9198500D01*
X14125898Y-9194561D01*
X14125898Y-9194561D01*
X14144552Y-9186834D01*
X14157182Y-9178395D01*
X14130400Y-9151614D01*
X14127900Y-9146251D01*
X14129431Y-9140536D01*
X14130399Y-9139382D01*
X14139381Y-9130400D01*
X14144744Y-9127900D01*
X14150459Y-9129431D01*
X14151613Y-9130400D01*
X14178395Y-9157182D01*
X14186834Y-9144552D01*
X14194561Y-9125898D01*
X14194561Y-9125898D01*
X14198500Y-9106096D01*
X14198500Y-9106095D01*
X14198500Y-9085905D01*
X14198500Y-9085904D01*
X14194561Y-9066102D01*
X14194561Y-9066102D01*
X14188784Y-9052154D01*
X14188784Y-9052154D01*
X14188783Y-9052154D01*
X14188783Y-9052153D01*
X14188783Y-9052153D01*
X14187647Y-9049411D01*
X14996450Y-9049411D01*
X14996450Y-9062589D01*
X14999861Y-9075319D01*
X15006450Y-9086731D01*
X15015769Y-9096050D01*
X15027181Y-9102639D01*
X15039911Y-9106050D01*
X15039911Y-9106050D01*
X15053089Y-9106050D01*
X15053089Y-9106050D01*
X15065819Y-9102639D01*
X15077231Y-9096050D01*
X15086550Y-9086731D01*
X15093139Y-9075319D01*
X15096550Y-9062589D01*
X15096550Y-9049411D01*
X15093139Y-9036681D01*
X15092822Y-9036132D01*
X15092131Y-9034491D01*
X15092126Y-9034493D01*
X15092050Y-9034299D01*
X15091984Y-9034141D01*
X15091971Y-9034096D01*
X15084555Y-9019482D01*
X15084183Y-9018782D01*
X15084139Y-9018703D01*
X15083737Y-9018014D01*
X15083736Y-9018012D01*
X15083735Y-9018010D01*
X15082464Y-9015924D01*
X15082386Y-9015793D01*
X15082363Y-9015754D01*
X15080033Y-9011770D01*
X15079551Y-9010816D01*
X15078752Y-9008956D01*
X15078250Y-9007391D01*
X15077666Y-9004719D01*
X15077480Y-9003355D01*
X15077473Y-9003230D01*
X15077080Y-8996212D01*
X15076794Y-8995038D01*
X15076550Y-8992996D01*
X15076550Y-8846911D01*
X15233950Y-8846911D01*
X15233950Y-8860089D01*
X15237226Y-8872317D01*
X15237361Y-8872819D01*
X15237508Y-8873073D01*
X15243950Y-8884231D01*
X15253269Y-8893550D01*
X15264681Y-8900139D01*
X15277411Y-8903550D01*
X15277411Y-8903550D01*
X15290589Y-8903550D01*
X15290589Y-8903550D01*
X15303319Y-8900139D01*
X15314731Y-8893550D01*
X15324050Y-8884231D01*
X15330639Y-8872819D01*
X15334050Y-8860089D01*
X15334050Y-8846911D01*
X15330639Y-8834181D01*
X15324050Y-8822769D01*
X15314731Y-8813450D01*
X15311755Y-8811731D01*
X15303319Y-8806861D01*
X15303319Y-8806861D01*
X15303319Y-8806861D01*
X15301671Y-8806419D01*
X15301671Y-8806419D01*
X15295717Y-8804824D01*
X15290589Y-8803450D01*
X15290589Y-8803450D01*
X15277411Y-8803450D01*
X15277411Y-8803450D01*
X15275009Y-8804093D01*
X15264806Y-8806827D01*
X15264690Y-8806857D01*
X15264682Y-8806860D01*
X15264681Y-8806861D01*
X15253268Y-8813450D01*
X15243950Y-8822768D01*
X15237439Y-8834046D01*
X15237439Y-8834046D01*
X15237361Y-8834181D01*
X15237361Y-8834181D01*
X15237361Y-8834181D01*
X15233950Y-8846911D01*
X15076550Y-8846911D01*
X15076550Y-8781055D01*
X15077072Y-8778097D01*
X15077407Y-8777174D01*
X15077944Y-8775699D01*
X15079956Y-8772541D01*
X15367139Y-8485358D01*
X15368256Y-8484563D01*
X15368793Y-8483157D01*
X15369221Y-8482415D01*
X15372002Y-8477599D01*
X15374050Y-8469956D01*
X15374050Y-8263833D01*
X15374086Y-8263050D01*
X15374147Y-8262379D01*
X15374580Y-8260654D01*
X15374914Y-8253939D01*
X15374930Y-8253764D01*
X15374953Y-8253715D01*
X15375047Y-8252932D01*
X15375403Y-8251059D01*
X15376005Y-8249144D01*
X15378415Y-8243762D01*
X15378907Y-8242823D01*
X15379858Y-8241249D01*
X15379864Y-8241240D01*
X15379911Y-8241163D01*
X15379916Y-8241154D01*
X15380021Y-8240976D01*
X15384428Y-8233443D01*
X15384863Y-8232660D01*
X15384911Y-8232571D01*
X15385305Y-8231783D01*
X15389758Y-8222395D01*
X15389949Y-8221980D01*
X15389972Y-8221929D01*
X15389972Y-8221929D01*
X15390035Y-8221735D01*
X15390432Y-8220846D01*
X15390422Y-8220842D01*
X15390639Y-8220319D01*
X15390639Y-8220319D01*
X15394050Y-8207589D01*
X15394050Y-8194411D01*
X15390639Y-8181681D01*
X15384050Y-8170269D01*
X15374731Y-8160950D01*
X15374731Y-8160950D01*
X15372066Y-8159411D01*
X15372065Y-8159411D01*
X15364305Y-8154930D01*
X15363849Y-8154580D01*
X15362788Y-8154141D01*
X15362219Y-8154066D01*
X15358563Y-8153087D01*
X15350589Y-8150950D01*
X15350589Y-8150950D01*
X15337411Y-8150950D01*
X15337411Y-8150950D01*
X15335009Y-8151593D01*
X15324806Y-8154327D01*
X15324690Y-8154356D01*
X15324682Y-8154360D01*
X15324681Y-8154361D01*
X15313268Y-8160950D01*
X15303950Y-8170268D01*
X15297361Y-8181681D01*
X15297360Y-8181682D01*
X15297356Y-8181690D01*
X15297327Y-8181806D01*
X15293950Y-8194411D01*
X15293950Y-8207589D01*
X15297361Y-8220318D01*
X15297361Y-8220319D01*
X15297362Y-8220321D01*
X15297678Y-8220868D01*
X15298369Y-8222510D01*
X15298374Y-8222508D01*
X15298447Y-8222696D01*
X15298515Y-8222857D01*
X15298528Y-8222903D01*
X15298528Y-8222904D01*
X15305946Y-8237520D01*
X15306310Y-8238205D01*
X15306352Y-8238281D01*
X15306760Y-8238981D01*
X15308037Y-8241078D01*
X15308115Y-8241209D01*
X15310467Y-8245229D01*
X15310949Y-8246184D01*
X15311748Y-8248044D01*
X15312250Y-8249609D01*
X15312350Y-8250066D01*
X15312834Y-8252281D01*
X15313020Y-8253644D01*
X15313420Y-8260788D01*
X15313420Y-8260789D01*
X15313705Y-8261962D01*
X15313950Y-8264004D01*
X15313950Y-8448445D01*
X15313428Y-8451403D01*
X15312555Y-8453801D01*
X15310544Y-8456959D01*
X15022454Y-8745049D01*
X15018498Y-8751901D01*
X15016450Y-8759543D01*
X15016450Y-8993166D01*
X15016414Y-8993950D01*
X15016353Y-8994621D01*
X15015920Y-8996345D01*
X15015585Y-9003058D01*
X15015569Y-9003236D01*
X15015546Y-9003286D01*
X15015452Y-9004070D01*
X15015097Y-9005939D01*
X15014494Y-9007857D01*
X15012086Y-9013236D01*
X15011592Y-9014178D01*
X15010643Y-9015747D01*
X15010483Y-9016015D01*
X15006070Y-9023560D01*
X15005631Y-9024349D01*
X15005584Y-9024439D01*
X15005194Y-9025218D01*
X15000745Y-9034598D01*
X15000549Y-9035024D01*
X15000528Y-9035071D01*
X15000457Y-9035288D01*
X14999948Y-9036475D01*
X14999939Y-9036546D01*
X14999861Y-9036681D01*
X14999861Y-9036681D01*
X14999861Y-9036681D01*
X14996450Y-9049411D01*
X14187647Y-9049411D01*
X14186834Y-9047448D01*
X14178395Y-9034818D01*
X14151614Y-9061599D01*
X14146251Y-9064100D01*
X14140536Y-9062568D01*
X14139381Y-9061599D01*
X14130401Y-9052619D01*
X14127900Y-9047256D01*
X14129431Y-9041541D01*
X14130400Y-9040387D01*
X14157182Y-9013605D01*
X14156629Y-9013236D01*
X14144552Y-9005166D01*
X14144551Y-9005165D01*
X14144552Y-9005165D01*
X14125899Y-8997439D01*
X14106096Y-8993500D01*
X14106096Y-8993500D01*
X14085904Y-8993500D01*
X14085904Y-8993500D01*
X14066101Y-8997439D01*
X14052123Y-9003229D01*
X14047731Y-9005048D01*
X14047547Y-9005117D01*
X14047447Y-9005166D01*
X14034818Y-9013605D01*
X14034818Y-9013605D01*
X14061599Y-9040386D01*
X14064100Y-9045749D01*
X14062568Y-9051464D01*
X14061599Y-9052619D01*
X14052619Y-9061599D01*
X14047256Y-9064100D01*
X14041541Y-9062568D01*
X14040386Y-9061600D01*
X14013605Y-9034818D01*
X14013605Y-9034818D01*
X14005166Y-9047448D01*
X14005117Y-9047547D01*
X14005048Y-9047732D01*
X14003923Y-9050448D01*
X13997439Y-9066101D01*
X13993500Y-9085904D01*
X13944550Y-9085904D01*
X13944550Y-9085900D01*
X13940609Y-9066087D01*
X13932879Y-9047424D01*
X13921656Y-9030628D01*
X13907372Y-9016344D01*
X13890576Y-9005121D01*
X13890575Y-9005121D01*
X13890575Y-9005121D01*
X13888191Y-9004134D01*
X13872225Y-8997520D01*
X13872215Y-8997516D01*
X13871913Y-8997391D01*
X13871913Y-8997391D01*
X13871913Y-8997391D01*
X13871912Y-8997391D01*
X13871912Y-8997391D01*
X13871899Y-8997388D01*
X13871877Y-8997379D01*
X13871739Y-8997350D01*
X13871303Y-8997247D01*
X13871077Y-8997225D01*
X13852101Y-8993450D01*
X13852101Y-8993450D01*
X13852100Y-8993450D01*
X13831900Y-8993450D01*
X13831899Y-8993450D01*
X13831899Y-8993450D01*
X13812088Y-8997391D01*
X13812088Y-8997391D01*
X13812086Y-8997391D01*
X13793425Y-9005121D01*
X13793424Y-9005121D01*
X13784165Y-9011308D01*
X13777511Y-9015754D01*
X13776636Y-9016339D01*
X13776628Y-9016344D01*
X13762344Y-9030628D01*
X13762344Y-9030628D01*
X13751121Y-9047424D01*
X13751121Y-9047425D01*
X13743391Y-9066086D01*
X13743391Y-9066088D01*
X13743391Y-9066088D01*
X13739450Y-9085899D01*
X13690550Y-9085899D01*
X13686609Y-9066087D01*
X13678879Y-9047424D01*
X13667656Y-9030628D01*
X13653372Y-9016344D01*
X13636576Y-9005121D01*
X13636575Y-9005121D01*
X13636575Y-9005121D01*
X13634191Y-9004134D01*
X13618225Y-8997520D01*
X13618215Y-8997516D01*
X13617913Y-8997391D01*
X13617913Y-8997391D01*
X13617913Y-8997391D01*
X13617912Y-8997391D01*
X13617912Y-8997391D01*
X13617899Y-8997388D01*
X13617877Y-8997379D01*
X13617739Y-8997350D01*
X13617303Y-8997247D01*
X13617077Y-8997225D01*
X13598101Y-8993450D01*
X13598101Y-8993450D01*
X13598100Y-8993450D01*
X13577900Y-8993450D01*
X13577899Y-8993450D01*
X13577899Y-8993450D01*
X13558088Y-8997391D01*
X13558088Y-8997391D01*
X13558086Y-8997391D01*
X13539425Y-9005121D01*
X13539424Y-9005121D01*
X13530165Y-9011308D01*
X13523511Y-9015754D01*
X13522636Y-9016339D01*
X13522628Y-9016344D01*
X13508344Y-9030628D01*
X13508344Y-9030628D01*
X13497121Y-9047424D01*
X13497121Y-9047425D01*
X13489391Y-9066086D01*
X13489391Y-9066088D01*
X13489391Y-9066088D01*
X13485450Y-9085899D01*
X13436550Y-9085899D01*
X13432609Y-9066087D01*
X13424879Y-9047424D01*
X13413656Y-9030628D01*
X13399372Y-9016344D01*
X13382576Y-9005121D01*
X13382575Y-9005121D01*
X13382575Y-9005121D01*
X13380191Y-9004134D01*
X13364225Y-8997520D01*
X13364215Y-8997516D01*
X13363913Y-8997391D01*
X13363913Y-8997391D01*
X13363913Y-8997391D01*
X13363912Y-8997391D01*
X13363912Y-8997391D01*
X13363899Y-8997388D01*
X13363877Y-8997379D01*
X13363739Y-8997350D01*
X13363303Y-8997247D01*
X13363077Y-8997225D01*
X13344101Y-8993450D01*
X13344101Y-8993450D01*
X13344100Y-8993450D01*
X13323900Y-8993450D01*
X13323899Y-8993450D01*
X13323899Y-8993450D01*
X13304088Y-8997391D01*
X13304088Y-8997391D01*
X13304086Y-8997391D01*
X13285425Y-9005121D01*
X13285424Y-9005121D01*
X13276165Y-9011308D01*
X13269511Y-9015754D01*
X13268636Y-9016339D01*
X13268628Y-9016344D01*
X13268628Y-9016344D01*
X13268628Y-9016344D01*
X13262943Y-9022029D01*
X13257395Y-9027577D01*
X13254934Y-9029300D01*
X13254032Y-9029721D01*
X13248137Y-9030237D01*
X13243291Y-9026843D01*
X13243290Y-9026842D01*
X13243114Y-9026591D01*
X13241550Y-9021630D01*
X13241550Y-8911055D01*
X13242072Y-8908097D01*
X13242944Y-8905699D01*
X13244956Y-8902541D01*
X13263320Y-8884177D01*
X13263898Y-8883649D01*
X13264415Y-8883218D01*
X13265941Y-8882305D01*
X13270926Y-8877793D01*
X13271061Y-8877681D01*
X13271112Y-8877663D01*
X13271732Y-8877175D01*
X13273308Y-8876103D01*
X13275089Y-8875174D01*
X13280595Y-8873073D01*
X13281610Y-8872756D01*
X13283393Y-8872317D01*
X13283521Y-8872285D01*
X13283538Y-8872281D01*
X13283702Y-8872239D01*
X13292146Y-8870028D01*
X13293013Y-8869781D01*
X13293065Y-8869764D01*
X13293109Y-8869751D01*
X13293940Y-8869474D01*
X13303727Y-8865985D01*
X13304180Y-8865817D01*
X13304231Y-8865797D01*
X13304232Y-8865797D01*
X13304393Y-8865715D01*
X13305299Y-8865368D01*
X13305295Y-8865356D01*
X13305819Y-8865139D01*
X13311289Y-8861981D01*
X13317231Y-8858550D01*
X13326550Y-8849231D01*
X13333139Y-8837819D01*
X13336550Y-8825089D01*
X13336550Y-8811911D01*
X13333139Y-8799181D01*
X13326550Y-8787769D01*
X13317231Y-8778450D01*
X13308744Y-8773550D01*
X13307919Y-8773073D01*
X13307296Y-8772714D01*
X13307296Y-8772714D01*
X13305819Y-8771861D01*
X13305819Y-8771861D01*
X13305819Y-8771861D01*
X13304171Y-8771419D01*
X13304171Y-8771419D01*
X13296907Y-8769473D01*
X13293089Y-8768450D01*
X13293089Y-8768450D01*
X13279911Y-8768450D01*
X13279911Y-8768450D01*
X13277509Y-8769093D01*
X13267306Y-8771827D01*
X13267190Y-8771857D01*
X13267182Y-8771860D01*
X13267181Y-8771861D01*
X13255768Y-8778450D01*
X13246450Y-8787768D01*
X13239861Y-8799181D01*
X13239861Y-8799182D01*
X13239857Y-8799190D01*
X13239826Y-8799309D01*
X13239697Y-8799793D01*
X13239025Y-8801443D01*
X13239030Y-8801445D01*
X13238950Y-8801626D01*
X13238883Y-8801791D01*
X13238859Y-8801834D01*
X13238859Y-8801834D01*
X13233768Y-8817415D01*
X13233536Y-8818175D01*
X13233513Y-8818257D01*
X13233309Y-8819027D01*
X13232730Y-8821412D01*
X13232694Y-8821555D01*
X13231513Y-8826065D01*
X13231179Y-8827080D01*
X13230429Y-8828959D01*
X13229677Y-8830421D01*
X13228201Y-8832723D01*
X13227369Y-8833819D01*
X13222600Y-8839154D01*
X13222599Y-8839155D01*
X13221972Y-8840185D01*
X13220701Y-8841802D01*
X13193049Y-8869454D01*
X13193049Y-8869454D01*
X13187454Y-8875049D01*
X13183498Y-8881901D01*
X13181450Y-8889543D01*
X13181450Y-8984761D01*
X13180928Y-8987720D01*
X13180503Y-8988889D01*
X13176700Y-8993420D01*
X13176354Y-8993620D01*
X13171926Y-8994779D01*
X13171909Y-8994779D01*
X13170324Y-8994613D01*
X13164476Y-8993450D01*
X13164475Y-8993450D01*
X13164475Y-8993450D01*
X12995525Y-8993450D01*
X12995525Y-8993450D01*
X12995524Y-8993450D01*
X12992614Y-8994029D01*
X12989677Y-8994613D01*
X12989677Y-8994613D01*
X12987085Y-8996345D01*
X12983045Y-8999045D01*
X12983045Y-8999045D01*
X12978613Y-9005677D01*
X12978613Y-9005677D01*
X12978272Y-9007391D01*
X12977450Y-9011524D01*
X12674050Y-9011524D01*
X12674050Y-8888555D01*
X12674572Y-8885597D01*
X12675444Y-8883199D01*
X12677456Y-8880041D01*
X12773319Y-8784178D01*
X12774994Y-8782872D01*
X12775941Y-8782305D01*
X12780795Y-8777912D01*
X12781732Y-8777175D01*
X12783308Y-8776103D01*
X12785089Y-8775174D01*
X12790595Y-8773073D01*
X12791610Y-8772756D01*
X12793393Y-8772317D01*
X12793521Y-8772285D01*
X12793538Y-8772281D01*
X12793702Y-8772239D01*
X12802146Y-8770028D01*
X12803013Y-8769781D01*
X12803065Y-8769764D01*
X12803109Y-8769751D01*
X12803940Y-8769474D01*
X12813727Y-8765985D01*
X12814180Y-8765817D01*
X12814231Y-8765797D01*
X12814232Y-8765797D01*
X12814393Y-8765715D01*
X12815299Y-8765368D01*
X12815295Y-8765356D01*
X12815819Y-8765139D01*
X12817010Y-8764451D01*
X12827231Y-8758550D01*
X12836550Y-8749231D01*
X12842368Y-8739154D01*
X12843139Y-8737819D01*
X12843139Y-8737819D01*
X12843303Y-8737207D01*
X12843976Y-8735556D01*
X12843970Y-8735554D01*
X12844056Y-8735359D01*
X12844119Y-8735204D01*
X12844141Y-8735165D01*
X12849231Y-8719585D01*
X12849460Y-8718837D01*
X12849485Y-8718750D01*
X12849691Y-8717969D01*
X12849948Y-8716911D01*
X14346450Y-8716911D01*
X14346450Y-8730089D01*
X14347476Y-8733919D01*
X14349436Y-8741235D01*
X14349839Y-8742738D01*
X14349861Y-8742819D01*
X14350283Y-8743550D01*
X14356450Y-8754231D01*
X14365769Y-8763550D01*
X14377181Y-8770139D01*
X14389911Y-8773550D01*
X14389911Y-8773550D01*
X14403089Y-8773550D01*
X14403089Y-8773550D01*
X14415819Y-8770139D01*
X14427231Y-8763550D01*
X14436550Y-8754231D01*
X14441095Y-8746359D01*
X14443026Y-8744058D01*
X14443979Y-8743258D01*
X14449539Y-8741235D01*
X14449786Y-8741235D01*
X14454434Y-8742590D01*
X14454666Y-8742738D01*
X14455291Y-8743240D01*
X14455318Y-8743205D01*
X14455768Y-8743550D01*
X14455768Y-8743550D01*
X14455769Y-8743550D01*
X14467181Y-8750139D01*
X14479911Y-8753550D01*
X14479911Y-8753550D01*
X14493089Y-8753550D01*
X14493089Y-8753550D01*
X14505819Y-8750139D01*
X14517231Y-8743550D01*
X14526550Y-8734231D01*
X14533139Y-8722819D01*
X14536550Y-8710089D01*
X14536550Y-8696911D01*
X14533139Y-8684181D01*
X14532822Y-8683632D01*
X14532131Y-8681991D01*
X14532126Y-8681993D01*
X14532050Y-8681799D01*
X14531984Y-8681641D01*
X14531971Y-8681596D01*
X14524555Y-8666982D01*
X14524183Y-8666282D01*
X14524139Y-8666203D01*
X14523737Y-8665514D01*
X14523736Y-8665512D01*
X14523735Y-8665510D01*
X14522464Y-8663424D01*
X14522386Y-8663293D01*
X14522363Y-8663254D01*
X14520033Y-8659270D01*
X14519552Y-8658319D01*
X14519500Y-8658199D01*
X14519164Y-8652292D01*
X14521331Y-8648666D01*
X14645586Y-8524411D01*
X15088950Y-8524411D01*
X15088950Y-8537589D01*
X15092361Y-8550319D01*
X15098950Y-8561731D01*
X15108269Y-8571050D01*
X15119681Y-8577639D01*
X15132411Y-8581050D01*
X15132411Y-8581050D01*
X15145589Y-8581050D01*
X15145589Y-8581050D01*
X15158319Y-8577639D01*
X15169731Y-8571050D01*
X15179050Y-8561731D01*
X15185639Y-8550319D01*
X15185803Y-8549707D01*
X15186476Y-8548056D01*
X15186470Y-8548054D01*
X15186556Y-8547859D01*
X15186619Y-8547704D01*
X15186641Y-8547665D01*
X15191731Y-8532085D01*
X15191960Y-8531337D01*
X15191985Y-8531250D01*
X15192191Y-8530469D01*
X15192770Y-8528086D01*
X15192804Y-8527952D01*
X15193987Y-8523434D01*
X15194320Y-8522421D01*
X15195071Y-8520540D01*
X15195821Y-8519080D01*
X15197299Y-8516775D01*
X15198130Y-8515681D01*
X15202900Y-8510346D01*
X15203528Y-8509315D01*
X15204799Y-8507698D01*
X15214774Y-8497723D01*
X15225027Y-8487470D01*
X15263046Y-8449451D01*
X15267002Y-8442599D01*
X15269050Y-8434956D01*
X15269050Y-8427044D01*
X15269050Y-8162555D01*
X15269572Y-8159597D01*
X15269639Y-8159411D01*
X15270444Y-8157198D01*
X15272456Y-8154041D01*
X15393319Y-8033178D01*
X15394994Y-8031872D01*
X15395941Y-8031305D01*
X15400795Y-8026912D01*
X15401732Y-8026175D01*
X15403308Y-8025103D01*
X15405089Y-8024174D01*
X15410595Y-8022073D01*
X15411610Y-8021756D01*
X15413393Y-8021317D01*
X15413521Y-8021285D01*
X15413538Y-8021281D01*
X15413702Y-8021239D01*
X15422146Y-8019028D01*
X15423013Y-8018780D01*
X15423065Y-8018764D01*
X15423109Y-8018751D01*
X15423940Y-8018474D01*
X15433727Y-8014984D01*
X15434180Y-8014817D01*
X15434231Y-8014797D01*
X15434232Y-8014797D01*
X15434393Y-8014715D01*
X15435299Y-8014368D01*
X15435295Y-8014356D01*
X15435819Y-8014139D01*
X15444008Y-8009411D01*
X16816450Y-8009411D01*
X16816450Y-8022589D01*
X16819861Y-8035319D01*
X16826450Y-8046731D01*
X16835769Y-8056050D01*
X16847181Y-8062639D01*
X16859911Y-8066050D01*
X16859911Y-8066050D01*
X16873089Y-8066050D01*
X16873089Y-8066050D01*
X16885819Y-8062639D01*
X16897231Y-8056050D01*
X16906550Y-8046731D01*
X16913139Y-8035319D01*
X16916550Y-8022589D01*
X16916550Y-8009411D01*
X16913139Y-7996681D01*
X16906550Y-7985269D01*
X16897231Y-7975950D01*
X16887764Y-7970484D01*
X16885819Y-7969361D01*
X16885819Y-7969361D01*
X16885819Y-7969361D01*
X16873089Y-7965950D01*
X16873089Y-7965950D01*
X16859911Y-7965950D01*
X16859911Y-7965950D01*
X16858175Y-7966415D01*
X16847306Y-7969327D01*
X16847190Y-7969356D01*
X16847182Y-7969360D01*
X16847181Y-7969361D01*
X16835768Y-7975950D01*
X16826450Y-7985268D01*
X16819939Y-7996546D01*
X16819939Y-7996546D01*
X16819861Y-7996681D01*
X16819861Y-7996681D01*
X16819861Y-7996681D01*
X16816450Y-8009411D01*
X15444008Y-8009411D01*
X15447231Y-8007550D01*
X15456550Y-7998231D01*
X15463139Y-7986819D01*
X15466550Y-7974089D01*
X15466550Y-7960911D01*
X15463139Y-7948181D01*
X15456550Y-7936769D01*
X15447231Y-7927450D01*
X15435819Y-7920861D01*
X15423089Y-7917450D01*
X15423089Y-7917450D01*
X15409911Y-7917450D01*
X15409911Y-7917450D01*
X15407509Y-7918093D01*
X15397306Y-7920827D01*
X15397190Y-7920856D01*
X15397182Y-7920860D01*
X15397181Y-7920861D01*
X15385768Y-7927450D01*
X15376450Y-7936768D01*
X15369861Y-7948181D01*
X15369861Y-7948181D01*
X15369857Y-7948190D01*
X15369826Y-7948309D01*
X15369697Y-7948793D01*
X15369025Y-7950443D01*
X15369030Y-7950445D01*
X15368950Y-7950626D01*
X15368883Y-7950791D01*
X15368859Y-7950834D01*
X15368859Y-7950834D01*
X15363768Y-7966415D01*
X15363536Y-7967175D01*
X15363513Y-7967257D01*
X15363309Y-7968027D01*
X15362730Y-7970412D01*
X15362694Y-7970555D01*
X15361513Y-7975065D01*
X15361179Y-7976080D01*
X15360429Y-7977959D01*
X15359677Y-7979421D01*
X15358201Y-7981723D01*
X15357369Y-7982819D01*
X15352600Y-7988153D01*
X15352600Y-7988154D01*
X15351972Y-7989185D01*
X15350701Y-7990802D01*
X15220549Y-8120954D01*
X15214954Y-8126549D01*
X15210998Y-8133401D01*
X15208950Y-8141043D01*
X15208950Y-8413445D01*
X15208428Y-8416403D01*
X15207555Y-8418801D01*
X15205544Y-8421959D01*
X15162181Y-8465322D01*
X15160506Y-8466628D01*
X15159558Y-8467195D01*
X15154705Y-8471587D01*
X15153766Y-8472326D01*
X15152193Y-8473396D01*
X15150410Y-8474326D01*
X15144904Y-8476427D01*
X15143889Y-8476744D01*
X15142096Y-8477185D01*
X15141803Y-8477260D01*
X15133354Y-8479472D01*
X15132520Y-8479709D01*
X15132520Y-8479709D01*
X15132518Y-8479710D01*
X15132425Y-8479738D01*
X15131563Y-8480025D01*
X15131559Y-8480026D01*
X15121776Y-8483514D01*
X15121774Y-8483515D01*
X15121772Y-8483516D01*
X15121490Y-8483620D01*
X15121275Y-8483700D01*
X15121228Y-8483718D01*
X15121141Y-8483762D01*
X15120153Y-8484125D01*
X15119682Y-8484360D01*
X15119681Y-8484361D01*
X15108268Y-8490950D01*
X15098950Y-8500268D01*
X15092439Y-8511546D01*
X15092439Y-8511546D01*
X15092361Y-8511681D01*
X15092361Y-8511681D01*
X15092361Y-8511681D01*
X15088950Y-8524411D01*
X14645586Y-8524411D01*
X15295335Y-7874662D01*
X15297796Y-7872939D01*
X15300109Y-7871860D01*
X15303764Y-7871050D01*
X15526167Y-7871050D01*
X15528274Y-7871310D01*
X15529346Y-7871580D01*
X15535883Y-7871905D01*
X15537067Y-7872047D01*
X15538940Y-7872403D01*
X15540857Y-7873006D01*
X15546236Y-7875414D01*
X15547178Y-7875907D01*
X15548744Y-7876855D01*
X15548744Y-7876855D01*
X15548750Y-7876858D01*
X15548831Y-7876907D01*
X15548845Y-7876916D01*
X15549023Y-7877021D01*
X15556557Y-7881428D01*
X15556558Y-7881429D01*
X15556559Y-7881430D01*
X15557338Y-7881863D01*
X15557429Y-7881911D01*
X15557827Y-7882110D01*
X15558217Y-7882305D01*
X15567605Y-7886758D01*
X15568011Y-7886945D01*
X15568024Y-7886951D01*
X15568057Y-7886966D01*
X15568070Y-7886972D01*
X15568071Y-7886972D01*
X15568264Y-7887035D01*
X15569153Y-7887432D01*
X15569157Y-7887422D01*
X15569681Y-7887639D01*
X15569681Y-7887639D01*
X15569681Y-7887639D01*
X15582411Y-7891050D01*
X15582411Y-7891050D01*
X15595589Y-7891050D01*
X15595589Y-7891050D01*
X15608319Y-7887639D01*
X15619731Y-7881050D01*
X15629050Y-7871731D01*
X15635639Y-7860319D01*
X15636153Y-7858403D01*
X17108950Y-7858403D01*
X17108950Y-7883597D01*
X17112891Y-7908478D01*
X17112891Y-7908480D01*
X17120675Y-7932436D01*
X17120676Y-7932437D01*
X17120676Y-7932437D01*
X17120676Y-7932438D01*
X17120676Y-7932439D01*
X17128697Y-7948181D01*
X17132113Y-7954884D01*
X17136492Y-7960911D01*
X17146921Y-7975266D01*
X17164734Y-7993079D01*
X17185116Y-8007887D01*
X17207562Y-8019324D01*
X17209899Y-8020083D01*
X17222487Y-8024174D01*
X17231387Y-8027065D01*
X17231388Y-8027066D01*
X17231520Y-8027109D01*
X17231521Y-8027109D01*
X17231522Y-8027109D01*
X17231552Y-8027114D01*
X17231552Y-8027114D01*
X17256403Y-8031050D01*
X17256403Y-8031050D01*
X17256404Y-8031050D01*
X17256404Y-8031050D01*
X17281596Y-8031050D01*
X17281596Y-8031050D01*
X17306479Y-8027109D01*
X17306479Y-8027109D01*
X17306480Y-8027109D01*
X17306483Y-8027108D01*
X17306532Y-8027095D01*
X17306660Y-8027050D01*
X17317686Y-8023467D01*
X17330438Y-8019324D01*
X17352885Y-8007887D01*
X17373266Y-7993079D01*
X17391079Y-7975266D01*
X17405887Y-7954884D01*
X17417324Y-7932438D01*
X17422194Y-7917450D01*
X17425050Y-7908659D01*
X17425099Y-7908519D01*
X17425108Y-7908486D01*
X17425109Y-7908479D01*
X17425109Y-7908478D01*
X17429050Y-7883596D01*
X17429050Y-7858404D01*
X17425109Y-7833521D01*
X17425109Y-7833519D01*
X17425104Y-7833506D01*
X17419312Y-7815681D01*
X17419312Y-7815680D01*
X17418278Y-7812498D01*
X17417324Y-7809562D01*
X17405887Y-7787115D01*
X17391079Y-7766734D01*
X17373266Y-7748921D01*
X17357738Y-7737639D01*
X17353436Y-7734513D01*
X17353435Y-7734513D01*
X17352884Y-7734113D01*
X17330440Y-7722677D01*
X17330439Y-7722676D01*
X17330438Y-7722676D01*
X17330437Y-7722676D01*
X17330437Y-7722675D01*
X17330436Y-7722675D01*
X17306480Y-7714891D01*
X17306478Y-7714891D01*
X17281597Y-7710950D01*
X17281597Y-7710950D01*
X17281596Y-7710950D01*
X17256404Y-7710950D01*
X17256403Y-7710950D01*
X17256403Y-7710950D01*
X17231522Y-7714891D01*
X17231520Y-7714891D01*
X17207564Y-7722675D01*
X17207562Y-7722676D01*
X17207560Y-7722677D01*
X17185116Y-7734113D01*
X17184565Y-7734513D01*
X17184564Y-7734513D01*
X17164734Y-7748921D01*
X17146921Y-7766734D01*
X17132513Y-7786564D01*
X17132513Y-7786565D01*
X17132113Y-7787116D01*
X17120677Y-7809560D01*
X17120676Y-7809562D01*
X17120675Y-7809564D01*
X17112891Y-7833520D01*
X17112891Y-7833522D01*
X17108950Y-7858403D01*
X15636153Y-7858403D01*
X15639050Y-7847589D01*
X15639050Y-7834411D01*
X15635639Y-7821681D01*
X15629050Y-7810269D01*
X15619731Y-7800950D01*
X15610341Y-7795528D01*
X15608319Y-7794361D01*
X15608319Y-7794361D01*
X15608319Y-7794361D01*
X15595589Y-7790950D01*
X15595589Y-7790950D01*
X15582411Y-7790950D01*
X15582411Y-7790950D01*
X15581088Y-7791304D01*
X15570445Y-7794156D01*
X15570444Y-7794156D01*
X15569681Y-7794361D01*
X15569681Y-7794361D01*
X15569681Y-7794361D01*
X15568724Y-7794913D01*
X15568291Y-7795104D01*
X15568089Y-7795117D01*
X15567490Y-7795369D01*
X15567492Y-7795374D01*
X15567309Y-7795445D01*
X15567144Y-7795515D01*
X15567096Y-7795528D01*
X15552480Y-7802946D01*
X15552071Y-7803163D01*
X15551777Y-7803320D01*
X15551775Y-7803321D01*
X15551775Y-7803321D01*
X15551702Y-7803362D01*
X15551016Y-7803761D01*
X15548920Y-7805038D01*
X15548789Y-7805116D01*
X15544770Y-7807467D01*
X15543815Y-7807949D01*
X15541957Y-7808747D01*
X15540391Y-7809250D01*
X15537718Y-7809834D01*
X15536355Y-7810020D01*
X15529212Y-7810420D01*
X15528038Y-7810705D01*
X15525996Y-7810950D01*
X15282543Y-7810950D01*
X15274901Y-7812998D01*
X15268873Y-7816478D01*
X15268871Y-7816479D01*
X15268049Y-7816953D01*
X15268049Y-7816954D01*
X14462454Y-8622549D01*
X14458498Y-8629401D01*
X14456450Y-8637043D01*
X14456450Y-8640666D01*
X14456414Y-8641450D01*
X14456353Y-8642121D01*
X14455920Y-8643845D01*
X14455585Y-8650558D01*
X14455569Y-8650736D01*
X14455546Y-8650786D01*
X14455452Y-8651570D01*
X14455097Y-8653439D01*
X14454494Y-8655357D01*
X14452086Y-8660736D01*
X14451592Y-8661678D01*
X14450643Y-8663247D01*
X14450483Y-8663515D01*
X14446070Y-8671060D01*
X14445631Y-8671849D01*
X14445584Y-8671939D01*
X14445196Y-8672714D01*
X14445195Y-8672715D01*
X14442475Y-8678450D01*
X14441399Y-8680719D01*
X14439141Y-8683641D01*
X14439018Y-8683744D01*
X14433461Y-8685765D01*
X14433214Y-8685765D01*
X14428567Y-8684411D01*
X14428334Y-8684263D01*
X14427708Y-8683760D01*
X14427682Y-8683795D01*
X14427231Y-8683450D01*
X14417296Y-8677714D01*
X14417296Y-8677714D01*
X14415819Y-8676861D01*
X14415819Y-8676861D01*
X14415819Y-8676861D01*
X14414171Y-8676419D01*
X14414171Y-8676419D01*
X14406825Y-8674451D01*
X14403089Y-8673450D01*
X14403089Y-8673450D01*
X14389911Y-8673450D01*
X14389911Y-8673450D01*
X14387509Y-8674093D01*
X14377306Y-8676827D01*
X14377190Y-8676857D01*
X14377182Y-8676860D01*
X14377181Y-8676861D01*
X14365768Y-8683450D01*
X14356450Y-8692768D01*
X14349861Y-8704181D01*
X14349860Y-8704182D01*
X14349856Y-8704190D01*
X14349827Y-8704306D01*
X14347189Y-8714153D01*
X14346450Y-8716911D01*
X12849948Y-8716911D01*
X12850270Y-8715586D01*
X12850303Y-8715454D01*
X12851487Y-8710934D01*
X12851820Y-8709921D01*
X12852571Y-8708040D01*
X12853321Y-8706580D01*
X12854799Y-8704275D01*
X12855630Y-8703181D01*
X12860400Y-8697846D01*
X12861028Y-8696815D01*
X12862299Y-8695198D01*
X12867835Y-8689662D01*
X12870296Y-8687939D01*
X12872097Y-8687099D01*
X12872609Y-8686860D01*
X12876264Y-8686050D01*
X13661656Y-8686050D01*
X13662695Y-8685450D01*
X13668099Y-8684002D01*
X13674951Y-8680046D01*
X13680546Y-8674451D01*
X13805820Y-8549177D01*
X13806398Y-8548649D01*
X13806915Y-8548218D01*
X13808441Y-8547305D01*
X13813428Y-8542792D01*
X13813561Y-8542681D01*
X13813612Y-8542662D01*
X13814232Y-8542175D01*
X13815808Y-8541103D01*
X13817589Y-8540174D01*
X13823095Y-8538073D01*
X13824110Y-8537756D01*
X13825893Y-8537317D01*
X13826021Y-8537285D01*
X13826038Y-8537281D01*
X13826202Y-8537239D01*
X13834646Y-8535028D01*
X13835513Y-8534781D01*
X13835565Y-8534764D01*
X13835609Y-8534751D01*
X13836440Y-8534474D01*
X13846227Y-8530985D01*
X13846680Y-8530817D01*
X13846731Y-8530797D01*
X13846732Y-8530797D01*
X13846893Y-8530715D01*
X13847799Y-8530368D01*
X13847795Y-8530356D01*
X13848319Y-8530139D01*
X13849845Y-8529258D01*
X13859731Y-8523550D01*
X13869050Y-8514231D01*
X13875639Y-8502819D01*
X13879050Y-8490089D01*
X13879050Y-8476911D01*
X13875639Y-8464181D01*
X13869050Y-8452769D01*
X13859731Y-8443450D01*
X13850341Y-8438028D01*
X13848319Y-8436861D01*
X13848319Y-8436861D01*
X13848319Y-8436861D01*
X13835589Y-8433450D01*
X13835589Y-8433450D01*
X13822411Y-8433450D01*
X13822411Y-8433450D01*
X13820009Y-8434093D01*
X13809806Y-8436827D01*
X13809690Y-8436857D01*
X13809682Y-8436860D01*
X13809681Y-8436861D01*
X13798268Y-8443450D01*
X13788950Y-8452768D01*
X13782361Y-8464181D01*
X13782357Y-8464190D01*
X13782326Y-8464309D01*
X13782197Y-8464793D01*
X13781525Y-8466443D01*
X13781530Y-8466445D01*
X13781450Y-8466626D01*
X13781383Y-8466791D01*
X13781359Y-8466834D01*
X13781359Y-8466834D01*
X13776268Y-8482415D01*
X13776036Y-8483175D01*
X13776013Y-8483257D01*
X13775809Y-8484027D01*
X13775230Y-8486412D01*
X13775194Y-8486555D01*
X13774013Y-8491065D01*
X13773679Y-8492080D01*
X13772929Y-8493959D01*
X13772177Y-8495421D01*
X13770701Y-8497723D01*
X13769869Y-8498819D01*
X13765100Y-8504154D01*
X13764472Y-8505185D01*
X13763201Y-8506802D01*
X13647665Y-8622338D01*
X13645204Y-8624061D01*
X13642891Y-8625140D01*
X13639236Y-8625950D01*
X12855043Y-8625950D01*
X12847401Y-8627998D01*
X12841831Y-8631214D01*
X12841823Y-8631218D01*
X12840549Y-8631954D01*
X12819681Y-8652822D01*
X12819101Y-8653351D01*
X12818583Y-8653782D01*
X12817058Y-8654695D01*
X12812077Y-8659203D01*
X12811938Y-8659319D01*
X12811887Y-8659338D01*
X12811266Y-8659826D01*
X12809693Y-8660896D01*
X12807910Y-8661826D01*
X12802404Y-8663927D01*
X12801389Y-8664244D01*
X12799596Y-8664685D01*
X12799303Y-8664760D01*
X12790854Y-8666972D01*
X12790020Y-8667209D01*
X12790020Y-8667209D01*
X12790018Y-8667210D01*
X12789925Y-8667238D01*
X12789063Y-8667525D01*
X12789059Y-8667526D01*
X12779276Y-8671014D01*
X12779274Y-8671015D01*
X12779272Y-8671016D01*
X12778990Y-8671120D01*
X12778775Y-8671200D01*
X12778728Y-8671218D01*
X12778641Y-8671262D01*
X12777653Y-8671625D01*
X12777182Y-8671860D01*
X12777181Y-8671861D01*
X12765768Y-8678450D01*
X12756450Y-8687768D01*
X12749861Y-8699181D01*
X12749857Y-8699190D01*
X12749826Y-8699309D01*
X12749697Y-8699793D01*
X12749025Y-8701443D01*
X12749030Y-8701445D01*
X12748950Y-8701626D01*
X12748883Y-8701791D01*
X12748859Y-8701834D01*
X12748859Y-8701834D01*
X12743768Y-8717415D01*
X12743536Y-8718175D01*
X12743513Y-8718257D01*
X12743309Y-8719027D01*
X12742730Y-8721412D01*
X12742694Y-8721555D01*
X12741513Y-8726065D01*
X12741179Y-8727080D01*
X12740429Y-8728959D01*
X12739677Y-8730421D01*
X12738201Y-8732723D01*
X12737369Y-8733819D01*
X12732600Y-8739154D01*
X12731972Y-8740185D01*
X12730701Y-8741802D01*
X12625549Y-8846954D01*
X12619954Y-8852549D01*
X12615998Y-8859401D01*
X12613950Y-8867043D01*
X12613950Y-9298445D01*
X12613428Y-9301403D01*
X12612555Y-9303801D01*
X12610544Y-9306959D01*
X12382181Y-9535322D01*
X12380506Y-9536628D01*
X12379558Y-9537195D01*
X12374705Y-9541587D01*
X12373766Y-9542326D01*
X12372193Y-9543396D01*
X12370410Y-9544326D01*
X12364904Y-9546427D01*
X12363889Y-9546744D01*
X12362096Y-9547185D01*
X12361803Y-9547260D01*
X12353354Y-9549472D01*
X12352520Y-9549709D01*
X12352520Y-9549709D01*
X12352518Y-9549710D01*
X12352425Y-9549738D01*
X12352095Y-9549848D01*
X12351560Y-9550025D01*
X12350605Y-9550366D01*
X12344688Y-9550327D01*
X12340180Y-9546494D01*
X12339050Y-9542218D01*
X12339050Y-9436929D01*
X12338903Y-9436496D01*
X12337002Y-9429401D01*
X12333046Y-9422549D01*
X12282662Y-9372165D01*
X12280939Y-9369704D01*
X12279860Y-9367391D01*
X12279050Y-9363736D01*
X12279050Y-8891911D01*
X12451450Y-8891911D01*
X12451450Y-8905089D01*
X12454503Y-8916485D01*
X12454861Y-8917819D01*
X12461450Y-8929231D01*
X12470768Y-8938550D01*
X12470768Y-8938550D01*
X12470769Y-8938550D01*
X12482181Y-8945139D01*
X12494911Y-8948550D01*
X12494911Y-8948550D01*
X12508089Y-8948550D01*
X12508089Y-8948550D01*
X12520819Y-8945139D01*
X12532231Y-8938550D01*
X12541550Y-8929231D01*
X12548139Y-8917819D01*
X12551550Y-8905089D01*
X12551550Y-8891911D01*
X12548139Y-8879181D01*
X12547822Y-8878632D01*
X12547131Y-8876991D01*
X12547126Y-8876993D01*
X12547050Y-8876799D01*
X12546984Y-8876641D01*
X12546971Y-8876596D01*
X12539555Y-8861982D01*
X12539183Y-8861282D01*
X12539139Y-8861203D01*
X12538737Y-8860514D01*
X12538736Y-8860512D01*
X12538735Y-8860510D01*
X12537464Y-8858424D01*
X12537386Y-8858293D01*
X12537363Y-8858254D01*
X12535033Y-8854270D01*
X12534551Y-8853316D01*
X12533752Y-8851456D01*
X12533250Y-8849891D01*
X12532666Y-8847219D01*
X12532480Y-8845855D01*
X12532473Y-8845730D01*
X12532080Y-8838712D01*
X12531794Y-8837538D01*
X12531550Y-8835496D01*
X12531550Y-8818555D01*
X12532072Y-8815597D01*
X12532853Y-8813450D01*
X12532944Y-8813199D01*
X12534956Y-8810041D01*
X12827835Y-8517162D01*
X12830296Y-8515439D01*
X12832609Y-8514360D01*
X12836264Y-8513550D01*
X13466167Y-8513550D01*
X13466950Y-8513586D01*
X13467621Y-8513647D01*
X13469346Y-8514080D01*
X13476059Y-8514414D01*
X13476235Y-8514430D01*
X13476284Y-8514453D01*
X13477067Y-8514547D01*
X13478940Y-8514904D01*
X13480857Y-8515506D01*
X13486236Y-8517914D01*
X13487178Y-8518408D01*
X13488744Y-8519355D01*
X13488744Y-8519355D01*
X13488750Y-8519358D01*
X13488831Y-8519407D01*
X13488845Y-8519416D01*
X13489023Y-8519521D01*
X13496557Y-8523928D01*
X13496558Y-8523929D01*
X13496559Y-8523930D01*
X13497338Y-8524363D01*
X13497429Y-8524411D01*
X13497827Y-8524610D01*
X13498217Y-8524805D01*
X13507605Y-8529258D01*
X13508011Y-8529445D01*
X13508024Y-8529451D01*
X13508057Y-8529466D01*
X13508070Y-8529472D01*
X13508071Y-8529472D01*
X13508264Y-8529535D01*
X13509153Y-8529932D01*
X13509157Y-8529922D01*
X13509681Y-8530139D01*
X13509681Y-8530139D01*
X13509681Y-8530139D01*
X13522411Y-8533550D01*
X13522411Y-8533550D01*
X13535589Y-8533550D01*
X13535589Y-8533550D01*
X13548319Y-8530139D01*
X13559731Y-8523550D01*
X13569050Y-8514231D01*
X13575639Y-8502819D01*
X13579050Y-8490089D01*
X13579050Y-8476911D01*
X13575639Y-8464181D01*
X13569050Y-8452769D01*
X13559731Y-8443450D01*
X13550341Y-8438028D01*
X13548319Y-8436861D01*
X13548319Y-8436861D01*
X13548319Y-8436861D01*
X13535589Y-8433450D01*
X13535589Y-8433450D01*
X13522411Y-8433450D01*
X13522411Y-8433450D01*
X13521088Y-8433804D01*
X13510445Y-8436656D01*
X13510444Y-8436656D01*
X13509681Y-8436861D01*
X13509681Y-8436861D01*
X13509681Y-8436861D01*
X13508724Y-8437413D01*
X13508291Y-8437604D01*
X13508089Y-8437617D01*
X13507490Y-8437869D01*
X13507492Y-8437874D01*
X13507309Y-8437945D01*
X13507144Y-8438015D01*
X13507096Y-8438028D01*
X13492480Y-8445446D01*
X13492071Y-8445663D01*
X13491777Y-8445820D01*
X13491775Y-8445821D01*
X13491775Y-8445821D01*
X13491702Y-8445862D01*
X13491016Y-8446262D01*
X13488920Y-8447538D01*
X13488789Y-8447616D01*
X13484770Y-8449967D01*
X13483815Y-8450449D01*
X13481957Y-8451247D01*
X13480391Y-8451750D01*
X13477718Y-8452334D01*
X13476355Y-8452520D01*
X13469212Y-8452920D01*
X13468038Y-8453205D01*
X13465996Y-8453450D01*
X12815043Y-8453450D01*
X12807401Y-8455498D01*
X12801373Y-8458978D01*
X12801371Y-8458979D01*
X12800549Y-8459454D01*
X12800549Y-8459454D01*
X12477454Y-8782549D01*
X12473498Y-8789401D01*
X12471450Y-8797043D01*
X12471450Y-8835666D01*
X12471414Y-8836450D01*
X12471353Y-8837121D01*
X12470920Y-8838845D01*
X12470585Y-8845558D01*
X12470569Y-8845736D01*
X12470546Y-8845786D01*
X12470452Y-8846570D01*
X12470097Y-8848439D01*
X12469494Y-8850357D01*
X12467086Y-8855736D01*
X12466592Y-8856678D01*
X12465643Y-8858247D01*
X12465483Y-8858515D01*
X12461070Y-8866060D01*
X12460631Y-8866849D01*
X12460584Y-8866939D01*
X12460194Y-8867718D01*
X12455745Y-8877098D01*
X12455549Y-8877524D01*
X12455528Y-8877571D01*
X12455457Y-8877788D01*
X12455301Y-8878223D01*
X12455070Y-8878818D01*
X12454861Y-8879181D01*
X12454861Y-8879181D01*
X12454861Y-8879181D01*
X12454707Y-8879756D01*
X12454706Y-8879758D01*
X12452349Y-8888555D01*
X12451450Y-8891911D01*
X12279050Y-8891911D01*
X12279050Y-8774411D01*
X12353950Y-8774411D01*
X12353950Y-8787589D01*
X12357056Y-8799181D01*
X12357361Y-8800319D01*
X12361138Y-8806861D01*
X12361256Y-8807066D01*
X12361256Y-8807066D01*
X12363950Y-8811731D01*
X12373268Y-8821050D01*
X12373268Y-8821050D01*
X12374964Y-8822029D01*
X12384681Y-8827639D01*
X12397411Y-8831050D01*
X12397411Y-8831050D01*
X12410589Y-8831050D01*
X12410589Y-8831050D01*
X12423319Y-8827639D01*
X12434731Y-8821050D01*
X12444050Y-8811731D01*
X12450639Y-8800319D01*
X12454050Y-8787589D01*
X12454050Y-8774411D01*
X12450639Y-8761681D01*
X12444050Y-8750269D01*
X12434731Y-8740950D01*
X12429308Y-8737819D01*
X12427819Y-8736959D01*
X12424796Y-8735214D01*
X12424796Y-8735214D01*
X12423319Y-8734361D01*
X12423319Y-8734361D01*
X12423319Y-8734361D01*
X12421671Y-8733919D01*
X12421671Y-8733919D01*
X12415717Y-8732324D01*
X12410589Y-8730950D01*
X12410589Y-8730950D01*
X12397411Y-8730950D01*
X12397411Y-8730950D01*
X12395719Y-8731403D01*
X12384806Y-8734327D01*
X12384690Y-8734357D01*
X12384682Y-8734360D01*
X12384681Y-8734361D01*
X12373268Y-8740950D01*
X12363950Y-8750268D01*
X12357439Y-8761546D01*
X12357439Y-8761546D01*
X12357361Y-8761681D01*
X12357361Y-8761681D01*
X12357361Y-8761681D01*
X12353950Y-8774411D01*
X12279050Y-8774411D01*
X12279050Y-8378555D01*
X12279572Y-8375597D01*
X12280444Y-8373199D01*
X12282456Y-8370041D01*
X12493086Y-8159411D01*
X13973950Y-8159411D01*
X13973950Y-8172589D01*
X13977361Y-8185319D01*
X13983950Y-8196731D01*
X13993269Y-8206050D01*
X14004681Y-8212639D01*
X14017411Y-8216050D01*
X14017411Y-8216050D01*
X14030589Y-8216050D01*
X14030589Y-8216050D01*
X14043319Y-8212639D01*
X14054731Y-8206050D01*
X14064050Y-8196731D01*
X14070639Y-8185319D01*
X14074050Y-8172589D01*
X14074050Y-8159411D01*
X14070639Y-8146681D01*
X14064050Y-8135269D01*
X14054731Y-8125950D01*
X14043319Y-8119361D01*
X14030589Y-8115950D01*
X14030589Y-8115950D01*
X14017411Y-8115950D01*
X14017411Y-8115950D01*
X14015009Y-8116593D01*
X14004806Y-8119327D01*
X14004690Y-8119356D01*
X14004682Y-8119360D01*
X14004681Y-8119361D01*
X13993268Y-8125950D01*
X13983950Y-8135268D01*
X13977361Y-8146681D01*
X13977358Y-8146687D01*
X13977349Y-8146722D01*
X13977334Y-8146780D01*
X13973950Y-8159411D01*
X12493086Y-8159411D01*
X12747835Y-7904662D01*
X12750296Y-7902939D01*
X12752609Y-7901860D01*
X12756264Y-7901050D01*
X14764156Y-7901050D01*
X14765195Y-7900450D01*
X14770599Y-7899002D01*
X14777451Y-7895046D01*
X14783046Y-7889451D01*
X14907835Y-7764662D01*
X14910296Y-7762939D01*
X14912609Y-7761860D01*
X14916264Y-7761050D01*
X16096167Y-7761050D01*
X16098274Y-7761310D01*
X16099346Y-7761580D01*
X16105883Y-7761905D01*
X16107067Y-7762047D01*
X16108940Y-7762403D01*
X16110857Y-7763006D01*
X16116236Y-7765414D01*
X16117178Y-7765907D01*
X16118744Y-7766855D01*
X16118744Y-7766855D01*
X16118750Y-7766858D01*
X16118831Y-7766907D01*
X16118845Y-7766916D01*
X16119023Y-7767021D01*
X16126557Y-7771428D01*
X16126558Y-7771429D01*
X16126559Y-7771430D01*
X16127338Y-7771863D01*
X16127429Y-7771911D01*
X16127827Y-7772110D01*
X16128217Y-7772305D01*
X16137605Y-7776758D01*
X16138011Y-7776945D01*
X16138024Y-7776951D01*
X16138057Y-7776966D01*
X16138070Y-7776972D01*
X16138071Y-7776972D01*
X16138264Y-7777035D01*
X16139153Y-7777432D01*
X16139157Y-7777422D01*
X16139681Y-7777639D01*
X16139681Y-7777639D01*
X16139681Y-7777639D01*
X16152411Y-7781050D01*
X16152411Y-7781050D01*
X16165589Y-7781050D01*
X16165589Y-7781050D01*
X16178319Y-7777639D01*
X16189731Y-7771050D01*
X16199050Y-7761731D01*
X16205639Y-7750319D01*
X16209050Y-7737589D01*
X16209050Y-7724411D01*
X16205639Y-7711681D01*
X16199050Y-7700269D01*
X16189731Y-7690950D01*
X16180065Y-7685369D01*
X16179796Y-7685214D01*
X16179796Y-7685214D01*
X16178319Y-7684361D01*
X16178319Y-7684361D01*
X16178319Y-7684361D01*
X16176671Y-7683919D01*
X16176671Y-7683919D01*
X16170717Y-7682324D01*
X16165589Y-7680950D01*
X16165589Y-7680950D01*
X16152411Y-7680950D01*
X16152411Y-7680950D01*
X16151088Y-7681304D01*
X16140445Y-7684156D01*
X16140444Y-7684156D01*
X16139681Y-7684361D01*
X16139681Y-7684361D01*
X16139681Y-7684361D01*
X16138724Y-7684913D01*
X16138291Y-7685104D01*
X16138089Y-7685117D01*
X16137490Y-7685369D01*
X16137492Y-7685374D01*
X16137309Y-7685445D01*
X16137144Y-7685515D01*
X16137096Y-7685528D01*
X16122480Y-7692946D01*
X16122071Y-7693163D01*
X16121777Y-7693320D01*
X16121775Y-7693321D01*
X16121775Y-7693321D01*
X16121702Y-7693362D01*
X16121016Y-7693761D01*
X16118920Y-7695038D01*
X16118789Y-7695116D01*
X16114770Y-7697467D01*
X16113815Y-7697949D01*
X16111957Y-7698747D01*
X16110391Y-7699250D01*
X16107718Y-7699834D01*
X16106355Y-7700020D01*
X16099212Y-7700420D01*
X16098038Y-7700705D01*
X16095996Y-7700950D01*
X14895043Y-7700950D01*
X14887401Y-7702998D01*
X14881373Y-7706478D01*
X14881371Y-7706479D01*
X14880549Y-7706953D01*
X14880549Y-7706954D01*
X14750165Y-7837338D01*
X14747704Y-7839061D01*
X14745391Y-7840139D01*
X14741736Y-7840950D01*
X12735043Y-7840950D01*
X12727401Y-7842998D01*
X12727399Y-7842999D01*
X12721729Y-7846273D01*
X12721729Y-7846273D01*
X12720549Y-7846954D01*
X12720549Y-7846954D01*
X12230549Y-8336954D01*
X12224954Y-8342549D01*
X12220998Y-8349401D01*
X12218950Y-8357043D01*
X12218950Y-8835260D01*
X12218428Y-8838219D01*
X12218088Y-8839155D01*
X12214284Y-8843687D01*
X12208457Y-8844714D01*
X12208457Y-8844714D01*
X12208154Y-8844661D01*
X12203540Y-8842259D01*
X12199731Y-8838450D01*
X12189796Y-8832714D01*
X12189796Y-8832714D01*
X12188319Y-8831861D01*
X12188319Y-8831861D01*
X12188319Y-8831861D01*
X12186671Y-8831419D01*
X12186671Y-8831419D01*
X12177489Y-8828959D01*
X12175589Y-8828450D01*
X12175589Y-8828450D01*
X12162411Y-8828450D01*
X12162411Y-8828450D01*
X12160511Y-8828959D01*
X12149806Y-8831827D01*
X12149690Y-8831857D01*
X12149682Y-8831860D01*
X12149681Y-8831861D01*
X12138268Y-8838450D01*
X12128950Y-8847768D01*
X12122361Y-8859181D01*
X12122360Y-8859182D01*
X12122356Y-8859190D01*
X12122327Y-8859306D01*
X12119454Y-8870028D01*
X12118950Y-8871911D01*
X12089050Y-8871911D01*
X12089050Y-8144411D01*
X12158950Y-8144411D01*
X12158950Y-8157589D01*
X12159872Y-8161030D01*
X12159872Y-8161030D01*
X12162361Y-8170319D01*
X12162361Y-8170319D01*
X12163672Y-8172589D01*
X12168950Y-8181731D01*
X12178269Y-8191050D01*
X12189681Y-8197639D01*
X12202411Y-8201050D01*
X12202411Y-8201050D01*
X12215589Y-8201050D01*
X12215589Y-8201050D01*
X12228319Y-8197639D01*
X12239731Y-8191050D01*
X12249050Y-8181731D01*
X12255639Y-8170319D01*
X12259050Y-8157589D01*
X12259050Y-8144411D01*
X12255639Y-8131681D01*
X12249050Y-8120269D01*
X12239731Y-8110950D01*
X12228319Y-8104361D01*
X12215589Y-8100950D01*
X12215589Y-8100950D01*
X12202411Y-8100950D01*
X12202411Y-8100950D01*
X12200009Y-8101593D01*
X12189806Y-8104327D01*
X12189690Y-8104356D01*
X12189682Y-8104360D01*
X12189681Y-8104361D01*
X12178268Y-8110950D01*
X12168950Y-8120268D01*
X12162361Y-8131681D01*
X12162360Y-8131682D01*
X12162357Y-8131689D01*
X12162327Y-8131806D01*
X12158950Y-8144411D01*
X12089050Y-8144411D01*
X12089050Y-7858403D01*
X12208950Y-7858403D01*
X12208950Y-7883597D01*
X12212891Y-7908478D01*
X12212891Y-7908480D01*
X12220675Y-7932436D01*
X12220675Y-7932437D01*
X12220676Y-7932437D01*
X12220676Y-7932438D01*
X12220676Y-7932439D01*
X12228697Y-7948181D01*
X12232113Y-7954884D01*
X12236491Y-7960911D01*
X12246921Y-7975266D01*
X12264734Y-7993079D01*
X12285115Y-8007887D01*
X12307562Y-8019324D01*
X12309899Y-8020083D01*
X12322487Y-8024174D01*
X12331387Y-8027065D01*
X12331388Y-8027066D01*
X12331520Y-8027109D01*
X12331521Y-8027109D01*
X12331521Y-8027109D01*
X12331552Y-8027114D01*
X12331552Y-8027114D01*
X12356403Y-8031050D01*
X12356403Y-8031050D01*
X12356404Y-8031050D01*
X12356404Y-8031050D01*
X12381596Y-8031050D01*
X12381596Y-8031050D01*
X12406478Y-8027109D01*
X12406479Y-8027109D01*
X12406480Y-8027109D01*
X12406483Y-8027108D01*
X12406532Y-8027095D01*
X12406660Y-8027050D01*
X12417686Y-8023467D01*
X12430438Y-8019324D01*
X12452884Y-8007887D01*
X12473266Y-7993079D01*
X12491079Y-7975266D01*
X12505887Y-7954884D01*
X12517324Y-7932438D01*
X12522194Y-7917450D01*
X12525050Y-7908659D01*
X12525099Y-7908519D01*
X12525108Y-7908486D01*
X12525109Y-7908479D01*
X12525109Y-7908478D01*
X12529050Y-7883596D01*
X12529050Y-7858404D01*
X12525109Y-7833521D01*
X12525108Y-7833519D01*
X12525104Y-7833506D01*
X12519312Y-7815681D01*
X12519312Y-7815680D01*
X12518278Y-7812498D01*
X12517324Y-7809562D01*
X12505887Y-7787115D01*
X12491079Y-7766734D01*
X12473266Y-7748921D01*
X12457738Y-7737639D01*
X12453435Y-7734513D01*
X12453435Y-7734513D01*
X12452884Y-7734113D01*
X12430440Y-7722677D01*
X12430439Y-7722676D01*
X12430438Y-7722676D01*
X12430437Y-7722676D01*
X12430437Y-7722675D01*
X12430436Y-7722675D01*
X12406480Y-7714891D01*
X12406478Y-7714891D01*
X12381597Y-7710950D01*
X12381597Y-7710950D01*
X12381596Y-7710950D01*
X12356404Y-7710950D01*
X12356403Y-7710950D01*
X12356403Y-7710950D01*
X12331522Y-7714891D01*
X12331520Y-7714891D01*
X12307564Y-7722675D01*
X12307562Y-7722676D01*
X12307560Y-7722677D01*
X12285116Y-7734113D01*
X12284565Y-7734513D01*
X12284564Y-7734513D01*
X12264734Y-7748921D01*
X12246921Y-7766734D01*
X12232513Y-7786564D01*
X12232513Y-7786565D01*
X12232113Y-7787116D01*
X12220677Y-7809560D01*
X12220676Y-7809562D01*
X12220675Y-7809564D01*
X12212891Y-7833520D01*
X12212891Y-7833522D01*
X12208950Y-7858403D01*
X12089050Y-7858403D01*
X12089050Y-7684411D01*
X14676450Y-7684411D01*
X14676450Y-7697589D01*
X14676547Y-7697952D01*
X14676547Y-7697952D01*
X14678959Y-7706954D01*
X14678959Y-7706954D01*
X14679861Y-7710319D01*
X14682501Y-7714891D01*
X14686450Y-7721731D01*
X14695769Y-7731050D01*
X14707181Y-7737639D01*
X14719911Y-7741050D01*
X14719911Y-7741050D01*
X14733089Y-7741050D01*
X14733089Y-7741050D01*
X14745819Y-7737639D01*
X14757231Y-7731050D01*
X14766550Y-7721731D01*
X14773139Y-7710319D01*
X14776550Y-7697589D01*
X14776550Y-7684411D01*
X14773139Y-7671681D01*
X14766550Y-7660269D01*
X14757231Y-7650950D01*
X14745819Y-7644361D01*
X14733089Y-7640950D01*
X14733089Y-7640950D01*
X14719911Y-7640950D01*
X14719911Y-7640950D01*
X14717509Y-7641593D01*
X14707306Y-7644327D01*
X14707190Y-7644356D01*
X14707182Y-7644360D01*
X14707181Y-7644361D01*
X14695768Y-7650950D01*
X14686450Y-7660268D01*
X14679939Y-7671546D01*
X14679939Y-7671546D01*
X14679861Y-7671681D01*
X14679861Y-7671681D01*
X14679861Y-7671681D01*
X14676450Y-7684411D01*
X12089050Y-7684411D01*
X12089050Y-7601225D01*
X12089572Y-7598267D01*
X12089597Y-7598198D01*
X12089997Y-7597098D01*
X12093800Y-7592566D01*
X12093800Y-7592566D01*
X12094418Y-7592209D01*
X12098743Y-7591050D01*
X17538775Y-7591050D01*
X17541733Y-7591572D01*
G37*
%TD.AperFunction*%
%TD*%
%TA.AperFunction,Conductor*%
%TO.N,+3V3*%
G36*
X15471183Y-11473431D02*
G01*
X15471233Y-11473454D01*
X15480622Y-11477907D01*
X15480710Y-11477953D01*
X15487270Y-11481791D01*
X15488244Y-11482361D01*
X15488259Y-11482370D01*
X15491370Y-11484252D01*
X15501508Y-11488790D01*
X15508719Y-11490163D01*
X15517276Y-11490589D01*
X15518085Y-11490973D01*
X15518388Y-11491758D01*
X15518388Y-11509538D01*
X15518045Y-11510365D01*
X15517283Y-11510706D01*
X15507813Y-11511237D01*
X15500141Y-11512914D01*
X15500141Y-11512914D01*
X15500141Y-11512914D01*
X15498387Y-11513667D01*
X15494058Y-11515526D01*
X15488250Y-11518924D01*
X15485942Y-11520330D01*
X15485863Y-11520374D01*
X15471248Y-11527791D01*
X15470356Y-11527860D01*
X15469676Y-11527277D01*
X15469639Y-11527199D01*
X15463671Y-11512914D01*
X15458733Y-11501095D01*
X15458730Y-11500200D01*
X15458731Y-11500199D01*
X15469652Y-11474060D01*
X15470287Y-11473429D01*
X15471183Y-11473431D01*
G37*
%TD.AperFunction*%
%TD*%
%TA.AperFunction,Conductor*%
%TO.N,+3V3*%
G36*
X15869948Y-10512497D02*
G01*
X15888179Y-10519984D01*
X15896118Y-10523244D01*
X15896754Y-10523875D01*
X15896756Y-10523882D01*
X15907515Y-10550082D01*
X15907512Y-10550977D01*
X15906877Y-10551609D01*
X15906825Y-10551628D01*
X15897038Y-10555118D01*
X15896942Y-10555148D01*
X15888497Y-10557359D01*
X15888480Y-10557363D01*
X15884950Y-10558232D01*
X15874574Y-10562191D01*
X15874573Y-10562191D01*
X15868503Y-10566320D01*
X15862151Y-10572069D01*
X15861308Y-10572370D01*
X15860539Y-10572029D01*
X15847966Y-10559456D01*
X15847624Y-10558629D01*
X15847921Y-10557849D01*
X15854243Y-10550778D01*
X15854243Y-10550777D01*
X15854243Y-10550777D01*
X15855678Y-10548539D01*
X15858482Y-10544166D01*
X15860936Y-10538018D01*
X15862639Y-10531510D01*
X15863278Y-10528881D01*
X15863302Y-10528798D01*
X15868392Y-10513217D01*
X15868975Y-10512537D01*
X15869868Y-10512468D01*
X15869948Y-10512497D01*
G37*
%TD.AperFunction*%
%TD*%
%TA.AperFunction,Conductor*%
%TO.N,/SW_TO_BT_AUDIO*%
G36*
X12654651Y-10362421D02*
G01*
X12661722Y-10368742D01*
X12661723Y-10368743D01*
X12666764Y-10371975D01*
X12668334Y-10372982D01*
X12668334Y-10372982D01*
X12668334Y-10372982D01*
X12674480Y-10375435D01*
X12674481Y-10375435D01*
X12674481Y-10375435D01*
X12674482Y-10375436D01*
X12680990Y-10377139D01*
X12683619Y-10377778D01*
X12683702Y-10377802D01*
X12699283Y-10382892D01*
X12699963Y-10383475D01*
X12700032Y-10384368D01*
X12700002Y-10384449D01*
X12689256Y-10410618D01*
X12688625Y-10411254D01*
X12688618Y-10411256D01*
X12662418Y-10422015D01*
X12661522Y-10422012D01*
X12660891Y-10421377D01*
X12660872Y-10421327D01*
X12657381Y-10411537D01*
X12657352Y-10411441D01*
X12655139Y-10402990D01*
X12654268Y-10399451D01*
X12654268Y-10399451D01*
X12654268Y-10399451D01*
X12650309Y-10389074D01*
X12650308Y-10389073D01*
X12646181Y-10383004D01*
X12646180Y-10383004D01*
X12646180Y-10383004D01*
X12646180Y-10383004D01*
X12641473Y-10377803D01*
X12640431Y-10376651D01*
X12640130Y-10375808D01*
X12640471Y-10375039D01*
X12653044Y-10362466D01*
X12653871Y-10362124D01*
X12654651Y-10362421D01*
G37*
%TD.AperFunction*%
%TD*%
%TA.AperFunction,Conductor*%
%TO.N,/SW_TO_BT_AUDIO*%
G36*
X16147969Y-7704367D02*
G01*
X16148005Y-7704446D01*
X16158911Y-7730549D01*
X16158914Y-7731444D01*
X16158911Y-7731451D01*
X16147992Y-7757585D01*
X16147357Y-7758216D01*
X16146462Y-7758213D01*
X16146411Y-7758191D01*
X16137023Y-7753738D01*
X16136934Y-7753691D01*
X16129400Y-7749283D01*
X16129386Y-7749275D01*
X16127410Y-7748079D01*
X16126275Y-7747393D01*
X16116137Y-7742854D01*
X16108925Y-7741482D01*
X16108925Y-7741482D01*
X16100368Y-7741055D01*
X16099559Y-7740672D01*
X16099257Y-7739887D01*
X16099257Y-7722106D01*
X16099599Y-7721279D01*
X16100361Y-7720938D01*
X16107739Y-7720525D01*
X16109831Y-7720408D01*
X16111208Y-7720107D01*
X16117504Y-7718730D01*
X16123586Y-7716118D01*
X16129393Y-7712721D01*
X16131704Y-7711313D01*
X16131780Y-7711271D01*
X16146396Y-7703854D01*
X16147289Y-7703785D01*
X16147969Y-7704367D01*
G37*
%TD.AperFunction*%
%TD*%
%TA.AperFunction,Conductor*%
%TO.N,Net-(R24-Pad1)*%
G36*
X15056221Y-8996599D02*
G01*
X15056562Y-8997361D01*
X15057092Y-9006832D01*
X15058471Y-9013137D01*
X15058770Y-9014504D01*
X15061382Y-9020587D01*
X15064779Y-9026393D01*
X15064780Y-9026394D01*
X15066186Y-9028703D01*
X15066230Y-9028782D01*
X15073646Y-9043396D01*
X15073715Y-9044289D01*
X15073132Y-9044969D01*
X15073054Y-9045005D01*
X15046951Y-9055912D01*
X15046056Y-9055914D01*
X15046049Y-9055912D01*
X15019915Y-9044992D01*
X15019284Y-9044357D01*
X15019287Y-9043462D01*
X15019309Y-9043411D01*
X15019316Y-9043396D01*
X15023763Y-9034022D01*
X15023808Y-9033935D01*
X15028220Y-9026394D01*
X15028222Y-9026391D01*
X15030107Y-9023275D01*
X15034646Y-9013137D01*
X15036018Y-9005925D01*
X15036101Y-9004252D01*
X15036445Y-8997369D01*
X15036828Y-8996559D01*
X15037613Y-8996257D01*
X15055394Y-8996257D01*
X15056221Y-8996599D01*
G37*
%TD.AperFunction*%
%TD*%
%TA.AperFunction,Conductor*%
%TO.N,Net-(R24-Pad1)*%
G36*
X15370585Y-8212008D02*
G01*
X15371216Y-8212643D01*
X15371213Y-8213538D01*
X15371191Y-8213589D01*
X15366738Y-8222977D01*
X15366691Y-8223066D01*
X15362283Y-8230599D01*
X15362275Y-8230614D01*
X15360393Y-8233725D01*
X15360393Y-8233725D01*
X15359189Y-8236413D01*
X15356466Y-8242497D01*
X15355854Y-8243863D01*
X15354482Y-8251075D01*
X15354055Y-8259631D01*
X15353672Y-8260441D01*
X15352887Y-8260743D01*
X15335106Y-8260743D01*
X15334279Y-8260401D01*
X15333938Y-8259639D01*
X15333408Y-8250168D01*
X15332029Y-8243863D01*
X15331730Y-8242496D01*
X15329118Y-8236413D01*
X15325721Y-8230607D01*
X15324313Y-8228296D01*
X15324271Y-8228219D01*
X15316854Y-8213604D01*
X15316785Y-8212711D01*
X15317367Y-8212031D01*
X15317444Y-8211995D01*
X15343549Y-8201088D01*
X15344444Y-8201086D01*
X15370585Y-8212008D01*
G37*
%TD.AperFunction*%
%TD*%
%TA.AperFunction,Conductor*%
%TO.N,Net-(R25-Pad1)*%
G36*
X15845585Y-8357008D02*
G01*
X15846216Y-8357643D01*
X15846213Y-8358538D01*
X15846191Y-8358589D01*
X15841738Y-8367977D01*
X15841691Y-8368066D01*
X15837283Y-8375599D01*
X15837275Y-8375614D01*
X15835393Y-8378725D01*
X15835393Y-8378725D01*
X15834189Y-8381413D01*
X15831466Y-8387497D01*
X15830854Y-8388863D01*
X15829482Y-8396075D01*
X15829055Y-8404632D01*
X15828672Y-8405441D01*
X15827887Y-8405743D01*
X15810106Y-8405743D01*
X15809279Y-8405401D01*
X15808938Y-8404639D01*
X15808408Y-8395168D01*
X15807029Y-8388863D01*
X15806730Y-8387496D01*
X15804118Y-8381413D01*
X15800721Y-8375607D01*
X15799313Y-8373296D01*
X15799271Y-8373219D01*
X15791854Y-8358604D01*
X15791785Y-8357711D01*
X15792367Y-8357031D01*
X15792444Y-8356995D01*
X15818549Y-8346088D01*
X15819444Y-8346086D01*
X15845585Y-8357008D01*
G37*
%TD.AperFunction*%
%TD*%
%TA.AperFunction,Conductor*%
%TO.N,Net-(R25-Pad1)*%
G36*
X15319961Y-9232471D02*
G01*
X15332534Y-9245044D01*
X15332876Y-9245871D01*
X15332579Y-9246651D01*
X15326258Y-9253722D01*
X15326257Y-9253723D01*
X15322018Y-9260334D01*
X15322018Y-9260334D01*
X15319565Y-9266481D01*
X15319564Y-9266481D01*
X15317860Y-9272992D01*
X15317222Y-9275616D01*
X15317197Y-9275703D01*
X15312107Y-9291283D01*
X15311525Y-9291963D01*
X15310632Y-9292032D01*
X15310551Y-9292002D01*
X15284381Y-9281256D01*
X15283746Y-9280625D01*
X15283744Y-9280618D01*
X15272985Y-9254418D01*
X15272988Y-9253523D01*
X15273623Y-9252891D01*
X15273673Y-9252872D01*
X15283464Y-9249381D01*
X15283557Y-9249352D01*
X15292010Y-9247139D01*
X15295549Y-9246268D01*
X15305927Y-9242309D01*
X15311996Y-9238180D01*
X15318348Y-9232431D01*
X15319192Y-9232130D01*
X15319961Y-9232471D01*
G37*
%TD.AperFunction*%
%TD*%
%TA.AperFunction,Conductor*%
%TO.N,/SCK*%
G36*
X13517969Y-8456868D02*
G01*
X13518005Y-8456946D01*
X13528911Y-8483049D01*
X13528914Y-8483944D01*
X13528911Y-8483951D01*
X13517992Y-8510085D01*
X13517357Y-8510716D01*
X13516462Y-8510713D01*
X13516411Y-8510691D01*
X13507023Y-8506238D01*
X13506934Y-8506191D01*
X13499400Y-8501784D01*
X13499386Y-8501775D01*
X13497410Y-8500580D01*
X13496275Y-8499893D01*
X13486137Y-8495354D01*
X13478925Y-8493982D01*
X13478925Y-8493982D01*
X13470368Y-8493555D01*
X13469559Y-8493172D01*
X13469257Y-8492387D01*
X13469257Y-8474606D01*
X13469599Y-8473779D01*
X13470361Y-8473438D01*
X13477739Y-8473025D01*
X13479831Y-8472908D01*
X13481208Y-8472607D01*
X13487504Y-8471230D01*
X13493586Y-8468618D01*
X13499393Y-8465221D01*
X13501704Y-8463813D01*
X13501780Y-8463771D01*
X13516396Y-8456354D01*
X13517289Y-8456285D01*
X13517969Y-8456868D01*
G37*
%TD.AperFunction*%
%TD*%
%TA.AperFunction,Conductor*%
%TO.N,/SCK*%
G36*
X12511221Y-8839099D02*
G01*
X12511562Y-8839861D01*
X12512092Y-8849332D01*
X12513471Y-8855637D01*
X12513770Y-8857004D01*
X12516382Y-8863087D01*
X12519779Y-8868893D01*
X12519780Y-8868894D01*
X12521186Y-8871203D01*
X12521230Y-8871282D01*
X12528646Y-8885896D01*
X12528715Y-8886789D01*
X12528132Y-8887469D01*
X12528054Y-8887505D01*
X12501951Y-8898412D01*
X12501056Y-8898414D01*
X12501049Y-8898412D01*
X12474915Y-8887492D01*
X12474284Y-8886857D01*
X12474287Y-8885962D01*
X12474309Y-8885911D01*
X12474316Y-8885896D01*
X12478763Y-8876522D01*
X12478808Y-8876435D01*
X12483220Y-8868894D01*
X12483222Y-8868891D01*
X12485107Y-8865775D01*
X12489646Y-8855637D01*
X12491018Y-8848425D01*
X12491101Y-8846752D01*
X12491445Y-8839869D01*
X12491828Y-8839059D01*
X12492613Y-8838757D01*
X12510394Y-8838757D01*
X12511221Y-8839099D01*
G37*
%TD.AperFunction*%
%TD*%
%TA.AperFunction,Conductor*%
%TO.N,Net-(U3B-+)*%
G36*
X15174961Y-8482471D02*
G01*
X15187534Y-8495044D01*
X15187876Y-8495871D01*
X15187579Y-8496651D01*
X15181258Y-8503722D01*
X15181257Y-8503723D01*
X15177018Y-8510334D01*
X15177018Y-8510334D01*
X15174565Y-8516481D01*
X15174564Y-8516481D01*
X15172860Y-8522992D01*
X15172222Y-8525616D01*
X15172197Y-8525703D01*
X15167107Y-8541283D01*
X15166525Y-8541963D01*
X15165632Y-8542032D01*
X15165551Y-8542002D01*
X15139381Y-8531256D01*
X15138746Y-8530625D01*
X15138744Y-8530618D01*
X15127985Y-8504418D01*
X15127988Y-8503523D01*
X15128623Y-8502891D01*
X15128673Y-8502872D01*
X15138464Y-8499381D01*
X15138557Y-8499352D01*
X15147010Y-8497139D01*
X15150549Y-8496268D01*
X15160927Y-8492309D01*
X15166996Y-8488180D01*
X15173348Y-8482431D01*
X15174192Y-8482130D01*
X15174961Y-8482471D01*
G37*
%TD.AperFunction*%
%TD*%
%TA.AperFunction,Conductor*%
%TO.N,Net-(U3B-+)*%
G36*
X15389948Y-7956497D02*
G01*
X15408179Y-7963983D01*
X15416118Y-7967244D01*
X15416754Y-7967875D01*
X15416756Y-7967881D01*
X15427515Y-7994082D01*
X15427512Y-7994977D01*
X15426877Y-7995608D01*
X15426825Y-7995628D01*
X15417038Y-7999118D01*
X15416942Y-7999148D01*
X15408497Y-8001359D01*
X15408480Y-8001363D01*
X15404950Y-8002232D01*
X15394574Y-8006191D01*
X15394573Y-8006191D01*
X15388503Y-8010320D01*
X15382151Y-8016069D01*
X15381308Y-8016370D01*
X15380539Y-8016029D01*
X15367966Y-8003456D01*
X15367624Y-8002629D01*
X15367921Y-8001849D01*
X15374243Y-7994777D01*
X15374243Y-7994777D01*
X15374243Y-7994777D01*
X15375678Y-7992539D01*
X15378482Y-7988166D01*
X15380936Y-7982018D01*
X15382639Y-7975510D01*
X15383278Y-7972881D01*
X15383302Y-7972798D01*
X15388392Y-7957216D01*
X15388975Y-7956537D01*
X15389868Y-7956468D01*
X15389948Y-7956497D01*
G37*
%TD.AperFunction*%
%TD*%
%TA.AperFunction,Conductor*%
%TO.N,/ESP_EN*%
G36*
X14315585Y-10422008D02*
G01*
X14316216Y-10422643D01*
X14316213Y-10423538D01*
X14316191Y-10423589D01*
X14311738Y-10432977D01*
X14311691Y-10433066D01*
X14307282Y-10440602D01*
X14307273Y-10440617D01*
X14305393Y-10443725D01*
X14305393Y-10443725D01*
X14304189Y-10446414D01*
X14301466Y-10452497D01*
X14300854Y-10453863D01*
X14299482Y-10461075D01*
X14299055Y-10469632D01*
X14298672Y-10470441D01*
X14297887Y-10470743D01*
X14280106Y-10470743D01*
X14279279Y-10470401D01*
X14278938Y-10469639D01*
X14278408Y-10460168D01*
X14277029Y-10453863D01*
X14276730Y-10452496D01*
X14274118Y-10446414D01*
X14270721Y-10440607D01*
X14269313Y-10438296D01*
X14269271Y-10438219D01*
X14261854Y-10423604D01*
X14261785Y-10422711D01*
X14262367Y-10422031D01*
X14262444Y-10421995D01*
X14288549Y-10411088D01*
X14289444Y-10411086D01*
X14315585Y-10422008D01*
G37*
%TD.AperFunction*%
%TD*%
%TA.AperFunction,Conductor*%
%TO.N,/ESP_EN*%
G36*
X14298721Y-10701599D02*
G01*
X14299062Y-10702361D01*
X14299592Y-10711832D01*
X14300971Y-10718137D01*
X14301270Y-10719504D01*
X14303882Y-10725587D01*
X14307279Y-10731393D01*
X14307280Y-10731394D01*
X14308686Y-10733703D01*
X14308730Y-10733782D01*
X14316146Y-10748396D01*
X14316215Y-10749289D01*
X14315632Y-10749969D01*
X14315554Y-10750005D01*
X14289451Y-10760912D01*
X14288556Y-10760914D01*
X14288549Y-10760912D01*
X14262415Y-10749992D01*
X14261784Y-10749357D01*
X14261787Y-10748462D01*
X14261809Y-10748411D01*
X14261816Y-10748396D01*
X14266263Y-10739022D01*
X14266308Y-10738935D01*
X14270720Y-10731394D01*
X14270722Y-10731391D01*
X14272607Y-10728275D01*
X14277146Y-10718137D01*
X14278518Y-10710925D01*
X14278601Y-10709252D01*
X14278945Y-10702369D01*
X14279328Y-10701559D01*
X14280113Y-10701257D01*
X14297894Y-10701257D01*
X14298721Y-10701599D01*
G37*
%TD.AperFunction*%
%TD*%
%TA.AperFunction,Conductor*%
%TO.N,/ESP_EN*%
G36*
X12916528Y-11266311D02*
G01*
X12916600Y-11266344D01*
X12926826Y-11271468D01*
X12926953Y-11271542D01*
X12934805Y-11276816D01*
X12934813Y-11276822D01*
X12937083Y-11278403D01*
X12938919Y-11279682D01*
X12938919Y-11279682D01*
X12938920Y-11279682D01*
X12948306Y-11284174D01*
X12954982Y-11285522D01*
X12962637Y-11285940D01*
X12963444Y-11286327D01*
X12963743Y-11287108D01*
X12963743Y-11304881D01*
X12963401Y-11305708D01*
X12962625Y-11306050D01*
X12952606Y-11306496D01*
X12952605Y-11306496D01*
X12944576Y-11307954D01*
X12944575Y-11307955D01*
X12938090Y-11310332D01*
X12938088Y-11310332D01*
X12931590Y-11313577D01*
X12931569Y-11313588D01*
X12916589Y-11320691D01*
X12915694Y-11320736D01*
X12915030Y-11320135D01*
X12915008Y-11320085D01*
X12914180Y-11318104D01*
X12904088Y-11293951D01*
X12904086Y-11293056D01*
X12904086Y-11293054D01*
X12914997Y-11266940D01*
X12915632Y-11266309D01*
X12916528Y-11266311D01*
G37*
%TD.AperFunction*%
%TD*%
%TA.AperFunction,Conductor*%
%TO.N,/ESP_EN*%
G36*
X14262448Y-10749997D02*
G01*
X14280679Y-10757484D01*
X14288618Y-10760744D01*
X14289254Y-10761375D01*
X14289256Y-10761382D01*
X14300015Y-10787582D01*
X14300012Y-10788477D01*
X14299377Y-10789109D01*
X14299325Y-10789128D01*
X14289538Y-10792618D01*
X14289442Y-10792648D01*
X14280997Y-10794859D01*
X14280980Y-10794863D01*
X14277450Y-10795732D01*
X14267074Y-10799691D01*
X14267073Y-10799691D01*
X14261003Y-10803820D01*
X14254651Y-10809569D01*
X14253808Y-10809870D01*
X14253039Y-10809529D01*
X14240466Y-10796956D01*
X14240124Y-10796129D01*
X14240421Y-10795349D01*
X14246743Y-10788278D01*
X14246743Y-10788277D01*
X14246743Y-10788277D01*
X14248178Y-10786039D01*
X14250982Y-10781666D01*
X14253436Y-10775518D01*
X14255139Y-10769010D01*
X14255778Y-10766381D01*
X14255802Y-10766298D01*
X14260892Y-10750717D01*
X14261475Y-10750037D01*
X14262368Y-10749968D01*
X14262448Y-10749997D01*
G37*
%TD.AperFunction*%
%TD*%
%TA.AperFunction,Conductor*%
%TO.N,Net-(C8-Pad1)*%
G36*
X14496221Y-8644099D02*
G01*
X14496562Y-8644861D01*
X14497092Y-8654332D01*
X14498471Y-8660637D01*
X14498770Y-8662004D01*
X14501382Y-8668087D01*
X14504779Y-8673893D01*
X14504780Y-8673894D01*
X14506186Y-8676203D01*
X14506230Y-8676282D01*
X14513646Y-8690896D01*
X14513715Y-8691789D01*
X14513132Y-8692469D01*
X14513054Y-8692505D01*
X14486951Y-8703412D01*
X14486056Y-8703414D01*
X14486049Y-8703412D01*
X14459915Y-8692492D01*
X14459284Y-8691857D01*
X14459287Y-8690962D01*
X14459309Y-8690911D01*
X14459316Y-8690896D01*
X14463763Y-8681522D01*
X14463808Y-8681435D01*
X14468220Y-8673894D01*
X14468222Y-8673891D01*
X14470107Y-8670775D01*
X14474646Y-8660637D01*
X14476018Y-8653425D01*
X14476101Y-8651752D01*
X14476445Y-8644869D01*
X14476828Y-8644059D01*
X14477613Y-8643757D01*
X14495394Y-8643757D01*
X14496221Y-8644099D01*
G37*
%TD.AperFunction*%
%TD*%
%TA.AperFunction,Conductor*%
%TO.N,Net-(C8-Pad1)*%
G36*
X15577969Y-7814367D02*
G01*
X15578005Y-7814446D01*
X15588911Y-7840549D01*
X15588914Y-7841444D01*
X15588911Y-7841451D01*
X15577992Y-7867585D01*
X15577357Y-7868216D01*
X15576462Y-7868213D01*
X15576411Y-7868191D01*
X15567023Y-7863738D01*
X15566934Y-7863691D01*
X15559400Y-7859283D01*
X15559386Y-7859275D01*
X15557410Y-7858079D01*
X15556275Y-7857393D01*
X15546137Y-7852854D01*
X15538925Y-7851482D01*
X15538925Y-7851482D01*
X15530368Y-7851055D01*
X15529559Y-7850672D01*
X15529257Y-7849887D01*
X15529257Y-7832106D01*
X15529599Y-7831279D01*
X15530361Y-7830938D01*
X15537739Y-7830525D01*
X15539831Y-7830408D01*
X15541208Y-7830107D01*
X15547504Y-7828730D01*
X15553586Y-7826118D01*
X15559393Y-7822721D01*
X15561704Y-7821313D01*
X15561780Y-7821271D01*
X15576396Y-7813854D01*
X15577289Y-7813785D01*
X15577969Y-7814367D01*
G37*
%TD.AperFunction*%
%TD*%
%TA.AperFunction,Conductor*%
%TO.N,/DAC_MCLK_EN*%
G36*
X13089651Y-10919921D02*
G01*
X13096722Y-10926242D01*
X13096723Y-10926243D01*
X13101764Y-10929475D01*
X13103334Y-10930482D01*
X13103334Y-10930482D01*
X13103334Y-10930482D01*
X13109480Y-10932935D01*
X13109481Y-10932935D01*
X13109481Y-10932935D01*
X13109482Y-10932936D01*
X13115990Y-10934639D01*
X13118619Y-10935278D01*
X13118702Y-10935302D01*
X13134283Y-10940392D01*
X13134963Y-10940975D01*
X13135032Y-10941868D01*
X13135002Y-10941949D01*
X13124256Y-10968118D01*
X13123625Y-10968754D01*
X13123618Y-10968756D01*
X13097418Y-10979515D01*
X13096522Y-10979512D01*
X13095891Y-10978877D01*
X13095872Y-10978827D01*
X13092381Y-10969037D01*
X13092352Y-10968941D01*
X13090139Y-10960490D01*
X13089268Y-10956951D01*
X13089268Y-10956951D01*
X13089268Y-10956951D01*
X13085309Y-10946574D01*
X13085308Y-10946573D01*
X13081181Y-10940504D01*
X13081180Y-10940504D01*
X13081180Y-10940504D01*
X13081180Y-10940504D01*
X13076473Y-10935303D01*
X13075431Y-10934151D01*
X13075130Y-10933308D01*
X13075471Y-10932539D01*
X13088044Y-10919966D01*
X13088871Y-10919624D01*
X13089651Y-10919921D01*
G37*
%TD.AperFunction*%
%TD*%
%TA.AperFunction,Conductor*%
%TO.N,/DAC_MCLK_EN*%
G36*
X12195585Y-8889508D02*
G01*
X12196216Y-8890143D01*
X12196213Y-8891038D01*
X12196191Y-8891089D01*
X12191738Y-8900477D01*
X12191691Y-8900566D01*
X12187283Y-8908099D01*
X12187275Y-8908114D01*
X12185393Y-8911225D01*
X12185393Y-8911225D01*
X12184189Y-8913914D01*
X12181466Y-8919997D01*
X12180854Y-8921363D01*
X12179482Y-8928575D01*
X12179055Y-8937132D01*
X12178672Y-8937941D01*
X12177887Y-8938243D01*
X12160106Y-8938243D01*
X12159279Y-8937901D01*
X12158938Y-8937139D01*
X12158408Y-8927668D01*
X12157029Y-8921363D01*
X12156730Y-8919996D01*
X12154118Y-8913914D01*
X12150721Y-8908107D01*
X12149313Y-8905796D01*
X12149271Y-8905719D01*
X12141854Y-8891104D01*
X12141785Y-8890211D01*
X12142367Y-8889531D01*
X12142444Y-8889495D01*
X12168549Y-8878588D01*
X12169444Y-8878586D01*
X12195585Y-8889508D01*
G37*
%TD.AperFunction*%
%TD*%
%TA.AperFunction,Conductor*%
%TO.N,+6V*%
G36*
X17089948Y-10610353D02*
G01*
X17108179Y-10617839D01*
X17116118Y-10621099D01*
X17116754Y-10621730D01*
X17116756Y-10621737D01*
X17127515Y-10647937D01*
X17127512Y-10648833D01*
X17126877Y-10649464D01*
X17126825Y-10649484D01*
X17117039Y-10652973D01*
X17116942Y-10653003D01*
X17108497Y-10655214D01*
X17108480Y-10655218D01*
X17104951Y-10656087D01*
X17094574Y-10660046D01*
X17094573Y-10660047D01*
X17088503Y-10664175D01*
X17082151Y-10669924D01*
X17081308Y-10670225D01*
X17080539Y-10669884D01*
X17067966Y-10657311D01*
X17067624Y-10656484D01*
X17067921Y-10655705D01*
X17074243Y-10648633D01*
X17074243Y-10648633D01*
X17074243Y-10648632D01*
X17075678Y-10646395D01*
X17078482Y-10642022D01*
X17080936Y-10635874D01*
X17082639Y-10629366D01*
X17083278Y-10626736D01*
X17083302Y-10626654D01*
X17088392Y-10611072D01*
X17088975Y-10610392D01*
X17089868Y-10610324D01*
X17089948Y-10610353D01*
G37*
%TD.AperFunction*%
%TD*%
%TA.AperFunction,Conductor*%
%TO.N,+6V*%
G36*
X16531538Y-11353787D02*
G01*
X16531589Y-11353809D01*
X16540977Y-11358262D01*
X16541065Y-11358309D01*
X16547625Y-11362146D01*
X16548599Y-11362716D01*
X16548614Y-11362725D01*
X16551725Y-11364607D01*
X16561863Y-11369146D01*
X16569075Y-11370518D01*
X16577632Y-11370945D01*
X16578441Y-11371328D01*
X16578743Y-11372113D01*
X16578743Y-11389894D01*
X16578401Y-11390721D01*
X16577639Y-11391062D01*
X16568168Y-11391592D01*
X16560497Y-11393270D01*
X16560496Y-11393270D01*
X16560496Y-11393270D01*
X16558742Y-11394023D01*
X16554414Y-11395882D01*
X16548605Y-11399280D01*
X16546297Y-11400685D01*
X16546218Y-11400729D01*
X16531604Y-11408146D01*
X16530711Y-11408215D01*
X16530031Y-11407632D01*
X16529995Y-11407554D01*
X16524026Y-11393270D01*
X16519088Y-11381451D01*
X16519086Y-11380556D01*
X16519086Y-11380554D01*
X16530008Y-11354415D01*
X16530643Y-11353784D01*
X16531538Y-11353787D01*
G37*
%TD.AperFunction*%
%TD*%
%TA.AperFunction,Conductor*%
%TO.N,/DAC_FLT*%
G36*
X13221221Y-9556599D02*
G01*
X13221562Y-9557361D01*
X13222092Y-9566832D01*
X13223471Y-9573137D01*
X13223770Y-9574504D01*
X13226382Y-9580587D01*
X13229779Y-9586393D01*
X13229780Y-9586394D01*
X13231186Y-9588703D01*
X13231230Y-9588782D01*
X13238646Y-9603396D01*
X13238715Y-9604289D01*
X13238132Y-9604969D01*
X13238054Y-9605005D01*
X13211951Y-9615912D01*
X13211056Y-9615914D01*
X13211049Y-9615912D01*
X13184915Y-9604992D01*
X13184284Y-9604357D01*
X13184287Y-9603462D01*
X13184309Y-9603411D01*
X13184316Y-9603396D01*
X13188763Y-9594022D01*
X13188808Y-9593935D01*
X13193220Y-9586394D01*
X13193222Y-9586391D01*
X13195107Y-9583275D01*
X13199646Y-9573137D01*
X13201018Y-9565925D01*
X13201101Y-9564252D01*
X13201445Y-9557369D01*
X13201828Y-9556559D01*
X13202613Y-9556257D01*
X13220394Y-9556257D01*
X13221221Y-9556599D01*
G37*
%TD.AperFunction*%
%TD*%
%TA.AperFunction,Conductor*%
%TO.N,/DAC_FLT*%
G36*
X13259948Y-8807497D02*
G01*
X13278179Y-8814984D01*
X13286118Y-8818244D01*
X13286754Y-8818875D01*
X13286756Y-8818882D01*
X13297515Y-8845082D01*
X13297512Y-8845977D01*
X13296877Y-8846609D01*
X13296825Y-8846628D01*
X13287038Y-8850118D01*
X13286942Y-8850148D01*
X13278497Y-8852359D01*
X13278480Y-8852363D01*
X13274950Y-8853232D01*
X13264574Y-8857191D01*
X13264573Y-8857191D01*
X13258503Y-8861320D01*
X13252151Y-8867069D01*
X13251308Y-8867370D01*
X13250539Y-8867029D01*
X13237966Y-8854456D01*
X13237624Y-8853629D01*
X13237921Y-8852849D01*
X13244243Y-8845778D01*
X13244243Y-8845777D01*
X13244243Y-8845777D01*
X13245678Y-8843539D01*
X13248482Y-8839166D01*
X13250936Y-8833018D01*
X13252639Y-8826510D01*
X13253278Y-8823881D01*
X13253302Y-8823798D01*
X13258392Y-8808217D01*
X13258975Y-8807537D01*
X13259868Y-8807468D01*
X13259948Y-8807497D01*
G37*
%TD.AperFunction*%
%TD*%
%TA.AperFunction,Conductor*%
%TO.N,/DAC_MUTEn*%
G36*
X12784007Y-8711990D02*
G01*
X12785720Y-8712266D01*
X12786483Y-8712736D01*
X12786689Y-8713607D01*
X12786324Y-8714285D01*
X12781673Y-8718540D01*
X12781537Y-8718646D01*
X12778222Y-8720883D01*
X12778222Y-8720883D01*
X12776519Y-8722032D01*
X12773382Y-8724148D01*
X12772986Y-8724319D01*
X12769380Y-8725137D01*
X12768529Y-8725006D01*
X12767854Y-8724609D01*
X12767350Y-8724009D01*
X12766852Y-8722673D01*
X12766785Y-8722143D01*
X12766846Y-8721568D01*
X12767130Y-8718850D01*
X12767335Y-8718302D01*
X12768920Y-8716035D01*
X12769249Y-8715720D01*
X12771963Y-8713986D01*
X12772275Y-8713847D01*
X12777421Y-8712399D01*
X12777664Y-8712358D01*
X12783749Y-8711978D01*
X12784007Y-8711990D01*
G37*
%TD.AperFunction*%
%TA.AperFunction,Conductor*%
G36*
X12794277Y-8713645D02*
G01*
X12796069Y-8713934D01*
X12796411Y-8714045D01*
X12802892Y-8717332D01*
X12803356Y-8717759D01*
X12805222Y-8720766D01*
X12805383Y-8721568D01*
X12805136Y-8723104D01*
X12804932Y-8723601D01*
X12804193Y-8724632D01*
X12803432Y-8725105D01*
X12802560Y-8724901D01*
X12802415Y-8724778D01*
X12793265Y-8715628D01*
X12792922Y-8714801D01*
X12793265Y-8713973D01*
X12794092Y-8713631D01*
X12794277Y-8713645D01*
G37*
%TD.AperFunction*%
%TD*%
%TA.AperFunction,Conductor*%
%TO.N,/DAC_MUTEn*%
G36*
X12832461Y-8669971D02*
G01*
X12845034Y-8682544D01*
X12845376Y-8683371D01*
X12845079Y-8684151D01*
X12838758Y-8691222D01*
X12838757Y-8691223D01*
X12834518Y-8697834D01*
X12834518Y-8697834D01*
X12832065Y-8703981D01*
X12832064Y-8703981D01*
X12830360Y-8710492D01*
X12829722Y-8713116D01*
X12829697Y-8713203D01*
X12824607Y-8728783D01*
X12824025Y-8729463D01*
X12823132Y-8729532D01*
X12823051Y-8729502D01*
X12796881Y-8718756D01*
X12796246Y-8718125D01*
X12796244Y-8718118D01*
X12785485Y-8691918D01*
X12785488Y-8691023D01*
X12786123Y-8690391D01*
X12786173Y-8690372D01*
X12795964Y-8686881D01*
X12796057Y-8686852D01*
X12804510Y-8684639D01*
X12808049Y-8683768D01*
X12818427Y-8679809D01*
X12824496Y-8675680D01*
X12830848Y-8669931D01*
X12831692Y-8669630D01*
X12832461Y-8669971D01*
G37*
%TD.AperFunction*%
%TD*%
%TA.AperFunction,Conductor*%
%TO.N,/DAC_MUTEn*%
G36*
X12769948Y-8707497D02*
G01*
X12788179Y-8714984D01*
X12796118Y-8718244D01*
X12796754Y-8718875D01*
X12796756Y-8718882D01*
X12807515Y-8745082D01*
X12807512Y-8745977D01*
X12806877Y-8746609D01*
X12806825Y-8746628D01*
X12797038Y-8750118D01*
X12796942Y-8750148D01*
X12788497Y-8752359D01*
X12788480Y-8752363D01*
X12784950Y-8753232D01*
X12774574Y-8757191D01*
X12774573Y-8757191D01*
X12768503Y-8761320D01*
X12762151Y-8767069D01*
X12761308Y-8767370D01*
X12760539Y-8767029D01*
X12747966Y-8754456D01*
X12747624Y-8753629D01*
X12747921Y-8752849D01*
X12754243Y-8745778D01*
X12754243Y-8745777D01*
X12754243Y-8745777D01*
X12755678Y-8743539D01*
X12758482Y-8739166D01*
X12760936Y-8733018D01*
X12762639Y-8726510D01*
X12763278Y-8723881D01*
X12763302Y-8723798D01*
X12768392Y-8708217D01*
X12768975Y-8707537D01*
X12769868Y-8707468D01*
X12769948Y-8707497D01*
G37*
%TD.AperFunction*%
%TD*%
%TA.AperFunction,Conductor*%
%TO.N,/DAC_MUTEn*%
G36*
X13802448Y-8472497D02*
G01*
X13820679Y-8479984D01*
X13828618Y-8483244D01*
X13829254Y-8483875D01*
X13829256Y-8483882D01*
X13840015Y-8510082D01*
X13840012Y-8510977D01*
X13839377Y-8511609D01*
X13839325Y-8511628D01*
X13829538Y-8515118D01*
X13829442Y-8515148D01*
X13820997Y-8517359D01*
X13820980Y-8517363D01*
X13817450Y-8518232D01*
X13807074Y-8522191D01*
X13807073Y-8522191D01*
X13801003Y-8526320D01*
X13794651Y-8532069D01*
X13793808Y-8532370D01*
X13793039Y-8532029D01*
X13780466Y-8519456D01*
X13780124Y-8518629D01*
X13780421Y-8517849D01*
X13786743Y-8510778D01*
X13786743Y-8510777D01*
X13786743Y-8510777D01*
X13788178Y-8508539D01*
X13790982Y-8504166D01*
X13793436Y-8498018D01*
X13795139Y-8491510D01*
X13795778Y-8488881D01*
X13795802Y-8488798D01*
X13800892Y-8473217D01*
X13801475Y-8472537D01*
X13802368Y-8472468D01*
X13802448Y-8472497D01*
G37*
%TD.AperFunction*%
%TD*%
%TA.AperFunction,Conductor*%
%TO.N,/DAC_MUTEn*%
G36*
X12394961Y-9552471D02*
G01*
X12407534Y-9565044D01*
X12407876Y-9565871D01*
X12407579Y-9566651D01*
X12401258Y-9573722D01*
X12401257Y-9573723D01*
X12397018Y-9580334D01*
X12397018Y-9580334D01*
X12394565Y-9586481D01*
X12394564Y-9586481D01*
X12392860Y-9592992D01*
X12392222Y-9595616D01*
X12392197Y-9595703D01*
X12387107Y-9611283D01*
X12386525Y-9611963D01*
X12385632Y-9612032D01*
X12385551Y-9612002D01*
X12359381Y-9601256D01*
X12358746Y-9600625D01*
X12358744Y-9600618D01*
X12347985Y-9574418D01*
X12347988Y-9573523D01*
X12348623Y-9572891D01*
X12348673Y-9572872D01*
X12358464Y-9569381D01*
X12358557Y-9569352D01*
X12367010Y-9567139D01*
X12370549Y-9566268D01*
X12380927Y-9562309D01*
X12386996Y-9558180D01*
X12393348Y-9552431D01*
X12394192Y-9552130D01*
X12394961Y-9552471D01*
G37*
%TD.AperFunction*%
%TD*%
%TA.AperFunction,Conductor*%
%TO.N,/BUTTON_CON*%
G36*
X16865125Y-10056209D02*
G01*
X16914381Y-10110212D01*
X16914685Y-10111054D01*
X16914381Y-10111789D01*
X16865126Y-10165790D01*
X16864315Y-10166170D01*
X16863754Y-10166056D01*
X16836161Y-10152795D01*
X16836076Y-10152750D01*
X16813692Y-10139638D01*
X16795116Y-10128845D01*
X16780738Y-10122871D01*
X16769013Y-10121147D01*
X16768244Y-10120688D01*
X16768013Y-10119989D01*
X16768013Y-10102030D01*
X16768356Y-10101202D01*
X16769034Y-10100869D01*
X16779055Y-10099584D01*
X16789955Y-10095672D01*
X16801304Y-10089764D01*
X16813690Y-10082364D01*
X16837027Y-10068732D01*
X16837109Y-10068688D01*
X16863755Y-10055942D01*
X16864649Y-10055894D01*
X16865125Y-10056209D01*
G37*
%TD.AperFunction*%
%TD*%
%TA.AperFunction,Conductor*%
%TO.N,/BUTTON_CON*%
G36*
X13382461Y-11444971D02*
G01*
X13395034Y-11457544D01*
X13395376Y-11458371D01*
X13395079Y-11459151D01*
X13388758Y-11466222D01*
X13388757Y-11466223D01*
X13384518Y-11472833D01*
X13384518Y-11472834D01*
X13382065Y-11478980D01*
X13382064Y-11478981D01*
X13380360Y-11485492D01*
X13379722Y-11488116D01*
X13379697Y-11488203D01*
X13374607Y-11503783D01*
X13374025Y-11504463D01*
X13373132Y-11504532D01*
X13373051Y-11504502D01*
X13346881Y-11493756D01*
X13346246Y-11493125D01*
X13346244Y-11493118D01*
X13335485Y-11466918D01*
X13335488Y-11466023D01*
X13336123Y-11465391D01*
X13336173Y-11465372D01*
X13345964Y-11461881D01*
X13346057Y-11461852D01*
X13354510Y-11459639D01*
X13358049Y-11458768D01*
X13368427Y-11454809D01*
X13374496Y-11450680D01*
X13380848Y-11444931D01*
X13381692Y-11444630D01*
X13382461Y-11444971D01*
G37*
%TD.AperFunction*%
%TD*%
%TA.AperFunction,Conductor*%
%TO.N,/LED*%
G36*
X16610469Y-9994368D02*
G01*
X16610505Y-9994446D01*
X16621411Y-10020549D01*
X16621414Y-10021444D01*
X16621411Y-10021451D01*
X16610492Y-10047585D01*
X16609857Y-10048216D01*
X16608962Y-10048213D01*
X16608911Y-10048191D01*
X16599523Y-10043738D01*
X16599434Y-10043691D01*
X16591900Y-10039284D01*
X16591886Y-10039275D01*
X16589910Y-10038080D01*
X16588775Y-10037393D01*
X16578637Y-10032854D01*
X16571425Y-10031482D01*
X16571425Y-10031482D01*
X16562868Y-10031055D01*
X16562059Y-10030672D01*
X16561757Y-10029887D01*
X16561757Y-10012106D01*
X16562099Y-10011279D01*
X16562861Y-10010938D01*
X16570239Y-10010525D01*
X16572331Y-10010408D01*
X16573708Y-10010107D01*
X16580004Y-10008730D01*
X16586086Y-10006118D01*
X16591893Y-10002721D01*
X16594204Y-10001313D01*
X16594280Y-10001271D01*
X16608896Y-9993854D01*
X16609789Y-9993785D01*
X16610469Y-9994368D01*
G37*
%TD.AperFunction*%
%TD*%
%TA.AperFunction,Conductor*%
%TO.N,/LED*%
G36*
X13539961Y-10924971D02*
G01*
X13552534Y-10937544D01*
X13552876Y-10938371D01*
X13552579Y-10939151D01*
X13546258Y-10946222D01*
X13546257Y-10946223D01*
X13542018Y-10952834D01*
X13542018Y-10952834D01*
X13539565Y-10958981D01*
X13539564Y-10958981D01*
X13537860Y-10965492D01*
X13537222Y-10968116D01*
X13537197Y-10968203D01*
X13532107Y-10983783D01*
X13531525Y-10984463D01*
X13530632Y-10984532D01*
X13530551Y-10984502D01*
X13504381Y-10973756D01*
X13503746Y-10973125D01*
X13503744Y-10973118D01*
X13492985Y-10946918D01*
X13492988Y-10946023D01*
X13493623Y-10945391D01*
X13493673Y-10945372D01*
X13503464Y-10941881D01*
X13503557Y-10941852D01*
X13512010Y-10939639D01*
X13515549Y-10938768D01*
X13525927Y-10934809D01*
X13531996Y-10930680D01*
X13538348Y-10924931D01*
X13539192Y-10924630D01*
X13539961Y-10924971D01*
G37*
%TD.AperFunction*%
%TD*%
M02*
