%TF.GenerationSoftware,KiCad,Pcbnew,10.0.0*%
%TF.CreationDate,2026-04-11T11:36:05+02:00*%
%TF.ProjectId,BT,42542e6b-6963-4616-945f-706362585858,rev?*%
%TF.SameCoordinates,Original*%
%TF.FileFunction,Copper,L4,Bot*%
%TF.FilePolarity,Positive*%
%FSLAX45Y45*%
G04 Gerber Fmt 4.5, Leading zero omitted, Abs format (unit mm)*
G04 Created by KiCad (PCBNEW 10.0.0) date 2026-04-11 11:36:05*
%MOMM*%
%LPD*%
G01*
G04 APERTURE LIST*
G04 Aperture macros list*
%AMRoundRect*
0 Rectangle with rounded corners*
0 $1 Rounding radius*
0 $2 $3 $4 $5 $6 $7 $8 $9 X,Y pos of 4 corners*
0 Add a 4 corners polygon primitive as box body*
4,1,4,$2,$3,$4,$5,$6,$7,$8,$9,$2,$3,0*
0 Add four circle primitives for the rounded corners*
1,1,$1+$1,$2,$3*
1,1,$1+$1,$4,$5*
1,1,$1+$1,$6,$7*
1,1,$1+$1,$8,$9*
0 Add four rect primitives between the rounded corners*
20,1,$1+$1,$2,$3,$4,$5,0*
20,1,$1+$1,$4,$5,$6,$7,0*
20,1,$1+$1,$6,$7,$8,$9,0*
20,1,$1+$1,$8,$9,$2,$3,0*%
G04 Aperture macros list end*
%TA.AperFunction,ComponentPad*%
%ADD10C,0.500000*%
%TD*%
%TA.AperFunction,ComponentPad*%
%ADD11R,1.650000X1.650000*%
%TD*%
%TA.AperFunction,ComponentPad*%
%ADD12C,1.650000*%
%TD*%
%TA.AperFunction,ComponentPad*%
%ADD13RoundRect,0.250000X0.625000X-0.350000X0.625000X0.350000X-0.625000X0.350000X-0.625000X-0.350000X0*%
%TD*%
%TA.AperFunction,ComponentPad*%
%ADD14O,1.750000X1.200000*%
%TD*%
%TA.AperFunction,HeatsinkPad*%
%ADD15C,0.600000*%
%TD*%
%TA.AperFunction,ComponentPad*%
%ADD16C,1.800000*%
%TD*%
%TA.AperFunction,ViaPad*%
%ADD17C,0.600000*%
%TD*%
%TA.AperFunction,Conductor*%
%ADD18C,0.200000*%
%TD*%
%TA.AperFunction,Conductor*%
%ADD19C,1.000000*%
%TD*%
G04 APERTURE END LIST*
D10*
%TO.P,U4,4,VOUT_4*%
%TO.N,+3V3*%
X15071000Y-11001000D03*
X15071000Y-11101000D03*
X15166000Y-11005000D03*
X15166000Y-11087000D03*
%TO.P,U4,5,SW_5*%
%TO.N,unconnected-(U4-SW-Pad5)_3*%
X15322000Y-11005000D03*
%TO.N,unconnected-(U4-SW-Pad5)_1*%
X15322000Y-11087000D03*
%TO.N,unconnected-(U4-SW-Pad5)*%
X15417000Y-11001000D03*
%TO.N,unconnected-(U4-SW-Pad5)_4*%
X15417000Y-11101000D03*
%TO.P,U4,10,GND_10*%
%TO.N,GND*%
X15244000Y-10823000D03*
X15244000Y-10923000D03*
X15244000Y-11023000D03*
X15244000Y-11123000D03*
%TD*%
D11*
%TO.P,J1,1,1_1*%
%TO.N,+3V3*%
X12773500Y-9086000D03*
D12*
%TO.P,J1,2,2_2*%
%TO.N,/BCK*%
X13027500Y-9086000D03*
%TO.P,J1,3,3_3*%
%TO.N,/DIN*%
X13281500Y-9086000D03*
%TO.P,J1,4,4_4*%
%TO.N,/LRCK*%
X13535500Y-9086000D03*
%TO.P,J1,5,5_5*%
%TO.N,GND*%
X13789500Y-9086000D03*
%TD*%
D10*
%TO.P,U5,4,VOUT_4*%
%TO.N,+6V*%
X16131000Y-11001000D03*
X16131000Y-11101000D03*
X16226000Y-11005000D03*
X16226000Y-11087000D03*
%TO.P,U5,5,SW_5*%
%TO.N,unconnected-(U5-SW-Pad5)*%
X16382000Y-11005000D03*
%TO.N,unconnected-(U5-SW-Pad5)_2*%
X16382000Y-11087000D03*
%TO.N,unconnected-(U5-SW-Pad5)_1*%
X16477000Y-11001000D03*
%TO.N,unconnected-(U5-SW-Pad5)_4*%
X16477000Y-11101000D03*
%TO.P,U5,10,GND_10*%
%TO.N,GND*%
X16304000Y-10823000D03*
X16304000Y-10923000D03*
X16304000Y-11023000D03*
X16304000Y-11123000D03*
%TD*%
D13*
%TO.P,J2,1,Pin_1_1*%
%TO.N,GND*%
X16924000Y-10811000D03*
D14*
%TO.P,J2,2,Pin_2_2*%
%TO.N,/~{BT_EN}*%
X16924000Y-10611000D03*
%TO.P,J2,3,Pin_3_3*%
%TO.N,/FWD_CON*%
X16924000Y-10411000D03*
%TO.P,J2,4,Pin_4_4*%
%TO.N,/REV_CON*%
X16924000Y-10211000D03*
%TO.P,J2,5,Pin_5_5*%
%TO.N,/LED_CON*%
X16924000Y-10011000D03*
%TO.P,J2,6,Pin_6_6*%
%TO.N,/BT_EN*%
X16924000Y-9811000D03*
%TD*%
D15*
%TO.P,U2,39,EP_39*%
%TO.N,GND*%
X12922000Y-10544750D03*
X13062000Y-10544750D03*
X12852000Y-10474750D03*
X12992000Y-10474750D03*
X13132000Y-10474750D03*
X12922000Y-10404750D03*
X13062000Y-10404750D03*
X12852000Y-10334750D03*
X12992000Y-10334750D03*
X13132000Y-10334750D03*
X12922000Y-10264750D03*
X13062000Y-10264750D03*
%TD*%
D16*
%TO.P,TP1,1,1_1*%
%TO.N,GND*%
X15279000Y-9521000D03*
%TD*%
D13*
%TO.P,J3,1,Pin_1_1*%
%TO.N,/KL30*%
X16924000Y-9351000D03*
D14*
%TO.P,J3,2,Pin_2_2*%
%TO.N,GND*%
X16924000Y-9151000D03*
%TO.P,J3,3,Pin_3_3*%
%TO.N,/R_OUT*%
X16924000Y-8951000D03*
%TO.P,J3,4,Pin_4_4*%
%TO.N,/L_OUT*%
X16924000Y-8751000D03*
%TO.P,J3,5,Pin_5_5*%
%TO.N,/R_IN*%
X16924000Y-8551000D03*
%TO.P,J3,6,Pin_6_6*%
%TO.N,/L_IN*%
X16924000Y-8351000D03*
%TD*%
D16*
%TO.P,TP3,1,1_1*%
%TO.N,Net-(C15-Pad2)*%
X15899000Y-9521000D03*
%TD*%
%TO.P,TP2,1,1_1*%
%TO.N,Net-(C14-Pad2)*%
X16489000Y-9521000D03*
%TD*%
D17*
%TO.N,+3V3*%
X12404000Y-8781000D03*
X15213645Y-11245645D03*
X12319000Y-11281000D03*
X12451500Y-11493500D03*
X14396500Y-8723500D03*
X15561500Y-9891000D03*
X14024000Y-8166000D03*
X15213645Y-11355645D03*
X14919000Y-9851000D03*
X12209000Y-8146000D03*
X16049000Y-10291000D03*
X15651500Y-10498500D03*
X15213645Y-11475645D03*
X12409000Y-11281000D03*
X13304000Y-11418500D03*
%TO.N,+12V*%
X16866500Y-8016000D03*
X15861500Y-10383500D03*
%TO.N,GND*%
X15728645Y-11236355D03*
X12969000Y-8261000D03*
X13959000Y-8483500D03*
X14919000Y-9981000D03*
X14389000Y-8171000D03*
X15969000Y-11236711D03*
X15609000Y-9198500D03*
X13894000Y-8166000D03*
X16014355Y-10498500D03*
X14937568Y-11152661D03*
X14969000Y-9251000D03*
X12149000Y-11129774D03*
X13861500Y-10823500D03*
X15519000Y-10901000D03*
X12316500Y-8528500D03*
X15419000Y-8406000D03*
X14729000Y-8891000D03*
X12234000Y-9508500D03*
X14164000Y-8391000D03*
X16249000Y-8671000D03*
X12509000Y-8531000D03*
X14389000Y-8571000D03*
X14924355Y-11476355D03*
X14099000Y-7961000D03*
X14291500Y-8941000D03*
X16784000Y-11056000D03*
X16574000Y-11256000D03*
X14729000Y-8501000D03*
X14974000Y-10696000D03*
X12409000Y-9091000D03*
X15869000Y-8101000D03*
X14899355Y-10501355D03*
X15743645Y-11160645D03*
X16581855Y-11468145D03*
X12751500Y-11493500D03*
X15819000Y-7641000D03*
X14924355Y-11236355D03*
X14609000Y-10211000D03*
X14924000Y-7846000D03*
X14729000Y-9051000D03*
X15883645Y-11160645D03*
X12611500Y-11493500D03*
X13799000Y-8916000D03*
X13503458Y-8162939D03*
X14823645Y-11163500D03*
X14486500Y-9078500D03*
X13199000Y-8331000D03*
X14601500Y-11058500D03*
X16691500Y-10291000D03*
X16569000Y-10521000D03*
X14274000Y-11123500D03*
X12729000Y-7991000D03*
X14471500Y-9918500D03*
X13199000Y-8191000D03*
X13331500Y-7711000D03*
X12501074Y-8356576D03*
X15179000Y-8361000D03*
X15534000Y-11166000D03*
X13051500Y-7666000D03*
X15289000Y-10131000D03*
X14311500Y-8388500D03*
X15179000Y-8051000D03*
X16644000Y-11166000D03*
X14569000Y-8361000D03*
X12169000Y-8528500D03*
X15194355Y-10501355D03*
X15279000Y-8611000D03*
X12235002Y-11004568D03*
X12151500Y-11493500D03*
X15653645Y-11160645D03*
X15734000Y-11476000D03*
X12409000Y-8891000D03*
X16389000Y-10521000D03*
X14891500Y-8893500D03*
X15689000Y-9931000D03*
X16694000Y-10131000D03*
X13119000Y-8581000D03*
X15974355Y-11476355D03*
X13862596Y-7691000D03*
%TO.N,/BT_EN*%
X13504000Y-11263500D03*
X15219000Y-9876000D03*
X16159000Y-7731000D03*
%TO.N,Net-(R24-Pad1)*%
X15046500Y-9056000D03*
X15344000Y-8201000D03*
%TO.N,Net-(R25-Pad1)*%
X15819000Y-8346000D03*
X15284000Y-9281000D03*
%TO.N,/SCK*%
X13529000Y-8483500D03*
X12501500Y-8898500D03*
%TO.N,/MCLK*%
X12744000Y-8621000D03*
X13632536Y-9251000D03*
%TO.N,Net-(C14-Pad2)*%
X14726500Y-7691000D03*
X15284000Y-8853500D03*
%TO.N,Net-(U3B-+)*%
X15416500Y-7967500D03*
X15139000Y-8531000D03*
%TO.N,/FWD_CON*%
X16226500Y-10213500D03*
X13631500Y-11416000D03*
%TO.N,/REV_CON*%
X16304000Y-10028500D03*
X13029000Y-11263500D03*
%TO.N,Net-(C8-Pad1)*%
X15589000Y-7841000D03*
X14486500Y-8703500D03*
%TO.N,/DAC_MCLK_EN*%
X12871500Y-11263500D03*
X12169000Y-8878500D03*
%TO.N,+6V*%
X14819000Y-9318500D03*
X16214000Y-10423500D03*
X16274000Y-11356000D03*
%TO.N,/DAC_FLT*%
X13439000Y-8741000D03*
X13249000Y-9251000D03*
%TO.N,/DAC_MUTEn*%
X13829000Y-8483500D03*
X12411500Y-9241000D03*
%TO.N,/LED*%
X13251500Y-11263500D03*
X16219000Y-10011000D03*
%TO.N,/KL30*%
X16005250Y-9893500D03*
X16060250Y-9933500D03*
X16115250Y-9893500D03*
%TD*%
%TO.N,+3V3*%
D18*
X15594000Y-11218500D02*
X15594000Y-10556000D01*
X15594000Y-10556000D02*
X15651500Y-10498500D01*
X15213645Y-11355645D02*
X15456855Y-11355645D01*
X15456855Y-11355645D02*
X15594000Y-11218500D01*
%TO.N,/BT_EN*%
X14046500Y-11263500D02*
X14819000Y-10491000D01*
X12309000Y-9551000D02*
X12236500Y-9623500D01*
X14819000Y-10486000D02*
X15219000Y-10086000D01*
X12739000Y-7871000D02*
X12236500Y-8373500D01*
X14819000Y-10491000D02*
X14819000Y-10486000D01*
X14899000Y-7731000D02*
X14759000Y-7871000D01*
X12309000Y-9441000D02*
X12309000Y-9551000D01*
X15219000Y-10086000D02*
X15219000Y-9876000D01*
X12236500Y-9368500D02*
X12309000Y-9441000D01*
X12236500Y-10358500D02*
X13224000Y-11346000D01*
X13504000Y-11263500D02*
X14046500Y-11263500D01*
X13421500Y-11346000D02*
X13224000Y-11346000D01*
X13504000Y-11263500D02*
X13421500Y-11346000D01*
X14759000Y-7871000D02*
X12739000Y-7871000D01*
X12236500Y-8373500D02*
X12236500Y-9368500D01*
X16159000Y-7731000D02*
X14899000Y-7731000D01*
X12236500Y-9623500D02*
X12236500Y-10358500D01*
%TO.N,Net-(R24-Pad1)*%
X15046500Y-8763500D02*
X15046500Y-9056000D01*
X15344000Y-8201000D02*
X15344000Y-8466000D01*
X15344000Y-8466000D02*
X15046500Y-8763500D01*
%TO.N,Net-(R25-Pad1)*%
X15819000Y-8346000D02*
X15819000Y-8746000D01*
X15819000Y-8746000D02*
X15284000Y-9281000D01*
%TO.N,/SCK*%
X12664000Y-8483500D02*
X13529000Y-8483500D01*
X12501500Y-8898500D02*
X12501500Y-8646000D01*
X12501500Y-8646000D02*
X12664000Y-8483500D01*
%TO.N,Net-(U3B-+)*%
X15139000Y-8531000D02*
X15239000Y-8431000D01*
X15239000Y-8145000D02*
X15416500Y-7967500D01*
X15239000Y-8431000D02*
X15239000Y-8145000D01*
%TO.N,/FWD_CON*%
X13631500Y-11416000D02*
X14466898Y-11416000D01*
X15669398Y-10213500D02*
X16226500Y-10213500D01*
X14466898Y-11416000D02*
X15669398Y-10213500D01*
%TO.N,/REV_CON*%
X14451500Y-11326000D02*
X15626500Y-10151000D01*
X16181500Y-10151000D02*
X16304000Y-10028500D01*
X15626500Y-10151000D02*
X16181500Y-10151000D01*
X13606500Y-11326000D02*
X14451500Y-11326000D01*
X13031500Y-11266000D02*
X13249000Y-11483500D01*
X13029000Y-11266000D02*
X13031500Y-11266000D01*
X13449000Y-11483500D02*
X13606500Y-11326000D01*
X13249000Y-11483500D02*
X13449000Y-11483500D01*
%TO.N,Net-(C8-Pad1)*%
X14486500Y-8703500D02*
X14486500Y-8641000D01*
X15286500Y-7841000D02*
X15589000Y-7841000D01*
X14486500Y-8641000D02*
X15286500Y-7841000D01*
%TO.N,/DAC_MCLK_EN*%
X12169000Y-8878500D02*
X12169000Y-10273500D01*
X12169000Y-10273500D02*
X12169000Y-10553500D01*
X12169000Y-10553500D02*
X12871500Y-11256000D01*
%TO.N,+6V*%
X15999000Y-11081000D02*
X16274000Y-11356000D01*
X16214000Y-10423500D02*
X15999000Y-10638500D01*
X15999000Y-10638500D02*
X15999000Y-11081000D01*
%TO.N,/DAC_MUTEn*%
X12411500Y-9241000D02*
X12996500Y-8656000D01*
X13656500Y-8656000D02*
X13829000Y-8483500D01*
X12996500Y-8656000D02*
X13656500Y-8656000D01*
%TO.N,/LED*%
X14031500Y-11173500D02*
X15119000Y-10086000D01*
X13341500Y-11173500D02*
X14031500Y-11173500D01*
X13251500Y-11263500D02*
X13341500Y-11173500D01*
X15204000Y-9778500D02*
X15649000Y-9778500D01*
X15119000Y-10086000D02*
X15119000Y-9863500D01*
X15649000Y-9778500D02*
X15881500Y-10011000D01*
X15881500Y-10011000D02*
X16219000Y-10011000D01*
X15119000Y-9863500D02*
X15204000Y-9778500D01*
%TO.N,/KL30*%
D19*
X16486500Y-9913500D02*
X16006500Y-9913500D01*
X16914000Y-9371000D02*
X16914000Y-9361000D01*
X16924000Y-9476000D02*
X16486500Y-9913500D01*
X16924000Y-9351000D02*
X16924000Y-9476000D01*
X16914000Y-9361000D02*
X16924000Y-9351000D01*
%TD*%
%TA.AperFunction,Conductor*%
%TO.N,GND*%
G36*
X15638530Y-9810574D02*
G01*
X15639086Y-9811084D01*
X15863049Y-10035046D01*
X15869901Y-10039002D01*
X15877544Y-10041050D01*
X16174686Y-10041050D01*
X16180246Y-10043074D01*
X16180802Y-10043584D01*
X16188269Y-10051050D01*
X16199681Y-10057639D01*
X16210985Y-10060668D01*
X16215832Y-10064062D01*
X16217364Y-10069777D01*
X16214863Y-10075140D01*
X16214863Y-10075140D01*
X16171586Y-10118417D01*
X16166224Y-10120917D01*
X16165470Y-10120950D01*
X15622544Y-10120950D01*
X15614901Y-10122998D01*
X15608049Y-10126954D01*
X14441586Y-11293416D01*
X14436224Y-11295917D01*
X14435470Y-11295950D01*
X14077430Y-11295950D01*
X14071870Y-11293926D01*
X14068911Y-11288802D01*
X14069939Y-11282975D01*
X14071314Y-11281183D01*
X14396547Y-10955950D01*
X14843046Y-10509451D01*
X14847002Y-10502599D01*
X14847172Y-10501964D01*
X14849411Y-10498086D01*
X15243046Y-10104451D01*
X15247002Y-10097599D01*
X15249050Y-10089956D01*
X15249050Y-9920314D01*
X15251074Y-9914754D01*
X15251583Y-9914198D01*
X15259050Y-9906731D01*
X15265639Y-9895319D01*
X15268562Y-9884411D01*
X15511450Y-9884411D01*
X15511450Y-9897589D01*
X15514861Y-9910319D01*
X15514861Y-9910319D01*
X15518170Y-9916050D01*
X15521450Y-9921731D01*
X15530769Y-9931050D01*
X15542181Y-9937639D01*
X15554911Y-9941050D01*
X15554911Y-9941050D01*
X15568089Y-9941050D01*
X15568089Y-9941050D01*
X15580819Y-9937639D01*
X15592231Y-9931050D01*
X15601550Y-9921731D01*
X15608139Y-9910319D01*
X15611550Y-9897589D01*
X15611550Y-9884411D01*
X15608139Y-9871681D01*
X15601550Y-9860269D01*
X15592231Y-9850950D01*
X15582010Y-9845049D01*
X15580819Y-9844361D01*
X15580819Y-9844361D01*
X15580819Y-9844361D01*
X15568089Y-9840950D01*
X15554911Y-9840950D01*
X15542181Y-9844361D01*
X15542181Y-9844361D01*
X15542181Y-9844361D01*
X15530768Y-9850950D01*
X15521450Y-9860269D01*
X15514861Y-9871681D01*
X15514861Y-9871681D01*
X15514861Y-9871681D01*
X15511450Y-9884411D01*
X15268562Y-9884411D01*
X15269050Y-9882589D01*
X15269050Y-9869411D01*
X15265639Y-9856681D01*
X15259050Y-9845269D01*
X15249731Y-9835950D01*
X15238319Y-9829361D01*
X15225589Y-9825950D01*
X15219930Y-9825950D01*
X15214370Y-9823926D01*
X15211411Y-9818802D01*
X15212439Y-9812975D01*
X15213814Y-9811184D01*
X15213914Y-9811084D01*
X15219276Y-9808583D01*
X15220030Y-9808550D01*
X15632970Y-9808550D01*
X15638530Y-9810574D01*
G37*
%TD.AperFunction*%
%TA.AperFunction,Conductor*%
G36*
X12212025Y-9386939D02*
G01*
X12213816Y-9388314D01*
X12276416Y-9450914D01*
X12278917Y-9456276D01*
X12278950Y-9457030D01*
X12278950Y-9534970D01*
X12276926Y-9540530D01*
X12276416Y-9541086D01*
X12213816Y-9603686D01*
X12208454Y-9606187D01*
X12202739Y-9604656D01*
X12199345Y-9599809D01*
X12199050Y-9597570D01*
X12199050Y-9394430D01*
X12201074Y-9388870D01*
X12206198Y-9385912D01*
X12212025Y-9386939D01*
G37*
%TD.AperFunction*%
%TA.AperFunction,Conductor*%
G36*
X17545860Y-7593074D02*
G01*
X17548819Y-7598198D01*
X17548950Y-7599700D01*
X17548950Y-11542300D01*
X17546926Y-11547860D01*
X17541802Y-11550819D01*
X17540300Y-11550950D01*
X12484376Y-11550950D01*
X12478816Y-11548926D01*
X12475857Y-11543802D01*
X12476885Y-11537975D01*
X12480051Y-11534809D01*
X12482231Y-11533550D01*
X12491550Y-11524231D01*
X12498139Y-11512819D01*
X12501550Y-11500089D01*
X12501550Y-11486911D01*
X12498139Y-11474181D01*
X12491550Y-11462769D01*
X12482231Y-11453450D01*
X12470819Y-11446861D01*
X12458089Y-11443450D01*
X12444911Y-11443450D01*
X12432181Y-11446861D01*
X12432181Y-11446861D01*
X12432181Y-11446861D01*
X12420768Y-11453450D01*
X12411450Y-11462768D01*
X12404861Y-11474181D01*
X12404861Y-11474181D01*
X12404861Y-11474181D01*
X12401450Y-11486911D01*
X12401450Y-11500089D01*
X12404861Y-11512819D01*
X12411450Y-11524231D01*
X12420769Y-11533550D01*
X12422949Y-11534809D01*
X12426752Y-11539341D01*
X12426752Y-11545258D01*
X12422949Y-11549791D01*
X12418624Y-11550950D01*
X12097700Y-11550950D01*
X12092140Y-11548926D01*
X12089181Y-11543802D01*
X12089050Y-11542300D01*
X12089050Y-11274411D01*
X12268950Y-11274411D01*
X12268950Y-11287589D01*
X12272361Y-11300319D01*
X12272361Y-11300319D01*
X12274444Y-11303926D01*
X12278950Y-11311731D01*
X12288269Y-11321050D01*
X12299681Y-11327639D01*
X12312411Y-11331050D01*
X12312411Y-11331050D01*
X12325589Y-11331050D01*
X12325589Y-11331050D01*
X12338319Y-11327639D01*
X12349731Y-11321050D01*
X12357883Y-11312898D01*
X12363246Y-11310397D01*
X12368961Y-11311929D01*
X12370116Y-11312898D01*
X12378269Y-11321050D01*
X12389681Y-11327639D01*
X12402411Y-11331050D01*
X12402411Y-11331050D01*
X12415589Y-11331050D01*
X12415589Y-11331050D01*
X12428319Y-11327639D01*
X12439731Y-11321050D01*
X12449050Y-11311731D01*
X12455639Y-11300319D01*
X12459050Y-11287589D01*
X12459050Y-11274411D01*
X12455639Y-11261681D01*
X12449050Y-11250269D01*
X12439731Y-11240950D01*
X12428319Y-11234361D01*
X12415589Y-11230950D01*
X12402411Y-11230950D01*
X12389681Y-11234361D01*
X12389681Y-11234361D01*
X12389681Y-11234361D01*
X12378268Y-11240950D01*
X12370116Y-11249102D01*
X12364754Y-11251603D01*
X12359039Y-11250071D01*
X12357883Y-11249102D01*
X12349731Y-11240950D01*
X12338319Y-11234361D01*
X12338319Y-11234361D01*
X12338319Y-11234361D01*
X12325589Y-11230950D01*
X12312411Y-11230950D01*
X12299681Y-11234361D01*
X12299681Y-11234361D01*
X12299681Y-11234361D01*
X12288268Y-11240950D01*
X12278950Y-11250268D01*
X12272361Y-11261681D01*
X12272361Y-11261681D01*
X12272361Y-11261681D01*
X12268950Y-11274411D01*
X12089050Y-11274411D01*
X12089050Y-8871911D01*
X12118950Y-8871911D01*
X12118950Y-8885089D01*
X12122361Y-8897819D01*
X12122361Y-8897819D01*
X12128950Y-8909231D01*
X12136416Y-8916698D01*
X12138917Y-8922061D01*
X12138950Y-8922814D01*
X12138950Y-10557456D01*
X12140998Y-10565099D01*
X12142441Y-10567599D01*
X12144954Y-10571951D01*
X12819707Y-11246704D01*
X12822208Y-11252067D01*
X12821946Y-11255059D01*
X12821450Y-11256911D01*
X12821450Y-11270089D01*
X12824861Y-11282819D01*
X12831450Y-11294231D01*
X12840769Y-11303550D01*
X12852181Y-11310139D01*
X12864911Y-11313550D01*
X12864911Y-11313550D01*
X12878089Y-11313550D01*
X12878089Y-11313550D01*
X12890819Y-11310139D01*
X12902231Y-11303550D01*
X12911550Y-11294231D01*
X12918139Y-11282819D01*
X12921550Y-11270089D01*
X12921550Y-11256911D01*
X12918139Y-11244181D01*
X12911550Y-11232769D01*
X12902231Y-11223450D01*
X12890819Y-11216861D01*
X12878089Y-11213450D01*
X12878089Y-11213450D01*
X12875030Y-11213450D01*
X12869470Y-11211426D01*
X12868914Y-11210916D01*
X12201583Y-10543586D01*
X12199083Y-10538224D01*
X12199050Y-10537470D01*
X12199050Y-10384430D01*
X12201074Y-10378870D01*
X12206198Y-10375911D01*
X12212025Y-10376939D01*
X12213816Y-10378313D01*
X12631503Y-10796000D01*
X13034186Y-11198683D01*
X13036687Y-11204046D01*
X13035156Y-11209761D01*
X13030309Y-11213155D01*
X13028070Y-11213450D01*
X13022411Y-11213450D01*
X13009681Y-11216861D01*
X13009681Y-11216861D01*
X13009681Y-11216861D01*
X12998268Y-11223450D01*
X12988950Y-11232768D01*
X12982361Y-11244181D01*
X12982361Y-11244181D01*
X12982361Y-11244181D01*
X12978950Y-11256911D01*
X12978950Y-11270089D01*
X12982361Y-11282819D01*
X12988950Y-11294231D01*
X12998269Y-11303550D01*
X13009681Y-11310139D01*
X13022411Y-11313550D01*
X13022411Y-11313550D01*
X13032970Y-11313550D01*
X13038530Y-11315574D01*
X13039086Y-11316083D01*
X13224954Y-11501951D01*
X13230549Y-11507546D01*
X13237401Y-11511502D01*
X13245044Y-11513550D01*
X13245044Y-11513550D01*
X13245044Y-11513550D01*
X13452956Y-11513550D01*
X13452956Y-11513550D01*
X13460599Y-11511502D01*
X13467451Y-11507546D01*
X13473046Y-11501951D01*
X13505942Y-11469055D01*
X15163595Y-11469055D01*
X15163595Y-11482234D01*
X15167005Y-11494963D01*
X15173595Y-11506376D01*
X15182913Y-11515695D01*
X15194326Y-11522284D01*
X15207055Y-11525695D01*
X15207056Y-11525695D01*
X15220234Y-11525695D01*
X15220234Y-11525695D01*
X15232963Y-11522284D01*
X15244376Y-11515695D01*
X15253695Y-11506376D01*
X15260284Y-11494963D01*
X15263695Y-11482234D01*
X15263695Y-11469055D01*
X15260284Y-11456326D01*
X15253695Y-11444913D01*
X15244376Y-11435595D01*
X15236741Y-11431186D01*
X15232963Y-11429005D01*
X15232963Y-11429005D01*
X15232963Y-11429005D01*
X15220234Y-11425595D01*
X15207055Y-11425595D01*
X15194326Y-11429005D01*
X15194326Y-11429005D01*
X15194326Y-11429005D01*
X15182913Y-11435595D01*
X15173595Y-11444913D01*
X15167005Y-11456326D01*
X15167005Y-11456326D01*
X15167005Y-11456326D01*
X15163595Y-11469055D01*
X13505942Y-11469055D01*
X13566683Y-11408314D01*
X13572046Y-11405813D01*
X13577761Y-11407344D01*
X13581155Y-11412191D01*
X13581450Y-11414430D01*
X13581450Y-11422589D01*
X13584628Y-11434451D01*
X13584861Y-11435319D01*
X13589555Y-11443450D01*
X13591450Y-11446731D01*
X13600769Y-11456050D01*
X13612181Y-11462639D01*
X13624911Y-11466050D01*
X13624911Y-11466050D01*
X13638089Y-11466050D01*
X13638089Y-11466050D01*
X13650819Y-11462639D01*
X13662231Y-11456050D01*
X13669698Y-11448583D01*
X13675060Y-11446083D01*
X13675814Y-11446050D01*
X14470854Y-11446050D01*
X14470854Y-11446050D01*
X14478497Y-11444002D01*
X14485349Y-11440046D01*
X14490944Y-11434451D01*
X14686340Y-11239055D01*
X15163595Y-11239055D01*
X15163595Y-11252234D01*
X15167005Y-11264963D01*
X15173595Y-11276376D01*
X15182913Y-11285695D01*
X15191268Y-11290518D01*
X15194326Y-11292284D01*
X15194326Y-11292284D01*
X15194347Y-11292289D01*
X15194358Y-11292297D01*
X15194850Y-11292501D01*
X15194804Y-11292610D01*
X15199194Y-11295683D01*
X15200725Y-11301399D01*
X15198224Y-11306761D01*
X15194823Y-11308725D01*
X15194850Y-11308788D01*
X15194366Y-11308989D01*
X15194347Y-11309000D01*
X15194340Y-11309002D01*
X15194326Y-11309005D01*
X15182913Y-11315595D01*
X15173595Y-11324913D01*
X15167005Y-11336326D01*
X15167005Y-11336326D01*
X15167005Y-11336326D01*
X15163595Y-11349055D01*
X15163595Y-11362234D01*
X15166748Y-11374002D01*
X15167005Y-11374963D01*
X15169018Y-11378450D01*
X15173595Y-11386376D01*
X15182913Y-11395695D01*
X15194326Y-11402284D01*
X15207055Y-11405695D01*
X15207056Y-11405695D01*
X15220234Y-11405695D01*
X15220234Y-11405695D01*
X15232963Y-11402284D01*
X15244376Y-11395695D01*
X15251842Y-11388228D01*
X15257205Y-11385727D01*
X15257959Y-11385695D01*
X15460812Y-11385695D01*
X15460812Y-11385694D01*
X15468454Y-11383647D01*
X15475306Y-11379691D01*
X15480901Y-11374096D01*
X15618046Y-11236951D01*
X15622002Y-11230099D01*
X15624050Y-11222456D01*
X15624050Y-11214544D01*
X15624050Y-10634544D01*
X15968950Y-10634544D01*
X15968950Y-11084956D01*
X15970998Y-11092599D01*
X15974954Y-11099451D01*
X16221416Y-11345914D01*
X16223917Y-11351276D01*
X16223950Y-11352030D01*
X16223950Y-11362589D01*
X16227361Y-11375319D01*
X16233950Y-11386731D01*
X16243269Y-11396050D01*
X16254681Y-11402639D01*
X16267411Y-11406050D01*
X16267411Y-11406050D01*
X16280589Y-11406050D01*
X16280589Y-11406050D01*
X16293319Y-11402639D01*
X16304731Y-11396050D01*
X16314050Y-11386731D01*
X16320639Y-11375319D01*
X16324050Y-11362589D01*
X16324050Y-11349411D01*
X16320639Y-11336681D01*
X16314050Y-11325269D01*
X16304731Y-11315950D01*
X16293319Y-11309361D01*
X16280589Y-11305950D01*
X16270030Y-11305950D01*
X16264470Y-11303926D01*
X16263914Y-11303416D01*
X16218900Y-11258403D01*
X17108950Y-11258403D01*
X17108950Y-11283597D01*
X17112891Y-11308479D01*
X17112891Y-11308480D01*
X17120676Y-11332437D01*
X17120676Y-11332438D01*
X17131726Y-11354124D01*
X17132113Y-11354884D01*
X17146921Y-11375266D01*
X17164734Y-11393079D01*
X17185116Y-11407887D01*
X17207562Y-11419324D01*
X17213681Y-11421312D01*
X17231520Y-11427109D01*
X17231521Y-11427109D01*
X17231522Y-11427109D01*
X17256404Y-11431050D01*
X17256404Y-11431050D01*
X17281596Y-11431050D01*
X17281596Y-11431050D01*
X17306479Y-11427109D01*
X17306479Y-11427109D01*
X17306480Y-11427109D01*
X17317686Y-11423467D01*
X17330438Y-11419324D01*
X17352885Y-11407887D01*
X17373266Y-11393079D01*
X17391079Y-11375266D01*
X17405887Y-11354884D01*
X17417324Y-11332438D01*
X17422681Y-11315950D01*
X17425109Y-11308480D01*
X17425109Y-11308479D01*
X17425109Y-11308478D01*
X17429050Y-11283596D01*
X17429050Y-11258404D01*
X17425109Y-11233521D01*
X17425109Y-11233521D01*
X17425109Y-11233520D01*
X17418654Y-11213654D01*
X17417324Y-11209562D01*
X17405887Y-11187115D01*
X17391079Y-11166734D01*
X17373266Y-11148921D01*
X17352885Y-11134113D01*
X17352884Y-11134113D01*
X17330438Y-11122676D01*
X17330437Y-11122676D01*
X17306480Y-11114891D01*
X17306479Y-11114891D01*
X17281597Y-11110950D01*
X17281596Y-11110950D01*
X17256404Y-11110950D01*
X17256403Y-11110950D01*
X17231521Y-11114891D01*
X17231520Y-11114891D01*
X17207563Y-11122676D01*
X17207562Y-11122676D01*
X17185116Y-11134113D01*
X17185115Y-11134113D01*
X17164734Y-11148921D01*
X17146921Y-11166734D01*
X17132113Y-11187115D01*
X17132113Y-11187115D01*
X17120676Y-11209562D01*
X17120676Y-11209562D01*
X17112891Y-11233520D01*
X17112891Y-11233521D01*
X17108950Y-11258403D01*
X16218900Y-11258403D01*
X16121314Y-11160817D01*
X16118813Y-11155454D01*
X16120344Y-11149739D01*
X16125191Y-11146345D01*
X16127430Y-11146050D01*
X16136931Y-11146050D01*
X16136931Y-11146050D01*
X16139353Y-11145401D01*
X16148389Y-11142980D01*
X16158661Y-11137049D01*
X16167049Y-11128661D01*
X16172980Y-11118389D01*
X16173637Y-11115937D01*
X16177030Y-11111090D01*
X16182746Y-11109559D01*
X16188108Y-11112059D01*
X16189483Y-11113850D01*
X16189951Y-11114661D01*
X16198339Y-11123049D01*
X16208611Y-11128980D01*
X16208611Y-11128980D01*
X16220069Y-11132050D01*
X16220069Y-11132050D01*
X16220069Y-11132050D01*
X16231931Y-11132050D01*
X16231931Y-11132050D01*
X16234353Y-11131401D01*
X16243389Y-11128980D01*
X16253661Y-11123049D01*
X16262049Y-11114661D01*
X16267980Y-11104389D01*
X16271050Y-11092931D01*
X16271050Y-11081069D01*
X16267980Y-11069611D01*
X16262049Y-11059339D01*
X16254827Y-11052117D01*
X16252326Y-11046754D01*
X16253857Y-11041039D01*
X16254827Y-11039884D01*
X16257661Y-11037049D01*
X16262049Y-11032661D01*
X16267980Y-11022389D01*
X16271050Y-11010931D01*
X16271050Y-10999069D01*
X16271050Y-10999069D01*
X16336950Y-10999069D01*
X16336950Y-11010931D01*
X16340020Y-11022389D01*
X16345951Y-11032661D01*
X16353173Y-11039884D01*
X16355674Y-11045246D01*
X16354142Y-11050961D01*
X16353173Y-11052117D01*
X16345951Y-11059339D01*
X16340020Y-11069611D01*
X16336950Y-11081069D01*
X16336950Y-11092931D01*
X16340020Y-11104389D01*
X16343889Y-11111090D01*
X16345951Y-11114661D01*
X16354339Y-11123049D01*
X16364611Y-11128980D01*
X16364611Y-11128980D01*
X16376069Y-11132050D01*
X16376069Y-11132050D01*
X16376069Y-11132050D01*
X16387931Y-11132050D01*
X16387931Y-11132050D01*
X16390353Y-11131401D01*
X16399389Y-11128980D01*
X16409661Y-11123049D01*
X16418049Y-11114661D01*
X16418517Y-11113851D01*
X16423049Y-11110048D01*
X16428966Y-11110047D01*
X16433499Y-11113850D01*
X16434363Y-11115937D01*
X16435020Y-11118389D01*
X16437711Y-11123049D01*
X16440951Y-11128661D01*
X16449339Y-11137049D01*
X16459611Y-11142980D01*
X16459611Y-11142980D01*
X16471069Y-11146050D01*
X16471069Y-11146050D01*
X16471069Y-11146050D01*
X16482931Y-11146050D01*
X16482931Y-11146050D01*
X16485353Y-11145401D01*
X16494389Y-11142980D01*
X16504661Y-11137049D01*
X16513049Y-11128661D01*
X16518980Y-11118389D01*
X16522050Y-11106931D01*
X16522050Y-11095069D01*
X16518980Y-11083611D01*
X16513049Y-11073339D01*
X16504661Y-11064951D01*
X16494389Y-11059020D01*
X16494320Y-11058992D01*
X16494287Y-11058961D01*
X16493898Y-11058737D01*
X16493947Y-11058650D01*
X16489957Y-11054995D01*
X16489185Y-11049128D01*
X16492364Y-11044138D01*
X16494320Y-11043008D01*
X16494388Y-11042980D01*
X16494389Y-11042980D01*
X16504661Y-11037049D01*
X16513049Y-11028661D01*
X16518980Y-11018389D01*
X16522050Y-11006931D01*
X16522050Y-10995069D01*
X16518980Y-10983611D01*
X16513049Y-10973339D01*
X16504661Y-10964951D01*
X16494388Y-10959020D01*
X16494389Y-10959020D01*
X16482931Y-10955950D01*
X16482931Y-10955950D01*
X16471069Y-10955950D01*
X16471069Y-10955950D01*
X16459611Y-10959020D01*
X16449339Y-10964951D01*
X16440951Y-10973339D01*
X16435836Y-10982198D01*
X16431304Y-10986001D01*
X16425387Y-10986001D01*
X16420854Y-10982198D01*
X16418049Y-10977339D01*
X16409661Y-10968951D01*
X16402733Y-10964951D01*
X16399388Y-10963020D01*
X16399389Y-10963020D01*
X16387931Y-10959950D01*
X16387931Y-10959950D01*
X16376069Y-10959950D01*
X16376069Y-10959950D01*
X16364611Y-10963020D01*
X16354339Y-10968951D01*
X16345951Y-10977339D01*
X16340020Y-10987611D01*
X16336950Y-10999069D01*
X16271050Y-10999069D01*
X16267980Y-10987611D01*
X16262049Y-10977339D01*
X16253661Y-10968951D01*
X16246733Y-10964951D01*
X16243388Y-10963020D01*
X16243389Y-10963020D01*
X16231931Y-10959950D01*
X16231931Y-10959950D01*
X16220069Y-10959950D01*
X16220069Y-10959950D01*
X16208611Y-10963020D01*
X16198339Y-10968951D01*
X16189951Y-10977339D01*
X16189951Y-10977339D01*
X16187146Y-10982198D01*
X16187146Y-10982198D01*
X16182613Y-10986001D01*
X16176696Y-10986001D01*
X16172164Y-10982198D01*
X16167049Y-10973339D01*
X16158661Y-10964951D01*
X16148388Y-10959020D01*
X16148389Y-10959020D01*
X16136931Y-10955950D01*
X16136931Y-10955950D01*
X16125069Y-10955950D01*
X16125069Y-10955950D01*
X16113611Y-10959020D01*
X16103339Y-10964951D01*
X16094951Y-10973339D01*
X16089020Y-10983611D01*
X16085950Y-10995069D01*
X16085950Y-11006931D01*
X16089020Y-11018389D01*
X16092146Y-11023802D01*
X16094951Y-11028661D01*
X16103339Y-11037049D01*
X16108248Y-11039884D01*
X16113611Y-11042980D01*
X16113611Y-11042980D01*
X16113611Y-11042980D01*
X16113612Y-11042980D01*
X16113680Y-11043008D01*
X16113714Y-11043039D01*
X16114102Y-11043263D01*
X16114053Y-11043350D01*
X16118043Y-11047006D01*
X16118815Y-11052872D01*
X16115636Y-11057863D01*
X16113680Y-11058992D01*
X16113611Y-11059020D01*
X16103339Y-11064951D01*
X16094951Y-11073339D01*
X16089020Y-11083611D01*
X16085950Y-11095069D01*
X16085950Y-11104570D01*
X16083926Y-11110130D01*
X16078802Y-11113089D01*
X16072975Y-11112061D01*
X16071183Y-11110686D01*
X16031583Y-11071086D01*
X16029083Y-11065724D01*
X16029050Y-11064970D01*
X16029050Y-10770581D01*
X16816500Y-10770581D01*
X16816500Y-10796000D01*
X16816500Y-10796000D01*
X16889359Y-10796000D01*
X16889056Y-10796526D01*
X16886500Y-10806063D01*
X16886500Y-10815937D01*
X16889056Y-10825475D01*
X16889359Y-10826000D01*
X16816500Y-10826000D01*
X16816500Y-10826000D01*
X16816500Y-10851421D01*
X16816785Y-10854460D01*
X16816785Y-10854461D01*
X16821265Y-10867264D01*
X16821266Y-10867265D01*
X16829321Y-10878179D01*
X16829321Y-10878179D01*
X16840235Y-10886234D01*
X16840236Y-10886235D01*
X16853040Y-10890715D01*
X16856078Y-10891000D01*
X16856081Y-10891000D01*
X16909000Y-10891000D01*
X16909000Y-10845641D01*
X16909526Y-10845944D01*
X16919063Y-10848500D01*
X16928937Y-10848500D01*
X16938475Y-10845944D01*
X16939000Y-10845641D01*
X16939000Y-10891000D01*
X16939000Y-10891000D01*
X16991921Y-10891000D01*
X16994960Y-10890715D01*
X16994961Y-10890715D01*
X17007764Y-10886235D01*
X17007765Y-10886234D01*
X17018679Y-10878179D01*
X17018679Y-10878179D01*
X17026734Y-10867265D01*
X17026735Y-10867264D01*
X17031215Y-10854460D01*
X17031500Y-10851422D01*
X17031500Y-10851419D01*
X17031500Y-10826000D01*
X17031500Y-10826000D01*
X16958641Y-10826000D01*
X16958944Y-10825475D01*
X16961500Y-10815937D01*
X16961500Y-10806063D01*
X16958944Y-10796526D01*
X16958641Y-10796000D01*
X17031500Y-10796000D01*
X17031500Y-10796000D01*
X17031500Y-10770579D01*
X17031215Y-10767540D01*
X17031215Y-10767539D01*
X17026735Y-10754736D01*
X17026734Y-10754735D01*
X17018679Y-10743821D01*
X17018679Y-10743821D01*
X17007765Y-10735766D01*
X17007764Y-10735765D01*
X16994960Y-10731285D01*
X16991922Y-10731000D01*
X16991919Y-10731000D01*
X16939000Y-10731000D01*
X16939000Y-10731000D01*
X16939000Y-10776359D01*
X16938475Y-10776056D01*
X16928937Y-10773500D01*
X16919063Y-10773500D01*
X16909526Y-10776056D01*
X16909000Y-10776359D01*
X16909000Y-10731000D01*
X16856079Y-10731000D01*
X16853040Y-10731285D01*
X16853039Y-10731285D01*
X16840236Y-10735765D01*
X16840235Y-10735766D01*
X16829321Y-10743821D01*
X16829321Y-10743821D01*
X16821266Y-10754735D01*
X16821265Y-10754736D01*
X16816785Y-10767540D01*
X16816500Y-10770578D01*
X16816500Y-10770581D01*
X16029050Y-10770581D01*
X16029050Y-10654530D01*
X16031074Y-10648970D01*
X16031582Y-10648415D01*
X16076882Y-10603115D01*
X16816450Y-10603115D01*
X16816450Y-10618885D01*
X16819526Y-10634349D01*
X16819526Y-10634350D01*
X16825561Y-10648918D01*
X16834321Y-10662029D01*
X16845471Y-10673179D01*
X16858582Y-10681939D01*
X16873150Y-10687974D01*
X16885590Y-10690448D01*
X16888615Y-10691050D01*
X16888615Y-10691050D01*
X16888616Y-10691050D01*
X16888616Y-10691050D01*
X16959384Y-10691050D01*
X16959384Y-10691050D01*
X16974850Y-10687974D01*
X16989418Y-10681939D01*
X17002529Y-10673179D01*
X17013679Y-10662029D01*
X17022439Y-10648918D01*
X17028474Y-10634350D01*
X17031550Y-10618884D01*
X17031550Y-10603116D01*
X17028474Y-10587650D01*
X17022439Y-10573082D01*
X17013679Y-10559971D01*
X17002529Y-10548821D01*
X17002172Y-10548583D01*
X16998159Y-10545901D01*
X16989418Y-10540061D01*
X16979117Y-10535794D01*
X16974850Y-10534026D01*
X16974849Y-10534026D01*
X16959385Y-10530950D01*
X16959384Y-10530950D01*
X16888616Y-10530950D01*
X16888615Y-10530950D01*
X16873151Y-10534026D01*
X16873150Y-10534026D01*
X16864646Y-10537549D01*
X16858582Y-10540061D01*
X16858582Y-10540061D01*
X16858582Y-10540061D01*
X16845471Y-10548821D01*
X16834321Y-10559971D01*
X16830351Y-10565914D01*
X16825561Y-10573082D01*
X16823061Y-10579116D01*
X16819526Y-10587650D01*
X16819526Y-10587651D01*
X16816450Y-10603115D01*
X16076882Y-10603115D01*
X16203913Y-10476083D01*
X16209276Y-10473583D01*
X16210030Y-10473550D01*
X16220589Y-10473550D01*
X16220589Y-10473550D01*
X16233319Y-10470139D01*
X16244731Y-10463550D01*
X16254050Y-10454231D01*
X16260639Y-10442819D01*
X16264050Y-10430089D01*
X16264050Y-10416911D01*
X16260639Y-10404181D01*
X16260024Y-10403115D01*
X16816450Y-10403115D01*
X16816450Y-10418885D01*
X16818830Y-10430849D01*
X16819526Y-10434350D01*
X16825561Y-10448918D01*
X16827527Y-10451861D01*
X16834271Y-10461954D01*
X16834321Y-10462029D01*
X16845471Y-10473179D01*
X16858582Y-10481939D01*
X16873150Y-10487974D01*
X16885590Y-10490448D01*
X16888615Y-10491050D01*
X16888615Y-10491050D01*
X16888616Y-10491050D01*
X16888616Y-10491050D01*
X16959384Y-10491050D01*
X16959384Y-10491050D01*
X16974850Y-10487974D01*
X16989418Y-10481939D01*
X17002529Y-10473179D01*
X17013679Y-10462029D01*
X17022439Y-10448918D01*
X17028474Y-10434350D01*
X17031550Y-10418884D01*
X17031550Y-10403116D01*
X17028474Y-10387650D01*
X17022439Y-10373082D01*
X17013679Y-10359971D01*
X17002529Y-10348821D01*
X17002178Y-10348586D01*
X16998159Y-10345901D01*
X16989418Y-10340061D01*
X16979117Y-10335794D01*
X16974850Y-10334026D01*
X16974849Y-10334026D01*
X16959385Y-10330950D01*
X16959384Y-10330950D01*
X16888616Y-10330950D01*
X16888615Y-10330950D01*
X16873151Y-10334026D01*
X16873150Y-10334026D01*
X16866307Y-10336861D01*
X16858582Y-10340061D01*
X16858582Y-10340061D01*
X16858582Y-10340061D01*
X16845471Y-10348821D01*
X16834321Y-10359971D01*
X16827554Y-10370099D01*
X16825561Y-10373082D01*
X16823963Y-10376939D01*
X16819526Y-10387650D01*
X16819526Y-10387651D01*
X16816450Y-10403115D01*
X16260024Y-10403115D01*
X16254050Y-10392769D01*
X16244731Y-10383450D01*
X16236798Y-10378870D01*
X16233319Y-10376861D01*
X16233319Y-10376861D01*
X16233319Y-10376861D01*
X16220589Y-10373450D01*
X16207411Y-10373450D01*
X16194681Y-10376861D01*
X16194681Y-10376861D01*
X16194681Y-10376861D01*
X16183268Y-10383450D01*
X16173950Y-10392769D01*
X16167361Y-10404181D01*
X16167361Y-10404181D01*
X16167361Y-10404181D01*
X16163950Y-10416911D01*
X16163950Y-10416911D01*
X16163950Y-10427470D01*
X16161926Y-10433030D01*
X16161416Y-10433586D01*
X15980549Y-10614454D01*
X15974954Y-10620049D01*
X15970998Y-10626901D01*
X15968950Y-10634544D01*
X15624050Y-10634544D01*
X15624050Y-10572030D01*
X15626074Y-10566470D01*
X15626582Y-10565915D01*
X15641413Y-10551083D01*
X15646776Y-10548583D01*
X15647530Y-10548550D01*
X15658089Y-10548550D01*
X15658089Y-10548550D01*
X15670819Y-10545139D01*
X15682231Y-10538550D01*
X15691550Y-10529231D01*
X15698139Y-10517819D01*
X15701550Y-10505089D01*
X15701550Y-10491911D01*
X15698139Y-10479181D01*
X15691550Y-10467769D01*
X15682231Y-10458450D01*
X15670819Y-10451861D01*
X15658089Y-10448450D01*
X15644911Y-10448450D01*
X15632181Y-10451861D01*
X15632181Y-10451861D01*
X15632181Y-10451861D01*
X15620768Y-10458450D01*
X15611450Y-10467769D01*
X15604861Y-10479181D01*
X15604861Y-10479181D01*
X15604861Y-10479181D01*
X15601450Y-10491911D01*
X15601450Y-10491911D01*
X15601450Y-10502470D01*
X15599426Y-10508030D01*
X15598916Y-10508586D01*
X15575549Y-10531954D01*
X15569954Y-10537549D01*
X15565998Y-10544401D01*
X15563950Y-10552044D01*
X15563950Y-11202470D01*
X15561926Y-11208030D01*
X15561416Y-11208586D01*
X15446942Y-11323061D01*
X15441579Y-11325562D01*
X15440825Y-11325595D01*
X15257959Y-11325595D01*
X15252399Y-11323571D01*
X15251842Y-11323061D01*
X15244376Y-11315595D01*
X15232963Y-11309005D01*
X15232963Y-11309005D01*
X15232963Y-11309005D01*
X15232942Y-11309000D01*
X15232931Y-11308992D01*
X15232440Y-11308788D01*
X15232485Y-11308679D01*
X15228096Y-11305606D01*
X15226564Y-11299891D01*
X15229065Y-11294528D01*
X15232466Y-11292564D01*
X15232440Y-11292501D01*
X15232923Y-11292300D01*
X15232942Y-11292289D01*
X15232963Y-11292284D01*
X15244376Y-11285695D01*
X15253695Y-11276376D01*
X15260284Y-11264963D01*
X15263695Y-11252234D01*
X15263695Y-11239055D01*
X15260284Y-11226326D01*
X15253695Y-11214913D01*
X15244376Y-11205595D01*
X15241694Y-11204046D01*
X15232963Y-11199005D01*
X15232963Y-11199005D01*
X15232963Y-11199005D01*
X15220234Y-11195595D01*
X15207055Y-11195595D01*
X15194326Y-11199005D01*
X15194326Y-11199005D01*
X15194326Y-11199005D01*
X15182913Y-11205595D01*
X15173595Y-11214913D01*
X15167005Y-11226326D01*
X15167005Y-11226326D01*
X15167005Y-11226326D01*
X15163595Y-11239055D01*
X14686340Y-11239055D01*
X14930327Y-10995069D01*
X15025950Y-10995069D01*
X15025950Y-11006931D01*
X15029020Y-11018389D01*
X15032146Y-11023802D01*
X15034951Y-11028661D01*
X15043339Y-11037049D01*
X15048248Y-11039884D01*
X15053611Y-11042980D01*
X15053611Y-11042980D01*
X15053611Y-11042980D01*
X15053612Y-11042980D01*
X15053680Y-11043008D01*
X15053714Y-11043039D01*
X15054102Y-11043263D01*
X15054053Y-11043350D01*
X15058043Y-11047006D01*
X15058815Y-11052872D01*
X15055636Y-11057863D01*
X15053680Y-11058992D01*
X15053611Y-11059020D01*
X15043339Y-11064951D01*
X15034951Y-11073339D01*
X15029020Y-11083611D01*
X15025950Y-11095069D01*
X15025950Y-11106931D01*
X15029020Y-11118389D01*
X15031495Y-11122676D01*
X15034951Y-11128661D01*
X15043339Y-11137049D01*
X15053611Y-11142980D01*
X15053611Y-11142980D01*
X15065069Y-11146050D01*
X15065069Y-11146050D01*
X15065069Y-11146050D01*
X15076931Y-11146050D01*
X15076931Y-11146050D01*
X15079353Y-11145401D01*
X15088389Y-11142980D01*
X15098661Y-11137049D01*
X15107049Y-11128661D01*
X15112980Y-11118389D01*
X15113637Y-11115937D01*
X15117030Y-11111090D01*
X15122746Y-11109559D01*
X15128108Y-11112059D01*
X15129483Y-11113850D01*
X15129951Y-11114661D01*
X15138339Y-11123049D01*
X15148611Y-11128980D01*
X15148611Y-11128980D01*
X15160069Y-11132050D01*
X15160069Y-11132050D01*
X15160069Y-11132050D01*
X15171931Y-11132050D01*
X15171931Y-11132050D01*
X15174353Y-11131401D01*
X15183389Y-11128980D01*
X15193661Y-11123049D01*
X15202049Y-11114661D01*
X15207980Y-11104389D01*
X15211050Y-11092931D01*
X15211050Y-11081069D01*
X15207980Y-11069611D01*
X15202049Y-11059339D01*
X15194827Y-11052117D01*
X15192326Y-11046754D01*
X15193857Y-11041039D01*
X15194827Y-11039884D01*
X15197661Y-11037049D01*
X15202049Y-11032661D01*
X15207980Y-11022389D01*
X15211050Y-11010931D01*
X15211050Y-10999069D01*
X15211050Y-10999069D01*
X15276950Y-10999069D01*
X15276950Y-11010931D01*
X15280020Y-11022389D01*
X15285951Y-11032661D01*
X15293173Y-11039884D01*
X15295674Y-11045246D01*
X15294142Y-11050961D01*
X15293173Y-11052117D01*
X15285951Y-11059339D01*
X15280020Y-11069611D01*
X15276950Y-11081069D01*
X15276950Y-11092931D01*
X15280020Y-11104389D01*
X15283889Y-11111090D01*
X15285951Y-11114661D01*
X15294339Y-11123049D01*
X15304611Y-11128980D01*
X15304611Y-11128980D01*
X15316069Y-11132050D01*
X15316069Y-11132050D01*
X15316069Y-11132050D01*
X15327931Y-11132050D01*
X15327931Y-11132050D01*
X15330353Y-11131401D01*
X15339389Y-11128980D01*
X15349661Y-11123049D01*
X15358049Y-11114661D01*
X15358517Y-11113851D01*
X15363049Y-11110048D01*
X15368966Y-11110047D01*
X15373499Y-11113850D01*
X15374363Y-11115937D01*
X15375020Y-11118389D01*
X15377711Y-11123049D01*
X15380951Y-11128661D01*
X15389339Y-11137049D01*
X15399611Y-11142980D01*
X15399611Y-11142980D01*
X15411069Y-11146050D01*
X15411069Y-11146050D01*
X15411069Y-11146050D01*
X15422931Y-11146050D01*
X15422931Y-11146050D01*
X15425353Y-11145401D01*
X15434389Y-11142980D01*
X15444661Y-11137049D01*
X15453049Y-11128661D01*
X15458980Y-11118389D01*
X15462050Y-11106931D01*
X15462050Y-11095069D01*
X15458980Y-11083611D01*
X15453049Y-11073339D01*
X15444661Y-11064951D01*
X15434389Y-11059020D01*
X15434320Y-11058992D01*
X15434287Y-11058961D01*
X15433898Y-11058737D01*
X15433947Y-11058650D01*
X15429957Y-11054995D01*
X15429185Y-11049128D01*
X15432364Y-11044138D01*
X15434320Y-11043008D01*
X15434388Y-11042980D01*
X15434389Y-11042980D01*
X15444661Y-11037049D01*
X15453049Y-11028661D01*
X15458980Y-11018389D01*
X15462050Y-11006931D01*
X15462050Y-10995069D01*
X15458980Y-10983611D01*
X15453049Y-10973339D01*
X15444661Y-10964951D01*
X15434388Y-10959020D01*
X15434389Y-10959020D01*
X15422931Y-10955950D01*
X15422931Y-10955950D01*
X15411069Y-10955950D01*
X15411069Y-10955950D01*
X15399611Y-10959020D01*
X15389339Y-10964951D01*
X15380951Y-10973339D01*
X15375836Y-10982198D01*
X15371304Y-10986001D01*
X15365387Y-10986001D01*
X15360854Y-10982198D01*
X15358049Y-10977339D01*
X15349661Y-10968951D01*
X15342733Y-10964951D01*
X15339388Y-10963020D01*
X15339389Y-10963020D01*
X15327931Y-10959950D01*
X15327931Y-10959950D01*
X15316069Y-10959950D01*
X15316069Y-10959950D01*
X15304611Y-10963020D01*
X15294339Y-10968951D01*
X15285951Y-10977339D01*
X15280020Y-10987611D01*
X15276950Y-10999069D01*
X15211050Y-10999069D01*
X15207980Y-10987611D01*
X15202049Y-10977339D01*
X15193661Y-10968951D01*
X15186733Y-10964951D01*
X15183388Y-10963020D01*
X15183389Y-10963020D01*
X15171931Y-10959950D01*
X15171931Y-10959950D01*
X15160069Y-10959950D01*
X15160069Y-10959950D01*
X15148611Y-10963020D01*
X15138339Y-10968951D01*
X15129951Y-10977339D01*
X15129951Y-10977339D01*
X15127146Y-10982198D01*
X15127146Y-10982198D01*
X15122613Y-10986001D01*
X15116696Y-10986001D01*
X15112164Y-10982198D01*
X15107049Y-10973339D01*
X15098661Y-10964951D01*
X15088388Y-10959020D01*
X15088389Y-10959020D01*
X15076931Y-10955950D01*
X15076931Y-10955950D01*
X15065069Y-10955950D01*
X15065069Y-10955950D01*
X15053611Y-10959020D01*
X15043339Y-10964951D01*
X15034951Y-10973339D01*
X15029020Y-10983611D01*
X15025950Y-10995069D01*
X14930327Y-10995069D01*
X15548484Y-10376911D01*
X15811450Y-10376911D01*
X15811450Y-10390089D01*
X15814861Y-10402819D01*
X15821450Y-10414231D01*
X15830769Y-10423550D01*
X15842181Y-10430139D01*
X15854911Y-10433550D01*
X15854911Y-10433550D01*
X15868089Y-10433550D01*
X15868089Y-10433550D01*
X15880819Y-10430139D01*
X15892231Y-10423550D01*
X15901550Y-10414231D01*
X15908139Y-10402819D01*
X15911550Y-10390089D01*
X15911550Y-10376911D01*
X15908139Y-10364181D01*
X15901550Y-10352769D01*
X15892231Y-10343450D01*
X15888074Y-10341050D01*
X15880819Y-10336861D01*
X15880819Y-10336861D01*
X15880819Y-10336861D01*
X15868089Y-10333450D01*
X15854911Y-10333450D01*
X15842181Y-10336861D01*
X15842181Y-10336861D01*
X15842181Y-10336861D01*
X15830768Y-10343450D01*
X15821450Y-10352769D01*
X15814861Y-10364181D01*
X15814861Y-10364181D01*
X15814861Y-10364181D01*
X15811450Y-10376911D01*
X15548484Y-10376911D01*
X15679312Y-10246084D01*
X15684674Y-10243583D01*
X15685428Y-10243550D01*
X16004786Y-10243550D01*
X16010346Y-10245574D01*
X16013304Y-10250698D01*
X16012277Y-10256525D01*
X16010902Y-10258317D01*
X16008950Y-10260269D01*
X16002361Y-10271681D01*
X16002361Y-10271681D01*
X16002361Y-10271681D01*
X15998950Y-10284411D01*
X15998950Y-10297589D01*
X16002361Y-10310319D01*
X16008950Y-10321731D01*
X16018269Y-10331050D01*
X16029681Y-10337639D01*
X16042411Y-10341050D01*
X16042411Y-10341050D01*
X16055589Y-10341050D01*
X16055589Y-10341050D01*
X16068319Y-10337639D01*
X16079731Y-10331050D01*
X16089050Y-10321731D01*
X16095639Y-10310319D01*
X16099050Y-10297589D01*
X16099050Y-10284411D01*
X16095639Y-10271681D01*
X16089050Y-10260269D01*
X16087098Y-10258317D01*
X16084597Y-10252954D01*
X16086129Y-10247239D01*
X16090976Y-10243845D01*
X16093214Y-10243550D01*
X16182186Y-10243550D01*
X16187746Y-10245574D01*
X16188302Y-10246084D01*
X16195769Y-10253550D01*
X16207181Y-10260139D01*
X16219911Y-10263550D01*
X16219911Y-10263550D01*
X16233089Y-10263550D01*
X16233089Y-10263550D01*
X16245819Y-10260139D01*
X16257231Y-10253550D01*
X16266550Y-10244231D01*
X16273139Y-10232819D01*
X16276550Y-10220089D01*
X16276550Y-10206911D01*
X16275533Y-10203115D01*
X16816450Y-10203115D01*
X16816450Y-10218885D01*
X16819222Y-10232819D01*
X16819526Y-10234350D01*
X16825561Y-10248918D01*
X16828257Y-10252954D01*
X16831841Y-10258317D01*
X16834321Y-10262029D01*
X16845471Y-10273179D01*
X16858582Y-10281939D01*
X16873150Y-10287974D01*
X16885590Y-10290448D01*
X16888615Y-10291050D01*
X16888615Y-10291050D01*
X16888616Y-10291050D01*
X16888616Y-10291050D01*
X16959384Y-10291050D01*
X16959384Y-10291050D01*
X16974850Y-10287974D01*
X16989418Y-10281939D01*
X17002529Y-10273179D01*
X17013679Y-10262029D01*
X17022439Y-10248918D01*
X17028474Y-10234350D01*
X17031550Y-10218884D01*
X17031550Y-10203116D01*
X17028474Y-10187650D01*
X17022439Y-10173082D01*
X17013679Y-10159971D01*
X17002529Y-10148821D01*
X16989418Y-10140061D01*
X16979117Y-10135794D01*
X16974850Y-10134026D01*
X16974849Y-10134026D01*
X16959385Y-10130950D01*
X16959384Y-10130950D01*
X16888616Y-10130950D01*
X16888615Y-10130950D01*
X16873151Y-10134026D01*
X16873150Y-10134026D01*
X16864616Y-10137561D01*
X16858582Y-10140061D01*
X16858582Y-10140061D01*
X16858582Y-10140061D01*
X16845471Y-10148821D01*
X16834321Y-10159971D01*
X16825561Y-10173082D01*
X16825561Y-10173082D01*
X16823061Y-10179116D01*
X16819526Y-10187650D01*
X16819526Y-10187651D01*
X16816450Y-10203115D01*
X16275533Y-10203115D01*
X16273139Y-10194181D01*
X16266550Y-10182769D01*
X16257231Y-10173450D01*
X16245819Y-10166861D01*
X16233089Y-10163450D01*
X16232430Y-10163450D01*
X16226870Y-10161426D01*
X16223911Y-10156302D01*
X16224939Y-10150475D01*
X16226313Y-10148684D01*
X16293913Y-10081084D01*
X16299276Y-10078583D01*
X16300030Y-10078550D01*
X16310589Y-10078550D01*
X16310589Y-10078550D01*
X16323319Y-10075139D01*
X16334731Y-10068550D01*
X16344050Y-10059231D01*
X16350639Y-10047819D01*
X16354050Y-10035089D01*
X16354050Y-10021911D01*
X16350639Y-10009181D01*
X16347137Y-10003115D01*
X16816450Y-10003115D01*
X16816450Y-10018885D01*
X16819526Y-10034349D01*
X16819526Y-10034350D01*
X16819815Y-10035046D01*
X16825561Y-10048918D01*
X16831388Y-10057639D01*
X16832844Y-10059819D01*
X16834321Y-10062029D01*
X16845471Y-10073179D01*
X16858582Y-10081939D01*
X16873150Y-10087974D01*
X16885590Y-10090448D01*
X16888615Y-10091050D01*
X16888615Y-10091050D01*
X16888616Y-10091050D01*
X16888616Y-10091050D01*
X16959384Y-10091050D01*
X16959384Y-10091050D01*
X16974850Y-10087974D01*
X16989418Y-10081939D01*
X17002529Y-10073179D01*
X17013679Y-10062029D01*
X17022439Y-10048918D01*
X17028474Y-10034350D01*
X17031550Y-10018884D01*
X17031550Y-10003116D01*
X17028474Y-9987650D01*
X17022439Y-9973082D01*
X17013679Y-9959971D01*
X17002529Y-9948821D01*
X16989418Y-9940061D01*
X16979117Y-9935794D01*
X16974850Y-9934026D01*
X16974849Y-9934026D01*
X16959385Y-9930950D01*
X16959384Y-9930950D01*
X16888616Y-9930950D01*
X16888615Y-9930950D01*
X16873151Y-9934026D01*
X16873150Y-9934026D01*
X16864616Y-9937561D01*
X16858582Y-9940061D01*
X16858582Y-9940061D01*
X16858582Y-9940061D01*
X16845471Y-9948821D01*
X16834321Y-9959971D01*
X16826587Y-9971546D01*
X16825561Y-9973082D01*
X16824527Y-9975577D01*
X16819526Y-9987650D01*
X16819526Y-9987651D01*
X16816450Y-10003115D01*
X16347137Y-10003115D01*
X16344050Y-9997769D01*
X16343741Y-9997459D01*
X16343233Y-9996601D01*
X16342780Y-9994175D01*
X16342038Y-9991822D01*
X16342247Y-9991319D01*
X16342147Y-9990785D01*
X16343359Y-9988635D01*
X16344303Y-9986356D01*
X16344786Y-9986105D01*
X16345053Y-9985631D01*
X16347363Y-9984763D01*
X16349552Y-9983624D01*
X16350575Y-9983557D01*
X16350592Y-9983550D01*
X16350666Y-9983551D01*
X16350680Y-9983550D01*
X16493399Y-9983550D01*
X16493399Y-9983550D01*
X16506933Y-9980858D01*
X16519681Y-9975578D01*
X16531154Y-9967911D01*
X16695950Y-9803115D01*
X16816450Y-9803115D01*
X16816450Y-9818885D01*
X16819526Y-9834349D01*
X16819526Y-9834350D01*
X16821294Y-9838617D01*
X16825561Y-9848918D01*
X16830748Y-9856681D01*
X16832356Y-9859089D01*
X16834321Y-9862029D01*
X16845471Y-9873179D01*
X16858582Y-9881939D01*
X16873150Y-9887974D01*
X16885590Y-9890448D01*
X16888615Y-9891050D01*
X16888615Y-9891050D01*
X16888616Y-9891050D01*
X16888616Y-9891050D01*
X16959384Y-9891050D01*
X16959384Y-9891050D01*
X16974850Y-9887974D01*
X16989418Y-9881939D01*
X17002529Y-9873179D01*
X17013679Y-9862029D01*
X17022439Y-9848918D01*
X17028474Y-9834350D01*
X17031550Y-9818884D01*
X17031550Y-9803116D01*
X17028474Y-9787650D01*
X17022439Y-9773082D01*
X17013679Y-9759971D01*
X17002529Y-9748821D01*
X17001974Y-9748450D01*
X16998159Y-9745901D01*
X16989418Y-9740061D01*
X16979117Y-9735794D01*
X16974850Y-9734026D01*
X16974849Y-9734026D01*
X16959385Y-9730950D01*
X16959384Y-9730950D01*
X16888616Y-9730950D01*
X16888615Y-9730950D01*
X16873151Y-9734026D01*
X16873150Y-9734026D01*
X16864616Y-9737561D01*
X16858582Y-9740061D01*
X16858582Y-9740061D01*
X16858582Y-9740061D01*
X16845471Y-9748821D01*
X16834321Y-9759971D01*
X16825561Y-9773082D01*
X16825561Y-9773082D01*
X16823061Y-9779116D01*
X16819526Y-9787650D01*
X16819526Y-9787651D01*
X16816450Y-9803115D01*
X16695950Y-9803115D01*
X16759005Y-9740061D01*
X16906373Y-9592693D01*
X16978411Y-9520654D01*
X16986077Y-9509181D01*
X16986078Y-9509181D01*
X16991358Y-9496433D01*
X16994050Y-9482899D01*
X16994050Y-9437224D01*
X16996074Y-9431664D01*
X16999843Y-9429059D01*
X17007788Y-9426279D01*
X17018715Y-9418215D01*
X17026779Y-9407288D01*
X17031265Y-9394470D01*
X17031550Y-9391427D01*
X17031550Y-9310573D01*
X17031265Y-9307530D01*
X17026779Y-9294712D01*
X17018715Y-9283785D01*
X17011486Y-9278450D01*
X17007789Y-9275721D01*
X17007788Y-9275721D01*
X17007788Y-9275721D01*
X17007788Y-9275721D01*
X17007788Y-9275721D01*
X17000092Y-9273028D01*
X16994970Y-9271235D01*
X16994970Y-9271235D01*
X16994970Y-9271235D01*
X16991928Y-9270950D01*
X16991927Y-9270950D01*
X16991927Y-9270950D01*
X16856073Y-9270950D01*
X16856073Y-9270950D01*
X16856072Y-9270950D01*
X16853030Y-9271235D01*
X16840212Y-9275721D01*
X16840211Y-9275721D01*
X16829285Y-9283785D01*
X16829285Y-9283785D01*
X16821221Y-9294711D01*
X16821221Y-9294712D01*
X16816735Y-9307530D01*
X16816450Y-9310572D01*
X16816450Y-9310574D01*
X16816450Y-9391426D01*
X16816450Y-9391428D01*
X16816735Y-9394470D01*
X16821221Y-9407288D01*
X16821221Y-9407288D01*
X16821221Y-9407288D01*
X16829285Y-9418215D01*
X16840212Y-9426279D01*
X16842041Y-9426920D01*
X16848157Y-9429059D01*
X16852737Y-9432806D01*
X16853950Y-9437224D01*
X16853950Y-9443401D01*
X16851926Y-9448961D01*
X16851417Y-9449518D01*
X16460018Y-9840917D01*
X16454655Y-9843417D01*
X16453901Y-9843450D01*
X16011839Y-9843450D01*
X15998661Y-9843450D01*
X15996226Y-9844102D01*
X15995676Y-9844231D01*
X15986067Y-9846142D01*
X15986067Y-9846142D01*
X15973319Y-9851422D01*
X15973319Y-9851423D01*
X15961846Y-9859089D01*
X15952088Y-9868846D01*
X15944422Y-9880319D01*
X15944422Y-9880319D01*
X15939142Y-9893066D01*
X15939142Y-9893068D01*
X15936450Y-9906600D01*
X15936450Y-9920400D01*
X15939142Y-9933932D01*
X15939142Y-9933934D01*
X15944422Y-9946681D01*
X15944422Y-9946681D01*
X15952088Y-9958154D01*
X15960118Y-9966184D01*
X15962618Y-9971546D01*
X15961087Y-9977261D01*
X15956240Y-9980655D01*
X15954001Y-9980950D01*
X15897530Y-9980950D01*
X15891970Y-9978926D01*
X15891414Y-9978417D01*
X15667451Y-9754454D01*
X15660599Y-9750498D01*
X15652956Y-9748450D01*
X15652956Y-9748450D01*
X15207956Y-9748450D01*
X15200044Y-9748450D01*
X15192401Y-9750498D01*
X15192401Y-9750498D01*
X15192401Y-9750498D01*
X15185549Y-9754454D01*
X15094954Y-9845049D01*
X15090998Y-9851901D01*
X15088950Y-9859544D01*
X15088950Y-10069970D01*
X15086926Y-10075530D01*
X15086416Y-10076086D01*
X14021586Y-11140917D01*
X14016224Y-11143417D01*
X14015470Y-11143450D01*
X13337544Y-11143450D01*
X13329901Y-11145498D01*
X13323973Y-11148921D01*
X13323973Y-11148921D01*
X13323244Y-11149341D01*
X13323049Y-11149454D01*
X13261586Y-11210916D01*
X13256224Y-11213417D01*
X13255470Y-11213450D01*
X13244911Y-11213450D01*
X13232181Y-11216861D01*
X13232181Y-11216861D01*
X13232181Y-11216861D01*
X13220768Y-11223450D01*
X13211450Y-11232768D01*
X13204861Y-11244181D01*
X13204861Y-11244181D01*
X13204861Y-11244181D01*
X13201450Y-11256911D01*
X13201450Y-11256911D01*
X13201450Y-11256911D01*
X13201450Y-11260070D01*
X13199426Y-11265630D01*
X13194302Y-11268588D01*
X13188475Y-11267561D01*
X13186683Y-11266186D01*
X12269083Y-10348586D01*
X12266583Y-10343224D01*
X12266550Y-10342470D01*
X12266550Y-9844411D01*
X14868950Y-9844411D01*
X14868950Y-9857589D01*
X14872361Y-9870319D01*
X14872361Y-9870319D01*
X14877679Y-9879530D01*
X14878950Y-9881731D01*
X14888269Y-9891050D01*
X14899681Y-9897639D01*
X14912411Y-9901050D01*
X14912411Y-9901050D01*
X14925589Y-9901050D01*
X14925589Y-9901050D01*
X14938319Y-9897639D01*
X14949731Y-9891050D01*
X14959050Y-9881731D01*
X14965639Y-9870319D01*
X14969050Y-9857589D01*
X14969050Y-9844411D01*
X14965639Y-9831681D01*
X14959050Y-9820269D01*
X14949731Y-9810950D01*
X14938319Y-9804361D01*
X14925589Y-9800950D01*
X14912411Y-9800950D01*
X14899681Y-9804361D01*
X14899681Y-9804361D01*
X14899681Y-9804361D01*
X14888268Y-9810950D01*
X14878950Y-9820269D01*
X14872361Y-9831681D01*
X14872361Y-9831681D01*
X14872361Y-9831681D01*
X14868950Y-9844411D01*
X12266550Y-9844411D01*
X12266550Y-9639530D01*
X12268574Y-9633970D01*
X12269083Y-9633414D01*
X12303232Y-9599265D01*
X12315032Y-9587465D01*
X12333046Y-9569451D01*
X12333398Y-9568842D01*
X12337002Y-9562599D01*
X12339050Y-9554956D01*
X12339050Y-9512342D01*
X15169000Y-9512342D01*
X15169000Y-9529658D01*
X15171709Y-9546758D01*
X15171709Y-9546760D01*
X15177059Y-9563225D01*
X15177059Y-9563226D01*
X15184919Y-9578652D01*
X15184920Y-9578653D01*
X15191322Y-9587465D01*
X15234633Y-9544154D01*
X15238990Y-9551701D01*
X15248299Y-9561010D01*
X15255846Y-9565367D01*
X15212535Y-9608678D01*
X15221347Y-9615080D01*
X15221347Y-9615080D01*
X15236774Y-9622941D01*
X15236775Y-9622941D01*
X15253240Y-9628291D01*
X15253241Y-9628291D01*
X15270342Y-9631000D01*
X15270343Y-9631000D01*
X15287657Y-9631000D01*
X15287658Y-9631000D01*
X15304758Y-9628291D01*
X15304760Y-9628291D01*
X15321225Y-9622941D01*
X15321226Y-9622941D01*
X15336651Y-9615081D01*
X15336653Y-9615080D01*
X15345465Y-9608678D01*
X15302154Y-9565367D01*
X15309701Y-9561010D01*
X15319010Y-9551701D01*
X15323367Y-9544154D01*
X15366678Y-9587465D01*
X15373080Y-9578653D01*
X15373081Y-9578652D01*
X15380941Y-9563226D01*
X15380941Y-9563225D01*
X15386291Y-9546760D01*
X15386291Y-9546758D01*
X15389000Y-9529658D01*
X15389000Y-9529657D01*
X15389000Y-9512343D01*
X15389000Y-9512342D01*
X15388999Y-9512338D01*
X15788950Y-9512338D01*
X15788950Y-9529662D01*
X15791660Y-9546770D01*
X15791660Y-9546772D01*
X15797012Y-9563244D01*
X15797013Y-9563245D01*
X15804863Y-9578652D01*
X15804877Y-9578679D01*
X15815059Y-9592693D01*
X15827307Y-9604941D01*
X15841321Y-9615123D01*
X15856755Y-9622987D01*
X15860962Y-9624354D01*
X15873228Y-9628340D01*
X15873229Y-9628340D01*
X15873230Y-9628340D01*
X15890339Y-9631050D01*
X15890339Y-9631050D01*
X15907661Y-9631050D01*
X15907661Y-9631050D01*
X15924770Y-9628340D01*
X15924771Y-9628340D01*
X15924771Y-9628340D01*
X15932476Y-9625836D01*
X15941244Y-9622987D01*
X15956679Y-9615123D01*
X15970693Y-9604941D01*
X15982941Y-9592693D01*
X15993123Y-9578679D01*
X16000987Y-9563245D01*
X16003836Y-9554476D01*
X16006340Y-9546772D01*
X16006340Y-9546771D01*
X16006340Y-9546770D01*
X16009050Y-9529661D01*
X16009050Y-9512339D01*
X16009050Y-9512338D01*
X16378950Y-9512338D01*
X16378950Y-9529662D01*
X16381660Y-9546770D01*
X16381660Y-9546772D01*
X16387012Y-9563244D01*
X16387013Y-9563245D01*
X16394863Y-9578652D01*
X16394877Y-9578679D01*
X16405059Y-9592693D01*
X16417307Y-9604941D01*
X16431321Y-9615123D01*
X16446755Y-9622987D01*
X16450962Y-9624354D01*
X16463228Y-9628340D01*
X16463229Y-9628340D01*
X16463230Y-9628340D01*
X16480339Y-9631050D01*
X16480339Y-9631050D01*
X16497661Y-9631050D01*
X16497661Y-9631050D01*
X16514770Y-9628340D01*
X16514771Y-9628340D01*
X16514771Y-9628340D01*
X16522476Y-9625836D01*
X16531244Y-9622987D01*
X16546679Y-9615123D01*
X16560693Y-9604941D01*
X16572941Y-9592693D01*
X16583123Y-9578679D01*
X16590987Y-9563245D01*
X16593836Y-9554476D01*
X16596340Y-9546772D01*
X16596340Y-9546771D01*
X16596340Y-9546770D01*
X16599050Y-9529661D01*
X16599050Y-9512339D01*
X16596340Y-9495230D01*
X16596340Y-9495229D01*
X16596340Y-9495228D01*
X16591713Y-9480990D01*
X16590987Y-9478756D01*
X16583123Y-9463321D01*
X16572941Y-9449307D01*
X16560693Y-9437059D01*
X16546679Y-9426877D01*
X16546679Y-9426877D01*
X16531245Y-9419013D01*
X16531244Y-9419013D01*
X16514771Y-9413660D01*
X16514770Y-9413660D01*
X16497662Y-9410950D01*
X16497661Y-9410950D01*
X16480339Y-9410950D01*
X16480338Y-9410950D01*
X16463230Y-9413660D01*
X16463228Y-9413660D01*
X16446756Y-9419013D01*
X16446755Y-9419013D01*
X16431321Y-9426877D01*
X16431321Y-9426877D01*
X16417307Y-9437059D01*
X16405059Y-9449307D01*
X16394877Y-9463321D01*
X16394877Y-9463321D01*
X16387013Y-9478755D01*
X16387012Y-9478756D01*
X16381660Y-9495228D01*
X16381660Y-9495230D01*
X16378950Y-9512338D01*
X16009050Y-9512338D01*
X16006340Y-9495230D01*
X16006340Y-9495229D01*
X16006340Y-9495228D01*
X16001713Y-9480990D01*
X16000987Y-9478756D01*
X15993123Y-9463321D01*
X15982941Y-9449307D01*
X15970693Y-9437059D01*
X15956679Y-9426877D01*
X15956679Y-9426877D01*
X15941245Y-9419013D01*
X15941244Y-9419013D01*
X15924771Y-9413660D01*
X15924770Y-9413660D01*
X15907662Y-9410950D01*
X15907661Y-9410950D01*
X15890339Y-9410950D01*
X15890338Y-9410950D01*
X15873230Y-9413660D01*
X15873228Y-9413660D01*
X15856756Y-9419013D01*
X15856755Y-9419013D01*
X15841321Y-9426877D01*
X15841321Y-9426877D01*
X15827307Y-9437059D01*
X15815059Y-9449307D01*
X15804877Y-9463321D01*
X15804877Y-9463321D01*
X15797013Y-9478755D01*
X15797012Y-9478756D01*
X15791660Y-9495228D01*
X15791660Y-9495230D01*
X15788950Y-9512338D01*
X15388999Y-9512338D01*
X15386291Y-9495242D01*
X15386291Y-9495240D01*
X15380941Y-9478775D01*
X15380941Y-9478774D01*
X15373080Y-9463348D01*
X15373080Y-9463347D01*
X15366678Y-9454535D01*
X15323367Y-9497846D01*
X15319010Y-9490299D01*
X15309701Y-9480990D01*
X15302154Y-9476633D01*
X15345465Y-9433322D01*
X15336653Y-9426920D01*
X15336652Y-9426920D01*
X15321226Y-9419059D01*
X15321225Y-9419059D01*
X15304760Y-9413709D01*
X15304758Y-9413709D01*
X15287658Y-9411000D01*
X15270342Y-9411000D01*
X15253241Y-9413709D01*
X15253240Y-9413709D01*
X15236775Y-9419059D01*
X15236774Y-9419059D01*
X15221347Y-9426920D01*
X15221347Y-9426920D01*
X15212535Y-9433322D01*
X15255846Y-9476633D01*
X15248299Y-9480990D01*
X15238990Y-9490299D01*
X15234633Y-9497846D01*
X15191322Y-9454535D01*
X15184920Y-9463347D01*
X15184919Y-9463348D01*
X15177059Y-9478774D01*
X15177059Y-9478775D01*
X15171709Y-9495240D01*
X15171709Y-9495242D01*
X15169000Y-9512342D01*
X12339050Y-9512342D01*
X12339050Y-9437044D01*
X12337002Y-9429401D01*
X12333046Y-9422549D01*
X12327451Y-9416954D01*
X12269083Y-9358586D01*
X12266583Y-9353224D01*
X12266550Y-9352470D01*
X12266550Y-9311911D01*
X14768950Y-9311911D01*
X14768950Y-9325089D01*
X14772361Y-9337819D01*
X14778950Y-9349231D01*
X14788269Y-9358550D01*
X14799681Y-9365139D01*
X14812411Y-9368550D01*
X14812411Y-9368550D01*
X14825589Y-9368550D01*
X14825589Y-9368550D01*
X14838319Y-9365139D01*
X14849731Y-9358550D01*
X14859050Y-9349231D01*
X14865639Y-9337819D01*
X14869050Y-9325089D01*
X14869050Y-9311911D01*
X14865639Y-9299181D01*
X14859050Y-9287769D01*
X14849731Y-9278450D01*
X14842735Y-9274411D01*
X15233950Y-9274411D01*
X15233950Y-9287589D01*
X15237361Y-9300319D01*
X15243950Y-9311731D01*
X15253269Y-9321050D01*
X15264681Y-9327639D01*
X15277411Y-9331050D01*
X15277411Y-9331050D01*
X15290589Y-9331050D01*
X15290589Y-9331050D01*
X15303319Y-9327639D01*
X15314731Y-9321050D01*
X15324050Y-9311731D01*
X15330639Y-9300319D01*
X15334050Y-9287589D01*
X15334050Y-9277030D01*
X15336074Y-9271470D01*
X15336583Y-9270914D01*
X15471497Y-9136000D01*
X16817916Y-9136000D01*
X16889359Y-9136000D01*
X16889056Y-9136526D01*
X16886500Y-9146063D01*
X16886500Y-9155937D01*
X16889056Y-9165475D01*
X16889359Y-9166000D01*
X16817916Y-9166000D01*
X16819574Y-9174335D01*
X16819575Y-9174336D01*
X16825605Y-9188894D01*
X16825605Y-9188894D01*
X16834360Y-9201997D01*
X16845503Y-9213140D01*
X16858606Y-9221895D01*
X16858606Y-9221895D01*
X16873164Y-9227925D01*
X16873165Y-9227926D01*
X16888620Y-9231000D01*
X16888621Y-9231000D01*
X16909000Y-9231000D01*
X16909000Y-9231000D01*
X16909000Y-9185641D01*
X16909526Y-9185944D01*
X16919063Y-9188500D01*
X16928937Y-9188500D01*
X16938475Y-9185944D01*
X16939000Y-9185641D01*
X16939000Y-9231000D01*
X16939000Y-9231000D01*
X16959379Y-9231000D01*
X16959380Y-9231000D01*
X16974835Y-9227926D01*
X16974836Y-9227925D01*
X16989394Y-9221895D01*
X16989394Y-9221895D01*
X17002497Y-9213140D01*
X17013640Y-9201997D01*
X17022395Y-9188894D01*
X17022395Y-9188894D01*
X17028425Y-9174336D01*
X17028426Y-9174335D01*
X17030084Y-9166000D01*
X16958641Y-9166000D01*
X16958944Y-9165475D01*
X16961500Y-9155937D01*
X16961500Y-9146063D01*
X16958944Y-9136526D01*
X16958641Y-9136000D01*
X17030084Y-9136000D01*
X17028426Y-9127665D01*
X17028425Y-9127664D01*
X17022395Y-9113106D01*
X17022395Y-9113106D01*
X17013640Y-9100003D01*
X17002497Y-9088860D01*
X16989394Y-9080105D01*
X16989394Y-9080105D01*
X16974836Y-9074075D01*
X16974835Y-9074074D01*
X16959380Y-9071000D01*
X16939000Y-9071000D01*
X16939000Y-9071000D01*
X16939000Y-9116359D01*
X16938475Y-9116056D01*
X16928937Y-9113500D01*
X16919063Y-9113500D01*
X16909526Y-9116056D01*
X16909000Y-9116359D01*
X16909000Y-9071000D01*
X16909000Y-9071000D01*
X16888620Y-9071000D01*
X16873165Y-9074074D01*
X16873164Y-9074075D01*
X16858606Y-9080105D01*
X16858606Y-9080105D01*
X16845503Y-9088860D01*
X16834360Y-9100003D01*
X16825605Y-9113106D01*
X16825605Y-9113106D01*
X16819575Y-9127664D01*
X16819574Y-9127665D01*
X16817916Y-9136000D01*
X15471497Y-9136000D01*
X15475288Y-9132209D01*
X15664382Y-8943115D01*
X16816450Y-8943115D01*
X16816450Y-8958885D01*
X16819526Y-8974349D01*
X16819526Y-8974350D01*
X16825561Y-8988918D01*
X16834321Y-9002029D01*
X16845471Y-9013179D01*
X16858582Y-9021939D01*
X16873150Y-9027974D01*
X16885590Y-9030448D01*
X16888615Y-9031050D01*
X16888615Y-9031050D01*
X16888616Y-9031050D01*
X16888616Y-9031050D01*
X16959384Y-9031050D01*
X16959384Y-9031050D01*
X16974850Y-9027974D01*
X16989418Y-9021939D01*
X17002529Y-9013179D01*
X17013679Y-9002029D01*
X17022439Y-8988918D01*
X17028474Y-8974350D01*
X17031550Y-8958884D01*
X17031550Y-8943116D01*
X17028474Y-8927650D01*
X17022439Y-8913082D01*
X17013679Y-8899971D01*
X17002529Y-8888821D01*
X16989418Y-8880061D01*
X16979117Y-8875794D01*
X16974850Y-8874026D01*
X16974849Y-8874026D01*
X16959385Y-8870950D01*
X16959384Y-8870950D01*
X16888616Y-8870950D01*
X16888615Y-8870950D01*
X16873151Y-8874026D01*
X16873150Y-8874026D01*
X16864616Y-8877561D01*
X16858582Y-8880061D01*
X16858582Y-8880061D01*
X16858582Y-8880061D01*
X16845471Y-8888821D01*
X16834321Y-8899971D01*
X16826396Y-8911831D01*
X16825561Y-8913082D01*
X16824063Y-8916698D01*
X16819526Y-8927650D01*
X16819526Y-8927651D01*
X16816450Y-8943115D01*
X15664382Y-8943115D01*
X15670923Y-8936574D01*
X15753311Y-8854186D01*
X15843046Y-8764451D01*
X15847002Y-8757599D01*
X15849050Y-8749956D01*
X15849050Y-8743115D01*
X16816450Y-8743115D01*
X16816450Y-8758885D01*
X16819526Y-8774349D01*
X16819526Y-8774350D01*
X16821294Y-8778617D01*
X16825561Y-8788918D01*
X16834321Y-8802029D01*
X16845471Y-8813179D01*
X16858582Y-8821939D01*
X16873150Y-8827974D01*
X16885590Y-8830448D01*
X16888615Y-8831050D01*
X16888615Y-8831050D01*
X16888616Y-8831050D01*
X16888616Y-8831050D01*
X16959384Y-8831050D01*
X16959384Y-8831050D01*
X16974850Y-8827974D01*
X16989418Y-8821939D01*
X17002529Y-8813179D01*
X17013679Y-8802029D01*
X17022439Y-8788918D01*
X17028474Y-8774350D01*
X17031550Y-8758884D01*
X17031550Y-8743116D01*
X17028474Y-8727650D01*
X17022439Y-8713082D01*
X17013679Y-8699971D01*
X17002529Y-8688821D01*
X17002173Y-8688584D01*
X16995585Y-8684181D01*
X16989418Y-8680061D01*
X16975875Y-8674451D01*
X16974850Y-8674026D01*
X16974849Y-8674026D01*
X16959385Y-8670950D01*
X16959384Y-8670950D01*
X16888616Y-8670950D01*
X16888615Y-8670950D01*
X16873151Y-8674026D01*
X16873150Y-8674026D01*
X16866307Y-8676861D01*
X16858582Y-8680061D01*
X16858582Y-8680061D01*
X16858582Y-8680061D01*
X16845471Y-8688821D01*
X16834321Y-8699971D01*
X16827561Y-8710089D01*
X16825561Y-8713082D01*
X16823061Y-8719116D01*
X16819526Y-8727650D01*
X16819526Y-8727651D01*
X16816450Y-8743115D01*
X15849050Y-8743115D01*
X15849050Y-8742044D01*
X15849050Y-8543115D01*
X16816450Y-8543115D01*
X16816450Y-8558885D01*
X16818870Y-8571050D01*
X16819526Y-8574350D01*
X16825561Y-8588918D01*
X16834321Y-8602029D01*
X16845471Y-8613179D01*
X16858582Y-8621939D01*
X16873150Y-8627974D01*
X16885590Y-8630448D01*
X16888615Y-8631050D01*
X16888615Y-8631050D01*
X16888616Y-8631050D01*
X16888616Y-8631050D01*
X16959384Y-8631050D01*
X16959384Y-8631050D01*
X16974850Y-8627974D01*
X16989418Y-8621939D01*
X17002529Y-8613179D01*
X17013679Y-8602029D01*
X17022439Y-8588918D01*
X17028474Y-8574350D01*
X17031550Y-8558884D01*
X17031550Y-8543116D01*
X17028474Y-8527650D01*
X17022439Y-8513082D01*
X17013679Y-8499971D01*
X17002529Y-8488821D01*
X17000507Y-8487470D01*
X16995850Y-8484358D01*
X16989418Y-8480061D01*
X16979117Y-8475794D01*
X16974850Y-8474026D01*
X16974849Y-8474026D01*
X16959385Y-8470950D01*
X16959384Y-8470950D01*
X16888616Y-8470950D01*
X16888615Y-8470950D01*
X16873151Y-8474026D01*
X16873150Y-8474026D01*
X16864616Y-8477561D01*
X16858582Y-8480061D01*
X16858582Y-8480061D01*
X16858582Y-8480061D01*
X16845471Y-8488821D01*
X16834321Y-8499971D01*
X16826497Y-8511681D01*
X16825561Y-8513082D01*
X16824529Y-8515574D01*
X16819526Y-8527650D01*
X16819526Y-8527651D01*
X16816450Y-8543115D01*
X15849050Y-8543115D01*
X15849050Y-8390314D01*
X15851074Y-8384754D01*
X15851583Y-8384198D01*
X15852368Y-8383414D01*
X15859050Y-8376731D01*
X15865639Y-8365319D01*
X15869050Y-8352589D01*
X15869050Y-8343115D01*
X16816450Y-8343115D01*
X16816450Y-8358885D01*
X16817730Y-8365319D01*
X16819526Y-8374350D01*
X16825561Y-8388918D01*
X16834321Y-8402029D01*
X16845471Y-8413179D01*
X16858582Y-8421939D01*
X16873150Y-8427974D01*
X16885590Y-8430448D01*
X16888615Y-8431050D01*
X16888615Y-8431050D01*
X16888616Y-8431050D01*
X16888616Y-8431050D01*
X16959384Y-8431050D01*
X16959384Y-8431050D01*
X16974850Y-8427974D01*
X16989418Y-8421939D01*
X17002529Y-8413179D01*
X17013679Y-8402029D01*
X17022439Y-8388918D01*
X17028474Y-8374350D01*
X17031550Y-8358884D01*
X17031550Y-8343116D01*
X17028474Y-8327650D01*
X17022439Y-8313082D01*
X17013679Y-8299971D01*
X17002529Y-8288821D01*
X16989418Y-8280061D01*
X16979117Y-8275794D01*
X16974850Y-8274026D01*
X16974849Y-8274026D01*
X16959385Y-8270950D01*
X16959384Y-8270950D01*
X16888616Y-8270950D01*
X16888615Y-8270950D01*
X16873151Y-8274026D01*
X16873150Y-8274026D01*
X16864616Y-8277561D01*
X16858582Y-8280061D01*
X16858582Y-8280061D01*
X16858582Y-8280061D01*
X16845471Y-8288821D01*
X16834321Y-8299971D01*
X16830326Y-8305950D01*
X16825561Y-8313082D01*
X16823061Y-8319116D01*
X16819526Y-8327650D01*
X16819526Y-8327651D01*
X16816450Y-8343115D01*
X15869050Y-8343115D01*
X15869050Y-8339411D01*
X15865639Y-8326681D01*
X15859050Y-8315269D01*
X15849731Y-8305950D01*
X15838319Y-8299361D01*
X15825589Y-8295950D01*
X15812411Y-8295950D01*
X15799681Y-8299361D01*
X15799681Y-8299361D01*
X15799681Y-8299361D01*
X15788268Y-8305950D01*
X15778950Y-8315268D01*
X15772361Y-8326681D01*
X15772361Y-8326681D01*
X15772361Y-8326681D01*
X15768950Y-8339411D01*
X15768950Y-8352589D01*
X15770637Y-8358885D01*
X15772361Y-8365319D01*
X15778950Y-8376731D01*
X15786416Y-8384198D01*
X15788917Y-8389561D01*
X15788950Y-8390314D01*
X15788950Y-8729970D01*
X15786926Y-8735530D01*
X15786416Y-8736086D01*
X15294086Y-9228417D01*
X15288724Y-9230917D01*
X15287970Y-9230950D01*
X15277411Y-9230950D01*
X15264681Y-9234361D01*
X15264681Y-9234361D01*
X15264681Y-9234361D01*
X15253268Y-9240950D01*
X15243950Y-9250269D01*
X15237361Y-9261681D01*
X15237361Y-9261681D01*
X15237361Y-9261681D01*
X15233950Y-9274411D01*
X14842735Y-9274411D01*
X14838319Y-9271861D01*
X14825589Y-9268450D01*
X14812411Y-9268450D01*
X14799681Y-9271861D01*
X14799681Y-9271861D01*
X14799681Y-9271861D01*
X14788268Y-9278450D01*
X14778950Y-9287769D01*
X14772361Y-9299181D01*
X14772361Y-9299181D01*
X14772361Y-9299181D01*
X14768950Y-9311911D01*
X12266550Y-9311911D01*
X12266550Y-9234411D01*
X12361450Y-9234411D01*
X12361450Y-9247589D01*
X12364861Y-9260319D01*
X12371450Y-9271731D01*
X12380769Y-9281050D01*
X12392181Y-9287639D01*
X12404911Y-9291050D01*
X12404911Y-9291050D01*
X12418089Y-9291050D01*
X12418089Y-9291050D01*
X12430819Y-9287639D01*
X12442231Y-9281050D01*
X12451550Y-9271731D01*
X12458139Y-9260319D01*
X12461550Y-9247589D01*
X12461550Y-9237030D01*
X12463574Y-9231470D01*
X12464083Y-9230914D01*
X12564986Y-9130011D01*
X12656184Y-9038813D01*
X12661546Y-9036313D01*
X12667261Y-9037844D01*
X12670655Y-9042691D01*
X12670950Y-9044930D01*
X12670950Y-9170475D01*
X12672113Y-9176323D01*
X12672113Y-9176323D01*
X12676545Y-9182955D01*
X12676545Y-9182955D01*
X12678948Y-9184561D01*
X12683177Y-9187387D01*
X12689025Y-9188550D01*
X12689026Y-9188550D01*
X12857974Y-9188550D01*
X12857975Y-9188550D01*
X12863823Y-9187387D01*
X12870455Y-9182955D01*
X12874887Y-9176323D01*
X12876050Y-9170475D01*
X12876050Y-9075899D01*
X12924950Y-9075899D01*
X12924950Y-9096101D01*
X12928891Y-9115912D01*
X12928891Y-9115913D01*
X12930489Y-9119771D01*
X12936621Y-9134576D01*
X12947844Y-9151372D01*
X12962128Y-9165656D01*
X12978924Y-9176879D01*
X12997587Y-9184609D01*
X13017400Y-9188550D01*
X13017400Y-9188550D01*
X13037600Y-9188550D01*
X13037600Y-9188550D01*
X13057413Y-9184609D01*
X13076076Y-9176879D01*
X13092872Y-9165656D01*
X13107156Y-9151372D01*
X13118379Y-9134576D01*
X13126109Y-9115913D01*
X13130050Y-9096100D01*
X13130050Y-9075900D01*
X13130050Y-9075899D01*
X13178950Y-9075899D01*
X13178950Y-9096101D01*
X13182891Y-9115912D01*
X13182891Y-9115913D01*
X13184489Y-9119771D01*
X13190621Y-9134576D01*
X13201844Y-9151372D01*
X13216128Y-9165656D01*
X13232924Y-9176879D01*
X13242892Y-9181008D01*
X13250861Y-9184309D01*
X13255224Y-9188306D01*
X13255996Y-9194172D01*
X13252817Y-9199163D01*
X13247551Y-9200950D01*
X13242411Y-9200950D01*
X13229681Y-9204361D01*
X13229681Y-9204361D01*
X13229681Y-9204361D01*
X13218268Y-9210950D01*
X13208950Y-9220269D01*
X13202361Y-9231681D01*
X13202361Y-9231681D01*
X13202361Y-9231681D01*
X13198950Y-9244411D01*
X13198950Y-9257589D01*
X13202361Y-9270319D01*
X13202361Y-9270319D01*
X13205480Y-9275721D01*
X13208950Y-9281731D01*
X13218269Y-9291050D01*
X13229681Y-9297639D01*
X13242411Y-9301050D01*
X13242411Y-9301050D01*
X13255589Y-9301050D01*
X13255589Y-9301050D01*
X13268319Y-9297639D01*
X13279731Y-9291050D01*
X13289050Y-9281731D01*
X13295639Y-9270319D01*
X13299050Y-9257589D01*
X13299050Y-9244411D01*
X13582486Y-9244411D01*
X13582486Y-9257589D01*
X13585897Y-9270319D01*
X13585897Y-9270319D01*
X13589016Y-9275721D01*
X13592486Y-9281731D01*
X13601805Y-9291050D01*
X13613218Y-9297639D01*
X13625947Y-9301050D01*
X13625947Y-9301050D01*
X13639125Y-9301050D01*
X13639126Y-9301050D01*
X13651855Y-9297639D01*
X13663268Y-9291050D01*
X13672586Y-9281731D01*
X13679176Y-9270319D01*
X13682586Y-9257589D01*
X13682586Y-9244411D01*
X13679176Y-9231681D01*
X13672586Y-9220269D01*
X13663268Y-9210950D01*
X13651855Y-9204361D01*
X13639126Y-9200950D01*
X13625947Y-9200950D01*
X13613218Y-9204361D01*
X13613218Y-9204361D01*
X13613218Y-9204361D01*
X13601805Y-9210950D01*
X13592486Y-9220269D01*
X13585897Y-9231681D01*
X13585897Y-9231681D01*
X13585897Y-9231681D01*
X13582486Y-9244411D01*
X13299050Y-9244411D01*
X13295639Y-9231681D01*
X13289050Y-9220269D01*
X13279731Y-9210950D01*
X13268891Y-9204691D01*
X13265087Y-9200159D01*
X13265087Y-9194242D01*
X13268891Y-9189709D01*
X13273216Y-9188550D01*
X13291600Y-9188550D01*
X13291600Y-9188550D01*
X13311413Y-9184609D01*
X13330076Y-9176879D01*
X13346872Y-9165656D01*
X13361156Y-9151372D01*
X13372379Y-9134576D01*
X13380109Y-9115913D01*
X13384050Y-9096100D01*
X13384050Y-9075900D01*
X13384050Y-9075899D01*
X13432950Y-9075899D01*
X13432950Y-9096101D01*
X13436891Y-9115912D01*
X13436891Y-9115913D01*
X13438489Y-9119771D01*
X13444621Y-9134576D01*
X13455844Y-9151372D01*
X13470128Y-9165656D01*
X13486924Y-9176879D01*
X13505587Y-9184609D01*
X13525400Y-9188550D01*
X13525400Y-9188550D01*
X13545600Y-9188550D01*
X13545600Y-9188550D01*
X13565413Y-9184609D01*
X13584076Y-9176879D01*
X13600872Y-9165656D01*
X13615156Y-9151372D01*
X13626379Y-9134576D01*
X13634109Y-9115913D01*
X13638050Y-9096100D01*
X13638050Y-9075904D01*
X13687000Y-9075904D01*
X13687000Y-9096096D01*
X13690939Y-9115898D01*
X13690939Y-9115898D01*
X13698666Y-9134552D01*
X13698666Y-9134552D01*
X13707105Y-9147182D01*
X13741472Y-9112814D01*
X13745489Y-9119771D01*
X13755729Y-9130011D01*
X13762686Y-9134027D01*
X13728318Y-9168395D01*
X13740947Y-9176834D01*
X13759602Y-9184561D01*
X13759602Y-9184561D01*
X13779404Y-9188500D01*
X13779405Y-9188500D01*
X13799595Y-9188500D01*
X13799596Y-9188500D01*
X13819398Y-9184561D01*
X13819398Y-9184561D01*
X13838052Y-9176834D01*
X13850682Y-9168395D01*
X13816314Y-9134027D01*
X13823271Y-9130011D01*
X13833511Y-9119771D01*
X13837527Y-9112814D01*
X13871895Y-9147182D01*
X13880334Y-9134552D01*
X13888061Y-9115898D01*
X13888061Y-9115898D01*
X13892000Y-9096096D01*
X13892000Y-9096095D01*
X13892000Y-9075905D01*
X13892000Y-9075904D01*
X13888061Y-9056102D01*
X13888061Y-9056102D01*
X13886426Y-9052154D01*
X13885289Y-9049411D01*
X14996450Y-9049411D01*
X14996450Y-9062589D01*
X14999861Y-9075319D01*
X15006450Y-9086731D01*
X15015769Y-9096050D01*
X15027181Y-9102639D01*
X15039911Y-9106050D01*
X15039911Y-9106050D01*
X15053089Y-9106050D01*
X15053089Y-9106050D01*
X15065819Y-9102639D01*
X15077231Y-9096050D01*
X15086550Y-9086731D01*
X15093139Y-9075319D01*
X15096550Y-9062589D01*
X15096550Y-9049411D01*
X15093139Y-9036681D01*
X15086550Y-9025269D01*
X15079083Y-9017802D01*
X15076583Y-9012440D01*
X15076550Y-9011686D01*
X15076550Y-8846911D01*
X15233950Y-8846911D01*
X15233950Y-8860089D01*
X15237361Y-8872819D01*
X15243950Y-8884231D01*
X15253269Y-8893550D01*
X15264681Y-8900139D01*
X15277411Y-8903550D01*
X15277411Y-8903550D01*
X15290589Y-8903550D01*
X15290589Y-8903550D01*
X15303319Y-8900139D01*
X15314731Y-8893550D01*
X15324050Y-8884231D01*
X15330639Y-8872819D01*
X15334050Y-8860089D01*
X15334050Y-8846911D01*
X15330639Y-8834181D01*
X15324050Y-8822769D01*
X15314731Y-8813450D01*
X15303319Y-8806861D01*
X15290589Y-8803450D01*
X15277411Y-8803450D01*
X15264681Y-8806861D01*
X15264681Y-8806861D01*
X15264681Y-8806861D01*
X15253268Y-8813450D01*
X15243950Y-8822769D01*
X15237361Y-8834181D01*
X15237361Y-8834181D01*
X15237361Y-8834181D01*
X15233950Y-8846911D01*
X15076550Y-8846911D01*
X15076550Y-8779530D01*
X15078574Y-8773970D01*
X15079082Y-8773415D01*
X15368046Y-8484451D01*
X15368098Y-8484361D01*
X15368098Y-8484361D01*
X15368099Y-8484361D01*
X15368099Y-8484359D01*
X15372002Y-8477599D01*
X15374050Y-8469956D01*
X15374050Y-8245314D01*
X15376074Y-8239754D01*
X15376583Y-8239198D01*
X15384050Y-8231731D01*
X15390639Y-8220319D01*
X15394050Y-8207589D01*
X15394050Y-8194411D01*
X15390639Y-8181681D01*
X15384050Y-8170269D01*
X15374731Y-8160950D01*
X15363319Y-8154361D01*
X15350589Y-8150950D01*
X15337411Y-8150950D01*
X15324681Y-8154361D01*
X15324681Y-8154361D01*
X15324681Y-8154361D01*
X15313268Y-8160950D01*
X15303950Y-8170268D01*
X15297361Y-8181681D01*
X15297361Y-8181681D01*
X15297361Y-8181681D01*
X15293950Y-8194411D01*
X15293950Y-8207589D01*
X15297361Y-8220319D01*
X15297361Y-8220319D01*
X15303950Y-8231731D01*
X15311416Y-8239198D01*
X15313917Y-8244560D01*
X15313950Y-8245314D01*
X15313950Y-8449970D01*
X15311926Y-8455530D01*
X15311416Y-8456086D01*
X15022454Y-8745049D01*
X15018498Y-8751901D01*
X15016450Y-8759544D01*
X15016450Y-9011686D01*
X15014426Y-9017246D01*
X15013916Y-9017802D01*
X15006450Y-9025269D01*
X14999861Y-9036681D01*
X14999861Y-9036681D01*
X14999861Y-9036681D01*
X14996450Y-9049411D01*
X13885289Y-9049411D01*
X13880334Y-9037448D01*
X13871895Y-9024818D01*
X13837527Y-9059186D01*
X13833511Y-9052229D01*
X13823271Y-9041989D01*
X13816314Y-9037973D01*
X13850682Y-9003605D01*
X13838052Y-8995166D01*
X13838052Y-8995166D01*
X13819398Y-8987439D01*
X13819398Y-8987439D01*
X13799596Y-8983500D01*
X13779404Y-8983500D01*
X13759602Y-8987439D01*
X13759602Y-8987439D01*
X13740948Y-8995166D01*
X13740948Y-8995166D01*
X13728318Y-9003605D01*
X13762686Y-9037973D01*
X13755729Y-9041989D01*
X13745489Y-9052229D01*
X13741473Y-9059186D01*
X13707105Y-9024818D01*
X13698666Y-9037448D01*
X13698666Y-9037448D01*
X13690939Y-9056102D01*
X13690939Y-9056102D01*
X13687000Y-9075904D01*
X13638050Y-9075904D01*
X13638050Y-9075900D01*
X13634109Y-9056087D01*
X13626379Y-9037424D01*
X13615156Y-9020628D01*
X13600872Y-9006344D01*
X13584076Y-8995121D01*
X13581691Y-8994134D01*
X13565413Y-8987391D01*
X13565413Y-8987391D01*
X13565413Y-8987391D01*
X13565412Y-8987391D01*
X13565412Y-8987391D01*
X13545601Y-8983450D01*
X13545600Y-8983450D01*
X13525400Y-8983450D01*
X13525399Y-8983450D01*
X13505588Y-8987391D01*
X13505587Y-8987391D01*
X13486925Y-8995121D01*
X13486924Y-8995122D01*
X13470128Y-9006344D01*
X13470128Y-9006344D01*
X13455844Y-9020628D01*
X13455844Y-9020628D01*
X13444622Y-9037424D01*
X13444621Y-9037425D01*
X13436891Y-9056087D01*
X13436891Y-9056088D01*
X13432950Y-9075899D01*
X13384050Y-9075899D01*
X13380109Y-9056087D01*
X13372379Y-9037424D01*
X13361156Y-9020628D01*
X13346872Y-9006344D01*
X13330076Y-8995121D01*
X13327691Y-8994134D01*
X13311413Y-8987391D01*
X13311413Y-8987391D01*
X13311413Y-8987391D01*
X13311412Y-8987391D01*
X13311412Y-8987391D01*
X13291601Y-8983450D01*
X13291600Y-8983450D01*
X13271400Y-8983450D01*
X13271399Y-8983450D01*
X13251588Y-8987391D01*
X13251587Y-8987391D01*
X13232925Y-8995121D01*
X13232924Y-8995122D01*
X13216128Y-9006344D01*
X13216128Y-9006344D01*
X13201844Y-9020628D01*
X13201844Y-9020628D01*
X13190622Y-9037424D01*
X13190621Y-9037425D01*
X13182891Y-9056087D01*
X13182891Y-9056088D01*
X13178950Y-9075899D01*
X13130050Y-9075899D01*
X13126109Y-9056087D01*
X13118379Y-9037424D01*
X13107156Y-9020628D01*
X13092872Y-9006344D01*
X13076076Y-8995121D01*
X13073691Y-8994134D01*
X13057413Y-8987391D01*
X13057413Y-8987391D01*
X13057413Y-8987391D01*
X13057412Y-8987391D01*
X13057412Y-8987391D01*
X13037601Y-8983450D01*
X13037600Y-8983450D01*
X13017400Y-8983450D01*
X13017399Y-8983450D01*
X12997588Y-8987391D01*
X12997587Y-8987391D01*
X12978925Y-8995121D01*
X12978924Y-8995122D01*
X12962128Y-9006344D01*
X12962128Y-9006344D01*
X12947844Y-9020628D01*
X12947844Y-9020628D01*
X12936622Y-9037424D01*
X12936621Y-9037425D01*
X12928891Y-9056087D01*
X12928891Y-9056088D01*
X12924950Y-9075899D01*
X12876050Y-9075899D01*
X12876050Y-9001525D01*
X12874887Y-8995677D01*
X12870455Y-8989045D01*
X12870455Y-8989045D01*
X12863823Y-8984613D01*
X12863823Y-8984613D01*
X12857975Y-8983450D01*
X12857975Y-8983450D01*
X12732430Y-8983450D01*
X12726870Y-8981426D01*
X12723911Y-8976302D01*
X12724939Y-8970475D01*
X12726314Y-8968684D01*
X13006414Y-8688584D01*
X13011776Y-8686083D01*
X13012530Y-8686050D01*
X13402286Y-8686050D01*
X13407846Y-8688074D01*
X13410804Y-8693198D01*
X13409777Y-8699025D01*
X13408402Y-8700817D01*
X13398950Y-8710269D01*
X13392361Y-8721681D01*
X13392361Y-8721681D01*
X13392361Y-8721681D01*
X13388950Y-8734411D01*
X13388950Y-8747589D01*
X13392153Y-8759544D01*
X13392361Y-8760319D01*
X13394747Y-8764451D01*
X13398950Y-8771731D01*
X13408269Y-8781050D01*
X13419681Y-8787639D01*
X13432411Y-8791050D01*
X13432411Y-8791050D01*
X13445589Y-8791050D01*
X13445589Y-8791050D01*
X13458319Y-8787639D01*
X13469731Y-8781050D01*
X13479050Y-8771731D01*
X13485639Y-8760319D01*
X13489050Y-8747589D01*
X13489050Y-8734411D01*
X13485639Y-8721681D01*
X13482885Y-8716911D01*
X14346450Y-8716911D01*
X14346450Y-8730089D01*
X14349436Y-8741235D01*
X14349861Y-8742819D01*
X14350283Y-8743550D01*
X14356450Y-8754231D01*
X14365769Y-8763550D01*
X14377181Y-8770139D01*
X14389911Y-8773550D01*
X14389911Y-8773550D01*
X14403089Y-8773550D01*
X14403089Y-8773550D01*
X14415819Y-8770139D01*
X14427231Y-8763550D01*
X14436550Y-8754231D01*
X14441858Y-8745038D01*
X14446390Y-8741235D01*
X14452307Y-8741235D01*
X14455465Y-8743247D01*
X14455769Y-8743550D01*
X14467181Y-8750139D01*
X14479911Y-8753550D01*
X14479911Y-8753550D01*
X14493089Y-8753550D01*
X14493089Y-8753550D01*
X14505819Y-8750139D01*
X14517231Y-8743550D01*
X14526550Y-8734231D01*
X14533139Y-8722819D01*
X14536550Y-8710089D01*
X14536550Y-8696911D01*
X14533139Y-8684181D01*
X14526550Y-8672769D01*
X14519083Y-8665302D01*
X14516583Y-8659940D01*
X14516550Y-8659186D01*
X14516550Y-8657030D01*
X14518574Y-8651470D01*
X14519083Y-8650914D01*
X14645586Y-8524411D01*
X15088950Y-8524411D01*
X15088950Y-8537589D01*
X15092361Y-8550319D01*
X15092361Y-8550319D01*
X15098950Y-8561731D01*
X15108269Y-8571050D01*
X15119681Y-8577639D01*
X15132411Y-8581050D01*
X15132411Y-8581050D01*
X15145589Y-8581050D01*
X15145589Y-8581050D01*
X15158319Y-8577639D01*
X15169731Y-8571050D01*
X15179050Y-8561731D01*
X15185639Y-8550319D01*
X15189050Y-8537589D01*
X15189050Y-8527030D01*
X15191074Y-8521470D01*
X15191583Y-8520914D01*
X15225027Y-8487470D01*
X15263046Y-8449451D01*
X15267002Y-8442599D01*
X15269050Y-8434956D01*
X15269050Y-8427044D01*
X15269050Y-8161030D01*
X15271074Y-8155470D01*
X15271582Y-8154915D01*
X15406413Y-8020083D01*
X15411776Y-8017583D01*
X15412530Y-8017550D01*
X15423089Y-8017550D01*
X15423089Y-8017550D01*
X15435819Y-8014139D01*
X15444008Y-8009411D01*
X16816450Y-8009411D01*
X16816450Y-8022589D01*
X16819861Y-8035319D01*
X16826450Y-8046731D01*
X16835769Y-8056050D01*
X16847181Y-8062639D01*
X16859911Y-8066050D01*
X16859911Y-8066050D01*
X16873089Y-8066050D01*
X16873089Y-8066050D01*
X16885819Y-8062639D01*
X16897231Y-8056050D01*
X16906550Y-8046731D01*
X16913139Y-8035319D01*
X16916550Y-8022589D01*
X16916550Y-8009411D01*
X16913139Y-7996681D01*
X16906550Y-7985269D01*
X16897231Y-7975950D01*
X16885819Y-7969361D01*
X16873089Y-7965950D01*
X16859911Y-7965950D01*
X16847181Y-7969361D01*
X16847181Y-7969361D01*
X16847181Y-7969361D01*
X16835769Y-7975950D01*
X16826450Y-7985268D01*
X16819861Y-7996681D01*
X16819861Y-7996681D01*
X16819861Y-7996681D01*
X16816450Y-8009411D01*
X15444008Y-8009411D01*
X15447231Y-8007550D01*
X15456550Y-7998231D01*
X15463139Y-7986819D01*
X15466550Y-7974089D01*
X15466550Y-7960911D01*
X15463139Y-7948181D01*
X15456550Y-7936769D01*
X15447231Y-7927450D01*
X15435819Y-7920861D01*
X15423089Y-7917450D01*
X15409911Y-7917450D01*
X15397181Y-7920861D01*
X15397181Y-7920861D01*
X15397181Y-7920861D01*
X15385768Y-7927450D01*
X15376450Y-7936768D01*
X15369861Y-7948181D01*
X15369861Y-7948181D01*
X15369861Y-7948181D01*
X15366450Y-7960911D01*
X15366450Y-7960911D01*
X15366450Y-7971470D01*
X15364426Y-7977030D01*
X15363916Y-7977586D01*
X15220549Y-8120954D01*
X15214954Y-8126549D01*
X15210998Y-8133401D01*
X15208950Y-8141044D01*
X15208950Y-8414970D01*
X15206926Y-8420530D01*
X15206416Y-8421086D01*
X15149086Y-8478417D01*
X15143724Y-8480917D01*
X15142970Y-8480950D01*
X15132411Y-8480950D01*
X15119681Y-8484361D01*
X15119681Y-8484361D01*
X15119681Y-8484361D01*
X15108268Y-8490950D01*
X15098950Y-8500269D01*
X15092361Y-8511681D01*
X15092361Y-8511681D01*
X15092361Y-8511681D01*
X15088950Y-8524411D01*
X14645586Y-8524411D01*
X15296414Y-7873583D01*
X15301776Y-7871083D01*
X15302530Y-7871050D01*
X15544686Y-7871050D01*
X15550246Y-7873074D01*
X15550802Y-7873583D01*
X15558269Y-7881050D01*
X15569681Y-7887639D01*
X15582411Y-7891050D01*
X15582411Y-7891050D01*
X15595589Y-7891050D01*
X15595589Y-7891050D01*
X15608319Y-7887639D01*
X15619731Y-7881050D01*
X15629050Y-7871731D01*
X15635639Y-7860319D01*
X15636152Y-7858403D01*
X17108950Y-7858403D01*
X17108950Y-7883597D01*
X17112891Y-7908479D01*
X17112891Y-7908480D01*
X17120676Y-7932437D01*
X17120676Y-7932438D01*
X17128697Y-7948181D01*
X17132113Y-7954884D01*
X17146921Y-7975266D01*
X17164734Y-7993079D01*
X17185116Y-8007887D01*
X17207562Y-8019324D01*
X17209899Y-8020083D01*
X17231520Y-8027109D01*
X17231521Y-8027109D01*
X17231522Y-8027109D01*
X17256404Y-8031050D01*
X17256404Y-8031050D01*
X17281596Y-8031050D01*
X17281596Y-8031050D01*
X17306479Y-8027109D01*
X17306479Y-8027109D01*
X17306480Y-8027109D01*
X17317686Y-8023467D01*
X17330438Y-8019324D01*
X17352885Y-8007887D01*
X17373266Y-7993079D01*
X17391079Y-7975266D01*
X17405887Y-7954884D01*
X17417324Y-7932438D01*
X17422194Y-7917450D01*
X17425109Y-7908480D01*
X17425109Y-7908479D01*
X17425109Y-7908478D01*
X17429050Y-7883596D01*
X17429050Y-7858404D01*
X17425109Y-7833521D01*
X17425109Y-7833521D01*
X17425109Y-7833520D01*
X17419312Y-7815681D01*
X17417324Y-7809562D01*
X17405887Y-7787115D01*
X17391079Y-7766734D01*
X17373266Y-7748921D01*
X17352885Y-7734113D01*
X17352884Y-7734113D01*
X17330438Y-7722676D01*
X17330437Y-7722676D01*
X17306480Y-7714891D01*
X17306479Y-7714891D01*
X17281597Y-7710950D01*
X17281596Y-7710950D01*
X17256404Y-7710950D01*
X17256403Y-7710950D01*
X17231521Y-7714891D01*
X17231520Y-7714891D01*
X17207563Y-7722676D01*
X17207562Y-7722676D01*
X17185116Y-7734113D01*
X17185115Y-7734113D01*
X17164734Y-7748921D01*
X17146921Y-7766734D01*
X17132113Y-7787115D01*
X17132113Y-7787115D01*
X17120676Y-7809562D01*
X17120676Y-7809562D01*
X17112891Y-7833520D01*
X17112891Y-7833521D01*
X17108950Y-7858403D01*
X15636152Y-7858403D01*
X15639050Y-7847589D01*
X15639050Y-7834411D01*
X15635639Y-7821681D01*
X15629050Y-7810269D01*
X15619731Y-7800950D01*
X15608319Y-7794361D01*
X15595589Y-7790950D01*
X15582411Y-7790950D01*
X15569681Y-7794361D01*
X15569681Y-7794361D01*
X15569681Y-7794361D01*
X15558268Y-7800950D01*
X15550802Y-7808416D01*
X15545439Y-7810917D01*
X15544686Y-7810950D01*
X15282544Y-7810950D01*
X15274901Y-7812998D01*
X15268993Y-7816409D01*
X15268993Y-7816409D01*
X15268049Y-7816954D01*
X14462454Y-8622549D01*
X14458498Y-8629401D01*
X14456450Y-8637044D01*
X14456450Y-8659186D01*
X14454426Y-8664746D01*
X14453916Y-8665302D01*
X14446450Y-8672768D01*
X14441142Y-8681962D01*
X14436609Y-8685765D01*
X14430692Y-8685765D01*
X14427535Y-8683753D01*
X14427231Y-8683450D01*
X14415819Y-8676861D01*
X14415819Y-8676861D01*
X14415819Y-8676861D01*
X14403089Y-8673450D01*
X14389911Y-8673450D01*
X14377181Y-8676861D01*
X14377181Y-8676861D01*
X14377181Y-8676861D01*
X14365768Y-8683450D01*
X14356450Y-8692769D01*
X14349861Y-8704181D01*
X14349861Y-8704181D01*
X14349861Y-8704181D01*
X14346450Y-8716911D01*
X13482885Y-8716911D01*
X13479050Y-8710269D01*
X13469731Y-8700950D01*
X13469598Y-8700817D01*
X13467097Y-8695454D01*
X13468629Y-8689739D01*
X13473476Y-8686345D01*
X13475714Y-8686050D01*
X13660456Y-8686050D01*
X13660456Y-8686050D01*
X13668099Y-8684002D01*
X13674951Y-8680046D01*
X13680546Y-8674451D01*
X13818913Y-8536083D01*
X13824276Y-8533583D01*
X13825030Y-8533550D01*
X13835589Y-8533550D01*
X13835589Y-8533550D01*
X13848319Y-8530139D01*
X13859731Y-8523550D01*
X13869050Y-8514231D01*
X13875639Y-8502819D01*
X13879050Y-8490089D01*
X13879050Y-8476911D01*
X13875639Y-8464181D01*
X13869050Y-8452769D01*
X13859731Y-8443450D01*
X13848319Y-8436861D01*
X13835589Y-8433450D01*
X13822411Y-8433450D01*
X13809681Y-8436861D01*
X13809681Y-8436861D01*
X13809681Y-8436861D01*
X13798268Y-8443450D01*
X13788950Y-8452769D01*
X13782361Y-8464181D01*
X13782361Y-8464181D01*
X13782361Y-8464181D01*
X13778950Y-8476911D01*
X13778950Y-8476911D01*
X13778950Y-8487470D01*
X13776926Y-8493030D01*
X13776416Y-8493586D01*
X13646586Y-8623417D01*
X13641224Y-8625917D01*
X13640470Y-8625950D01*
X12992544Y-8625950D01*
X12984901Y-8627998D01*
X12979615Y-8631050D01*
X12979615Y-8631050D01*
X12978049Y-8631954D01*
X12421586Y-9188417D01*
X12416224Y-9190917D01*
X12415470Y-9190950D01*
X12404911Y-9190950D01*
X12392181Y-9194361D01*
X12392181Y-9194361D01*
X12392181Y-9194361D01*
X12380768Y-9200950D01*
X12371450Y-9210269D01*
X12364861Y-9221681D01*
X12364861Y-9221681D01*
X12364861Y-9221681D01*
X12361450Y-9234411D01*
X12266550Y-9234411D01*
X12266550Y-8891911D01*
X12451450Y-8891911D01*
X12451450Y-8905089D01*
X12454861Y-8917819D01*
X12461450Y-8929231D01*
X12470769Y-8938550D01*
X12482181Y-8945139D01*
X12494911Y-8948550D01*
X12494911Y-8948550D01*
X12508089Y-8948550D01*
X12508089Y-8948550D01*
X12520819Y-8945139D01*
X12532231Y-8938550D01*
X12541550Y-8929231D01*
X12548139Y-8917819D01*
X12551550Y-8905089D01*
X12551550Y-8891911D01*
X12548139Y-8879181D01*
X12541550Y-8867769D01*
X12534083Y-8860302D01*
X12531583Y-8854940D01*
X12531550Y-8854186D01*
X12531550Y-8662030D01*
X12533574Y-8656470D01*
X12534083Y-8655914D01*
X12575586Y-8614411D01*
X12693950Y-8614411D01*
X12693950Y-8627589D01*
X12697361Y-8640319D01*
X12703950Y-8651731D01*
X12713269Y-8661050D01*
X12724681Y-8667639D01*
X12737411Y-8671050D01*
X12737411Y-8671050D01*
X12750589Y-8671050D01*
X12750589Y-8671050D01*
X12763319Y-8667639D01*
X12774731Y-8661050D01*
X12784050Y-8651731D01*
X12790639Y-8640319D01*
X12794050Y-8627589D01*
X12794050Y-8614411D01*
X12790639Y-8601681D01*
X12784050Y-8590269D01*
X12774731Y-8580950D01*
X12763319Y-8574361D01*
X12763319Y-8574361D01*
X12763319Y-8574361D01*
X12750589Y-8570950D01*
X12737411Y-8570950D01*
X12724681Y-8574361D01*
X12724681Y-8574361D01*
X12724681Y-8574361D01*
X12713268Y-8580950D01*
X12703950Y-8590269D01*
X12697361Y-8601681D01*
X12697361Y-8601681D01*
X12697361Y-8601681D01*
X12693950Y-8614411D01*
X12575586Y-8614411D01*
X12673914Y-8516084D01*
X12679276Y-8513583D01*
X12680030Y-8513550D01*
X13484686Y-8513550D01*
X13490246Y-8515574D01*
X13490802Y-8516084D01*
X13498269Y-8523550D01*
X13509681Y-8530139D01*
X13522411Y-8533550D01*
X13522411Y-8533550D01*
X13535589Y-8533550D01*
X13535589Y-8533550D01*
X13548319Y-8530139D01*
X13559731Y-8523550D01*
X13569050Y-8514231D01*
X13575639Y-8502819D01*
X13579050Y-8490089D01*
X13579050Y-8476911D01*
X13575639Y-8464181D01*
X13569050Y-8452769D01*
X13559731Y-8443450D01*
X13548319Y-8436861D01*
X13535589Y-8433450D01*
X13522411Y-8433450D01*
X13509681Y-8436861D01*
X13509681Y-8436861D01*
X13509681Y-8436861D01*
X13498268Y-8443450D01*
X13490802Y-8450917D01*
X13485439Y-8453417D01*
X13484686Y-8453450D01*
X12660044Y-8453450D01*
X12652401Y-8455498D01*
X12646493Y-8458909D01*
X12646493Y-8458909D01*
X12645549Y-8459454D01*
X12477454Y-8627549D01*
X12473498Y-8634401D01*
X12471450Y-8642044D01*
X12471450Y-8854186D01*
X12469426Y-8859746D01*
X12468916Y-8860302D01*
X12461450Y-8867769D01*
X12454861Y-8879181D01*
X12454861Y-8879181D01*
X12454861Y-8879181D01*
X12451450Y-8891911D01*
X12266550Y-8891911D01*
X12266550Y-8774411D01*
X12353950Y-8774411D01*
X12353950Y-8787589D01*
X12357361Y-8800319D01*
X12357361Y-8800319D01*
X12361138Y-8806861D01*
X12363950Y-8811731D01*
X12373269Y-8821050D01*
X12384681Y-8827639D01*
X12397411Y-8831050D01*
X12397411Y-8831050D01*
X12410589Y-8831050D01*
X12410589Y-8831050D01*
X12423319Y-8827639D01*
X12434731Y-8821050D01*
X12444050Y-8811731D01*
X12450639Y-8800319D01*
X12454050Y-8787589D01*
X12454050Y-8774411D01*
X12450639Y-8761681D01*
X12444050Y-8750269D01*
X12434731Y-8740950D01*
X12432140Y-8739454D01*
X12423319Y-8734361D01*
X12423319Y-8734361D01*
X12423319Y-8734361D01*
X12410589Y-8730950D01*
X12397411Y-8730950D01*
X12384681Y-8734361D01*
X12384681Y-8734361D01*
X12384681Y-8734361D01*
X12373268Y-8740950D01*
X12363950Y-8750269D01*
X12357361Y-8761681D01*
X12357361Y-8761681D01*
X12357361Y-8761681D01*
X12353950Y-8774411D01*
X12266550Y-8774411D01*
X12266550Y-8389530D01*
X12268574Y-8383970D01*
X12269083Y-8383414D01*
X12493086Y-8159411D01*
X13973950Y-8159411D01*
X13973950Y-8172589D01*
X13977361Y-8185319D01*
X13983950Y-8196731D01*
X13993269Y-8206050D01*
X14004681Y-8212639D01*
X14017411Y-8216050D01*
X14017411Y-8216050D01*
X14030589Y-8216050D01*
X14030589Y-8216050D01*
X14043319Y-8212639D01*
X14054731Y-8206050D01*
X14064050Y-8196731D01*
X14070639Y-8185319D01*
X14074050Y-8172589D01*
X14074050Y-8159411D01*
X14070639Y-8146681D01*
X14064050Y-8135269D01*
X14054731Y-8125950D01*
X14043319Y-8119361D01*
X14030589Y-8115950D01*
X14017411Y-8115950D01*
X14004681Y-8119361D01*
X14004681Y-8119361D01*
X14004681Y-8119361D01*
X13993268Y-8125950D01*
X13983950Y-8135268D01*
X13977361Y-8146681D01*
X13977361Y-8146681D01*
X13977361Y-8146681D01*
X13973950Y-8159411D01*
X12493086Y-8159411D01*
X12748914Y-7903583D01*
X12754276Y-7901083D01*
X12755030Y-7901050D01*
X14762956Y-7901050D01*
X14762956Y-7901050D01*
X14770599Y-7899002D01*
X14777451Y-7895046D01*
X14783046Y-7889451D01*
X14908914Y-7763583D01*
X14914276Y-7761083D01*
X14915030Y-7761050D01*
X16114686Y-7761050D01*
X16120246Y-7763074D01*
X16120802Y-7763583D01*
X16128269Y-7771050D01*
X16139681Y-7777639D01*
X16152411Y-7781050D01*
X16152411Y-7781050D01*
X16165589Y-7781050D01*
X16165589Y-7781050D01*
X16178319Y-7777639D01*
X16189731Y-7771050D01*
X16199050Y-7761731D01*
X16205639Y-7750319D01*
X16209050Y-7737589D01*
X16209050Y-7724411D01*
X16205639Y-7711681D01*
X16199050Y-7700269D01*
X16189731Y-7690950D01*
X16178319Y-7684361D01*
X16178319Y-7684361D01*
X16178319Y-7684361D01*
X16165589Y-7680950D01*
X16152411Y-7680950D01*
X16139681Y-7684361D01*
X16139681Y-7684361D01*
X16139681Y-7684361D01*
X16128268Y-7690950D01*
X16120802Y-7698416D01*
X16115439Y-7700917D01*
X16114686Y-7700950D01*
X14895044Y-7700950D01*
X14887401Y-7702998D01*
X14881493Y-7706409D01*
X14881493Y-7706409D01*
X14880549Y-7706954D01*
X14749086Y-7838416D01*
X14743724Y-7840917D01*
X14742970Y-7840950D01*
X12735043Y-7840950D01*
X12727401Y-7842998D01*
X12727401Y-7842998D01*
X12721729Y-7846273D01*
X12720549Y-7846954D01*
X12218049Y-8349454D01*
X12212454Y-8355049D01*
X12208498Y-8361901D01*
X12206450Y-8369544D01*
X12206450Y-8827347D01*
X12204426Y-8832907D01*
X12199302Y-8835865D01*
X12193475Y-8834838D01*
X12188319Y-8831861D01*
X12188319Y-8831861D01*
X12175589Y-8828450D01*
X12162411Y-8828450D01*
X12149681Y-8831861D01*
X12149681Y-8831861D01*
X12149681Y-8831861D01*
X12138268Y-8838450D01*
X12128950Y-8847769D01*
X12122361Y-8859181D01*
X12122361Y-8859181D01*
X12122361Y-8859181D01*
X12118950Y-8871911D01*
X12089050Y-8871911D01*
X12089050Y-8139411D01*
X12158950Y-8139411D01*
X12158950Y-8152589D01*
X12162361Y-8165319D01*
X12168950Y-8176731D01*
X12178269Y-8186050D01*
X12189681Y-8192639D01*
X12202411Y-8196050D01*
X12202411Y-8196050D01*
X12215589Y-8196050D01*
X12215589Y-8196050D01*
X12228319Y-8192639D01*
X12239731Y-8186050D01*
X12249050Y-8176731D01*
X12255639Y-8165319D01*
X12259050Y-8152589D01*
X12259050Y-8139411D01*
X12255639Y-8126681D01*
X12249050Y-8115269D01*
X12239731Y-8105950D01*
X12228319Y-8099361D01*
X12215589Y-8095950D01*
X12202411Y-8095950D01*
X12189681Y-8099361D01*
X12189681Y-8099361D01*
X12189681Y-8099361D01*
X12178268Y-8105950D01*
X12168950Y-8115268D01*
X12162361Y-8126681D01*
X12162361Y-8126681D01*
X12162361Y-8126681D01*
X12158950Y-8139411D01*
X12089050Y-8139411D01*
X12089050Y-7858403D01*
X12208950Y-7858403D01*
X12208950Y-7883597D01*
X12212891Y-7908479D01*
X12212891Y-7908480D01*
X12220676Y-7932437D01*
X12220676Y-7932438D01*
X12228697Y-7948181D01*
X12232113Y-7954884D01*
X12246921Y-7975266D01*
X12264734Y-7993079D01*
X12285115Y-8007887D01*
X12307562Y-8019324D01*
X12309899Y-8020083D01*
X12331520Y-8027109D01*
X12331521Y-8027109D01*
X12331521Y-8027109D01*
X12356404Y-8031050D01*
X12356404Y-8031050D01*
X12381596Y-8031050D01*
X12381596Y-8031050D01*
X12406478Y-8027109D01*
X12406479Y-8027109D01*
X12406480Y-8027109D01*
X12417686Y-8023467D01*
X12430438Y-8019324D01*
X12452884Y-8007887D01*
X12473266Y-7993079D01*
X12491079Y-7975266D01*
X12505887Y-7954884D01*
X12517324Y-7932438D01*
X12522194Y-7917450D01*
X12525109Y-7908480D01*
X12525109Y-7908479D01*
X12525109Y-7908478D01*
X12529050Y-7883596D01*
X12529050Y-7858404D01*
X12525109Y-7833521D01*
X12525109Y-7833521D01*
X12525109Y-7833520D01*
X12519312Y-7815681D01*
X12517324Y-7809562D01*
X12505887Y-7787115D01*
X12491079Y-7766734D01*
X12473266Y-7748921D01*
X12452884Y-7734113D01*
X12452884Y-7734113D01*
X12430438Y-7722676D01*
X12430437Y-7722676D01*
X12406480Y-7714891D01*
X12406479Y-7714891D01*
X12381597Y-7710950D01*
X12381596Y-7710950D01*
X12356404Y-7710950D01*
X12356403Y-7710950D01*
X12331521Y-7714891D01*
X12331520Y-7714891D01*
X12307562Y-7722676D01*
X12307562Y-7722676D01*
X12285115Y-7734113D01*
X12285115Y-7734113D01*
X12264734Y-7748921D01*
X12246921Y-7766734D01*
X12232113Y-7787115D01*
X12232113Y-7787115D01*
X12220676Y-7809562D01*
X12220676Y-7809562D01*
X12212891Y-7833520D01*
X12212891Y-7833521D01*
X12208950Y-7858403D01*
X12089050Y-7858403D01*
X12089050Y-7684411D01*
X14676450Y-7684411D01*
X14676450Y-7697589D01*
X14678959Y-7706954D01*
X14679861Y-7710319D01*
X14686450Y-7721731D01*
X14695769Y-7731050D01*
X14707181Y-7737639D01*
X14719911Y-7741050D01*
X14719911Y-7741050D01*
X14733089Y-7741050D01*
X14733089Y-7741050D01*
X14745819Y-7737639D01*
X14757231Y-7731050D01*
X14766550Y-7721731D01*
X14773139Y-7710319D01*
X14776550Y-7697589D01*
X14776550Y-7684411D01*
X14773139Y-7671681D01*
X14766550Y-7660269D01*
X14757231Y-7650950D01*
X14745819Y-7644361D01*
X14733089Y-7640950D01*
X14719911Y-7640950D01*
X14707181Y-7644361D01*
X14707181Y-7644361D01*
X14707181Y-7644361D01*
X14695768Y-7650950D01*
X14686450Y-7660268D01*
X14679861Y-7671681D01*
X14679861Y-7671681D01*
X14679861Y-7671681D01*
X14676450Y-7684411D01*
X12089050Y-7684411D01*
X12089050Y-7599700D01*
X12091074Y-7594140D01*
X12096198Y-7591181D01*
X12097700Y-7591050D01*
X17540300Y-7591050D01*
X17545860Y-7593074D01*
G37*
%TD.AperFunction*%
%TD*%
M02*
