%TF.GenerationSoftware,KiCad,Pcbnew,10.0.0*%
%TF.CreationDate,2026-04-11T11:36:05+02:00*%
%TF.ProjectId,BT,42542e6b-6963-4616-945f-706362585858,rev?*%
%TF.SameCoordinates,Original*%
%TF.FileFunction,Legend,Top*%
%TF.FilePolarity,Positive*%
%FSLAX45Y45*%
G04 Gerber Fmt 4.5, Leading zero omitted, Abs format (unit mm)*
G04 Created by KiCad (PCBNEW 10.0.0) date 2026-04-11 11:36:05*
%MOMM*%
%LPD*%
G01*
G04 APERTURE LIST*
%ADD10C,0.200000*%
%ADD11C,0.250000*%
%ADD12C,0.120000*%
G04 APERTURE END LIST*
%TO.C,R2*%
D10*
X15597726Y-10543750D02*
X15550274Y-10543750D01*
X15597726Y-10648250D02*
X15550274Y-10648250D01*
%TO.C,R31*%
X12832774Y-8402500D02*
X12880226Y-8402500D01*
X12832774Y-8507000D02*
X12880226Y-8507000D01*
%TO.C,U4*%
X15004000Y-10750000D02*
G75*
G02*
X14984000Y-10750000I-10000J0D01*
G01*
X14984000Y-10750000D02*
G75*
G02*
X15004000Y-10750000I10000J0D01*
G01*
%TO.C,C12*%
X13890558Y-8767500D02*
X13862442Y-8767500D01*
X13890558Y-8869500D02*
X13862442Y-8869500D01*
%TO.C,Q1*%
X16224000Y-7688500D02*
X16119000Y-7688500D01*
X16224000Y-7688500D02*
X16224000Y-7768500D01*
X16224000Y-7978500D02*
X16119000Y-7978500D01*
X16224000Y-7978500D02*
X16224000Y-7898500D01*
%TO.C,R26*%
X15671750Y-8107274D02*
X15671750Y-8154726D01*
X15776250Y-8107274D02*
X15776250Y-8154726D01*
%TO.C,R13*%
X12596750Y-8727226D02*
X12596750Y-8679774D01*
X12701250Y-8727226D02*
X12701250Y-8679774D01*
%TO.C,D1*%
X16437500Y-7698500D02*
X16437500Y-7731000D01*
X16437500Y-7698500D02*
X16872500Y-7698500D01*
X16437500Y-7968500D02*
X16437500Y-7936000D01*
X16872500Y-7698500D02*
X16872500Y-7731000D01*
X16872500Y-7968500D02*
X16437500Y-7968500D01*
X16872500Y-7968500D02*
X16872500Y-7936000D01*
D11*
X16950000Y-7706000D02*
G75*
G02*
X16925000Y-7706000I-12500J0D01*
G01*
X16925000Y-7706000D02*
G75*
G02*
X16950000Y-7706000I12500J0D01*
G01*
%TO.C,C32*%
D10*
X12959942Y-7713750D02*
X12988058Y-7713750D01*
X12959942Y-7815750D02*
X12988058Y-7815750D01*
%TO.C,J1*%
X12635500Y-8948000D02*
X13927500Y-8948000D01*
X13927500Y-9224000D01*
X12635500Y-9224000D01*
X12635500Y-8948000D01*
%TO.C,Q2*%
X15284000Y-9826000D02*
X15179000Y-9826000D01*
X15284000Y-9826000D02*
X15284000Y-9906000D01*
X15284000Y-10116000D02*
X15179000Y-10116000D01*
X15284000Y-10116000D02*
X15284000Y-10036000D01*
%TO.C,R33*%
X15254000Y-9046000D02*
X15254000Y-9086000D01*
X15361500Y-8916000D02*
X15644000Y-8916000D01*
X15361500Y-9216000D02*
X15644000Y-9216000D01*
X15644000Y-8916000D02*
X15644000Y-8963500D01*
X15644000Y-9216000D02*
X15644000Y-9168500D01*
%TO.C,C24*%
X15025125Y-11220000D02*
X14882875Y-11220000D01*
X15025125Y-11492000D02*
X14882875Y-11492000D01*
%TO.C,U3*%
X15129000Y-7967500D02*
X15429000Y-7967500D01*
X15129000Y-8842500D02*
X15429000Y-8842500D01*
%TO.C,C1*%
X14113000Y-8580058D02*
X14113000Y-8551942D01*
X14215000Y-8580058D02*
X14215000Y-8551942D01*
%TO.C,R5*%
X15297726Y-10543750D02*
X15250274Y-10543750D01*
X15297726Y-10648250D02*
X15250274Y-10648250D01*
%TO.C,C28*%
X16504260Y-10240142D02*
X16532376Y-10240142D01*
X16504260Y-10342142D02*
X16532376Y-10342142D01*
%TO.C,R3*%
X13152726Y-11341250D02*
X13105274Y-11341250D01*
X13152726Y-11445750D02*
X13105274Y-11445750D01*
%TO.C,R14*%
X12449250Y-9064774D02*
X12449250Y-9112226D01*
X12553750Y-9064774D02*
X12553750Y-9112226D01*
%TO.C,R22*%
X15072726Y-9091250D02*
X15025274Y-9091250D01*
X15072726Y-9195750D02*
X15025274Y-9195750D01*
%TO.C,R9*%
X14705274Y-7778750D02*
X14752726Y-7778750D01*
X14705274Y-7883250D02*
X14752726Y-7883250D01*
%TO.C,C34*%
X16504942Y-10080000D02*
X16533058Y-10080000D01*
X16504942Y-10182000D02*
X16533058Y-10182000D01*
%TO.C,C8*%
X14435500Y-8884442D02*
X14435500Y-8912558D01*
X14537500Y-8884442D02*
X14537500Y-8912558D01*
%TO.C,Y1*%
D12*
X12093000Y-8905000D02*
X12371500Y-8905000D01*
X12093000Y-8925000D02*
X12093000Y-8905000D01*
X12371500Y-9272000D02*
X12111500Y-9272000D01*
%TO.C,C29*%
D10*
X16462875Y-11220000D02*
X16605125Y-11220000D01*
X16462875Y-11492000D02*
X16605125Y-11492000D01*
%TO.C,R4*%
X14434250Y-8539726D02*
X14434250Y-8492274D01*
X14538750Y-8539726D02*
X14538750Y-8492274D01*
%TO.C,C16*%
X12263819Y-8717558D02*
X12263819Y-8689442D01*
X12365819Y-8717558D02*
X12365819Y-8689442D01*
%TO.C,C15*%
X16017625Y-9187500D02*
X15965375Y-9187500D01*
X16017625Y-9334500D02*
X15965375Y-9334500D01*
%TO.C,U1*%
D11*
X14116500Y-8003500D02*
G75*
G02*
X14091500Y-8003500I-12500J0D01*
G01*
X14091500Y-8003500D02*
G75*
G02*
X14116500Y-8003500I12500J0D01*
G01*
%TO.C,U5*%
D10*
X16064000Y-10750000D02*
G75*
G02*
X16044000Y-10750000I-10000J0D01*
G01*
X16044000Y-10750000D02*
G75*
G02*
X16064000Y-10750000I10000J0D01*
G01*
%TO.C,R30*%
X15671750Y-8749726D02*
X15671750Y-8702274D01*
X15776250Y-8749726D02*
X15776250Y-8702274D01*
%TO.C,R40*%
X16542726Y-9918750D02*
X16495274Y-9918750D01*
X16542726Y-10023250D02*
X16495274Y-10023250D01*
%TO.C,C2*%
X14260500Y-8580058D02*
X14260500Y-8551942D01*
X14362500Y-8580058D02*
X14362500Y-8551942D01*
%TO.C,F1*%
X15776500Y-10166000D02*
X15776500Y-10006000D01*
X15941500Y-10006000D02*
X15941500Y-10166000D01*
%TO.C,R18*%
X15000226Y-10543750D02*
X14952774Y-10543750D01*
X15000226Y-10648250D02*
X14952774Y-10648250D01*
%TO.C,C14*%
X16605125Y-9187500D02*
X16552875Y-9187500D01*
X16605125Y-9334500D02*
X16552875Y-9334500D01*
%TO.C,J2*%
X16789000Y-9616000D02*
X17549000Y-9616000D01*
X17549000Y-11006000D01*
X16789000Y-11006000D01*
X16789000Y-9616000D01*
%TO.C,R16*%
X12116750Y-8727226D02*
X12116750Y-8679774D01*
X12221250Y-8727226D02*
X12221250Y-8679774D01*
%TO.C,R29*%
X15671750Y-8452226D02*
X15671750Y-8404774D01*
X15776250Y-8452226D02*
X15776250Y-8404774D01*
%TO.C,C3*%
X13515500Y-7797558D02*
X13515500Y-7769442D01*
X13617500Y-7797558D02*
X13617500Y-7769442D01*
%TO.C,C18*%
X15953000Y-10961942D02*
X15953000Y-10990058D01*
X16055000Y-10961942D02*
X16055000Y-10990058D01*
%TO.C,R28*%
X15444726Y-7788750D02*
X15397274Y-7788750D01*
X15444726Y-7893250D02*
X15397274Y-7893250D01*
%TO.C,C30*%
X16085125Y-11220000D02*
X15942875Y-11220000D01*
X16085125Y-11492000D02*
X15942875Y-11492000D01*
%TO.C,C13*%
X14170375Y-8742500D02*
X14222625Y-8742500D01*
X14170375Y-8889500D02*
X14222625Y-8889500D01*
%TO.C,C11*%
X13665500Y-7787125D02*
X13665500Y-7734875D01*
X13812500Y-7787125D02*
X13812500Y-7734875D01*
%TO.C,R8*%
X15861750Y-7809774D02*
X15861750Y-7857226D01*
X15966250Y-7809774D02*
X15966250Y-7857226D01*
%TO.C,U2*%
X12101000Y-9354750D02*
X12161000Y-9354750D01*
X12101000Y-11154750D02*
X12101000Y-9354750D01*
X12101000Y-11154750D02*
X12161000Y-11154750D01*
X14021000Y-9354750D02*
X13961000Y-9354750D01*
X14021000Y-9354750D02*
X14021000Y-9604750D01*
X14021000Y-11154750D02*
X13961000Y-11154750D01*
X14021000Y-11154750D02*
X14021000Y-10914750D01*
D11*
X12191000Y-11254750D02*
G75*
G02*
X12166000Y-11254750I-12500J0D01*
G01*
X12166000Y-11254750D02*
G75*
G02*
X12191000Y-11254750I12500J0D01*
G01*
%TO.C,R34*%
D10*
X15409250Y-9947274D02*
X15409250Y-9994726D01*
X15513750Y-9947274D02*
X15513750Y-9994726D01*
%TO.C,C20*%
X14888000Y-10961942D02*
X14888000Y-10990058D01*
X14990000Y-10961942D02*
X14990000Y-10990058D01*
%TO.C,R27*%
X15144726Y-7788750D02*
X15097274Y-7788750D01*
X15144726Y-7893250D02*
X15097274Y-7893250D01*
%TO.C,R38*%
X16245709Y-10238989D02*
X16198258Y-10238989D01*
X16245709Y-10343489D02*
X16198258Y-10343489D01*
%TO.C,C5*%
X12245558Y-11342500D02*
X12217442Y-11342500D01*
X12245558Y-11444500D02*
X12217442Y-11444500D01*
%TO.C,R24*%
X15025274Y-8916250D02*
X15072726Y-8916250D01*
X15025274Y-9020750D02*
X15072726Y-9020750D01*
%TO.C,S1*%
X14209000Y-11041000D02*
X14209000Y-11301000D01*
X14529000Y-11041000D02*
X14529000Y-11301000D01*
%TO.C,C33*%
X13148000Y-7834625D02*
X13148000Y-7782375D01*
X13295000Y-7834625D02*
X13295000Y-7782375D01*
%TO.C,C10*%
X12843058Y-11342500D02*
X12814942Y-11342500D01*
X12843058Y-11444500D02*
X12814942Y-11444500D01*
%TO.C,R11*%
X14752726Y-8221250D02*
X14705274Y-8221250D01*
X14752726Y-8325750D02*
X14705274Y-8325750D01*
%TO.C,R39*%
X16245226Y-10078750D02*
X16197774Y-10078750D01*
X16245226Y-10183250D02*
X16197774Y-10183250D01*
%TO.C,C19*%
X15725500Y-10834875D02*
X15725500Y-10977125D01*
X15907500Y-10834875D02*
X15907500Y-10977125D01*
%TO.C,C23*%
X15495500Y-10834875D02*
X15495500Y-10977125D01*
X15677500Y-10834875D02*
X15677500Y-10977125D01*
%TO.C,C36*%
X14754778Y-8519626D02*
X14702527Y-8519626D01*
X14754778Y-8666626D02*
X14702527Y-8666626D01*
%TO.C,C7*%
X14035125Y-7760000D02*
X13982875Y-7760000D01*
X14035125Y-7907000D02*
X13982875Y-7907000D01*
%TO.C,R32*%
X13130274Y-8402500D02*
X13177726Y-8402500D01*
X13130274Y-8507000D02*
X13177726Y-8507000D01*
%TO.C,C35*%
X14714942Y-8917500D02*
X14743058Y-8917500D01*
X14714942Y-9019500D02*
X14743058Y-9019500D01*
%TO.C,C17*%
X14658000Y-10834875D02*
X14658000Y-10977125D01*
X14840000Y-10834875D02*
X14840000Y-10977125D01*
%TO.C,R23*%
X15399774Y-7638750D02*
X15447226Y-7638750D01*
X15399774Y-7743250D02*
X15447226Y-7743250D01*
%TO.C,C9*%
X14435500Y-7935058D02*
X14435500Y-7906942D01*
X14537500Y-7935058D02*
X14537500Y-7906942D01*
%TO.C,C4*%
X13365500Y-7797558D02*
X13365500Y-7769442D01*
X13467500Y-7797558D02*
X13467500Y-7769442D01*
%TO.C,R12*%
X14705274Y-8073750D02*
X14752726Y-8073750D01*
X14705274Y-8178250D02*
X14752726Y-8178250D01*
%TO.C,R20*%
X16415226Y-10543750D02*
X16367774Y-10543750D01*
X16415226Y-10648250D02*
X16367774Y-10648250D01*
%TO.C,C25*%
X15402875Y-11220000D02*
X15545125Y-11220000D01*
X15402875Y-11492000D02*
X15545125Y-11492000D01*
%TO.C,C27*%
X14742710Y-8369625D02*
X14714594Y-8369625D01*
X14742710Y-8471626D02*
X14714594Y-8471626D01*
%TO.C,J3*%
X16789000Y-8156000D02*
X17549000Y-8156000D01*
X17549000Y-9546000D01*
X16789000Y-9546000D01*
X16789000Y-8156000D01*
%TO.C,R21*%
X15142726Y-7641250D02*
X15095274Y-7641250D01*
X15142726Y-7745750D02*
X15095274Y-7745750D01*
%TO.C,R19*%
X16117726Y-10543750D02*
X16070274Y-10543750D01*
X16117726Y-10648250D02*
X16070274Y-10648250D01*
%TO.C,R25*%
X15671750Y-7857226D02*
X15671750Y-7809774D01*
X15776250Y-7857226D02*
X15776250Y-7809774D01*
%TO.C,K1*%
X15908750Y-8038500D02*
X15908750Y-8133500D01*
X15908750Y-9128500D02*
X15908750Y-9033500D01*
X15908750Y-9128500D02*
X16658750Y-9128500D01*
X16658750Y-8038500D02*
X15908750Y-8038500D01*
X16658750Y-8038500D02*
X16658750Y-8133500D01*
X16658750Y-9128500D02*
X16658750Y-9033500D01*
D11*
X16749250Y-8049500D02*
G75*
G02*
X16724250Y-8049500I-12500J0D01*
G01*
X16724250Y-8049500D02*
G75*
G02*
X16749250Y-8049500I12500J0D01*
G01*
%TO.C,C31*%
D10*
X12158000Y-8306942D02*
X12158000Y-8335058D01*
X12260000Y-8306942D02*
X12260000Y-8335058D01*
%TO.C,R15*%
X12449250Y-8727226D02*
X12449250Y-8679774D01*
X12553750Y-8727226D02*
X12553750Y-8679774D01*
%TO.C,U6*%
X12414380Y-8204750D02*
X12589380Y-8204750D01*
X12414380Y-8509750D02*
X12589380Y-8509750D01*
D11*
X12291880Y-8259750D02*
G75*
G02*
X12266880Y-8259750I-12500J0D01*
G01*
X12266880Y-8259750D02*
G75*
G02*
X12291880Y-8259750I12500J0D01*
G01*
%TO.C,C6*%
D10*
X12517442Y-11342500D02*
X12545558Y-11342500D01*
X12517442Y-11444500D02*
X12545558Y-11444500D01*
%TO.C,C26*%
X16553000Y-10834875D02*
X16553000Y-10977125D01*
X16735000Y-10834875D02*
X16735000Y-10977125D01*
%TO.C,R10*%
X14752726Y-7926250D02*
X14705274Y-7926250D01*
X14752726Y-8030750D02*
X14705274Y-8030750D01*
%TO.C,R17*%
X16367774Y-10396250D02*
X16415226Y-10396250D01*
X16367774Y-10500750D02*
X16415226Y-10500750D01*
%TO.C,J4*%
X14247000Y-9470000D02*
X14747000Y-9470000D01*
X14247000Y-9658500D02*
X14247000Y-9471000D01*
X14247000Y-10297500D02*
X14247000Y-10485000D01*
X14747000Y-9658500D02*
X14747000Y-9471000D01*
X14747000Y-10297500D02*
X14747000Y-10485000D01*
X14747000Y-10486000D02*
X14247000Y-10486000D01*
D11*
X14179500Y-9760500D02*
G75*
G02*
X14154500Y-9760500I-12500J0D01*
G01*
X14154500Y-9760500D02*
G75*
G02*
X14179500Y-9760500I12500J0D01*
G01*
%TO.C,R1*%
D10*
X14434250Y-8194774D02*
X14434250Y-8242226D01*
X14538750Y-8194774D02*
X14538750Y-8242226D01*
%TO.C,C21*%
X12867875Y-8172500D02*
X13010125Y-8172500D01*
X12867875Y-8354500D02*
X13010125Y-8354500D01*
%TD*%
M02*
