%TF.GenerationSoftware,KiCad,Pcbnew,10.0.0*%
%TF.CreationDate,2026-04-06T21:24:33+02:00*%
%TF.ProjectId,BT,42542e6b-6963-4616-945f-706362585858,rev?*%
%TF.SameCoordinates,Original*%
%TF.FileFunction,Copper,L2,Inr*%
%TF.FilePolarity,Positive*%
%FSLAX45Y45*%
G04 Gerber Fmt 4.5, Leading zero omitted, Abs format (unit mm)*
G04 Created by KiCad (PCBNEW 10.0.0) date 2026-04-06 21:24:33*
%MOMM*%
%LPD*%
G01*
G04 APERTURE LIST*
G04 Aperture macros list*
%AMRoundRect*
0 Rectangle with rounded corners*
0 $1 Rounding radius*
0 $2 $3 $4 $5 $6 $7 $8 $9 X,Y pos of 4 corners*
0 Add a 4 corners polygon primitive as box body*
4,1,4,$2,$3,$4,$5,$6,$7,$8,$9,$2,$3,0*
0 Add four circle primitives for the rounded corners*
1,1,$1+$1,$2,$3*
1,1,$1+$1,$4,$5*
1,1,$1+$1,$6,$7*
1,1,$1+$1,$8,$9*
0 Add four rect primitives between the rounded corners*
20,1,$1+$1,$2,$3,$4,$5,0*
20,1,$1+$1,$4,$5,$6,$7,0*
20,1,$1+$1,$6,$7,$8,$9,0*
20,1,$1+$1,$8,$9,$2,$3,0*%
G04 Aperture macros list end*
%TA.AperFunction,ComponentPad*%
%ADD10C,0.500000*%
%TD*%
%TA.AperFunction,ComponentPad*%
%ADD11R,1.650000X1.650000*%
%TD*%
%TA.AperFunction,ComponentPad*%
%ADD12C,1.650000*%
%TD*%
%TA.AperFunction,ComponentPad*%
%ADD13RoundRect,0.250000X0.625000X-0.350000X0.625000X0.350000X-0.625000X0.350000X-0.625000X-0.350000X0*%
%TD*%
%TA.AperFunction,ComponentPad*%
%ADD14O,1.750000X1.200000*%
%TD*%
%TA.AperFunction,HeatsinkPad*%
%ADD15C,0.600000*%
%TD*%
%TA.AperFunction,ComponentPad*%
%ADD16C,1.800000*%
%TD*%
%TA.AperFunction,ViaPad*%
%ADD17C,0.600000*%
%TD*%
%TA.AperFunction,Conductor*%
%ADD18C,0.400000*%
%TD*%
%TA.AperFunction,Conductor*%
%ADD19C,0.200000*%
%TD*%
G04 APERTURE END LIST*
D10*
%TO.N,+3V3*%
%TO.C,U4*%
X15316000Y-11026000D03*
X15316000Y-11126000D03*
X15411000Y-11030000D03*
X15411000Y-11112000D03*
%TO.N,unconnected-(U4-SW-Pad5)_3*%
X15567000Y-11030000D03*
%TO.N,unconnected-(U4-SW-Pad5)_1*%
X15567000Y-11112000D03*
%TO.N,unconnected-(U4-SW-Pad5)*%
X15662000Y-11026000D03*
%TO.N,unconnected-(U4-SW-Pad5)_4*%
X15662000Y-11126000D03*
%TO.N,GND*%
X15489000Y-10848000D03*
X15489000Y-10948000D03*
X15489000Y-11048000D03*
X15489000Y-11148000D03*
%TD*%
D11*
%TO.N,+3V3*%
%TO.C,J1*%
X13080000Y-9096000D03*
D12*
%TO.N,/BCK*%
X13334000Y-9096000D03*
%TO.N,/DIN*%
X13588000Y-9096000D03*
%TO.N,/LRCK*%
X13842000Y-9096000D03*
%TO.N,GND*%
X14096000Y-9096000D03*
%TD*%
D10*
%TO.N,+6V*%
%TO.C,U5*%
X16376000Y-11026000D03*
X16376000Y-11126000D03*
X16471000Y-11030000D03*
X16471000Y-11112000D03*
%TO.N,unconnected-(U5-SW-Pad5)*%
X16627000Y-11030000D03*
%TO.N,unconnected-(U5-SW-Pad5)_2*%
X16627000Y-11112000D03*
%TO.N,unconnected-(U5-SW-Pad5)_1*%
X16722000Y-11026000D03*
%TO.N,unconnected-(U5-SW-Pad5)_4*%
X16722000Y-11126000D03*
%TO.N,GND*%
X16549000Y-10848000D03*
X16549000Y-10948000D03*
X16549000Y-11048000D03*
X16549000Y-11148000D03*
%TD*%
D13*
%TO.N,/LED_CON*%
%TO.C,J2*%
X16915000Y-10311000D03*
D14*
%TO.N,/BUTTON_CON*%
X16915000Y-10111000D03*
%TO.N,GND*%
X16915000Y-9911000D03*
%TD*%
D15*
%TO.N,GND*%
%TO.C,U2*%
X12922000Y-10544750D03*
X13062000Y-10544750D03*
X12852000Y-10474750D03*
X12992000Y-10474750D03*
X13132000Y-10474750D03*
X12922000Y-10404750D03*
X13062000Y-10404750D03*
X12852000Y-10334750D03*
X12992000Y-10334750D03*
X13132000Y-10334750D03*
X12922000Y-10264750D03*
X13062000Y-10264750D03*
%TD*%
D16*
%TO.N,GND*%
%TO.C,TP1*%
X15279000Y-9521000D03*
%TD*%
D13*
%TO.N,/KL30*%
%TO.C,J3*%
X16914000Y-9371000D03*
D14*
%TO.N,GND*%
X16914000Y-9171000D03*
%TO.N,/R_OUT*%
X16914000Y-8971000D03*
%TO.N,/L_OUT*%
X16914000Y-8771000D03*
%TO.N,/R_IN*%
X16914000Y-8571000D03*
%TO.N,/L_IN*%
X16914000Y-8371000D03*
%TD*%
D16*
%TO.N,Net-(C15-Pad2)*%
%TO.C,TP3*%
X15994000Y-9521000D03*
%TD*%
%TO.N,Net-(C14-Pad2)*%
%TO.C,TP2*%
X16579000Y-9521000D03*
%TD*%
D17*
%TO.N,+3V3*%
X13909000Y-11471000D03*
X12404000Y-8781000D03*
X15458645Y-11270645D03*
X12319000Y-11281000D03*
X12451500Y-11493500D03*
X14396500Y-8723500D03*
X14024000Y-8166000D03*
X14689000Y-10791000D03*
X15458645Y-11380645D03*
X12209000Y-8151000D03*
X15896500Y-10523500D03*
X15458645Y-11500645D03*
X12409000Y-11281000D03*
X13211500Y-11493500D03*
%TO.N,+12V*%
X16866500Y-8016000D03*
X16144000Y-10401000D03*
%TO.N,GND*%
X15973645Y-11261355D03*
X12969000Y-8261000D03*
X13959000Y-8483500D03*
X16214000Y-11261711D03*
X15609000Y-9198500D03*
X13894000Y-8166000D03*
X16259355Y-10523500D03*
X15182568Y-11177661D03*
X14969000Y-9251000D03*
X12149000Y-11129774D03*
X13861500Y-10823500D03*
X12316500Y-8528500D03*
X15419000Y-8406000D03*
X14729000Y-8891000D03*
X12234000Y-9508500D03*
X14164000Y-8391000D03*
X12799000Y-9068500D03*
X14279000Y-10001000D03*
X16559355Y-10523500D03*
X12509000Y-8531000D03*
X15169355Y-11501355D03*
X14291500Y-8941000D03*
X17029000Y-11081000D03*
X16819000Y-11281000D03*
X14719000Y-8501000D03*
X15219000Y-10721000D03*
X13409000Y-8831000D03*
X15144355Y-10526355D03*
X15988645Y-11185645D03*
X12751500Y-11493500D03*
X15169355Y-11261355D03*
X14924000Y-7846000D03*
X14729000Y-9051000D03*
X16128645Y-11185645D03*
X12611500Y-11493500D03*
X13799000Y-8916000D03*
X13503458Y-8162939D03*
X15068645Y-11188500D03*
X14386500Y-8976000D03*
X13199000Y-8331000D03*
X14918645Y-11185645D03*
X13199000Y-8191000D03*
X13331500Y-7711000D03*
X12501074Y-8356576D03*
X15179000Y-8361000D03*
X16811500Y-11500645D03*
X15779000Y-11191000D03*
X13051500Y-7666000D03*
X14311500Y-8388500D03*
X15179000Y-8051000D03*
X16889000Y-11191000D03*
X12169000Y-8528500D03*
X15439355Y-10526355D03*
X13909000Y-11321000D03*
X15279000Y-8611000D03*
X12235002Y-11004568D03*
X12151500Y-11493500D03*
X15898645Y-11185645D03*
X15979000Y-11501000D03*
X14891500Y-8893500D03*
X14699000Y-10001000D03*
X16219355Y-11501355D03*
X13862596Y-7691000D03*
%TO.N,/SW_TO_BT_AUDIO*%
X12689000Y-10411000D03*
X16159000Y-7731000D03*
%TO.N,Net-(R24-Pad1)*%
X15046500Y-9056000D03*
X15344000Y-8201000D03*
%TO.N,Net-(R25-Pad1)*%
X15819000Y-8346000D03*
X15284000Y-9281000D03*
%TO.N,/SCK*%
X13529000Y-8483500D03*
X12501500Y-8898500D03*
%TO.N,/MCLK*%
X12746500Y-9171000D03*
X13632536Y-9503209D03*
%TO.N,Net-(C14-Pad2)*%
X14726500Y-7691000D03*
X15284000Y-8853500D03*
%TO.N,Net-(U3B-+)*%
X15416500Y-7967500D03*
X15139000Y-8531000D03*
%TO.N,/ESP_EN*%
X14289000Y-10411000D03*
X14289000Y-10761000D03*
X12904000Y-11293500D03*
%TO.N,Net-(C8-Pad1)*%
X15589000Y-7841000D03*
X14486500Y-8703500D03*
%TO.N,/DAC_MCLK_EN*%
X13124000Y-10968500D03*
X12169000Y-8878500D03*
%TO.N,+6V*%
X14819000Y-9318500D03*
X17116500Y-10621355D03*
X16519000Y-11381000D03*
%TO.N,/DAC_FLT*%
X13286500Y-8818500D03*
X13211500Y-9616000D03*
%TO.N,/DAC_MUTEn*%
X13829000Y-8483500D03*
X12359000Y-9601000D03*
X12796500Y-8718500D03*
%TO.N,/BUTTON_CON*%
X13346500Y-11493500D03*
%TO.N,/LED*%
X16621500Y-10021000D03*
X13504000Y-10973500D03*
%TD*%
%TO.N,+12V*%
D18*
X16144000Y-10401000D02*
X17181500Y-9363500D01*
X17181500Y-9363500D02*
X17181500Y-8331000D01*
X17181500Y-8331000D02*
X16866500Y-8016000D01*
%TO.N,/MCLK*%
D19*
X12746500Y-9171000D02*
X13078709Y-9503209D01*
X13078709Y-9503209D02*
X13632536Y-9503209D01*
%TO.N,Net-(C14-Pad2)*%
X14726500Y-8296000D02*
X14726500Y-7691000D01*
X15911500Y-8853500D02*
X16529000Y-9471000D01*
X15284000Y-8853500D02*
X15911500Y-8853500D01*
X15284000Y-8853500D02*
X14726500Y-8296000D01*
%TD*%
%TA.AperFunction,Conductor*%
%TO.N,GND*%
G36*
X17541733Y-7591572D02*
G01*
X17542902Y-7591997D01*
X17547434Y-7595799D01*
X17547791Y-7596417D01*
X17548950Y-7600743D01*
X17548950Y-11540775D01*
X17548428Y-11543734D01*
X17548003Y-11544902D01*
X17544201Y-11549433D01*
X17543719Y-11549712D01*
X17543583Y-11549790D01*
X17539257Y-11550950D01*
X15501529Y-11550950D01*
X15498570Y-11550428D01*
X15497757Y-11550132D01*
X15497634Y-11550088D01*
X15493102Y-11546284D01*
X15492075Y-11540457D01*
X15492128Y-11540154D01*
X15494530Y-11535540D01*
X15495262Y-11534809D01*
X15498695Y-11531376D01*
X15505284Y-11519963D01*
X15508695Y-11507234D01*
X15508695Y-11494055D01*
X15505284Y-11481326D01*
X15498695Y-11469913D01*
X15489376Y-11460595D01*
X15477963Y-11454005D01*
X15465234Y-11450595D01*
X15465234Y-11450595D01*
X15452055Y-11450595D01*
X15452055Y-11450595D01*
X15449654Y-11451238D01*
X15439451Y-11453972D01*
X15439334Y-11454001D01*
X15439327Y-11454005D01*
X15439326Y-11454005D01*
X15427913Y-11460595D01*
X15418595Y-11469913D01*
X15412005Y-11481326D01*
X15412005Y-11481327D01*
X15412001Y-11481334D01*
X15411972Y-11481451D01*
X15409596Y-11490319D01*
X15408595Y-11494055D01*
X15408595Y-11507234D01*
X15411383Y-11517639D01*
X15411839Y-11519341D01*
X15412005Y-11519963D01*
X15418595Y-11531376D01*
X15422324Y-11535105D01*
X15424047Y-11537566D01*
X15424467Y-11538468D01*
X15424983Y-11544362D01*
X15421592Y-11549208D01*
X15421340Y-11549384D01*
X15416376Y-11550950D01*
X13380901Y-11550950D01*
X13377942Y-11550428D01*
X13377615Y-11550309D01*
X13377129Y-11550132D01*
X13372597Y-11546329D01*
X13371570Y-11540501D01*
X13373972Y-11535888D01*
X13374246Y-11535614D01*
X13376037Y-11534239D01*
X13377231Y-11533550D01*
X13386550Y-11524231D01*
X13393139Y-11512819D01*
X13396550Y-11500089D01*
X13396550Y-11486911D01*
X13393139Y-11474181D01*
X13387498Y-11464411D01*
X13858950Y-11464411D01*
X13858950Y-11477589D01*
X13862361Y-11490319D01*
X13868950Y-11501731D01*
X13878269Y-11511050D01*
X13889681Y-11517639D01*
X13902411Y-11521050D01*
X13902411Y-11521050D01*
X13915589Y-11521050D01*
X13915589Y-11521050D01*
X13928319Y-11517639D01*
X13939731Y-11511050D01*
X13949050Y-11501731D01*
X13955639Y-11490319D01*
X13959050Y-11477589D01*
X13959050Y-11464411D01*
X13955639Y-11451681D01*
X13949050Y-11440269D01*
X13949050Y-11440268D01*
X13949050Y-11440268D01*
X13939732Y-11430950D01*
X13939731Y-11430950D01*
X13939731Y-11430950D01*
X13939731Y-11430950D01*
X13939289Y-11430695D01*
X13939289Y-11430694D01*
X13929305Y-11424930D01*
X13928849Y-11424580D01*
X13927788Y-11424141D01*
X13927219Y-11424066D01*
X13923563Y-11423087D01*
X13915589Y-11420950D01*
X13915589Y-11420950D01*
X13902411Y-11420950D01*
X13902411Y-11420950D01*
X13900009Y-11421593D01*
X13889806Y-11424327D01*
X13889690Y-11424356D01*
X13889682Y-11424360D01*
X13889681Y-11424361D01*
X13878268Y-11430950D01*
X13868950Y-11440268D01*
X13862439Y-11451546D01*
X13862439Y-11451546D01*
X13862361Y-11451681D01*
X13862361Y-11451681D01*
X13862361Y-11451681D01*
X13858950Y-11464411D01*
X13387498Y-11464411D01*
X13386550Y-11462769D01*
X13377231Y-11453450D01*
X13365819Y-11446861D01*
X13353089Y-11443450D01*
X13353089Y-11443450D01*
X13339911Y-11443450D01*
X13339911Y-11443450D01*
X13337509Y-11444093D01*
X13327306Y-11446827D01*
X13327190Y-11446856D01*
X13327182Y-11446860D01*
X13327181Y-11446861D01*
X13315768Y-11453450D01*
X13306450Y-11462768D01*
X13299861Y-11474181D01*
X13299860Y-11474182D01*
X13299856Y-11474190D01*
X13299827Y-11474306D01*
X13297944Y-11481334D01*
X13296450Y-11486911D01*
X13296450Y-11500089D01*
X13299861Y-11512819D01*
X13299861Y-11512819D01*
X13306450Y-11524231D01*
X13315769Y-11533550D01*
X13316628Y-11534046D01*
X13318857Y-11536702D01*
X13320697Y-11538542D01*
X13320823Y-11539974D01*
X13320898Y-11540289D01*
X13320852Y-11540300D01*
X13321215Y-11544436D01*
X13317823Y-11549284D01*
X13315100Y-11550554D01*
X13314954Y-11550594D01*
X13314726Y-11550655D01*
X13312485Y-11550950D01*
X13245901Y-11550950D01*
X13242942Y-11550428D01*
X13242615Y-11550309D01*
X13242129Y-11550132D01*
X13237597Y-11546329D01*
X13236570Y-11540501D01*
X13238972Y-11535888D01*
X13239246Y-11535614D01*
X13241037Y-11534239D01*
X13242231Y-11533550D01*
X13251550Y-11524231D01*
X13258139Y-11512819D01*
X13261550Y-11500089D01*
X13261550Y-11486911D01*
X13258139Y-11474181D01*
X13251550Y-11462769D01*
X13242231Y-11453450D01*
X13230819Y-11446861D01*
X13218089Y-11443450D01*
X13218089Y-11443450D01*
X13204911Y-11443450D01*
X13204911Y-11443450D01*
X13202509Y-11444093D01*
X13192306Y-11446827D01*
X13192190Y-11446856D01*
X13192182Y-11446860D01*
X13192181Y-11446861D01*
X13180768Y-11453450D01*
X13171450Y-11462768D01*
X13164861Y-11474181D01*
X13164860Y-11474182D01*
X13164856Y-11474190D01*
X13164827Y-11474306D01*
X13162944Y-11481334D01*
X13161450Y-11486911D01*
X13161450Y-11500089D01*
X13164861Y-11512819D01*
X13164861Y-11512819D01*
X13171450Y-11524231D01*
X13180769Y-11533550D01*
X13181628Y-11534046D01*
X13183857Y-11536702D01*
X13185697Y-11538542D01*
X13185823Y-11539974D01*
X13185898Y-11540289D01*
X13185852Y-11540300D01*
X13186215Y-11544436D01*
X13182823Y-11549284D01*
X13180100Y-11550554D01*
X13179954Y-11550594D01*
X13179726Y-11550655D01*
X13177485Y-11550950D01*
X12485901Y-11550950D01*
X12482942Y-11550428D01*
X12482615Y-11550309D01*
X12482129Y-11550132D01*
X12477597Y-11546329D01*
X12476570Y-11540501D01*
X12478972Y-11535888D01*
X12479246Y-11535614D01*
X12481037Y-11534239D01*
X12482231Y-11533550D01*
X12491550Y-11524231D01*
X12498139Y-11512819D01*
X12501550Y-11500089D01*
X12501550Y-11486911D01*
X12498139Y-11474181D01*
X12491550Y-11462769D01*
X12482231Y-11453450D01*
X12470819Y-11446861D01*
X12458089Y-11443450D01*
X12458089Y-11443450D01*
X12444911Y-11443450D01*
X12444911Y-11443450D01*
X12442509Y-11444093D01*
X12432306Y-11446827D01*
X12432190Y-11446856D01*
X12432182Y-11446860D01*
X12432181Y-11446861D01*
X12420768Y-11453450D01*
X12411450Y-11462768D01*
X12404861Y-11474181D01*
X12404860Y-11474182D01*
X12404856Y-11474190D01*
X12404827Y-11474306D01*
X12402944Y-11481334D01*
X12401450Y-11486911D01*
X12401450Y-11500089D01*
X12404861Y-11512819D01*
X12404861Y-11512819D01*
X12411450Y-11524231D01*
X12420769Y-11533550D01*
X12421628Y-11534046D01*
X12423857Y-11536702D01*
X12425697Y-11538542D01*
X12425823Y-11539974D01*
X12425898Y-11540289D01*
X12425852Y-11540300D01*
X12426215Y-11544436D01*
X12422823Y-11549284D01*
X12420100Y-11550554D01*
X12419954Y-11550594D01*
X12419726Y-11550655D01*
X12417485Y-11550950D01*
X12099225Y-11550950D01*
X12096266Y-11550428D01*
X12095098Y-11550003D01*
X12090566Y-11546200D01*
X12090209Y-11545582D01*
X12089050Y-11541257D01*
X12089050Y-11274411D01*
X12268950Y-11274411D01*
X12268950Y-11287589D01*
X12269047Y-11287952D01*
X12269047Y-11287952D01*
X12272361Y-11300318D01*
X12272361Y-11300319D01*
X12277072Y-11308478D01*
X12277072Y-11308478D01*
X12278950Y-11311731D01*
X12288269Y-11321050D01*
X12299681Y-11327639D01*
X12312411Y-11331050D01*
X12312411Y-11331050D01*
X12325589Y-11331050D01*
X12325589Y-11331050D01*
X12338319Y-11327639D01*
X12349731Y-11321050D01*
X12356805Y-11313976D01*
X12359266Y-11312253D01*
X12360393Y-11311728D01*
X12366287Y-11311212D01*
X12366976Y-11311397D01*
X12370854Y-11313636D01*
X12378269Y-11321050D01*
X12389681Y-11327639D01*
X12402411Y-11331050D01*
X12402411Y-11331050D01*
X12415589Y-11331050D01*
X12415589Y-11331050D01*
X12428319Y-11327639D01*
X12439731Y-11321050D01*
X12449050Y-11311731D01*
X12455639Y-11300319D01*
X12459050Y-11287589D01*
X12459050Y-11286911D01*
X12853950Y-11286911D01*
X12853950Y-11300089D01*
X12857069Y-11311731D01*
X12857361Y-11312819D01*
X12859854Y-11317137D01*
X12863950Y-11324231D01*
X12873269Y-11333550D01*
X12884681Y-11340139D01*
X12897411Y-11343550D01*
X12897411Y-11343550D01*
X12910589Y-11343550D01*
X12910589Y-11343550D01*
X12923319Y-11340139D01*
X12934731Y-11333550D01*
X12944050Y-11324231D01*
X12950639Y-11312819D01*
X12954050Y-11300089D01*
X12954050Y-11286911D01*
X12950639Y-11274181D01*
X12944793Y-11264055D01*
X15408595Y-11264055D01*
X15408595Y-11277234D01*
X15412005Y-11289963D01*
X15418595Y-11301376D01*
X15427913Y-11310695D01*
X15433597Y-11313976D01*
X15436268Y-11315518D01*
X15439072Y-11317137D01*
X15440700Y-11318875D01*
X15442969Y-11320186D01*
X15444993Y-11325746D01*
X15442969Y-11331306D01*
X15440668Y-11333237D01*
X15439854Y-11333707D01*
X15439777Y-11333745D01*
X15427913Y-11340595D01*
X15418595Y-11349913D01*
X15412005Y-11361326D01*
X15412005Y-11361327D01*
X15412001Y-11361334D01*
X15411972Y-11361451D01*
X15408595Y-11374055D01*
X15408595Y-11387234D01*
X15410161Y-11393079D01*
X15412005Y-11399963D01*
X15418595Y-11411376D01*
X15427913Y-11420694D01*
X15427913Y-11420694D01*
X15432090Y-11423106D01*
X15439326Y-11427284D01*
X15452055Y-11430695D01*
X15452056Y-11430695D01*
X15465234Y-11430695D01*
X15465234Y-11430695D01*
X15477963Y-11427284D01*
X15489376Y-11420695D01*
X15498695Y-11411376D01*
X15505284Y-11399963D01*
X15508695Y-11387234D01*
X15508695Y-11374411D01*
X16468950Y-11374411D01*
X16468950Y-11387589D01*
X16472361Y-11400319D01*
X16478950Y-11411731D01*
X16488269Y-11421050D01*
X16499681Y-11427639D01*
X16512411Y-11431050D01*
X16512411Y-11431050D01*
X16525589Y-11431050D01*
X16525589Y-11431050D01*
X16538319Y-11427639D01*
X16549731Y-11421050D01*
X16559050Y-11411731D01*
X16565639Y-11400319D01*
X16569050Y-11387589D01*
X16569050Y-11374411D01*
X16565639Y-11361681D01*
X16559050Y-11350269D01*
X16549731Y-11340950D01*
X16538319Y-11334361D01*
X16525589Y-11330950D01*
X16525589Y-11330950D01*
X16512411Y-11330950D01*
X16512411Y-11330950D01*
X16511082Y-11331306D01*
X16499806Y-11334327D01*
X16499690Y-11334356D01*
X16499682Y-11334360D01*
X16499681Y-11334361D01*
X16488268Y-11340950D01*
X16478950Y-11350268D01*
X16472439Y-11361546D01*
X16472439Y-11361546D01*
X16472361Y-11361681D01*
X16472361Y-11361681D01*
X16472361Y-11361681D01*
X16468950Y-11374411D01*
X15508695Y-11374411D01*
X15508695Y-11374055D01*
X15505284Y-11361326D01*
X15498695Y-11349913D01*
X15498694Y-11349913D01*
X15498694Y-11349913D01*
X15489376Y-11340595D01*
X15489375Y-11340594D01*
X15488587Y-11340139D01*
X15488587Y-11340139D01*
X15478950Y-11334575D01*
X15478704Y-11334427D01*
X15477546Y-11333707D01*
X15477486Y-11333630D01*
X15477156Y-11333449D01*
X15475984Y-11332629D01*
X15472591Y-11327782D01*
X15473106Y-11321888D01*
X15476620Y-11318052D01*
X15477429Y-11317586D01*
X15477506Y-11317548D01*
X15477963Y-11317284D01*
X15489376Y-11310695D01*
X15498695Y-11301376D01*
X15505284Y-11289963D01*
X15508695Y-11277234D01*
X15508695Y-11264055D01*
X15507180Y-11258403D01*
X17108950Y-11258403D01*
X17108950Y-11283597D01*
X17112891Y-11308478D01*
X17112891Y-11308480D01*
X17120675Y-11332436D01*
X17120676Y-11332437D01*
X17120676Y-11332437D01*
X17120676Y-11332438D01*
X17120676Y-11332439D01*
X17129761Y-11350269D01*
X17132112Y-11354883D01*
X17132113Y-11354884D01*
X17132113Y-11354884D01*
X17146921Y-11375266D01*
X17164734Y-11393079D01*
X17185116Y-11407887D01*
X17207562Y-11419324D01*
X17211780Y-11420695D01*
X17231520Y-11427109D01*
X17231521Y-11427109D01*
X17231522Y-11427109D01*
X17231552Y-11427114D01*
X17231552Y-11427114D01*
X17256403Y-11431050D01*
X17256403Y-11431050D01*
X17256404Y-11431050D01*
X17256404Y-11431050D01*
X17281596Y-11431050D01*
X17281596Y-11431050D01*
X17306479Y-11427109D01*
X17306479Y-11427109D01*
X17306480Y-11427109D01*
X17306483Y-11427108D01*
X17306532Y-11427095D01*
X17306660Y-11427050D01*
X17317686Y-11423467D01*
X17330438Y-11419324D01*
X17352885Y-11407887D01*
X17373266Y-11393079D01*
X17391079Y-11375266D01*
X17405887Y-11354884D01*
X17417324Y-11332438D01*
X17421305Y-11320186D01*
X17422248Y-11317284D01*
X17423988Y-11311929D01*
X17425109Y-11308480D01*
X17425109Y-11308479D01*
X17425109Y-11308478D01*
X17429050Y-11283596D01*
X17429050Y-11258404D01*
X17427577Y-11249102D01*
X17425109Y-11233521D01*
X17425109Y-11233519D01*
X17425104Y-11233506D01*
X17420909Y-11220595D01*
X17417416Y-11209844D01*
X17417370Y-11209685D01*
X17417324Y-11209562D01*
X17417324Y-11209562D01*
X17417324Y-11209562D01*
X17417324Y-11209561D01*
X17405887Y-11187115D01*
X17391079Y-11166734D01*
X17373266Y-11148921D01*
X17359903Y-11139212D01*
X17353436Y-11134513D01*
X17353435Y-11134513D01*
X17352884Y-11134113D01*
X17330440Y-11122677D01*
X17330439Y-11122676D01*
X17330438Y-11122676D01*
X17330437Y-11122676D01*
X17330437Y-11122676D01*
X17330436Y-11122675D01*
X17306480Y-11114891D01*
X17306478Y-11114891D01*
X17281597Y-11110950D01*
X17281597Y-11110950D01*
X17281596Y-11110950D01*
X17256404Y-11110950D01*
X17256403Y-11110950D01*
X17256403Y-11110950D01*
X17231522Y-11114891D01*
X17231520Y-11114891D01*
X17207564Y-11122675D01*
X17207562Y-11122676D01*
X17207560Y-11122677D01*
X17185116Y-11134113D01*
X17184565Y-11134513D01*
X17184564Y-11134513D01*
X17180824Y-11137231D01*
X17164734Y-11148921D01*
X17164734Y-11148921D01*
X17146921Y-11166734D01*
X17132513Y-11186564D01*
X17132513Y-11186565D01*
X17132113Y-11187116D01*
X17120677Y-11209560D01*
X17120676Y-11209562D01*
X17120675Y-11209564D01*
X17112891Y-11233520D01*
X17112891Y-11233522D01*
X17108950Y-11258403D01*
X15507180Y-11258403D01*
X15505284Y-11251326D01*
X15498695Y-11239913D01*
X15489376Y-11230595D01*
X15477963Y-11224005D01*
X15465234Y-11220595D01*
X15465234Y-11220595D01*
X15452055Y-11220595D01*
X15452055Y-11220595D01*
X15449654Y-11221238D01*
X15439451Y-11223972D01*
X15439334Y-11224001D01*
X15439327Y-11224005D01*
X15439326Y-11224005D01*
X15427913Y-11230595D01*
X15418595Y-11239913D01*
X15412083Y-11251191D01*
X15412083Y-11251191D01*
X15412005Y-11251326D01*
X15412005Y-11251326D01*
X15412005Y-11251326D01*
X15408595Y-11264055D01*
X12944793Y-11264055D01*
X12944050Y-11262769D01*
X12934731Y-11253450D01*
X12928879Y-11250071D01*
X12924305Y-11247430D01*
X12923849Y-11247080D01*
X12922788Y-11246641D01*
X12922219Y-11246566D01*
X12918563Y-11245587D01*
X12910589Y-11243450D01*
X12910589Y-11243450D01*
X12897411Y-11243450D01*
X12897411Y-11243450D01*
X12895009Y-11244093D01*
X12884806Y-11246827D01*
X12884690Y-11246856D01*
X12884682Y-11246860D01*
X12884681Y-11246861D01*
X12873268Y-11253450D01*
X12863950Y-11262768D01*
X12857439Y-11274046D01*
X12857439Y-11274046D01*
X12857361Y-11274181D01*
X12857361Y-11274181D01*
X12857361Y-11274181D01*
X12853950Y-11286911D01*
X12459050Y-11286911D01*
X12459050Y-11274411D01*
X12455639Y-11261681D01*
X12449050Y-11250269D01*
X12439731Y-11240950D01*
X12437935Y-11239913D01*
X12428319Y-11234361D01*
X12428319Y-11234361D01*
X12428319Y-11234361D01*
X12415589Y-11230950D01*
X12415589Y-11230950D01*
X12402411Y-11230950D01*
X12402411Y-11230950D01*
X12400009Y-11231593D01*
X12389806Y-11234327D01*
X12389690Y-11234356D01*
X12389682Y-11234360D01*
X12389681Y-11234361D01*
X12378269Y-11240950D01*
X12371195Y-11248023D01*
X12368734Y-11249747D01*
X12367607Y-11250272D01*
X12361713Y-11250788D01*
X12361024Y-11250603D01*
X12357146Y-11248364D01*
X12349731Y-11240950D01*
X12339796Y-11235214D01*
X12339796Y-11235214D01*
X12338319Y-11234361D01*
X12338319Y-11234361D01*
X12338319Y-11234361D01*
X12336671Y-11233919D01*
X12336671Y-11233919D01*
X12330717Y-11232324D01*
X12325589Y-11230950D01*
X12325589Y-11230950D01*
X12312411Y-11230950D01*
X12312411Y-11230950D01*
X12310009Y-11231593D01*
X12299806Y-11234327D01*
X12299690Y-11234356D01*
X12299682Y-11234360D01*
X12299681Y-11234361D01*
X12288268Y-11240950D01*
X12278950Y-11250268D01*
X12272439Y-11261546D01*
X12272439Y-11261546D01*
X12272361Y-11261681D01*
X12272361Y-11261681D01*
X12272361Y-11261681D01*
X12268950Y-11274411D01*
X12089050Y-11274411D01*
X12089050Y-10961911D01*
X13073950Y-10961911D01*
X13073950Y-10975089D01*
X13075387Y-10980452D01*
X13077361Y-10987819D01*
X13079145Y-10990910D01*
X13083950Y-10999231D01*
X13093269Y-11008550D01*
X13104681Y-11015139D01*
X13117411Y-11018550D01*
X13117411Y-11018550D01*
X13130589Y-11018550D01*
X13130589Y-11018550D01*
X13143319Y-11015139D01*
X13154731Y-11008550D01*
X13164050Y-10999231D01*
X13170639Y-10987819D01*
X13174050Y-10975089D01*
X13174050Y-10966911D01*
X13453950Y-10966911D01*
X13453950Y-10980089D01*
X13454047Y-10980452D01*
X13454047Y-10980452D01*
X13456075Y-10988020D01*
X13456075Y-10988020D01*
X13457361Y-10992819D01*
X13457361Y-10992819D01*
X13460548Y-10998339D01*
X13463950Y-11004231D01*
X13473269Y-11013550D01*
X13484681Y-11020139D01*
X13497411Y-11023550D01*
X13497411Y-11023550D01*
X13510589Y-11023550D01*
X13510589Y-11023550D01*
X13523319Y-11020139D01*
X13523442Y-11020068D01*
X15270950Y-11020068D01*
X15270950Y-11031932D01*
X15274020Y-11043388D01*
X15274020Y-11043388D01*
X15277146Y-11048802D01*
X15279951Y-11053661D01*
X15279951Y-11053661D01*
X15288339Y-11062049D01*
X15293248Y-11064884D01*
X15297894Y-11067566D01*
X15299412Y-11068679D01*
X15300539Y-11069712D01*
X15303271Y-11074960D01*
X15301990Y-11080736D01*
X15301785Y-11081059D01*
X15298814Y-11083903D01*
X15288338Y-11089951D01*
X15279951Y-11098338D01*
X15274020Y-11108612D01*
X15270950Y-11120068D01*
X15270950Y-11131932D01*
X15273598Y-11141816D01*
X15274020Y-11143389D01*
X15276711Y-11148049D01*
X15279951Y-11153661D01*
X15288339Y-11162049D01*
X15293606Y-11165090D01*
X15295282Y-11167088D01*
X15298611Y-11167980D01*
X15298611Y-11167980D01*
X15298611Y-11167980D01*
X15310069Y-11171050D01*
X15310069Y-11171050D01*
X15310069Y-11171050D01*
X15321931Y-11171050D01*
X15321989Y-11171041D01*
X15322180Y-11170983D01*
X15324353Y-11170401D01*
X15333389Y-11167980D01*
X15343661Y-11162049D01*
X15352049Y-11153661D01*
X15357980Y-11143389D01*
X15358242Y-11142410D01*
X15359511Y-11139688D01*
X15360083Y-11138872D01*
X15364930Y-11135478D01*
X15370824Y-11135994D01*
X15370825Y-11135994D01*
X15371103Y-11136124D01*
X15374534Y-11139268D01*
X15374606Y-11139212D01*
X15374922Y-11139624D01*
X15374937Y-11139638D01*
X15374951Y-11139661D01*
X15383339Y-11148049D01*
X15388606Y-11151090D01*
X15390282Y-11153088D01*
X15393611Y-11153980D01*
X15393611Y-11153980D01*
X15393611Y-11153980D01*
X15405069Y-11157050D01*
X15405069Y-11157050D01*
X15405069Y-11157050D01*
X15416931Y-11157050D01*
X15416989Y-11157041D01*
X15417180Y-11156983D01*
X15419353Y-11156401D01*
X15428389Y-11153980D01*
X15438661Y-11148049D01*
X15447049Y-11139661D01*
X15452980Y-11129389D01*
X15456050Y-11117931D01*
X15456050Y-11106069D01*
X15456050Y-11106068D01*
X15452980Y-11094611D01*
X15450289Y-11089951D01*
X15447049Y-11084339D01*
X15440905Y-11078195D01*
X15439182Y-11075734D01*
X15438656Y-11074607D01*
X15438141Y-11068713D01*
X15438326Y-11068024D01*
X15440565Y-11064146D01*
X15442661Y-11062049D01*
X15442661Y-11062049D01*
X15447049Y-11057661D01*
X15452980Y-11047389D01*
X15456050Y-11035931D01*
X15456050Y-11024069D01*
X15456050Y-11024069D01*
X15456050Y-11024069D01*
X15456050Y-11024068D01*
X15521950Y-11024068D01*
X15521950Y-11035932D01*
X15525015Y-11047371D01*
X15525020Y-11047389D01*
X15528642Y-11053661D01*
X15530951Y-11057661D01*
X15537095Y-11063805D01*
X15538818Y-11066266D01*
X15539343Y-11067393D01*
X15539859Y-11073287D01*
X15539859Y-11073288D01*
X15539674Y-11073977D01*
X15537435Y-11077854D01*
X15530951Y-11084338D01*
X15525020Y-11094612D01*
X15521950Y-11106068D01*
X15521950Y-11117932D01*
X15525020Y-11129388D01*
X15525020Y-11129389D01*
X15527748Y-11134113D01*
X15530951Y-11139661D01*
X15539339Y-11148049D01*
X15544606Y-11151090D01*
X15546282Y-11153088D01*
X15549611Y-11153980D01*
X15549611Y-11153980D01*
X15549611Y-11153980D01*
X15561069Y-11157050D01*
X15561069Y-11157050D01*
X15561069Y-11157050D01*
X15572931Y-11157050D01*
X15572989Y-11157041D01*
X15573180Y-11156983D01*
X15575353Y-11156401D01*
X15584389Y-11153980D01*
X15594661Y-11148049D01*
X15603049Y-11139661D01*
X15603049Y-11139661D01*
X15603373Y-11139239D01*
X15604674Y-11137879D01*
X15605447Y-11137231D01*
X15611007Y-11135207D01*
X15616567Y-11137230D01*
X15616567Y-11137230D01*
X15616803Y-11137428D01*
X15619598Y-11141816D01*
X15620020Y-11143388D01*
X15620020Y-11143389D01*
X15621864Y-11146582D01*
X15623214Y-11148921D01*
X15625951Y-11153661D01*
X15634339Y-11162049D01*
X15639606Y-11165090D01*
X15641282Y-11167088D01*
X15644611Y-11167980D01*
X15644611Y-11167980D01*
X15644611Y-11167980D01*
X15656069Y-11171050D01*
X15656069Y-11171050D01*
X15656069Y-11171050D01*
X15667931Y-11171050D01*
X15667989Y-11171041D01*
X15668180Y-11170983D01*
X15670353Y-11170401D01*
X15679389Y-11167980D01*
X15689661Y-11162049D01*
X15698049Y-11153661D01*
X15703980Y-11143389D01*
X15707050Y-11131931D01*
X15707050Y-11120069D01*
X15707050Y-11120068D01*
X15703980Y-11108611D01*
X15700713Y-11102952D01*
X15698049Y-11098339D01*
X15689661Y-11089951D01*
X15680106Y-11084435D01*
X15678588Y-11083321D01*
X15677461Y-11082289D01*
X15674729Y-11077040D01*
X15676009Y-11071264D01*
X15676215Y-11070941D01*
X15679185Y-11068097D01*
X15679388Y-11067980D01*
X15679389Y-11067980D01*
X15689661Y-11062049D01*
X15698049Y-11053661D01*
X15703980Y-11043389D01*
X15707050Y-11031931D01*
X15707050Y-11020069D01*
X15707050Y-11020069D01*
X15707050Y-11020069D01*
X15707050Y-11020069D01*
X15707050Y-11020068D01*
X16330950Y-11020068D01*
X16330950Y-11031932D01*
X16334020Y-11043388D01*
X16334020Y-11043388D01*
X16337146Y-11048802D01*
X16339951Y-11053661D01*
X16339951Y-11053661D01*
X16348339Y-11062049D01*
X16353248Y-11064884D01*
X16357894Y-11067566D01*
X16359412Y-11068679D01*
X16360539Y-11069712D01*
X16363271Y-11074960D01*
X16361990Y-11080736D01*
X16361785Y-11081059D01*
X16358814Y-11083903D01*
X16348338Y-11089951D01*
X16339951Y-11098338D01*
X16334020Y-11108612D01*
X16330950Y-11120068D01*
X16330950Y-11131932D01*
X16333598Y-11141816D01*
X16334020Y-11143389D01*
X16336711Y-11148049D01*
X16339951Y-11153661D01*
X16348339Y-11162049D01*
X16353606Y-11165090D01*
X16355282Y-11167088D01*
X16358611Y-11167980D01*
X16358611Y-11167980D01*
X16358611Y-11167980D01*
X16370069Y-11171050D01*
X16370069Y-11171050D01*
X16370069Y-11171050D01*
X16381931Y-11171050D01*
X16381989Y-11171041D01*
X16382180Y-11170983D01*
X16384353Y-11170401D01*
X16393389Y-11167980D01*
X16403661Y-11162049D01*
X16412049Y-11153661D01*
X16417980Y-11143389D01*
X16418242Y-11142410D01*
X16419511Y-11139688D01*
X16420083Y-11138872D01*
X16424930Y-11135478D01*
X16430824Y-11135994D01*
X16430825Y-11135994D01*
X16431103Y-11136124D01*
X16434534Y-11139268D01*
X16434606Y-11139212D01*
X16434922Y-11139624D01*
X16434937Y-11139638D01*
X16434951Y-11139661D01*
X16443339Y-11148049D01*
X16448606Y-11151090D01*
X16450282Y-11153088D01*
X16453611Y-11153980D01*
X16453611Y-11153980D01*
X16453611Y-11153980D01*
X16465069Y-11157050D01*
X16465069Y-11157050D01*
X16465069Y-11157050D01*
X16476931Y-11157050D01*
X16476989Y-11157041D01*
X16477180Y-11156983D01*
X16479353Y-11156401D01*
X16488389Y-11153980D01*
X16498661Y-11148049D01*
X16507049Y-11139661D01*
X16512980Y-11129389D01*
X16516050Y-11117931D01*
X16516050Y-11106069D01*
X16516050Y-11106068D01*
X16512980Y-11094611D01*
X16510289Y-11089951D01*
X16507049Y-11084339D01*
X16500905Y-11078195D01*
X16499182Y-11075734D01*
X16498656Y-11074607D01*
X16498141Y-11068713D01*
X16498326Y-11068024D01*
X16500565Y-11064146D01*
X16502661Y-11062049D01*
X16502661Y-11062049D01*
X16507049Y-11057661D01*
X16512980Y-11047389D01*
X16516050Y-11035931D01*
X16516050Y-11024069D01*
X16516050Y-11024069D01*
X16516050Y-11024069D01*
X16516050Y-11024068D01*
X16581950Y-11024068D01*
X16581950Y-11035932D01*
X16585015Y-11047371D01*
X16585020Y-11047389D01*
X16588642Y-11053661D01*
X16590951Y-11057661D01*
X16597095Y-11063805D01*
X16598818Y-11066266D01*
X16599343Y-11067393D01*
X16599859Y-11073287D01*
X16599859Y-11073288D01*
X16599674Y-11073977D01*
X16597435Y-11077854D01*
X16590951Y-11084338D01*
X16585020Y-11094612D01*
X16581950Y-11106068D01*
X16581950Y-11117932D01*
X16585020Y-11129388D01*
X16585020Y-11129389D01*
X16587748Y-11134113D01*
X16590951Y-11139661D01*
X16599339Y-11148049D01*
X16604606Y-11151090D01*
X16606282Y-11153088D01*
X16609611Y-11153980D01*
X16609611Y-11153980D01*
X16609611Y-11153980D01*
X16621069Y-11157050D01*
X16621069Y-11157050D01*
X16621069Y-11157050D01*
X16632931Y-11157050D01*
X16632989Y-11157041D01*
X16633180Y-11156983D01*
X16635353Y-11156401D01*
X16644389Y-11153980D01*
X16654661Y-11148049D01*
X16663049Y-11139661D01*
X16663049Y-11139661D01*
X16663373Y-11139239D01*
X16664674Y-11137879D01*
X16665447Y-11137231D01*
X16671007Y-11135207D01*
X16676567Y-11137230D01*
X16676567Y-11137230D01*
X16676803Y-11137428D01*
X16679598Y-11141816D01*
X16680020Y-11143388D01*
X16680020Y-11143389D01*
X16681864Y-11146582D01*
X16683214Y-11148921D01*
X16685951Y-11153661D01*
X16694339Y-11162049D01*
X16699606Y-11165090D01*
X16701282Y-11167088D01*
X16704611Y-11167980D01*
X16704611Y-11167980D01*
X16704611Y-11167980D01*
X16716069Y-11171050D01*
X16716069Y-11171050D01*
X16716069Y-11171050D01*
X16727931Y-11171050D01*
X16727989Y-11171041D01*
X16728180Y-11170983D01*
X16730353Y-11170401D01*
X16739389Y-11167980D01*
X16749661Y-11162049D01*
X16758049Y-11153661D01*
X16763980Y-11143389D01*
X16767050Y-11131931D01*
X16767050Y-11120069D01*
X16767050Y-11120068D01*
X16763980Y-11108611D01*
X16760713Y-11102952D01*
X16758049Y-11098339D01*
X16749661Y-11089951D01*
X16740106Y-11084435D01*
X16738588Y-11083321D01*
X16737461Y-11082289D01*
X16734729Y-11077040D01*
X16736009Y-11071264D01*
X16736215Y-11070941D01*
X16739185Y-11068097D01*
X16739388Y-11067980D01*
X16739389Y-11067980D01*
X16749661Y-11062049D01*
X16758049Y-11053661D01*
X16763980Y-11043389D01*
X16767050Y-11031931D01*
X16767050Y-11020069D01*
X16767050Y-11020069D01*
X16767050Y-11020069D01*
X16763980Y-11008611D01*
X16760358Y-11002339D01*
X16758049Y-10998339D01*
X16749661Y-10989951D01*
X16749661Y-10989951D01*
X16744394Y-10986910D01*
X16742718Y-10984912D01*
X16739389Y-10984020D01*
X16727931Y-10980950D01*
X16727931Y-10980950D01*
X16716068Y-10980950D01*
X16704611Y-10984020D01*
X16694338Y-10989951D01*
X16685951Y-10998339D01*
X16681599Y-11005877D01*
X16679668Y-11008178D01*
X16678906Y-11008817D01*
X16678905Y-11008818D01*
X16673345Y-11010842D01*
X16667785Y-11008818D01*
X16667785Y-11008817D01*
X16667022Y-11008177D01*
X16665092Y-11005877D01*
X16663049Y-11002339D01*
X16654661Y-10993951D01*
X16649394Y-10990910D01*
X16647718Y-10988912D01*
X16644389Y-10988020D01*
X16632931Y-10984950D01*
X16632931Y-10984950D01*
X16621068Y-10984950D01*
X16609611Y-10988020D01*
X16599338Y-10993951D01*
X16590951Y-11002338D01*
X16585020Y-11012612D01*
X16581950Y-11024068D01*
X16516050Y-11024068D01*
X16512980Y-11012611D01*
X16510790Y-11008818D01*
X16507049Y-11002339D01*
X16498661Y-10993951D01*
X16498661Y-10993951D01*
X16493394Y-10990910D01*
X16491718Y-10988912D01*
X16488389Y-10988020D01*
X16476931Y-10984950D01*
X16476931Y-10984950D01*
X16465068Y-10984950D01*
X16453611Y-10988020D01*
X16443338Y-10993951D01*
X16434951Y-11002339D01*
X16434916Y-11002387D01*
X16434821Y-11002564D01*
X16432908Y-11005877D01*
X16430978Y-11008178D01*
X16430461Y-11008612D01*
X16430215Y-11008818D01*
X16424655Y-11010842D01*
X16419095Y-11008818D01*
X16419094Y-11008818D01*
X16418332Y-11008178D01*
X16416401Y-11005877D01*
X16412049Y-10998339D01*
X16403661Y-10989951D01*
X16403661Y-10989951D01*
X16398394Y-10986910D01*
X16396718Y-10984912D01*
X16393389Y-10984020D01*
X16381931Y-10980950D01*
X16381931Y-10980950D01*
X16370068Y-10980950D01*
X16358611Y-10984020D01*
X16348338Y-10989951D01*
X16339951Y-10998338D01*
X16334020Y-11008612D01*
X16330950Y-11020068D01*
X15707050Y-11020068D01*
X15703980Y-11008611D01*
X15700358Y-11002339D01*
X15698049Y-10998339D01*
X15689661Y-10989951D01*
X15689661Y-10989951D01*
X15684394Y-10986910D01*
X15682718Y-10984912D01*
X15679389Y-10984020D01*
X15667931Y-10980950D01*
X15667931Y-10980950D01*
X15656068Y-10980950D01*
X15644611Y-10984020D01*
X15634338Y-10989951D01*
X15625951Y-10998339D01*
X15621599Y-11005877D01*
X15619668Y-11008178D01*
X15618906Y-11008817D01*
X15618905Y-11008818D01*
X15613345Y-11010842D01*
X15607785Y-11008818D01*
X15607785Y-11008817D01*
X15607022Y-11008177D01*
X15605092Y-11005877D01*
X15603049Y-11002339D01*
X15594661Y-10993951D01*
X15589394Y-10990910D01*
X15587718Y-10988912D01*
X15584389Y-10988020D01*
X15572931Y-10984950D01*
X15572931Y-10984950D01*
X15561068Y-10984950D01*
X15549611Y-10988020D01*
X15539338Y-10993951D01*
X15530951Y-11002338D01*
X15525020Y-11012612D01*
X15521950Y-11024068D01*
X15456050Y-11024068D01*
X15452980Y-11012611D01*
X15450790Y-11008818D01*
X15447049Y-11002339D01*
X15438661Y-10993951D01*
X15438661Y-10993951D01*
X15433394Y-10990910D01*
X15431718Y-10988912D01*
X15428389Y-10988020D01*
X15416931Y-10984950D01*
X15416931Y-10984950D01*
X15405068Y-10984950D01*
X15393611Y-10988020D01*
X15383338Y-10993951D01*
X15374951Y-11002339D01*
X15374916Y-11002387D01*
X15374821Y-11002564D01*
X15372908Y-11005877D01*
X15370978Y-11008178D01*
X15370461Y-11008612D01*
X15370215Y-11008818D01*
X15364655Y-11010842D01*
X15359095Y-11008818D01*
X15359094Y-11008818D01*
X15358332Y-11008178D01*
X15356401Y-11005877D01*
X15352049Y-10998339D01*
X15343661Y-10989951D01*
X15343661Y-10989951D01*
X15338394Y-10986910D01*
X15336718Y-10984912D01*
X15333389Y-10984020D01*
X15321931Y-10980950D01*
X15321931Y-10980950D01*
X15310068Y-10980950D01*
X15298611Y-10984020D01*
X15288338Y-10989951D01*
X15279951Y-10998338D01*
X15274020Y-11008612D01*
X15270950Y-11020068D01*
X13523442Y-11020068D01*
X13534731Y-11013550D01*
X13544050Y-11004231D01*
X13550639Y-10992819D01*
X13554050Y-10980089D01*
X13554050Y-10966911D01*
X13550639Y-10954181D01*
X13544050Y-10942769D01*
X13534731Y-10933450D01*
X13523319Y-10926861D01*
X13510589Y-10923450D01*
X13510589Y-10923450D01*
X13497411Y-10923450D01*
X13497411Y-10923450D01*
X13495009Y-10924093D01*
X13484806Y-10926827D01*
X13484690Y-10926857D01*
X13484682Y-10926860D01*
X13484681Y-10926861D01*
X13473268Y-10933450D01*
X13463950Y-10942768D01*
X13457439Y-10954046D01*
X13457439Y-10954046D01*
X13457361Y-10954181D01*
X13457361Y-10954181D01*
X13457361Y-10954181D01*
X13453950Y-10966911D01*
X13174050Y-10966911D01*
X13174050Y-10961911D01*
X13170639Y-10949181D01*
X13164050Y-10937769D01*
X13154731Y-10928450D01*
X13143319Y-10921861D01*
X13130589Y-10918450D01*
X13130589Y-10918450D01*
X13117411Y-10918450D01*
X13117411Y-10918450D01*
X13115009Y-10919093D01*
X13104806Y-10921827D01*
X13104690Y-10921857D01*
X13104682Y-10921860D01*
X13104681Y-10921861D01*
X13093268Y-10928450D01*
X13083950Y-10937768D01*
X13077439Y-10949046D01*
X13077439Y-10949046D01*
X13077361Y-10949181D01*
X13077361Y-10949181D01*
X13077361Y-10949181D01*
X13073950Y-10961911D01*
X12089050Y-10961911D01*
X12089050Y-10754411D01*
X14238950Y-10754411D01*
X14238950Y-10767589D01*
X14239047Y-10767952D01*
X14239047Y-10767952D01*
X14240046Y-10771681D01*
X14242361Y-10780319D01*
X14242361Y-10780319D01*
X14248950Y-10791731D01*
X14258269Y-10801050D01*
X14269681Y-10807639D01*
X14282411Y-10811050D01*
X14282411Y-10811050D01*
X14295589Y-10811050D01*
X14295589Y-10811050D01*
X14308319Y-10807639D01*
X14319731Y-10801050D01*
X14329050Y-10791731D01*
X14333277Y-10784411D01*
X14638950Y-10784411D01*
X14638950Y-10797589D01*
X14642361Y-10810319D01*
X14648950Y-10821731D01*
X14658269Y-10831050D01*
X14669681Y-10837639D01*
X14682411Y-10841050D01*
X14682411Y-10841050D01*
X14695589Y-10841050D01*
X14695589Y-10841050D01*
X14708319Y-10837639D01*
X14719731Y-10831050D01*
X14729050Y-10821731D01*
X14735639Y-10810319D01*
X14739050Y-10797589D01*
X14739050Y-10784411D01*
X14735639Y-10771681D01*
X14729050Y-10760269D01*
X14719731Y-10750950D01*
X14708319Y-10744361D01*
X14695589Y-10740950D01*
X14695589Y-10740950D01*
X14682411Y-10740950D01*
X14682411Y-10740950D01*
X14680186Y-10741546D01*
X14669806Y-10744327D01*
X14669690Y-10744357D01*
X14669682Y-10744360D01*
X14669681Y-10744361D01*
X14658268Y-10750950D01*
X14648950Y-10760268D01*
X14642439Y-10771546D01*
X14642439Y-10771546D01*
X14642361Y-10771681D01*
X14642361Y-10771681D01*
X14642361Y-10771681D01*
X14638950Y-10784411D01*
X14333277Y-10784411D01*
X14335639Y-10780319D01*
X14339050Y-10767589D01*
X14339050Y-10754411D01*
X14335639Y-10741681D01*
X14329050Y-10730269D01*
X14319731Y-10720950D01*
X14308319Y-10714361D01*
X14295589Y-10710950D01*
X14295589Y-10710950D01*
X14282411Y-10710950D01*
X14282411Y-10710950D01*
X14280009Y-10711593D01*
X14269806Y-10714327D01*
X14269690Y-10714357D01*
X14269682Y-10714360D01*
X14269681Y-10714361D01*
X14258268Y-10720950D01*
X14248950Y-10730268D01*
X14242439Y-10741546D01*
X14242439Y-10741546D01*
X14242361Y-10741681D01*
X14242361Y-10741681D01*
X14242361Y-10741681D01*
X14238950Y-10754411D01*
X12089050Y-10754411D01*
X12089050Y-10614766D01*
X17066450Y-10614766D01*
X17066450Y-10627945D01*
X17069861Y-10640674D01*
X17076450Y-10652087D01*
X17085769Y-10661405D01*
X17097181Y-10667995D01*
X17109911Y-10671405D01*
X17109911Y-10671405D01*
X17123089Y-10671405D01*
X17123089Y-10671405D01*
X17135819Y-10667995D01*
X17147231Y-10661405D01*
X17156550Y-10652087D01*
X17163139Y-10640674D01*
X17166550Y-10627945D01*
X17166550Y-10614766D01*
X17163139Y-10602037D01*
X17156550Y-10590624D01*
X17147231Y-10581305D01*
X17135819Y-10574716D01*
X17123089Y-10571305D01*
X17123089Y-10571305D01*
X17109911Y-10571305D01*
X17109911Y-10571305D01*
X17107509Y-10571949D01*
X17097306Y-10574683D01*
X17097190Y-10574712D01*
X17097182Y-10574716D01*
X17097181Y-10574716D01*
X17085768Y-10581305D01*
X17076450Y-10590624D01*
X17069939Y-10601901D01*
X17069939Y-10601902D01*
X17069861Y-10602037D01*
X17069861Y-10602037D01*
X17069861Y-10602037D01*
X17066450Y-10614766D01*
X12089050Y-10614766D01*
X12089050Y-10516911D01*
X15846450Y-10516911D01*
X15846450Y-10530089D01*
X15849861Y-10542819D01*
X15856450Y-10554231D01*
X15865769Y-10563550D01*
X15877181Y-10570139D01*
X15889911Y-10573550D01*
X15889911Y-10573550D01*
X15903089Y-10573550D01*
X15903089Y-10573550D01*
X15915819Y-10570139D01*
X15927231Y-10563550D01*
X15936550Y-10554231D01*
X15943139Y-10542819D01*
X15946550Y-10530089D01*
X15946550Y-10516911D01*
X15943139Y-10504181D01*
X15936550Y-10492769D01*
X15927231Y-10483450D01*
X15915819Y-10476861D01*
X15903089Y-10473450D01*
X15903089Y-10473450D01*
X15889911Y-10473450D01*
X15889911Y-10473450D01*
X15887509Y-10474093D01*
X15877306Y-10476827D01*
X15877190Y-10476857D01*
X15877182Y-10476860D01*
X15877181Y-10476861D01*
X15865768Y-10483450D01*
X15856450Y-10492768D01*
X15849939Y-10504046D01*
X15849939Y-10504046D01*
X15849861Y-10504181D01*
X15849861Y-10504181D01*
X15849861Y-10504181D01*
X15846450Y-10516911D01*
X12089050Y-10516911D01*
X12089050Y-10404411D01*
X12638950Y-10404411D01*
X12638950Y-10417589D01*
X12642259Y-10429939D01*
X12642361Y-10430319D01*
X12643176Y-10431731D01*
X12648950Y-10441731D01*
X12658269Y-10451050D01*
X12669681Y-10457639D01*
X12682411Y-10461050D01*
X12682411Y-10461050D01*
X12695589Y-10461050D01*
X12695589Y-10461050D01*
X12708319Y-10457639D01*
X12719731Y-10451050D01*
X12729050Y-10441731D01*
X12735639Y-10430319D01*
X12739050Y-10417589D01*
X12739050Y-10404411D01*
X14238950Y-10404411D01*
X14238950Y-10417589D01*
X14242259Y-10429939D01*
X14242361Y-10430319D01*
X14243176Y-10431731D01*
X14248950Y-10441731D01*
X14258269Y-10451050D01*
X14269681Y-10457639D01*
X14282411Y-10461050D01*
X14282411Y-10461050D01*
X14295589Y-10461050D01*
X14295589Y-10461050D01*
X14308319Y-10457639D01*
X14319731Y-10451050D01*
X14329050Y-10441731D01*
X14335639Y-10430319D01*
X14339050Y-10417589D01*
X14339050Y-10404411D01*
X14336370Y-10394411D01*
X16093950Y-10394411D01*
X16093950Y-10407589D01*
X16095237Y-10412391D01*
X16097361Y-10420319D01*
X16102718Y-10429598D01*
X16103950Y-10431731D01*
X16113269Y-10441050D01*
X16124681Y-10447639D01*
X16137411Y-10451050D01*
X16137411Y-10451050D01*
X16150589Y-10451050D01*
X16150589Y-10451050D01*
X16163319Y-10447639D01*
X16174731Y-10441050D01*
X16184050Y-10431731D01*
X16184269Y-10431352D01*
X16185350Y-10429939D01*
X16185337Y-10429928D01*
X16185605Y-10429599D01*
X16185606Y-10429598D01*
X16196504Y-10413202D01*
X16196966Y-10412473D01*
X16197017Y-10412389D01*
X16197451Y-10411638D01*
X16199232Y-10408396D01*
X16199405Y-10408095D01*
X16201626Y-10404411D01*
X16204433Y-10399756D01*
X16205314Y-10398545D01*
X16215176Y-10387208D01*
X16215717Y-10386298D01*
X16217033Y-10384606D01*
X16331065Y-10270574D01*
X16807450Y-10270574D01*
X16807450Y-10351426D01*
X16807450Y-10351428D01*
X16807450Y-10351429D01*
X16807450Y-10351431D01*
X16807735Y-10354469D01*
X16807735Y-10354469D01*
X16807735Y-10354470D01*
X16809835Y-10360470D01*
X16812220Y-10367287D01*
X16812221Y-10367288D01*
X16814420Y-10370269D01*
X16820285Y-10378215D01*
X16831212Y-10386279D01*
X16844030Y-10390765D01*
X16847073Y-10391050D01*
X16847074Y-10391050D01*
X16982926Y-10391050D01*
X16982927Y-10391050D01*
X16985970Y-10390765D01*
X16998788Y-10386279D01*
X17009715Y-10378215D01*
X17017779Y-10367288D01*
X17022265Y-10354470D01*
X17022550Y-10351427D01*
X17022550Y-10270573D01*
X17022265Y-10267530D01*
X17017779Y-10254712D01*
X17009715Y-10243785D01*
X16998788Y-10235721D01*
X16998788Y-10235721D01*
X16998788Y-10235721D01*
X16998788Y-10235721D01*
X16991092Y-10233028D01*
X16985970Y-10231235D01*
X16985970Y-10231235D01*
X16985970Y-10231235D01*
X16985018Y-10231146D01*
X16985018Y-10231146D01*
X16983137Y-10230970D01*
X16983036Y-10230958D01*
X16982928Y-10230950D01*
X16982927Y-10230950D01*
X16982927Y-10230950D01*
X16847073Y-10230950D01*
X16847073Y-10230950D01*
X16847072Y-10230950D01*
X16846963Y-10230958D01*
X16846863Y-10230970D01*
X16844031Y-10231235D01*
X16831212Y-10235721D01*
X16831212Y-10235721D01*
X16820286Y-10243784D01*
X16820284Y-10243786D01*
X16812221Y-10254712D01*
X16812221Y-10254712D01*
X16807735Y-10267531D01*
X16807450Y-10270569D01*
X16807450Y-10270571D01*
X16807450Y-10270572D01*
X16807450Y-10270574D01*
X16331065Y-10270574D01*
X16498524Y-10103115D01*
X16807450Y-10103115D01*
X16807450Y-10118885D01*
X16807505Y-10119160D01*
X16807505Y-10119161D01*
X16809338Y-10128373D01*
X16810526Y-10134349D01*
X16810526Y-10134350D01*
X16816561Y-10148918D01*
X16825321Y-10162029D01*
X16836471Y-10173179D01*
X16849582Y-10181939D01*
X16864150Y-10187974D01*
X16876590Y-10190448D01*
X16879615Y-10191050D01*
X16879615Y-10191050D01*
X16879616Y-10191050D01*
X16879616Y-10191050D01*
X16950384Y-10191050D01*
X16950384Y-10191050D01*
X16965850Y-10187974D01*
X16980418Y-10181939D01*
X16993529Y-10173179D01*
X17004679Y-10162029D01*
X17013439Y-10148918D01*
X17019474Y-10134350D01*
X17022550Y-10118884D01*
X17022550Y-10103116D01*
X17019474Y-10087650D01*
X17013439Y-10073082D01*
X17004679Y-10059971D01*
X16993529Y-10048821D01*
X16980418Y-10040061D01*
X16980417Y-10040060D01*
X16980417Y-10040060D01*
X16970238Y-10035844D01*
X16970234Y-10035842D01*
X16970117Y-10035794D01*
X16965850Y-10034026D01*
X16965849Y-10034026D01*
X16965010Y-10033859D01*
X16965010Y-10033859D01*
X16950385Y-10030950D01*
X16950385Y-10030950D01*
X16950384Y-10030950D01*
X16879616Y-10030950D01*
X16879615Y-10030950D01*
X16879615Y-10030950D01*
X16865036Y-10033850D01*
X16865036Y-10033850D01*
X16864151Y-10034026D01*
X16864150Y-10034026D01*
X16856476Y-10037205D01*
X16856404Y-10037235D01*
X16856397Y-10037238D01*
X16849582Y-10040061D01*
X16836472Y-10048821D01*
X16836471Y-10048821D01*
X16825321Y-10059971D01*
X16825321Y-10059971D01*
X16820197Y-10067639D01*
X16820197Y-10067639D01*
X16816561Y-10073081D01*
X16816560Y-10073083D01*
X16814061Y-10079116D01*
X16814061Y-10079116D01*
X16810565Y-10087556D01*
X16810565Y-10087557D01*
X16810526Y-10087650D01*
X16810526Y-10087651D01*
X16807450Y-10103115D01*
X16498524Y-10103115D01*
X16560855Y-10040784D01*
X16563316Y-10039061D01*
X16564443Y-10038535D01*
X16570336Y-10038020D01*
X16570575Y-10038084D01*
X16574714Y-10040595D01*
X16574901Y-10040798D01*
X16576015Y-10042318D01*
X16578781Y-10047108D01*
X16581450Y-10051731D01*
X16590769Y-10061050D01*
X16602181Y-10067639D01*
X16614911Y-10071050D01*
X16614911Y-10071050D01*
X16628089Y-10071050D01*
X16628089Y-10071050D01*
X16640819Y-10067639D01*
X16652231Y-10061050D01*
X16661550Y-10051731D01*
X16668139Y-10040319D01*
X16671550Y-10027589D01*
X16671550Y-10014411D01*
X16668139Y-10001681D01*
X16661550Y-9990269D01*
X16652231Y-9980950D01*
X16647608Y-9978281D01*
X16647070Y-9977970D01*
X16643317Y-9975803D01*
X16641017Y-9973873D01*
X16640217Y-9972920D01*
X16639695Y-9971487D01*
X16639514Y-9971271D01*
X16639514Y-9970989D01*
X16638194Y-9967360D01*
X16638194Y-9967112D01*
X16639549Y-9962464D01*
X16639697Y-9962232D01*
X16640875Y-9960764D01*
X16705639Y-9896000D01*
X16808916Y-9896000D01*
X16868961Y-9896000D01*
X16874522Y-9898024D01*
X16877480Y-9903148D01*
X16877611Y-9904650D01*
X16877611Y-9905647D01*
X16877500Y-9906063D01*
X16877500Y-9915937D01*
X16877611Y-9916353D01*
X16877611Y-9917350D01*
X16876782Y-9919629D01*
X16876257Y-9921998D01*
X16875789Y-9922356D01*
X16875588Y-9922910D01*
X16873487Y-9924123D01*
X16871563Y-9925600D01*
X16870699Y-9925733D01*
X16870464Y-9925869D01*
X16870161Y-9925815D01*
X16868961Y-9926000D01*
X16808916Y-9926000D01*
X16810574Y-9934335D01*
X16810575Y-9934337D01*
X16816605Y-9948894D01*
X16817078Y-9949602D01*
X16817078Y-9949602D01*
X16825360Y-9961997D01*
X16836503Y-9973140D01*
X16848897Y-9981422D01*
X16848898Y-9981422D01*
X16849372Y-9981739D01*
X16849606Y-9981895D01*
X16849606Y-9981895D01*
X16864164Y-9987925D01*
X16864165Y-9987926D01*
X16879620Y-9991000D01*
X16879621Y-9991000D01*
X16900000Y-9991000D01*
X16900000Y-9991000D01*
X16900000Y-9991000D01*
X16900000Y-9957039D01*
X16902024Y-9951479D01*
X16907148Y-9948520D01*
X16908650Y-9948389D01*
X16909647Y-9948389D01*
X16910063Y-9948500D01*
X16919937Y-9948500D01*
X16920353Y-9948389D01*
X16921350Y-9948389D01*
X16923629Y-9949218D01*
X16925998Y-9949743D01*
X16926356Y-9950211D01*
X16926910Y-9950412D01*
X16928123Y-9952513D01*
X16929600Y-9954437D01*
X16929733Y-9955301D01*
X16929869Y-9955537D01*
X16929815Y-9955839D01*
X16930000Y-9957039D01*
X16930000Y-9991000D01*
X16930000Y-9991000D01*
X16950379Y-9991000D01*
X16950379Y-9991000D01*
X16950380Y-9991000D01*
X16965835Y-9987926D01*
X16965836Y-9987925D01*
X16980394Y-9981895D01*
X16980394Y-9981895D01*
X16993497Y-9973140D01*
X17004640Y-9961997D01*
X17013395Y-9948894D01*
X17013395Y-9948894D01*
X17019425Y-9934336D01*
X17019426Y-9934335D01*
X17021084Y-9926000D01*
X16961039Y-9926000D01*
X16955479Y-9923976D01*
X16952520Y-9918852D01*
X16952389Y-9917350D01*
X16952389Y-9916353D01*
X16952500Y-9915937D01*
X16952500Y-9906063D01*
X16952389Y-9905647D01*
X16952389Y-9904650D01*
X16953218Y-9902371D01*
X16953743Y-9900003D01*
X16954211Y-9899644D01*
X16954412Y-9899090D01*
X16956513Y-9897877D01*
X16958437Y-9896400D01*
X16959301Y-9896267D01*
X16959537Y-9896131D01*
X16959839Y-9896185D01*
X16961039Y-9896000D01*
X17021084Y-9896000D01*
X17019426Y-9887665D01*
X17019425Y-9887664D01*
X17013395Y-9873106D01*
X17013395Y-9873106D01*
X17013178Y-9872781D01*
X17012922Y-9872398D01*
X17012922Y-9872397D01*
X17009691Y-9867562D01*
X17004640Y-9860003D01*
X16993497Y-9848860D01*
X16981103Y-9840578D01*
X16981102Y-9840578D01*
X16980394Y-9840105D01*
X16980394Y-9840105D01*
X16980394Y-9840105D01*
X16965837Y-9834075D01*
X16965835Y-9834074D01*
X16965835Y-9834074D01*
X16950380Y-9831000D01*
X16950380Y-9831000D01*
X16930000Y-9831000D01*
X16930000Y-9831000D01*
X16930000Y-9831000D01*
X16930000Y-9864961D01*
X16927976Y-9870521D01*
X16922852Y-9873480D01*
X16921350Y-9873611D01*
X16920352Y-9873611D01*
X16919937Y-9873500D01*
X16910063Y-9873500D01*
X16909648Y-9873611D01*
X16908650Y-9873611D01*
X16906370Y-9872781D01*
X16904002Y-9872256D01*
X16903643Y-9871789D01*
X16903090Y-9871588D01*
X16901877Y-9869487D01*
X16900400Y-9867562D01*
X16900267Y-9866699D01*
X16900131Y-9866463D01*
X16900185Y-9866161D01*
X16900000Y-9864961D01*
X16900000Y-9831000D01*
X16900000Y-9831000D01*
X16900000Y-9831000D01*
X16900000Y-9831000D01*
X16879620Y-9831000D01*
X16864165Y-9834074D01*
X16864165Y-9834074D01*
X16864163Y-9834075D01*
X16849606Y-9840105D01*
X16848897Y-9840578D01*
X16848890Y-9840583D01*
X16836503Y-9848860D01*
X16825360Y-9860003D01*
X16817078Y-9872397D01*
X16816605Y-9873106D01*
X16810575Y-9887663D01*
X16810574Y-9887665D01*
X16810574Y-9887665D01*
X16808916Y-9896000D01*
X16705639Y-9896000D01*
X17204875Y-9396764D01*
X17204875Y-9396764D01*
X17206091Y-9395548D01*
X17206091Y-9395548D01*
X17213548Y-9388091D01*
X17218821Y-9378959D01*
X17219303Y-9377161D01*
X17221550Y-9368773D01*
X17221550Y-9358227D01*
X17221550Y-9357698D01*
X17221550Y-9357581D01*
X17221550Y-9357574D01*
X17221550Y-8337251D01*
X17221550Y-8336971D01*
X17221550Y-8336969D01*
X17221550Y-8325727D01*
X17221550Y-8325727D01*
X17218821Y-8315541D01*
X17218821Y-8315541D01*
X17215168Y-8309215D01*
X17214727Y-8308450D01*
X17213548Y-8306409D01*
X17206091Y-8298952D01*
X17206091Y-8298952D01*
X17064728Y-8157589D01*
X16939110Y-8031971D01*
X16937855Y-8030380D01*
X16937201Y-8029315D01*
X16930819Y-8022421D01*
X16930259Y-8021752D01*
X16926828Y-8017202D01*
X16926272Y-8016368D01*
X16921805Y-8008745D01*
X16921772Y-8008688D01*
X16916645Y-7999734D01*
X16916176Y-7998956D01*
X16916120Y-7998868D01*
X16915610Y-7998101D01*
X16907853Y-7986981D01*
X16907607Y-7986636D01*
X16907578Y-7986596D01*
X16907578Y-7986596D01*
X16907578Y-7986596D01*
X16907459Y-7986464D01*
X16906909Y-7985708D01*
X16906895Y-7985718D01*
X16906550Y-7985269D01*
X16906550Y-7985269D01*
X16906550Y-7985268D01*
X16897232Y-7975950D01*
X16897232Y-7975950D01*
X16885819Y-7969361D01*
X16885819Y-7969361D01*
X16885819Y-7969361D01*
X16873089Y-7965950D01*
X16873089Y-7965950D01*
X16859911Y-7965950D01*
X16859911Y-7965950D01*
X16857509Y-7966593D01*
X16847306Y-7969327D01*
X16847190Y-7969356D01*
X16847182Y-7969360D01*
X16847181Y-7969361D01*
X16835768Y-7975950D01*
X16826450Y-7985268D01*
X16819861Y-7996681D01*
X16819860Y-7996682D01*
X16819857Y-7996690D01*
X16819827Y-7996806D01*
X16816858Y-8007887D01*
X16816450Y-8009411D01*
X16816450Y-8022589D01*
X16819861Y-8035319D01*
X16819861Y-8035319D01*
X16826450Y-8046731D01*
X16826450Y-8046732D01*
X16835768Y-8056050D01*
X16835769Y-8056050D01*
X16836000Y-8056184D01*
X16836147Y-8056269D01*
X16837561Y-8057350D01*
X16837572Y-8057337D01*
X16837902Y-8057606D01*
X16854298Y-8068504D01*
X16855026Y-8068966D01*
X16855027Y-8068967D01*
X16855113Y-8069019D01*
X16855860Y-8069450D01*
X16855862Y-8069451D01*
X16859103Y-8071231D01*
X16859404Y-8071405D01*
X16867744Y-8076432D01*
X16868955Y-8077314D01*
X16880292Y-8087176D01*
X16881202Y-8087717D01*
X16882894Y-8089034D01*
X17137838Y-8343977D01*
X17139561Y-8346438D01*
X17140640Y-8348751D01*
X17141450Y-8352406D01*
X17141450Y-9341802D01*
X17140928Y-9344761D01*
X17140056Y-9347159D01*
X17138044Y-9350317D01*
X16159970Y-10328390D01*
X16159516Y-10328813D01*
X16158982Y-10329275D01*
X16157316Y-10330298D01*
X16150317Y-10336778D01*
X16150206Y-10336874D01*
X16150178Y-10336884D01*
X16149752Y-10337241D01*
X16145203Y-10340671D01*
X16144369Y-10341227D01*
X16136748Y-10345693D01*
X16136674Y-10345736D01*
X16127733Y-10350856D01*
X16126948Y-10351329D01*
X16126861Y-10351384D01*
X16126100Y-10351890D01*
X16114977Y-10359649D01*
X16114622Y-10359903D01*
X16114591Y-10359925D01*
X16114460Y-10360043D01*
X16113707Y-10360591D01*
X16113718Y-10360605D01*
X16113269Y-10360950D01*
X16103950Y-10370268D01*
X16097439Y-10381546D01*
X16097439Y-10381546D01*
X16097361Y-10381681D01*
X16097361Y-10381681D01*
X16097361Y-10381681D01*
X16093950Y-10394411D01*
X14336370Y-10394411D01*
X14335639Y-10391681D01*
X14329050Y-10380269D01*
X14319731Y-10370950D01*
X14313389Y-10367288D01*
X14308319Y-10364361D01*
X14308319Y-10364361D01*
X14308319Y-10364361D01*
X14295589Y-10360950D01*
X14295589Y-10360950D01*
X14282411Y-10360950D01*
X14282411Y-10360950D01*
X14280009Y-10361593D01*
X14269806Y-10364327D01*
X14269690Y-10364357D01*
X14269682Y-10364360D01*
X14269681Y-10364361D01*
X14258268Y-10370950D01*
X14248950Y-10380268D01*
X14242439Y-10391546D01*
X14242439Y-10391546D01*
X14242361Y-10391681D01*
X14242361Y-10391681D01*
X14242361Y-10391681D01*
X14238950Y-10404411D01*
X12739050Y-10404411D01*
X12735639Y-10391681D01*
X12729050Y-10380269D01*
X12719731Y-10370950D01*
X12713389Y-10367288D01*
X12708319Y-10364361D01*
X12708319Y-10364361D01*
X12708319Y-10364361D01*
X12695589Y-10360950D01*
X12695589Y-10360950D01*
X12682411Y-10360950D01*
X12682411Y-10360950D01*
X12680009Y-10361593D01*
X12669806Y-10364327D01*
X12669690Y-10364357D01*
X12669682Y-10364360D01*
X12669681Y-10364361D01*
X12658268Y-10370950D01*
X12648950Y-10380268D01*
X12642439Y-10391546D01*
X12642439Y-10391546D01*
X12642361Y-10391681D01*
X12642361Y-10391681D01*
X12642361Y-10391681D01*
X12638950Y-10404411D01*
X12089050Y-10404411D01*
X12089050Y-9594411D01*
X12308950Y-9594411D01*
X12308950Y-9607589D01*
X12309047Y-9607952D01*
X12309047Y-9607952D01*
X12312361Y-9620318D01*
X12312361Y-9620319D01*
X12316992Y-9628340D01*
X12316992Y-9628340D01*
X12318950Y-9631731D01*
X12328269Y-9641050D01*
X12339681Y-9647639D01*
X12352411Y-9651050D01*
X12352411Y-9651050D01*
X12365589Y-9651050D01*
X12365589Y-9651050D01*
X12378319Y-9647639D01*
X12389731Y-9641050D01*
X12399050Y-9631731D01*
X12405639Y-9620319D01*
X12408562Y-9609411D01*
X13161450Y-9609411D01*
X13161450Y-9622589D01*
X13164861Y-9635319D01*
X13171450Y-9646731D01*
X13180769Y-9656050D01*
X13192181Y-9662639D01*
X13204911Y-9666050D01*
X13204911Y-9666050D01*
X13218089Y-9666050D01*
X13218089Y-9666050D01*
X13230819Y-9662639D01*
X13242231Y-9656050D01*
X13251550Y-9646731D01*
X13258139Y-9635319D01*
X13261550Y-9622589D01*
X13261550Y-9609411D01*
X13258139Y-9596681D01*
X13251550Y-9585269D01*
X13242231Y-9575950D01*
X13230819Y-9569361D01*
X13218089Y-9565950D01*
X13218089Y-9565950D01*
X13204911Y-9565950D01*
X13204911Y-9565950D01*
X13202509Y-9566593D01*
X13192306Y-9569327D01*
X13192190Y-9569357D01*
X13192182Y-9569360D01*
X13192181Y-9569361D01*
X13180768Y-9575950D01*
X13171450Y-9585268D01*
X13164939Y-9596546D01*
X13164939Y-9596546D01*
X13164861Y-9596681D01*
X13164861Y-9596681D01*
X13164861Y-9596681D01*
X13161450Y-9609411D01*
X12408562Y-9609411D01*
X12409050Y-9607589D01*
X12409050Y-9594411D01*
X12405639Y-9581681D01*
X12399050Y-9570269D01*
X12389731Y-9560950D01*
X12378319Y-9554361D01*
X12365589Y-9550950D01*
X12365589Y-9550950D01*
X12352411Y-9550950D01*
X12352411Y-9550950D01*
X12350263Y-9551526D01*
X12339806Y-9554327D01*
X12339690Y-9554357D01*
X12339682Y-9554360D01*
X12339681Y-9554361D01*
X12328268Y-9560950D01*
X12318950Y-9570268D01*
X12312439Y-9581546D01*
X12312439Y-9581546D01*
X12312361Y-9581681D01*
X12312361Y-9581681D01*
X12312361Y-9581681D01*
X12308950Y-9594411D01*
X12089050Y-9594411D01*
X12089050Y-9164411D01*
X12696450Y-9164411D01*
X12696450Y-9177589D01*
X12696547Y-9177952D01*
X12696547Y-9177952D01*
X12698939Y-9186878D01*
X12699861Y-9190319D01*
X12700577Y-9191559D01*
X12702338Y-9194609D01*
X12706450Y-9201731D01*
X12715769Y-9211050D01*
X12727181Y-9217639D01*
X12727182Y-9217639D01*
X12727793Y-9217803D01*
X12729443Y-9218476D01*
X12729446Y-9218470D01*
X12729637Y-9218555D01*
X12729793Y-9218618D01*
X12729834Y-9218641D01*
X12729835Y-9218641D01*
X12745413Y-9223731D01*
X12746168Y-9223962D01*
X12746255Y-9223987D01*
X12747030Y-9224191D01*
X12749411Y-9224770D01*
X12749545Y-9224803D01*
X12754065Y-9225986D01*
X12755079Y-9226320D01*
X12756959Y-9227070D01*
X12758420Y-9227822D01*
X12760723Y-9229299D01*
X12761819Y-9230131D01*
X12767154Y-9234900D01*
X12767154Y-9234900D01*
X12768185Y-9235528D01*
X12769802Y-9236799D01*
X13060258Y-9527255D01*
X13067110Y-9531211D01*
X13074753Y-9533259D01*
X13569703Y-9533259D01*
X13570487Y-9533295D01*
X13571158Y-9533356D01*
X13572882Y-9533789D01*
X13579596Y-9534123D01*
X13579771Y-9534139D01*
X13579821Y-9534162D01*
X13580604Y-9534256D01*
X13582477Y-9534613D01*
X13584393Y-9535215D01*
X13589773Y-9537623D01*
X13590714Y-9538117D01*
X13592280Y-9539064D01*
X13592280Y-9539064D01*
X13592287Y-9539067D01*
X13592367Y-9539116D01*
X13592382Y-9539125D01*
X13592560Y-9539230D01*
X13600093Y-9543637D01*
X13600095Y-9543638D01*
X13600096Y-9543639D01*
X13600874Y-9544072D01*
X13600965Y-9544120D01*
X13601363Y-9544319D01*
X13601753Y-9544514D01*
X13611141Y-9548967D01*
X13611547Y-9549154D01*
X13611561Y-9549160D01*
X13611594Y-9549175D01*
X13611607Y-9549181D01*
X13611608Y-9549181D01*
X13611801Y-9549244D01*
X13612689Y-9549641D01*
X13612694Y-9549631D01*
X13613217Y-9549848D01*
X13613217Y-9549848D01*
X13613218Y-9549848D01*
X13625947Y-9553259D01*
X13625947Y-9553259D01*
X13639125Y-9553259D01*
X13639126Y-9553259D01*
X13651855Y-9549848D01*
X13663268Y-9543259D01*
X13672586Y-9533940D01*
X13679176Y-9522528D01*
X13681905Y-9512342D01*
X15169000Y-9512342D01*
X15169000Y-9529658D01*
X15171709Y-9546759D01*
X15171709Y-9546760D01*
X15171709Y-9546760D01*
X15176320Y-9560950D01*
X15177059Y-9563225D01*
X15177059Y-9563226D01*
X15184919Y-9578652D01*
X15184920Y-9578653D01*
X15184920Y-9578653D01*
X15184921Y-9578655D01*
X15191322Y-9587465D01*
X15191322Y-9587465D01*
X15226921Y-9551865D01*
X15232284Y-9549364D01*
X15237999Y-9550896D01*
X15239154Y-9551865D01*
X15248135Y-9560845D01*
X15250635Y-9566208D01*
X15249104Y-9571923D01*
X15248135Y-9573078D01*
X15228520Y-9592693D01*
X15212535Y-9608678D01*
X15221347Y-9615080D01*
X15221347Y-9615080D01*
X15236774Y-9622941D01*
X15236775Y-9622941D01*
X15253240Y-9628291D01*
X15253241Y-9628291D01*
X15270342Y-9631000D01*
X15270343Y-9631000D01*
X15287657Y-9631000D01*
X15287657Y-9631000D01*
X15287658Y-9631000D01*
X15304758Y-9628291D01*
X15304760Y-9628291D01*
X15321082Y-9622987D01*
X15321223Y-9622942D01*
X15321223Y-9622942D01*
X15321225Y-9622941D01*
X15321226Y-9622941D01*
X15336651Y-9615081D01*
X15336653Y-9615080D01*
X15345465Y-9608678D01*
X15309865Y-9573078D01*
X15307364Y-9567716D01*
X15308896Y-9562001D01*
X15309864Y-9560846D01*
X15318845Y-9551865D01*
X15324208Y-9549365D01*
X15329923Y-9550896D01*
X15331078Y-9551865D01*
X15366678Y-9587465D01*
X15373061Y-9578679D01*
X15373079Y-9578654D01*
X15373079Y-9578654D01*
X15373080Y-9578653D01*
X15373081Y-9578652D01*
X15380941Y-9563226D01*
X15380941Y-9563225D01*
X15386291Y-9546760D01*
X15386291Y-9546758D01*
X15389000Y-9529658D01*
X15389000Y-9529657D01*
X15389000Y-9512343D01*
X15389000Y-9512342D01*
X15388999Y-9512338D01*
X15883950Y-9512338D01*
X15883950Y-9529662D01*
X15886660Y-9546770D01*
X15886660Y-9546771D01*
X15892012Y-9563243D01*
X15892012Y-9563243D01*
X15892012Y-9563244D01*
X15892013Y-9563245D01*
X15892013Y-9563246D01*
X15892014Y-9563247D01*
X15899857Y-9578640D01*
X15899857Y-9578640D01*
X15899863Y-9578653D01*
X15899877Y-9578679D01*
X15910059Y-9592693D01*
X15922307Y-9604941D01*
X15936321Y-9615123D01*
X15951755Y-9622987D01*
X15953859Y-9623671D01*
X15955962Y-9624354D01*
X15955962Y-9624354D01*
X15955962Y-9624354D01*
X15968228Y-9628340D01*
X15968229Y-9628340D01*
X15968230Y-9628340D01*
X15982403Y-9630585D01*
X15985338Y-9631050D01*
X15985338Y-9631050D01*
X15985339Y-9631050D01*
X15985339Y-9631050D01*
X16002661Y-9631050D01*
X16002661Y-9631050D01*
X16019770Y-9628340D01*
X16019771Y-9628340D01*
X16019771Y-9628340D01*
X16019773Y-9628339D01*
X16019824Y-9628326D01*
X16019950Y-9628282D01*
X16027476Y-9625836D01*
X16036244Y-9622987D01*
X16051679Y-9615123D01*
X16065693Y-9604941D01*
X16077941Y-9592693D01*
X16088123Y-9578679D01*
X16095987Y-9563245D01*
X16098874Y-9554361D01*
X16099232Y-9553259D01*
X16099916Y-9551155D01*
X16101340Y-9546772D01*
X16101340Y-9546771D01*
X16101340Y-9546770D01*
X16104050Y-9529661D01*
X16104050Y-9512339D01*
X16101340Y-9495230D01*
X16101340Y-9495228D01*
X16101335Y-9495214D01*
X16096713Y-9480990D01*
X16095987Y-9478756D01*
X16095987Y-9478756D01*
X16095987Y-9478756D01*
X16088123Y-9463321D01*
X16077941Y-9449307D01*
X16065693Y-9437059D01*
X16052245Y-9427288D01*
X16052229Y-9427277D01*
X16052229Y-9427277D01*
X16051678Y-9426876D01*
X16036246Y-9419013D01*
X16036245Y-9419013D01*
X16036245Y-9419013D01*
X16036244Y-9419013D01*
X16036244Y-9419012D01*
X16036243Y-9419012D01*
X16019771Y-9413660D01*
X16019771Y-9413660D01*
X16019770Y-9413660D01*
X16002662Y-9410950D01*
X16002662Y-9410950D01*
X16002661Y-9410950D01*
X15985339Y-9410950D01*
X15985338Y-9410950D01*
X15985338Y-9410950D01*
X15968230Y-9413660D01*
X15968228Y-9413660D01*
X15951757Y-9419012D01*
X15951756Y-9419013D01*
X15951754Y-9419013D01*
X15936321Y-9426876D01*
X15935770Y-9427277D01*
X15935767Y-9427279D01*
X15922307Y-9437058D01*
X15922307Y-9437059D01*
X15910059Y-9449307D01*
X15910058Y-9449307D01*
X15900279Y-9462767D01*
X15900277Y-9462771D01*
X15899876Y-9463321D01*
X15892013Y-9478754D01*
X15892013Y-9478755D01*
X15892012Y-9478756D01*
X15892012Y-9478757D01*
X15886660Y-9495228D01*
X15886660Y-9495230D01*
X15883950Y-9512338D01*
X15388999Y-9512338D01*
X15386291Y-9495242D01*
X15386291Y-9495240D01*
X15380941Y-9478775D01*
X15380941Y-9478774D01*
X15373080Y-9463348D01*
X15373080Y-9463347D01*
X15366678Y-9454535D01*
X15331078Y-9490135D01*
X15325716Y-9492635D01*
X15320000Y-9491104D01*
X15318845Y-9490135D01*
X15309865Y-9481154D01*
X15307364Y-9475792D01*
X15308896Y-9470077D01*
X15309864Y-9468922D01*
X15345465Y-9433322D01*
X15345464Y-9433322D01*
X15336655Y-9426921D01*
X15336652Y-9426920D01*
X15336652Y-9426920D01*
X15321226Y-9419059D01*
X15321225Y-9419059D01*
X15321221Y-9419058D01*
X15321216Y-9419056D01*
X15304760Y-9413709D01*
X15304760Y-9413709D01*
X15304759Y-9413709D01*
X15287658Y-9411000D01*
X15287658Y-9411000D01*
X15270342Y-9411000D01*
X15270342Y-9411000D01*
X15253241Y-9413709D01*
X15253240Y-9413709D01*
X15253240Y-9413709D01*
X15236784Y-9419056D01*
X15236774Y-9419059D01*
X15221347Y-9426920D01*
X15221346Y-9426920D01*
X15212535Y-9433322D01*
X15212535Y-9433322D01*
X15248135Y-9468922D01*
X15250635Y-9474284D01*
X15249104Y-9479999D01*
X15248135Y-9481155D01*
X15239154Y-9490135D01*
X15233792Y-9492636D01*
X15228077Y-9491104D01*
X15226922Y-9490135D01*
X15191322Y-9454535D01*
X15191322Y-9454535D01*
X15184920Y-9463346D01*
X15184920Y-9463347D01*
X15177059Y-9478774D01*
X15177056Y-9478784D01*
X15171709Y-9495240D01*
X15171709Y-9495240D01*
X15171709Y-9495241D01*
X15169000Y-9512342D01*
X13681905Y-9512342D01*
X13682586Y-9509798D01*
X13682586Y-9496620D01*
X13679176Y-9483890D01*
X13672586Y-9472478D01*
X13663268Y-9463159D01*
X13653877Y-9457737D01*
X13651855Y-9456570D01*
X13651855Y-9456570D01*
X13651855Y-9456570D01*
X13639126Y-9453159D01*
X13639125Y-9453159D01*
X13625947Y-9453159D01*
X13625947Y-9453159D01*
X13624624Y-9453513D01*
X13613982Y-9456365D01*
X13613980Y-9456365D01*
X13613218Y-9456570D01*
X13613218Y-9456570D01*
X13613218Y-9456570D01*
X13612260Y-9457122D01*
X13611828Y-9457313D01*
X13611625Y-9457326D01*
X13611026Y-9457578D01*
X13611028Y-9457583D01*
X13610845Y-9457654D01*
X13610680Y-9457724D01*
X13610633Y-9457737D01*
X13596017Y-9465155D01*
X13595607Y-9465372D01*
X13595314Y-9465529D01*
X13595311Y-9465530D01*
X13595311Y-9465530D01*
X13595239Y-9465571D01*
X13594552Y-9465971D01*
X13592456Y-9467247D01*
X13592326Y-9467325D01*
X13588306Y-9469676D01*
X13587352Y-9470158D01*
X13585494Y-9470956D01*
X13583927Y-9471459D01*
X13581255Y-9472043D01*
X13579891Y-9472229D01*
X13572748Y-9472629D01*
X13571575Y-9472914D01*
X13569533Y-9473159D01*
X13096264Y-9473159D01*
X13093306Y-9472637D01*
X13090908Y-9471764D01*
X13087750Y-9469753D01*
X12929908Y-9311911D01*
X14768950Y-9311911D01*
X14768950Y-9325089D01*
X14770547Y-9331050D01*
X14772361Y-9337819D01*
X14775541Y-9343328D01*
X14778950Y-9349231D01*
X14788269Y-9358550D01*
X14799681Y-9365139D01*
X14812411Y-9368550D01*
X14812411Y-9368550D01*
X14825589Y-9368550D01*
X14825589Y-9368550D01*
X14838319Y-9365139D01*
X14849731Y-9358550D01*
X14859050Y-9349231D01*
X14865639Y-9337819D01*
X14869050Y-9325089D01*
X14869050Y-9311911D01*
X14865639Y-9299181D01*
X14859050Y-9287769D01*
X14849731Y-9278450D01*
X14842735Y-9274411D01*
X15233950Y-9274411D01*
X15233950Y-9287589D01*
X15237058Y-9299190D01*
X15237361Y-9300319D01*
X15243950Y-9311731D01*
X15253269Y-9321050D01*
X15264681Y-9327639D01*
X15277411Y-9331050D01*
X15277411Y-9331050D01*
X15290589Y-9331050D01*
X15290589Y-9331050D01*
X15303319Y-9327639D01*
X15314731Y-9321050D01*
X15324050Y-9311731D01*
X15330639Y-9300319D01*
X15334050Y-9287589D01*
X15334050Y-9274411D01*
X15330639Y-9261681D01*
X15324050Y-9250269D01*
X15314731Y-9240950D01*
X15303319Y-9234361D01*
X15303319Y-9234361D01*
X15303319Y-9234361D01*
X15290589Y-9230950D01*
X15290589Y-9230950D01*
X15277411Y-9230950D01*
X15277411Y-9230950D01*
X15275009Y-9231593D01*
X15264806Y-9234327D01*
X15264690Y-9234357D01*
X15264682Y-9234360D01*
X15264681Y-9234361D01*
X15253268Y-9240950D01*
X15243950Y-9250268D01*
X15237439Y-9261546D01*
X15237439Y-9261546D01*
X15237361Y-9261681D01*
X15237361Y-9261681D01*
X15237361Y-9261681D01*
X15233950Y-9274411D01*
X14842735Y-9274411D01*
X14838319Y-9271861D01*
X14825589Y-9268450D01*
X14825589Y-9268450D01*
X14812411Y-9268450D01*
X14812411Y-9268450D01*
X14810009Y-9269093D01*
X14799806Y-9271827D01*
X14799690Y-9271857D01*
X14799682Y-9271860D01*
X14799681Y-9271861D01*
X14788268Y-9278450D01*
X14778950Y-9287768D01*
X14772361Y-9299181D01*
X14772360Y-9299182D01*
X14772356Y-9299190D01*
X14772327Y-9299306D01*
X14771127Y-9303785D01*
X14768950Y-9311911D01*
X12929908Y-9311911D01*
X12812178Y-9194181D01*
X12811649Y-9193601D01*
X12811218Y-9193084D01*
X12810305Y-9191559D01*
X12805795Y-9186575D01*
X12805681Y-9186439D01*
X12805663Y-9186387D01*
X12805175Y-9185767D01*
X12804103Y-9184192D01*
X12803173Y-9182410D01*
X12801074Y-9176906D01*
X12800756Y-9175890D01*
X12800320Y-9174117D01*
X12800317Y-9174108D01*
X12800243Y-9173815D01*
X12798028Y-9165353D01*
X12797786Y-9164506D01*
X12797756Y-9164409D01*
X12797756Y-9164409D01*
X12797756Y-9164407D01*
X12797614Y-9163980D01*
X12797474Y-9163560D01*
X12793984Y-9153773D01*
X12793817Y-9153320D01*
X12793817Y-9153320D01*
X12793798Y-9153269D01*
X12793714Y-9153105D01*
X12793368Y-9152200D01*
X12793356Y-9152205D01*
X12793139Y-9151681D01*
X12786550Y-9140269D01*
X12777231Y-9130950D01*
X12765819Y-9124361D01*
X12765819Y-9124361D01*
X12765819Y-9124361D01*
X12753089Y-9120950D01*
X12753089Y-9120950D01*
X12739911Y-9120950D01*
X12739911Y-9120950D01*
X12737509Y-9121593D01*
X12727306Y-9124327D01*
X12727190Y-9124357D01*
X12727182Y-9124360D01*
X12727181Y-9124361D01*
X12715768Y-9130950D01*
X12706450Y-9140268D01*
X12699939Y-9151546D01*
X12699939Y-9151546D01*
X12699861Y-9151681D01*
X12699861Y-9151681D01*
X12699861Y-9151681D01*
X12696450Y-9164411D01*
X12089050Y-9164411D01*
X12089050Y-9011524D01*
X12977450Y-9011524D01*
X12977450Y-9011525D01*
X12977450Y-9180475D01*
X12978613Y-9186323D01*
X12978613Y-9186323D01*
X12983045Y-9192955D01*
X12983045Y-9192955D01*
X12985448Y-9194561D01*
X12989677Y-9197387D01*
X12995525Y-9198550D01*
X12995526Y-9198550D01*
X13164474Y-9198550D01*
X13164475Y-9198550D01*
X13170323Y-9197387D01*
X13176955Y-9192955D01*
X13181387Y-9186323D01*
X13182550Y-9180475D01*
X13182550Y-9085899D01*
X13231450Y-9085899D01*
X13231450Y-9106101D01*
X13235391Y-9125912D01*
X13235391Y-9125912D01*
X13235391Y-9125913D01*
X13235391Y-9125913D01*
X13238525Y-9133480D01*
X13241231Y-9140011D01*
X13241231Y-9140011D01*
X13241231Y-9140011D01*
X13243121Y-9144576D01*
X13254344Y-9161372D01*
X13268628Y-9175656D01*
X13285424Y-9186879D01*
X13304087Y-9194609D01*
X13323900Y-9198550D01*
X13323900Y-9198550D01*
X13344100Y-9198550D01*
X13344100Y-9198550D01*
X13363913Y-9194609D01*
X13382576Y-9186879D01*
X13399372Y-9175656D01*
X13413656Y-9161372D01*
X13424879Y-9144576D01*
X13432609Y-9125913D01*
X13436550Y-9106100D01*
X13436550Y-9085900D01*
X13436550Y-9085899D01*
X13485450Y-9085899D01*
X13485450Y-9106101D01*
X13489391Y-9125912D01*
X13489391Y-9125912D01*
X13489391Y-9125913D01*
X13489391Y-9125913D01*
X13492525Y-9133480D01*
X13495231Y-9140011D01*
X13495231Y-9140011D01*
X13495231Y-9140011D01*
X13497121Y-9144576D01*
X13508344Y-9161372D01*
X13522628Y-9175656D01*
X13539424Y-9186879D01*
X13558087Y-9194609D01*
X13577900Y-9198550D01*
X13577900Y-9198550D01*
X13598100Y-9198550D01*
X13598100Y-9198550D01*
X13617913Y-9194609D01*
X13636576Y-9186879D01*
X13653372Y-9175656D01*
X13667656Y-9161372D01*
X13678879Y-9144576D01*
X13686609Y-9125913D01*
X13690550Y-9106100D01*
X13690550Y-9085900D01*
X13690550Y-9085899D01*
X13739450Y-9085899D01*
X13739450Y-9106101D01*
X13743391Y-9125912D01*
X13743391Y-9125912D01*
X13743391Y-9125913D01*
X13743391Y-9125913D01*
X13746525Y-9133480D01*
X13749231Y-9140011D01*
X13749231Y-9140011D01*
X13749231Y-9140011D01*
X13751121Y-9144576D01*
X13762344Y-9161372D01*
X13776628Y-9175656D01*
X13793424Y-9186879D01*
X13812087Y-9194609D01*
X13831900Y-9198550D01*
X13831900Y-9198550D01*
X13852100Y-9198550D01*
X13852100Y-9198550D01*
X13871913Y-9194609D01*
X13890576Y-9186879D01*
X13907372Y-9175656D01*
X13921656Y-9161372D01*
X13932879Y-9144576D01*
X13940609Y-9125913D01*
X13944550Y-9106100D01*
X13944550Y-9085904D01*
X13993500Y-9085904D01*
X13993500Y-9106096D01*
X13997439Y-9125899D01*
X14005165Y-9144552D01*
X14005166Y-9144552D01*
X14013604Y-9157182D01*
X14013605Y-9157182D01*
X14040386Y-9130400D01*
X14045748Y-9127900D01*
X14051464Y-9129431D01*
X14052619Y-9130401D01*
X14061599Y-9139381D01*
X14064100Y-9144744D01*
X14062568Y-9150459D01*
X14061599Y-9151614D01*
X14034818Y-9178395D01*
X14047447Y-9186834D01*
X14047447Y-9186834D01*
X14047447Y-9186834D01*
X14066102Y-9194561D01*
X14066102Y-9194561D01*
X14085904Y-9198500D01*
X14085905Y-9198500D01*
X14106095Y-9198500D01*
X14106095Y-9198500D01*
X14106096Y-9198500D01*
X14125898Y-9194561D01*
X14125898Y-9194561D01*
X14144552Y-9186834D01*
X14157182Y-9178395D01*
X14130400Y-9151614D01*
X14127900Y-9146251D01*
X14129431Y-9140536D01*
X14130399Y-9139382D01*
X14139381Y-9130400D01*
X14144744Y-9127900D01*
X14150459Y-9129431D01*
X14151613Y-9130400D01*
X14178395Y-9157182D01*
X14186834Y-9144552D01*
X14194561Y-9125898D01*
X14194561Y-9125898D01*
X14198500Y-9106096D01*
X14198500Y-9106095D01*
X14198500Y-9085905D01*
X14198500Y-9085904D01*
X14194561Y-9066102D01*
X14194561Y-9066102D01*
X14188784Y-9052154D01*
X14188784Y-9052154D01*
X14188783Y-9052154D01*
X14188783Y-9052153D01*
X14188783Y-9052153D01*
X14187647Y-9049411D01*
X14996450Y-9049411D01*
X14996450Y-9062589D01*
X14999861Y-9075319D01*
X15006450Y-9086731D01*
X15015769Y-9096050D01*
X15027181Y-9102639D01*
X15039911Y-9106050D01*
X15039911Y-9106050D01*
X15053089Y-9106050D01*
X15053089Y-9106050D01*
X15065819Y-9102639D01*
X15077231Y-9096050D01*
X15086550Y-9086731D01*
X15093139Y-9075319D01*
X15096550Y-9062589D01*
X15096550Y-9049411D01*
X15093139Y-9036681D01*
X15086550Y-9025269D01*
X15077231Y-9015950D01*
X15069568Y-9011526D01*
X15065819Y-9009361D01*
X15065819Y-9009361D01*
X15065819Y-9009361D01*
X15064171Y-9008919D01*
X15064171Y-9008919D01*
X15058217Y-9007324D01*
X15053089Y-9005950D01*
X15053089Y-9005950D01*
X15039911Y-9005950D01*
X15039911Y-9005950D01*
X15037509Y-9006593D01*
X15027306Y-9009327D01*
X15027190Y-9009357D01*
X15027182Y-9009360D01*
X15027181Y-9009361D01*
X15015768Y-9015950D01*
X15006450Y-9025268D01*
X14999939Y-9036546D01*
X14999939Y-9036546D01*
X14999861Y-9036681D01*
X14999861Y-9036681D01*
X14999861Y-9036681D01*
X14996450Y-9049411D01*
X14187647Y-9049411D01*
X14186834Y-9047448D01*
X14178395Y-9034818D01*
X14151614Y-9061599D01*
X14146251Y-9064100D01*
X14140536Y-9062568D01*
X14139381Y-9061599D01*
X14130401Y-9052619D01*
X14127900Y-9047256D01*
X14129431Y-9041541D01*
X14130400Y-9040387D01*
X14157182Y-9013605D01*
X14144552Y-9005166D01*
X14144552Y-9005166D01*
X14144552Y-9005166D01*
X14144552Y-9005166D01*
X14144551Y-9005165D01*
X14144552Y-9005165D01*
X14125899Y-8997439D01*
X14106096Y-8993500D01*
X14106096Y-8993500D01*
X14085904Y-8993500D01*
X14085904Y-8993500D01*
X14066101Y-8997439D01*
X14051416Y-9003522D01*
X14047731Y-9005048D01*
X14047547Y-9005117D01*
X14047447Y-9005166D01*
X14034818Y-9013605D01*
X14034818Y-9013605D01*
X14061599Y-9040386D01*
X14064100Y-9045749D01*
X14062568Y-9051464D01*
X14061599Y-9052619D01*
X14052619Y-9061599D01*
X14047256Y-9064100D01*
X14041541Y-9062568D01*
X14040386Y-9061600D01*
X14013605Y-9034818D01*
X14013605Y-9034818D01*
X14005166Y-9047448D01*
X14005117Y-9047547D01*
X14005048Y-9047732D01*
X14003923Y-9050448D01*
X13997439Y-9066101D01*
X13993500Y-9085904D01*
X13944550Y-9085904D01*
X13944550Y-9085900D01*
X13940609Y-9066087D01*
X13932879Y-9047424D01*
X13921656Y-9030628D01*
X13907372Y-9016344D01*
X13890576Y-9005121D01*
X13890575Y-9005121D01*
X13890575Y-9005121D01*
X13888191Y-9004134D01*
X13872225Y-8997520D01*
X13872215Y-8997516D01*
X13871913Y-8997391D01*
X13871913Y-8997391D01*
X13871913Y-8997391D01*
X13871912Y-8997391D01*
X13871912Y-8997391D01*
X13871899Y-8997388D01*
X13871877Y-8997379D01*
X13871739Y-8997350D01*
X13871303Y-8997247D01*
X13871077Y-8997225D01*
X13852101Y-8993450D01*
X13852101Y-8993450D01*
X13852100Y-8993450D01*
X13831900Y-8993450D01*
X13831899Y-8993450D01*
X13831899Y-8993450D01*
X13812088Y-8997391D01*
X13812088Y-8997391D01*
X13812086Y-8997391D01*
X13793425Y-9005121D01*
X13793424Y-9005121D01*
X13776636Y-9016339D01*
X13776628Y-9016344D01*
X13762344Y-9030628D01*
X13762344Y-9030628D01*
X13751121Y-9047424D01*
X13751121Y-9047425D01*
X13743391Y-9066086D01*
X13743391Y-9066088D01*
X13743391Y-9066088D01*
X13739450Y-9085899D01*
X13690550Y-9085899D01*
X13686609Y-9066087D01*
X13678879Y-9047424D01*
X13667656Y-9030628D01*
X13653372Y-9016344D01*
X13636576Y-9005121D01*
X13636575Y-9005121D01*
X13636575Y-9005121D01*
X13634191Y-9004134D01*
X13618225Y-8997520D01*
X13618215Y-8997516D01*
X13617913Y-8997391D01*
X13617913Y-8997391D01*
X13617913Y-8997391D01*
X13617912Y-8997391D01*
X13617912Y-8997391D01*
X13617899Y-8997388D01*
X13617877Y-8997379D01*
X13617739Y-8997350D01*
X13617303Y-8997247D01*
X13617077Y-8997225D01*
X13598101Y-8993450D01*
X13598101Y-8993450D01*
X13598100Y-8993450D01*
X13577900Y-8993450D01*
X13577899Y-8993450D01*
X13577899Y-8993450D01*
X13558088Y-8997391D01*
X13558088Y-8997391D01*
X13558086Y-8997391D01*
X13539425Y-9005121D01*
X13539424Y-9005121D01*
X13522636Y-9016339D01*
X13522628Y-9016344D01*
X13508344Y-9030628D01*
X13508344Y-9030628D01*
X13497121Y-9047424D01*
X13497121Y-9047425D01*
X13489391Y-9066086D01*
X13489391Y-9066088D01*
X13489391Y-9066088D01*
X13485450Y-9085899D01*
X13436550Y-9085899D01*
X13432609Y-9066087D01*
X13424879Y-9047424D01*
X13413656Y-9030628D01*
X13399372Y-9016344D01*
X13382576Y-9005121D01*
X13382575Y-9005121D01*
X13382575Y-9005121D01*
X13380191Y-9004134D01*
X13364225Y-8997520D01*
X13364215Y-8997516D01*
X13363913Y-8997391D01*
X13363913Y-8997391D01*
X13363913Y-8997391D01*
X13363912Y-8997391D01*
X13363912Y-8997391D01*
X13363899Y-8997388D01*
X13363877Y-8997379D01*
X13363739Y-8997350D01*
X13363303Y-8997247D01*
X13363077Y-8997225D01*
X13344101Y-8993450D01*
X13344101Y-8993450D01*
X13344100Y-8993450D01*
X13323900Y-8993450D01*
X13323899Y-8993450D01*
X13323899Y-8993450D01*
X13304088Y-8997391D01*
X13304088Y-8997391D01*
X13304086Y-8997391D01*
X13285425Y-9005121D01*
X13285424Y-9005121D01*
X13268636Y-9016339D01*
X13268628Y-9016344D01*
X13254344Y-9030628D01*
X13254344Y-9030628D01*
X13243121Y-9047424D01*
X13243121Y-9047425D01*
X13235391Y-9066086D01*
X13235391Y-9066088D01*
X13235391Y-9066088D01*
X13231450Y-9085899D01*
X13182550Y-9085899D01*
X13182550Y-9011525D01*
X13181387Y-9005677D01*
X13180355Y-9004134D01*
X13176956Y-8999045D01*
X13176955Y-8999045D01*
X13176955Y-8999045D01*
X13170323Y-8994613D01*
X13170323Y-8994613D01*
X13166416Y-8993836D01*
X13164475Y-8993450D01*
X13164475Y-8993450D01*
X13164475Y-8993450D01*
X12995525Y-8993450D01*
X12995525Y-8993450D01*
X12995524Y-8993450D01*
X12992614Y-8994029D01*
X12989677Y-8994613D01*
X12989677Y-8994613D01*
X12986361Y-8996829D01*
X12983045Y-8999045D01*
X12983045Y-8999045D01*
X12978613Y-9005677D01*
X12978613Y-9005677D01*
X12978029Y-9008614D01*
X12977450Y-9011524D01*
X12089050Y-9011524D01*
X12089050Y-8871911D01*
X12118950Y-8871911D01*
X12118950Y-8885089D01*
X12122361Y-8897819D01*
X12128950Y-8909231D01*
X12138269Y-8918550D01*
X12149681Y-8925139D01*
X12162411Y-8928550D01*
X12162411Y-8928550D01*
X12175589Y-8928550D01*
X12175589Y-8928550D01*
X12188319Y-8925139D01*
X12199731Y-8918550D01*
X12209050Y-8909231D01*
X12215639Y-8897819D01*
X12217222Y-8891911D01*
X12451450Y-8891911D01*
X12451450Y-8905089D01*
X12451547Y-8905452D01*
X12454861Y-8917819D01*
X12461450Y-8929231D01*
X12470768Y-8938550D01*
X12470768Y-8938550D01*
X12470769Y-8938550D01*
X12482181Y-8945139D01*
X12494911Y-8948550D01*
X12494911Y-8948550D01*
X12508089Y-8948550D01*
X12508089Y-8948550D01*
X12520819Y-8945139D01*
X12532231Y-8938550D01*
X12541550Y-8929231D01*
X12548139Y-8917819D01*
X12551550Y-8905089D01*
X12551550Y-8891911D01*
X12548139Y-8879181D01*
X12541550Y-8867769D01*
X12532231Y-8858450D01*
X12520819Y-8851861D01*
X12508089Y-8848450D01*
X12508089Y-8848450D01*
X12494911Y-8848450D01*
X12494911Y-8848450D01*
X12494318Y-8848609D01*
X12482306Y-8851827D01*
X12482190Y-8851857D01*
X12482182Y-8851860D01*
X12482181Y-8851861D01*
X12470768Y-8858450D01*
X12461450Y-8867768D01*
X12454939Y-8879046D01*
X12454939Y-8879046D01*
X12454861Y-8879181D01*
X12454861Y-8879181D01*
X12454861Y-8879181D01*
X12451450Y-8891911D01*
X12217222Y-8891911D01*
X12219050Y-8885089D01*
X12219050Y-8871911D01*
X12215639Y-8859181D01*
X12209050Y-8847769D01*
X12199731Y-8838450D01*
X12188319Y-8831861D01*
X12175589Y-8828450D01*
X12175589Y-8828450D01*
X12162411Y-8828450D01*
X12162411Y-8828450D01*
X12160009Y-8829093D01*
X12149806Y-8831827D01*
X12149690Y-8831857D01*
X12149682Y-8831860D01*
X12149681Y-8831861D01*
X12138268Y-8838450D01*
X12128950Y-8847768D01*
X12122361Y-8859181D01*
X12122360Y-8859182D01*
X12122356Y-8859190D01*
X12122327Y-8859306D01*
X12119144Y-8871185D01*
X12118950Y-8871911D01*
X12089050Y-8871911D01*
X12089050Y-8774411D01*
X12353950Y-8774411D01*
X12353950Y-8787589D01*
X12357056Y-8799181D01*
X12357361Y-8800319D01*
X12361138Y-8806861D01*
X12361256Y-8807066D01*
X12361256Y-8807066D01*
X12361500Y-8807488D01*
X12363950Y-8811731D01*
X12373269Y-8821050D01*
X12384681Y-8827639D01*
X12397411Y-8831050D01*
X12397411Y-8831050D01*
X12410589Y-8831050D01*
X12410589Y-8831050D01*
X12423319Y-8827639D01*
X12434731Y-8821050D01*
X12443871Y-8811911D01*
X13236450Y-8811911D01*
X13236450Y-8825089D01*
X13238264Y-8831861D01*
X13239861Y-8837819D01*
X13239861Y-8837819D01*
X13245110Y-8846911D01*
X13246450Y-8849231D01*
X13255769Y-8858550D01*
X13267181Y-8865139D01*
X13279911Y-8868550D01*
X13279911Y-8868550D01*
X13293089Y-8868550D01*
X13293089Y-8868550D01*
X13305819Y-8865139D01*
X13317231Y-8858550D01*
X13326550Y-8849231D01*
X13333139Y-8837819D01*
X13336550Y-8825089D01*
X13336550Y-8811911D01*
X13333139Y-8799181D01*
X13326550Y-8787769D01*
X13317231Y-8778450D01*
X13305819Y-8771861D01*
X13293089Y-8768450D01*
X13293089Y-8768450D01*
X13279911Y-8768450D01*
X13279911Y-8768450D01*
X13277509Y-8769093D01*
X13267306Y-8771827D01*
X13267190Y-8771857D01*
X13267182Y-8771860D01*
X13267181Y-8771861D01*
X13255768Y-8778450D01*
X13246450Y-8787768D01*
X13239861Y-8799181D01*
X13239861Y-8799182D01*
X13239856Y-8799190D01*
X13239827Y-8799306D01*
X13236450Y-8811911D01*
X12443871Y-8811911D01*
X12444050Y-8811731D01*
X12446862Y-8806861D01*
X12447342Y-8806030D01*
X12448714Y-8803654D01*
X12448714Y-8803654D01*
X12450380Y-8800768D01*
X12450639Y-8800319D01*
X12454050Y-8787589D01*
X12454050Y-8774411D01*
X12450639Y-8761681D01*
X12444050Y-8750269D01*
X12434731Y-8740950D01*
X12429308Y-8737819D01*
X12423319Y-8734361D01*
X12423319Y-8734361D01*
X12423319Y-8734361D01*
X12410589Y-8730950D01*
X12410589Y-8730950D01*
X12397411Y-8730950D01*
X12397411Y-8730950D01*
X12395009Y-8731593D01*
X12384806Y-8734327D01*
X12384690Y-8734357D01*
X12384682Y-8734360D01*
X12384681Y-8734361D01*
X12373268Y-8740950D01*
X12363950Y-8750268D01*
X12357361Y-8761681D01*
X12357360Y-8761682D01*
X12357356Y-8761690D01*
X12357327Y-8761806D01*
X12354633Y-8771861D01*
X12353950Y-8774411D01*
X12089050Y-8774411D01*
X12089050Y-8711911D01*
X12746450Y-8711911D01*
X12746450Y-8725089D01*
X12748934Y-8734361D01*
X12749861Y-8737819D01*
X12752748Y-8742819D01*
X12756450Y-8749231D01*
X12765769Y-8758550D01*
X12777181Y-8765139D01*
X12789911Y-8768550D01*
X12789911Y-8768550D01*
X12803089Y-8768550D01*
X12803089Y-8768550D01*
X12815819Y-8765139D01*
X12827231Y-8758550D01*
X12836550Y-8749231D01*
X12843139Y-8737819D01*
X12846550Y-8725089D01*
X12846550Y-8716911D01*
X14346450Y-8716911D01*
X14346450Y-8730089D01*
X14346547Y-8730452D01*
X14346547Y-8730452D01*
X14349436Y-8741235D01*
X14349839Y-8742738D01*
X14349861Y-8742819D01*
X14350283Y-8743550D01*
X14356450Y-8754231D01*
X14365769Y-8763550D01*
X14377181Y-8770139D01*
X14389911Y-8773550D01*
X14389911Y-8773550D01*
X14403089Y-8773550D01*
X14403089Y-8773550D01*
X14415819Y-8770139D01*
X14427231Y-8763550D01*
X14436550Y-8754231D01*
X14441095Y-8746359D01*
X14443026Y-8744058D01*
X14443979Y-8743258D01*
X14449539Y-8741235D01*
X14449786Y-8741235D01*
X14454434Y-8742590D01*
X14454666Y-8742738D01*
X14455291Y-8743240D01*
X14455318Y-8743205D01*
X14455768Y-8743550D01*
X14455768Y-8743550D01*
X14455769Y-8743550D01*
X14467181Y-8750139D01*
X14479911Y-8753550D01*
X14479911Y-8753550D01*
X14493089Y-8753550D01*
X14493089Y-8753550D01*
X14505819Y-8750139D01*
X14517231Y-8743550D01*
X14526550Y-8734231D01*
X14533139Y-8722819D01*
X14536550Y-8710089D01*
X14536550Y-8696911D01*
X14533139Y-8684181D01*
X14526550Y-8672769D01*
X14517231Y-8663450D01*
X14505819Y-8656861D01*
X14493089Y-8653450D01*
X14493089Y-8653450D01*
X14479911Y-8653450D01*
X14479911Y-8653450D01*
X14477509Y-8654093D01*
X14467306Y-8656827D01*
X14467190Y-8656857D01*
X14467182Y-8656860D01*
X14467181Y-8656861D01*
X14455768Y-8663450D01*
X14446450Y-8672768D01*
X14441905Y-8680641D01*
X14439973Y-8682943D01*
X14439021Y-8683742D01*
X14433461Y-8685765D01*
X14433214Y-8685765D01*
X14428567Y-8684411D01*
X14428334Y-8684263D01*
X14427708Y-8683760D01*
X14427682Y-8683795D01*
X14427231Y-8683450D01*
X14417296Y-8677714D01*
X14417296Y-8677714D01*
X14415819Y-8676861D01*
X14415819Y-8676861D01*
X14415819Y-8676861D01*
X14414171Y-8676419D01*
X14414171Y-8676419D01*
X14408217Y-8674824D01*
X14403089Y-8673450D01*
X14403089Y-8673450D01*
X14389911Y-8673450D01*
X14389911Y-8673450D01*
X14387509Y-8674093D01*
X14377306Y-8676827D01*
X14377190Y-8676857D01*
X14377182Y-8676860D01*
X14377181Y-8676861D01*
X14365768Y-8683450D01*
X14356450Y-8692768D01*
X14349939Y-8704046D01*
X14349939Y-8704046D01*
X14349861Y-8704181D01*
X14349861Y-8704181D01*
X14349861Y-8704181D01*
X14346450Y-8716911D01*
X12846550Y-8716911D01*
X12846550Y-8711911D01*
X12843139Y-8699181D01*
X12836550Y-8687769D01*
X12827231Y-8678450D01*
X12815819Y-8671861D01*
X12803089Y-8668450D01*
X12803089Y-8668450D01*
X12789911Y-8668450D01*
X12789911Y-8668450D01*
X12787509Y-8669093D01*
X12777306Y-8671827D01*
X12777190Y-8671857D01*
X12777182Y-8671860D01*
X12777181Y-8671861D01*
X12765768Y-8678450D01*
X12756450Y-8687768D01*
X12749939Y-8699046D01*
X12749939Y-8699046D01*
X12749861Y-8699181D01*
X12749861Y-8699181D01*
X12749861Y-8699181D01*
X12746450Y-8711911D01*
X12089050Y-8711911D01*
X12089050Y-8476911D01*
X13478950Y-8476911D01*
X13478950Y-8490089D01*
X13479047Y-8490452D01*
X13479047Y-8490452D01*
X13481677Y-8500268D01*
X13482361Y-8502819D01*
X13482361Y-8502819D01*
X13488950Y-8514231D01*
X13498269Y-8523550D01*
X13509681Y-8530139D01*
X13522411Y-8533550D01*
X13522411Y-8533550D01*
X13535589Y-8533550D01*
X13535589Y-8533550D01*
X13548319Y-8530139D01*
X13559731Y-8523550D01*
X13569050Y-8514231D01*
X13575639Y-8502819D01*
X13579050Y-8490089D01*
X13579050Y-8476911D01*
X13778950Y-8476911D01*
X13778950Y-8490089D01*
X13779047Y-8490452D01*
X13779047Y-8490452D01*
X13781677Y-8500268D01*
X13782361Y-8502819D01*
X13782361Y-8502819D01*
X13788950Y-8514231D01*
X13798269Y-8523550D01*
X13809681Y-8530139D01*
X13822411Y-8533550D01*
X13822411Y-8533550D01*
X13835589Y-8533550D01*
X13835589Y-8533550D01*
X13848319Y-8530139D01*
X13859731Y-8523550D01*
X13869050Y-8514231D01*
X13875639Y-8502819D01*
X13879050Y-8490089D01*
X13879050Y-8476911D01*
X13875639Y-8464181D01*
X13869050Y-8452769D01*
X13859731Y-8443450D01*
X13848319Y-8436861D01*
X13835589Y-8433450D01*
X13835589Y-8433450D01*
X13822411Y-8433450D01*
X13822411Y-8433450D01*
X13820009Y-8434093D01*
X13809806Y-8436827D01*
X13809690Y-8436857D01*
X13809682Y-8436860D01*
X13809681Y-8436861D01*
X13798268Y-8443450D01*
X13788950Y-8452768D01*
X13782439Y-8464046D01*
X13782439Y-8464046D01*
X13782361Y-8464181D01*
X13782361Y-8464181D01*
X13782361Y-8464181D01*
X13778950Y-8476911D01*
X13579050Y-8476911D01*
X13575639Y-8464181D01*
X13569050Y-8452769D01*
X13559731Y-8443450D01*
X13548319Y-8436861D01*
X13535589Y-8433450D01*
X13535589Y-8433450D01*
X13522411Y-8433450D01*
X13522411Y-8433450D01*
X13520009Y-8434093D01*
X13509806Y-8436827D01*
X13509690Y-8436857D01*
X13509682Y-8436860D01*
X13509681Y-8436861D01*
X13498268Y-8443450D01*
X13488950Y-8452768D01*
X13482439Y-8464046D01*
X13482439Y-8464046D01*
X13482361Y-8464181D01*
X13482361Y-8464181D01*
X13482361Y-8464181D01*
X13478950Y-8476911D01*
X12089050Y-8476911D01*
X12089050Y-8144411D01*
X12158950Y-8144411D01*
X12158950Y-8157589D01*
X12162347Y-8170268D01*
X12162361Y-8170319D01*
X12163672Y-8172589D01*
X12168950Y-8181731D01*
X12178269Y-8191050D01*
X12189681Y-8197639D01*
X12202411Y-8201050D01*
X12202411Y-8201050D01*
X12215589Y-8201050D01*
X12215589Y-8201050D01*
X12228319Y-8197639D01*
X12239731Y-8191050D01*
X12249050Y-8181731D01*
X12255639Y-8170319D01*
X12258562Y-8159411D01*
X13973950Y-8159411D01*
X13973950Y-8172589D01*
X13977361Y-8185319D01*
X13983950Y-8196731D01*
X13993269Y-8206050D01*
X14004681Y-8212639D01*
X14017411Y-8216050D01*
X14017411Y-8216050D01*
X14030589Y-8216050D01*
X14030589Y-8216050D01*
X14043319Y-8212639D01*
X14054731Y-8206050D01*
X14064050Y-8196731D01*
X14070639Y-8185319D01*
X14074050Y-8172589D01*
X14074050Y-8159411D01*
X14070639Y-8146681D01*
X14064050Y-8135269D01*
X14054731Y-8125950D01*
X14043319Y-8119361D01*
X14030589Y-8115950D01*
X14030589Y-8115950D01*
X14017411Y-8115950D01*
X14017411Y-8115950D01*
X14015009Y-8116593D01*
X14004806Y-8119327D01*
X14004690Y-8119356D01*
X14004682Y-8119360D01*
X14004681Y-8119361D01*
X13993268Y-8125950D01*
X13983950Y-8135268D01*
X13977439Y-8146546D01*
X13977439Y-8146546D01*
X13977361Y-8146681D01*
X13977361Y-8146681D01*
X13977361Y-8146681D01*
X13973950Y-8159411D01*
X12258562Y-8159411D01*
X12259050Y-8157589D01*
X12259050Y-8144411D01*
X12255639Y-8131681D01*
X12249050Y-8120269D01*
X12239731Y-8110950D01*
X12228319Y-8104361D01*
X12215589Y-8100950D01*
X12215589Y-8100950D01*
X12202411Y-8100950D01*
X12202411Y-8100950D01*
X12200009Y-8101593D01*
X12189806Y-8104327D01*
X12189690Y-8104356D01*
X12189682Y-8104360D01*
X12189681Y-8104361D01*
X12178268Y-8110950D01*
X12168950Y-8120268D01*
X12162439Y-8131546D01*
X12162439Y-8131546D01*
X12162361Y-8131681D01*
X12162361Y-8131681D01*
X12162361Y-8131681D01*
X12158950Y-8144411D01*
X12089050Y-8144411D01*
X12089050Y-7858403D01*
X12208950Y-7858403D01*
X12208950Y-7883597D01*
X12212891Y-7908478D01*
X12212891Y-7908480D01*
X12220675Y-7932436D01*
X12220675Y-7932437D01*
X12220676Y-7932437D01*
X12220676Y-7932438D01*
X12220676Y-7932439D01*
X12228697Y-7948181D01*
X12232113Y-7954884D01*
X12236491Y-7960911D01*
X12246921Y-7975266D01*
X12264734Y-7993079D01*
X12285115Y-8007887D01*
X12307562Y-8019324D01*
X12313681Y-8021312D01*
X12331520Y-8027109D01*
X12331521Y-8027109D01*
X12331521Y-8027109D01*
X12331552Y-8027114D01*
X12331552Y-8027114D01*
X12356403Y-8031050D01*
X12356403Y-8031050D01*
X12356404Y-8031050D01*
X12356404Y-8031050D01*
X12381596Y-8031050D01*
X12381596Y-8031050D01*
X12406478Y-8027109D01*
X12406479Y-8027109D01*
X12406480Y-8027109D01*
X12406483Y-8027108D01*
X12406532Y-8027095D01*
X12406660Y-8027050D01*
X12417686Y-8023467D01*
X12430438Y-8019324D01*
X12452884Y-8007887D01*
X12473266Y-7993079D01*
X12491079Y-7975266D01*
X12505887Y-7954884D01*
X12517324Y-7932438D01*
X12522194Y-7917450D01*
X12525050Y-7908659D01*
X12525099Y-7908519D01*
X12525108Y-7908486D01*
X12525109Y-7908479D01*
X12525109Y-7908478D01*
X12529050Y-7883596D01*
X12529050Y-7858404D01*
X12525109Y-7833521D01*
X12525108Y-7833519D01*
X12525104Y-7833506D01*
X12519312Y-7815681D01*
X12519312Y-7815680D01*
X12518278Y-7812498D01*
X12517324Y-7809562D01*
X12505887Y-7787115D01*
X12491079Y-7766734D01*
X12473266Y-7748921D01*
X12453435Y-7734513D01*
X12452884Y-7734113D01*
X12430440Y-7722677D01*
X12430439Y-7722676D01*
X12430438Y-7722676D01*
X12430437Y-7722676D01*
X12430437Y-7722675D01*
X12430436Y-7722675D01*
X12406480Y-7714891D01*
X12406478Y-7714891D01*
X12381597Y-7710950D01*
X12381597Y-7710950D01*
X12381596Y-7710950D01*
X12356404Y-7710950D01*
X12356403Y-7710950D01*
X12356403Y-7710950D01*
X12331522Y-7714891D01*
X12331520Y-7714891D01*
X12307564Y-7722675D01*
X12307562Y-7722676D01*
X12307560Y-7722677D01*
X12285116Y-7734113D01*
X12284565Y-7734513D01*
X12284564Y-7734513D01*
X12264734Y-7748921D01*
X12246921Y-7766734D01*
X12232513Y-7786564D01*
X12232513Y-7786565D01*
X12232113Y-7787116D01*
X12220677Y-7809560D01*
X12220676Y-7809562D01*
X12220675Y-7809564D01*
X12212891Y-7833520D01*
X12212891Y-7833522D01*
X12208950Y-7858403D01*
X12089050Y-7858403D01*
X12089050Y-7684411D01*
X14676450Y-7684411D01*
X14676450Y-7697589D01*
X14676547Y-7697952D01*
X14676547Y-7697952D01*
X14679861Y-7710318D01*
X14679861Y-7710319D01*
X14679862Y-7710321D01*
X14680178Y-7710868D01*
X14680869Y-7712510D01*
X14680874Y-7712508D01*
X14680947Y-7712696D01*
X14681015Y-7712857D01*
X14681028Y-7712903D01*
X14681028Y-7712904D01*
X14688446Y-7727520D01*
X14688810Y-7728205D01*
X14688852Y-7728281D01*
X14689260Y-7728981D01*
X14690537Y-7731078D01*
X14690615Y-7731209D01*
X14692967Y-7735229D01*
X14693449Y-7736184D01*
X14694248Y-7738044D01*
X14694750Y-7739609D01*
X14694850Y-7740066D01*
X14695334Y-7742281D01*
X14695520Y-7743644D01*
X14695920Y-7750788D01*
X14695920Y-7750789D01*
X14696205Y-7751962D01*
X14696450Y-7754004D01*
X14696450Y-8299957D01*
X14698179Y-8306409D01*
X14698498Y-8307599D01*
X14699431Y-8309215D01*
X14702454Y-8314451D01*
X15218322Y-8830319D01*
X15218851Y-8830898D01*
X15219282Y-8831416D01*
X15220195Y-8832941D01*
X15224706Y-8837926D01*
X15224820Y-8838062D01*
X15224838Y-8838114D01*
X15225326Y-8838734D01*
X15226396Y-8840307D01*
X15227326Y-8842088D01*
X15228283Y-8844597D01*
X15229426Y-8847594D01*
X15229743Y-8848609D01*
X15230186Y-8850405D01*
X15230261Y-8850703D01*
X15232471Y-8859142D01*
X15232472Y-8859145D01*
X15232472Y-8859146D01*
X15232712Y-8859989D01*
X15232741Y-8860085D01*
X15233025Y-8860939D01*
X15234523Y-8865139D01*
X15236517Y-8870731D01*
X15236685Y-8871185D01*
X15236703Y-8871234D01*
X15236786Y-8871396D01*
X15237132Y-8872300D01*
X15237144Y-8872295D01*
X15237361Y-8872819D01*
X15237361Y-8872819D01*
X15243950Y-8884231D01*
X15253269Y-8893550D01*
X15264681Y-8900139D01*
X15277411Y-8903550D01*
X15277411Y-8903550D01*
X15290589Y-8903550D01*
X15290589Y-8903550D01*
X15303319Y-8900139D01*
X15303867Y-8899823D01*
X15305509Y-8899131D01*
X15305507Y-8899126D01*
X15305706Y-8899048D01*
X15305860Y-8898984D01*
X15305904Y-8898972D01*
X15320518Y-8891555D01*
X15321218Y-8891183D01*
X15321263Y-8891158D01*
X15321295Y-8891140D01*
X15321987Y-8890737D01*
X15322593Y-8890367D01*
X15324073Y-8889466D01*
X15324192Y-8889395D01*
X15328231Y-8887032D01*
X15329185Y-8886550D01*
X15330492Y-8885989D01*
X15331044Y-8885752D01*
X15332609Y-8885250D01*
X15334190Y-8884904D01*
X15335281Y-8884666D01*
X15336644Y-8884480D01*
X15343788Y-8884080D01*
X15344429Y-8883924D01*
X15344962Y-8883795D01*
X15347004Y-8883550D01*
X15893945Y-8883550D01*
X15896903Y-8884072D01*
X15899301Y-8884945D01*
X15902459Y-8886956D01*
X16428809Y-9413307D01*
X16430036Y-9414852D01*
X16430597Y-9415753D01*
X16430738Y-9415979D01*
X16439544Y-9425373D01*
X16439982Y-9425879D01*
X16446574Y-9434104D01*
X16447040Y-9434743D01*
X16451325Y-9441224D01*
X16451772Y-9441981D01*
X16454024Y-9446279D01*
X16454385Y-9446969D01*
X16454928Y-9448245D01*
X16458718Y-9459600D01*
X16459084Y-9461168D01*
X16461170Y-9476453D01*
X16461230Y-9477029D01*
X16461777Y-9484979D01*
X16461792Y-9485179D01*
X16461794Y-9485202D01*
X16461819Y-9485497D01*
X16462975Y-9497846D01*
X16464093Y-9509798D01*
X16464418Y-9513266D01*
X16464517Y-9514131D01*
X16464530Y-9514226D01*
X16464667Y-9515091D01*
X16467654Y-9531658D01*
X16467655Y-9531660D01*
X16467810Y-9532436D01*
X16467829Y-9532520D01*
X16467829Y-9532523D01*
X16467830Y-9532525D01*
X16468016Y-9533299D01*
X16471541Y-9546771D01*
X16472688Y-9551155D01*
X16472719Y-9551272D01*
X16472789Y-9551526D01*
X16472800Y-9551565D01*
X16473577Y-9553056D01*
X16474132Y-9554380D01*
X16477012Y-9563243D01*
X16477013Y-9563246D01*
X16477014Y-9563247D01*
X16484857Y-9578640D01*
X16484857Y-9578640D01*
X16484863Y-9578653D01*
X16484877Y-9578679D01*
X16495059Y-9592693D01*
X16507307Y-9604941D01*
X16521321Y-9615123D01*
X16536755Y-9622987D01*
X16538859Y-9623671D01*
X16540962Y-9624354D01*
X16540962Y-9624354D01*
X16540962Y-9624354D01*
X16553228Y-9628340D01*
X16553229Y-9628340D01*
X16553230Y-9628340D01*
X16567403Y-9630585D01*
X16570338Y-9631050D01*
X16570338Y-9631050D01*
X16570339Y-9631050D01*
X16570339Y-9631050D01*
X16587661Y-9631050D01*
X16587661Y-9631050D01*
X16604770Y-9628340D01*
X16604771Y-9628340D01*
X16604771Y-9628340D01*
X16604773Y-9628339D01*
X16604824Y-9628326D01*
X16604950Y-9628282D01*
X16612476Y-9625836D01*
X16621244Y-9622987D01*
X16636679Y-9615123D01*
X16650693Y-9604941D01*
X16662941Y-9592693D01*
X16673123Y-9578679D01*
X16680987Y-9563245D01*
X16683874Y-9554361D01*
X16684232Y-9553259D01*
X16684916Y-9551155D01*
X16686340Y-9546772D01*
X16686340Y-9546771D01*
X16686340Y-9546770D01*
X16689050Y-9529661D01*
X16689050Y-9512339D01*
X16686340Y-9495230D01*
X16686340Y-9495228D01*
X16686335Y-9495214D01*
X16681713Y-9480990D01*
X16680987Y-9478756D01*
X16680987Y-9478756D01*
X16680987Y-9478756D01*
X16673123Y-9463321D01*
X16662941Y-9449307D01*
X16650693Y-9437059D01*
X16637245Y-9427288D01*
X16637229Y-9427277D01*
X16637229Y-9427277D01*
X16636678Y-9426876D01*
X16621246Y-9419013D01*
X16621245Y-9419013D01*
X16621245Y-9419013D01*
X16621244Y-9419013D01*
X16621243Y-9419012D01*
X16621243Y-9419012D01*
X16611700Y-9415911D01*
X16610748Y-9415539D01*
X16608726Y-9414605D01*
X16608726Y-9414605D01*
X16581642Y-9408091D01*
X16580475Y-9407846D01*
X16580340Y-9407821D01*
X16579147Y-9407643D01*
X16552597Y-9404458D01*
X16552027Y-9404398D01*
X16551981Y-9404393D01*
X16551602Y-9404363D01*
X16551483Y-9404354D01*
X16548437Y-9404147D01*
X16543272Y-9403797D01*
X16543088Y-9403782D01*
X16524779Y-9402148D01*
X16523938Y-9402031D01*
X16517450Y-9400802D01*
X16516515Y-9400570D01*
X16510356Y-9398674D01*
X16509321Y-9398282D01*
X16502918Y-9395371D01*
X16501961Y-9394862D01*
X16494564Y-9390306D01*
X16493789Y-9389768D01*
X16484937Y-9382881D01*
X16484357Y-9382387D01*
X16473922Y-9372679D01*
X16473921Y-9372678D01*
X16472728Y-9371927D01*
X16471222Y-9370725D01*
X16431071Y-9330574D01*
X16806450Y-9330574D01*
X16806450Y-9411426D01*
X16806450Y-9411428D01*
X16806450Y-9411429D01*
X16806450Y-9411431D01*
X16806735Y-9414469D01*
X16806735Y-9414469D01*
X16806735Y-9414470D01*
X16811092Y-9426920D01*
X16811220Y-9427287D01*
X16811221Y-9427288D01*
X16815674Y-9433322D01*
X16819285Y-9438215D01*
X16830212Y-9446279D01*
X16843030Y-9450765D01*
X16846073Y-9451050D01*
X16846074Y-9451050D01*
X16981926Y-9451050D01*
X16981927Y-9451050D01*
X16984970Y-9450765D01*
X16997788Y-9446279D01*
X17008715Y-9438215D01*
X17016779Y-9427288D01*
X17021265Y-9414470D01*
X17021550Y-9411427D01*
X17021550Y-9330573D01*
X17021265Y-9327530D01*
X17016779Y-9314712D01*
X17008715Y-9303785D01*
X16997788Y-9295721D01*
X16997788Y-9295721D01*
X16997788Y-9295721D01*
X16997788Y-9295721D01*
X16990092Y-9293028D01*
X16984970Y-9291235D01*
X16984970Y-9291235D01*
X16984970Y-9291235D01*
X16984018Y-9291146D01*
X16984018Y-9291146D01*
X16982137Y-9290970D01*
X16982036Y-9290958D01*
X16981928Y-9290950D01*
X16981927Y-9290950D01*
X16981927Y-9290950D01*
X16846073Y-9290950D01*
X16846073Y-9290950D01*
X16846072Y-9290950D01*
X16845963Y-9290958D01*
X16845863Y-9290970D01*
X16843031Y-9291235D01*
X16830212Y-9295721D01*
X16830212Y-9295721D01*
X16819286Y-9303784D01*
X16819284Y-9303786D01*
X16811221Y-9314712D01*
X16811221Y-9314712D01*
X16806735Y-9327531D01*
X16806450Y-9330569D01*
X16806450Y-9330571D01*
X16806450Y-9330572D01*
X16806450Y-9330574D01*
X16431071Y-9330574D01*
X16256497Y-9156000D01*
X16807916Y-9156000D01*
X16867961Y-9156000D01*
X16873522Y-9158024D01*
X16876480Y-9163148D01*
X16876611Y-9164650D01*
X16876611Y-9165647D01*
X16876500Y-9166063D01*
X16876500Y-9175937D01*
X16876611Y-9176353D01*
X16876611Y-9177350D01*
X16875782Y-9179629D01*
X16875257Y-9181998D01*
X16874789Y-9182356D01*
X16874588Y-9182910D01*
X16872487Y-9184123D01*
X16870563Y-9185600D01*
X16869699Y-9185733D01*
X16869464Y-9185869D01*
X16869161Y-9185815D01*
X16867961Y-9186000D01*
X16807916Y-9186000D01*
X16809574Y-9194335D01*
X16809575Y-9194337D01*
X16815605Y-9208894D01*
X16816078Y-9209602D01*
X16816078Y-9209602D01*
X16824360Y-9221997D01*
X16835503Y-9233140D01*
X16847897Y-9241422D01*
X16847898Y-9241422D01*
X16848372Y-9241739D01*
X16848606Y-9241895D01*
X16848606Y-9241895D01*
X16863164Y-9247925D01*
X16863165Y-9247926D01*
X16878620Y-9251000D01*
X16878621Y-9251000D01*
X16899000Y-9251000D01*
X16899000Y-9251000D01*
X16899000Y-9251000D01*
X16899000Y-9217039D01*
X16901024Y-9211479D01*
X16906148Y-9208520D01*
X16907650Y-9208389D01*
X16908647Y-9208389D01*
X16909063Y-9208500D01*
X16918937Y-9208500D01*
X16919353Y-9208389D01*
X16920350Y-9208389D01*
X16922629Y-9209218D01*
X16924998Y-9209743D01*
X16925356Y-9210211D01*
X16925910Y-9210412D01*
X16927123Y-9212513D01*
X16928600Y-9214437D01*
X16928733Y-9215301D01*
X16928869Y-9215537D01*
X16928815Y-9215839D01*
X16929000Y-9217039D01*
X16929000Y-9251000D01*
X16929000Y-9251000D01*
X16949379Y-9251000D01*
X16949379Y-9251000D01*
X16949380Y-9251000D01*
X16964835Y-9247926D01*
X16964836Y-9247925D01*
X16979394Y-9241895D01*
X16979394Y-9241895D01*
X16992497Y-9233140D01*
X17003640Y-9221997D01*
X17012395Y-9208894D01*
X17012395Y-9208894D01*
X17018425Y-9194336D01*
X17018426Y-9194335D01*
X17020084Y-9186000D01*
X16960039Y-9186000D01*
X16954479Y-9183976D01*
X16951520Y-9178852D01*
X16951389Y-9177350D01*
X16951389Y-9176353D01*
X16951500Y-9175937D01*
X16951500Y-9166063D01*
X16951389Y-9165647D01*
X16951389Y-9164650D01*
X16952218Y-9162371D01*
X16952743Y-9160003D01*
X16953211Y-9159644D01*
X16953412Y-9159090D01*
X16955513Y-9157877D01*
X16957437Y-9156400D01*
X16958301Y-9156267D01*
X16958537Y-9156131D01*
X16958839Y-9156185D01*
X16960039Y-9156000D01*
X17020084Y-9156000D01*
X17018426Y-9147665D01*
X17018425Y-9147664D01*
X17012395Y-9133106D01*
X17012395Y-9133106D01*
X17012178Y-9132781D01*
X17011922Y-9132398D01*
X17011922Y-9132397D01*
X17009940Y-9129431D01*
X17003640Y-9120003D01*
X16992497Y-9108860D01*
X16980103Y-9100578D01*
X16980102Y-9100578D01*
X16979394Y-9100105D01*
X16979394Y-9100105D01*
X16979394Y-9100105D01*
X16964837Y-9094075D01*
X16964835Y-9094074D01*
X16964835Y-9094074D01*
X16949380Y-9091000D01*
X16949380Y-9091000D01*
X16929000Y-9091000D01*
X16929000Y-9091000D01*
X16929000Y-9091000D01*
X16929000Y-9124961D01*
X16926976Y-9130521D01*
X16921852Y-9133480D01*
X16920350Y-9133611D01*
X16919352Y-9133611D01*
X16918937Y-9133500D01*
X16909063Y-9133500D01*
X16908648Y-9133611D01*
X16907650Y-9133611D01*
X16905370Y-9132781D01*
X16903002Y-9132256D01*
X16902643Y-9131789D01*
X16902090Y-9131588D01*
X16900877Y-9129487D01*
X16899400Y-9127562D01*
X16899267Y-9126699D01*
X16899131Y-9126463D01*
X16899185Y-9126161D01*
X16899000Y-9124961D01*
X16899000Y-9091000D01*
X16899000Y-9091000D01*
X16899000Y-9091000D01*
X16899000Y-9091000D01*
X16878620Y-9091000D01*
X16863165Y-9094074D01*
X16863165Y-9094074D01*
X16863163Y-9094075D01*
X16848606Y-9100105D01*
X16847897Y-9100578D01*
X16847890Y-9100583D01*
X16835503Y-9108860D01*
X16824360Y-9120003D01*
X16816078Y-9132397D01*
X16815605Y-9133106D01*
X16809575Y-9147663D01*
X16809574Y-9147665D01*
X16808460Y-9153269D01*
X16807916Y-9156000D01*
X16256497Y-9156000D01*
X16063612Y-8963115D01*
X16806450Y-8963115D01*
X16806450Y-8978885D01*
X16806505Y-8979160D01*
X16806505Y-8979161D01*
X16809366Y-8993543D01*
X16809366Y-8993543D01*
X16809526Y-8994349D01*
X16809526Y-8994350D01*
X16810786Y-8997391D01*
X16810849Y-8997543D01*
X16810850Y-8997545D01*
X16815560Y-9008917D01*
X16815560Y-9008917D01*
X16815561Y-9008918D01*
X16824321Y-9022029D01*
X16835471Y-9033179D01*
X16848582Y-9041939D01*
X16863150Y-9047974D01*
X16875590Y-9050448D01*
X16878615Y-9051050D01*
X16878615Y-9051050D01*
X16878616Y-9051050D01*
X16878616Y-9051050D01*
X16949384Y-9051050D01*
X16949384Y-9051050D01*
X16964850Y-9047974D01*
X16979418Y-9041939D01*
X16992529Y-9033179D01*
X17003679Y-9022029D01*
X17012439Y-9008918D01*
X17018474Y-8994350D01*
X17021550Y-8978884D01*
X17021550Y-8963116D01*
X17018474Y-8947650D01*
X17012439Y-8933082D01*
X17003679Y-8919971D01*
X16992529Y-8908821D01*
X16979418Y-8900061D01*
X16979417Y-8900060D01*
X16979417Y-8900060D01*
X16969238Y-8895844D01*
X16969234Y-8895842D01*
X16969117Y-8895794D01*
X16964850Y-8894026D01*
X16964849Y-8894026D01*
X16964010Y-8893859D01*
X16964010Y-8893859D01*
X16949385Y-8890950D01*
X16949385Y-8890950D01*
X16949384Y-8890950D01*
X16878616Y-8890950D01*
X16878615Y-8890950D01*
X16878615Y-8890950D01*
X16864043Y-8893849D01*
X16864043Y-8893849D01*
X16863151Y-8894026D01*
X16863150Y-8894026D01*
X16854616Y-8897561D01*
X16853995Y-8897819D01*
X16848582Y-8900061D01*
X16847874Y-8900534D01*
X16847866Y-8900539D01*
X16835471Y-8908821D01*
X16835471Y-8908821D01*
X16824321Y-8919971D01*
X16824321Y-8919972D01*
X16815563Y-8933079D01*
X16815563Y-8933079D01*
X16815561Y-8933082D01*
X16813296Y-8938550D01*
X16813296Y-8938550D01*
X16809565Y-8947556D01*
X16809565Y-8947557D01*
X16809526Y-8947650D01*
X16809526Y-8947651D01*
X16806450Y-8963115D01*
X16063612Y-8963115D01*
X15929951Y-8829454D01*
X15928212Y-8828450D01*
X15923099Y-8825498D01*
X15915456Y-8823450D01*
X15915456Y-8823450D01*
X15915456Y-8823450D01*
X15346833Y-8823450D01*
X15346050Y-8823414D01*
X15345379Y-8823353D01*
X15343654Y-8822920D01*
X15336940Y-8822586D01*
X15336763Y-8822569D01*
X15336714Y-8822546D01*
X15335930Y-8822453D01*
X15334060Y-8822096D01*
X15332143Y-8821494D01*
X15326765Y-8819086D01*
X15325822Y-8818593D01*
X15324238Y-8817634D01*
X15324238Y-8817634D01*
X15324127Y-8817568D01*
X15324127Y-8817568D01*
X15324117Y-8817562D01*
X15324102Y-8817553D01*
X15324099Y-8817551D01*
X15323978Y-8817480D01*
X15316440Y-8813070D01*
X15315668Y-8812640D01*
X15315577Y-8812593D01*
X15314785Y-8812195D01*
X15312539Y-8811130D01*
X15305395Y-8807742D01*
X15304980Y-8807550D01*
X15304929Y-8807528D01*
X15304929Y-8807528D01*
X15304840Y-8807488D01*
X15303615Y-8807032D01*
X15303319Y-8806861D01*
X15303319Y-8806861D01*
X15303319Y-8806861D01*
X15302735Y-8806704D01*
X15301695Y-8806317D01*
X15301277Y-8805961D01*
X15301105Y-8805916D01*
X15301055Y-8806030D01*
X15300666Y-8805859D01*
X15285081Y-8800767D01*
X15284329Y-8800537D01*
X15284242Y-8800513D01*
X15283472Y-8800309D01*
X15281089Y-8799730D01*
X15280942Y-8799693D01*
X15276434Y-8798513D01*
X15275420Y-8798179D01*
X15273541Y-8797429D01*
X15272079Y-8796678D01*
X15269777Y-8795202D01*
X15268681Y-8794369D01*
X15268659Y-8794349D01*
X15263346Y-8789600D01*
X15263346Y-8789600D01*
X15263346Y-8789600D01*
X15262315Y-8788972D01*
X15260698Y-8787701D01*
X15236112Y-8763115D01*
X16806450Y-8763115D01*
X16806450Y-8778885D01*
X16806505Y-8779160D01*
X16806505Y-8779161D01*
X16808182Y-8787589D01*
X16809526Y-8794350D01*
X16809725Y-8794829D01*
X16815561Y-8808918D01*
X16815561Y-8808918D01*
X16815561Y-8808918D01*
X16818589Y-8813450D01*
X16818589Y-8813450D01*
X16818589Y-8813450D01*
X16823667Y-8821050D01*
X16823918Y-8821426D01*
X16824321Y-8822029D01*
X16835471Y-8833179D01*
X16848582Y-8841939D01*
X16863150Y-8847974D01*
X16875590Y-8850448D01*
X16878615Y-8851050D01*
X16878615Y-8851050D01*
X16878616Y-8851050D01*
X16878616Y-8851050D01*
X16949384Y-8851050D01*
X16949384Y-8851050D01*
X16964850Y-8847974D01*
X16979418Y-8841939D01*
X16992529Y-8833179D01*
X17003679Y-8822029D01*
X17012439Y-8808918D01*
X17018474Y-8794350D01*
X17021550Y-8778884D01*
X17021550Y-8763116D01*
X17018474Y-8747650D01*
X17012439Y-8733082D01*
X17003679Y-8719971D01*
X16992529Y-8708821D01*
X16979418Y-8700061D01*
X16979417Y-8700060D01*
X16979417Y-8700060D01*
X16969238Y-8695844D01*
X16969234Y-8695842D01*
X16969117Y-8695794D01*
X16964850Y-8694026D01*
X16964849Y-8694026D01*
X16964010Y-8693859D01*
X16964010Y-8693859D01*
X16949385Y-8690950D01*
X16949385Y-8690950D01*
X16949384Y-8690950D01*
X16878616Y-8690950D01*
X16878615Y-8690950D01*
X16878615Y-8690950D01*
X16864043Y-8693849D01*
X16864043Y-8693849D01*
X16863151Y-8694026D01*
X16863150Y-8694026D01*
X16854616Y-8697561D01*
X16851032Y-8699046D01*
X16848582Y-8700061D01*
X16847874Y-8700534D01*
X16847866Y-8700539D01*
X16835471Y-8708821D01*
X16835471Y-8708821D01*
X16824321Y-8719971D01*
X16817561Y-8730089D01*
X16817561Y-8730089D01*
X16815561Y-8733082D01*
X16813599Y-8737819D01*
X16809565Y-8747556D01*
X16809565Y-8747557D01*
X16809526Y-8747650D01*
X16809526Y-8747651D01*
X16806450Y-8763115D01*
X15236112Y-8763115D01*
X14997408Y-8524411D01*
X15088950Y-8524411D01*
X15088950Y-8537589D01*
X15092361Y-8550319D01*
X15098950Y-8561731D01*
X15108269Y-8571050D01*
X15119681Y-8577639D01*
X15132411Y-8581050D01*
X15132411Y-8581050D01*
X15145589Y-8581050D01*
X15145589Y-8581050D01*
X15158319Y-8577639D01*
X15169731Y-8571050D01*
X15177666Y-8563115D01*
X16806450Y-8563115D01*
X16806450Y-8578885D01*
X16806505Y-8579160D01*
X16806505Y-8579161D01*
X16806881Y-8581050D01*
X16809526Y-8594349D01*
X16809526Y-8594350D01*
X16815561Y-8608918D01*
X16824321Y-8622029D01*
X16835471Y-8633179D01*
X16848582Y-8641939D01*
X16863150Y-8647974D01*
X16875590Y-8650448D01*
X16878615Y-8651050D01*
X16878615Y-8651050D01*
X16878616Y-8651050D01*
X16878616Y-8651050D01*
X16949384Y-8651050D01*
X16949384Y-8651050D01*
X16964850Y-8647974D01*
X16979418Y-8641939D01*
X16992529Y-8633179D01*
X17003679Y-8622029D01*
X17012439Y-8608918D01*
X17018474Y-8594350D01*
X17021550Y-8578884D01*
X17021550Y-8563116D01*
X17021275Y-8561732D01*
X17020605Y-8558365D01*
X17018474Y-8547650D01*
X17012439Y-8533082D01*
X17003679Y-8519971D01*
X16992529Y-8508821D01*
X16979418Y-8500061D01*
X16979417Y-8500060D01*
X16979417Y-8500060D01*
X16969238Y-8495844D01*
X16969234Y-8495842D01*
X16969117Y-8495794D01*
X16964850Y-8494026D01*
X16964849Y-8494026D01*
X16964010Y-8493859D01*
X16964010Y-8493859D01*
X16949385Y-8490950D01*
X16949385Y-8490950D01*
X16949384Y-8490950D01*
X16878616Y-8490950D01*
X16878615Y-8490950D01*
X16878615Y-8490950D01*
X16864043Y-8493849D01*
X16864043Y-8493849D01*
X16863151Y-8494026D01*
X16863150Y-8494026D01*
X16854616Y-8497561D01*
X16850943Y-8499083D01*
X16848582Y-8500061D01*
X16847874Y-8500534D01*
X16847866Y-8500539D01*
X16835471Y-8508821D01*
X16835471Y-8508821D01*
X16824321Y-8519971D01*
X16824321Y-8519971D01*
X16817527Y-8530139D01*
X16817527Y-8530139D01*
X16815561Y-8533082D01*
X16815560Y-8533083D01*
X16813694Y-8537589D01*
X16809565Y-8547556D01*
X16809565Y-8547557D01*
X16809526Y-8547650D01*
X16809526Y-8547651D01*
X16806450Y-8563115D01*
X15177666Y-8563115D01*
X15179050Y-8561731D01*
X15185639Y-8550319D01*
X15189050Y-8537589D01*
X15189050Y-8524411D01*
X15185639Y-8511681D01*
X15179050Y-8500269D01*
X15169731Y-8490950D01*
X15158319Y-8484361D01*
X15145589Y-8480950D01*
X15145589Y-8480950D01*
X15132411Y-8480950D01*
X15132411Y-8480950D01*
X15130009Y-8481593D01*
X15119806Y-8484327D01*
X15119690Y-8484357D01*
X15119682Y-8484360D01*
X15119681Y-8484361D01*
X15108268Y-8490950D01*
X15098950Y-8500268D01*
X15092439Y-8511546D01*
X15092439Y-8511546D01*
X15092361Y-8511681D01*
X15092361Y-8511681D01*
X15092361Y-8511681D01*
X15088950Y-8524411D01*
X14997408Y-8524411D01*
X14812408Y-8339411D01*
X15768950Y-8339411D01*
X15768950Y-8352589D01*
X15772361Y-8365319D01*
X15778950Y-8376731D01*
X15788269Y-8386050D01*
X15799681Y-8392639D01*
X15812411Y-8396050D01*
X15812411Y-8396050D01*
X15825589Y-8396050D01*
X15825589Y-8396050D01*
X15838319Y-8392639D01*
X15849731Y-8386050D01*
X15859050Y-8376731D01*
X15865639Y-8365319D01*
X15866230Y-8363115D01*
X16806450Y-8363115D01*
X16806450Y-8378885D01*
X16806505Y-8379160D01*
X16806505Y-8379160D01*
X16807875Y-8386050D01*
X16809526Y-8394349D01*
X16809526Y-8394350D01*
X16815561Y-8408918D01*
X16824321Y-8422029D01*
X16835471Y-8433179D01*
X16848582Y-8441939D01*
X16863150Y-8447974D01*
X16875590Y-8450448D01*
X16878615Y-8451050D01*
X16878615Y-8451050D01*
X16878616Y-8451050D01*
X16878616Y-8451050D01*
X16949384Y-8451050D01*
X16949384Y-8451050D01*
X16964850Y-8447974D01*
X16979418Y-8441939D01*
X16992529Y-8433179D01*
X17003679Y-8422029D01*
X17012439Y-8408918D01*
X17018474Y-8394350D01*
X17021550Y-8378884D01*
X17021550Y-8363116D01*
X17018474Y-8347650D01*
X17012439Y-8333082D01*
X17003679Y-8319971D01*
X16992529Y-8308821D01*
X16991974Y-8308450D01*
X16991974Y-8308450D01*
X16988159Y-8305901D01*
X16988159Y-8305901D01*
X16979418Y-8300061D01*
X16979418Y-8300060D01*
X16969238Y-8295844D01*
X16969234Y-8295842D01*
X16969117Y-8295794D01*
X16964850Y-8294026D01*
X16964849Y-8294026D01*
X16964010Y-8293859D01*
X16964010Y-8293859D01*
X16949385Y-8290950D01*
X16949385Y-8290950D01*
X16949384Y-8290950D01*
X16878616Y-8290950D01*
X16878615Y-8290950D01*
X16878615Y-8290950D01*
X16863997Y-8293858D01*
X16863997Y-8293858D01*
X16863151Y-8294026D01*
X16863150Y-8294026D01*
X16858506Y-8295950D01*
X16858399Y-8295994D01*
X16858393Y-8295997D01*
X16848582Y-8300060D01*
X16847873Y-8300534D01*
X16847866Y-8300539D01*
X16835471Y-8308821D01*
X16835471Y-8308821D01*
X16824321Y-8319971D01*
X16820679Y-8325422D01*
X16820678Y-8325423D01*
X16820475Y-8325727D01*
X16815561Y-8333082D01*
X16813061Y-8339116D01*
X16812876Y-8339562D01*
X16812876Y-8339562D01*
X16809565Y-8347556D01*
X16809565Y-8347557D01*
X16809526Y-8347650D01*
X16809526Y-8347651D01*
X16806450Y-8363115D01*
X15866230Y-8363115D01*
X15869050Y-8352589D01*
X15869050Y-8339411D01*
X15865639Y-8326681D01*
X15859050Y-8315269D01*
X15849731Y-8305950D01*
X15840359Y-8300539D01*
X15839796Y-8300214D01*
X15839796Y-8300214D01*
X15838319Y-8299361D01*
X15838319Y-8299361D01*
X15838319Y-8299361D01*
X15836671Y-8298919D01*
X15836671Y-8298919D01*
X15830717Y-8297324D01*
X15825589Y-8295950D01*
X15825589Y-8295950D01*
X15812411Y-8295950D01*
X15812411Y-8295950D01*
X15810009Y-8296593D01*
X15799806Y-8299327D01*
X15799690Y-8299356D01*
X15799682Y-8299360D01*
X15799681Y-8299361D01*
X15788268Y-8305950D01*
X15778950Y-8315268D01*
X15772439Y-8326546D01*
X15772439Y-8326546D01*
X15772361Y-8326681D01*
X15772361Y-8326681D01*
X15772361Y-8326681D01*
X15768950Y-8339411D01*
X14812408Y-8339411D01*
X14760162Y-8287165D01*
X14758439Y-8284704D01*
X14757360Y-8282391D01*
X14756550Y-8278735D01*
X14756550Y-8194411D01*
X15293950Y-8194411D01*
X15293950Y-8207589D01*
X15297361Y-8220319D01*
X15303950Y-8231731D01*
X15313269Y-8241050D01*
X15324681Y-8247639D01*
X15337411Y-8251050D01*
X15337411Y-8251050D01*
X15350589Y-8251050D01*
X15350589Y-8251050D01*
X15363319Y-8247639D01*
X15374731Y-8241050D01*
X15384050Y-8231731D01*
X15390639Y-8220319D01*
X15394050Y-8207589D01*
X15394050Y-8194411D01*
X15390639Y-8181681D01*
X15384050Y-8170269D01*
X15374731Y-8160950D01*
X15374731Y-8160950D01*
X15372066Y-8159411D01*
X15372065Y-8159411D01*
X15364305Y-8154930D01*
X15363849Y-8154580D01*
X15362788Y-8154141D01*
X15362219Y-8154066D01*
X15358563Y-8153087D01*
X15350589Y-8150950D01*
X15350589Y-8150950D01*
X15337411Y-8150950D01*
X15337411Y-8150950D01*
X15335009Y-8151593D01*
X15324806Y-8154327D01*
X15324690Y-8154356D01*
X15324682Y-8154360D01*
X15324681Y-8154361D01*
X15313268Y-8160950D01*
X15303950Y-8170268D01*
X15297361Y-8181681D01*
X15297360Y-8181682D01*
X15297356Y-8181690D01*
X15297327Y-8181806D01*
X15294850Y-8191050D01*
X15293950Y-8194411D01*
X14756550Y-8194411D01*
X14756550Y-7960911D01*
X15366450Y-7960911D01*
X15366450Y-7974089D01*
X15366547Y-7974452D01*
X15366547Y-7974452D01*
X15369445Y-7985268D01*
X15369669Y-7986103D01*
X15369861Y-7986819D01*
X15373475Y-7993079D01*
X15376450Y-7998231D01*
X15385769Y-8007550D01*
X15397181Y-8014139D01*
X15409911Y-8017550D01*
X15409911Y-8017550D01*
X15423089Y-8017550D01*
X15423089Y-8017550D01*
X15435819Y-8014139D01*
X15447231Y-8007550D01*
X15456550Y-7998231D01*
X15463139Y-7986819D01*
X15466550Y-7974089D01*
X15466550Y-7960911D01*
X15463139Y-7948181D01*
X15456550Y-7936769D01*
X15447231Y-7927450D01*
X15435819Y-7920861D01*
X15423089Y-7917450D01*
X15423089Y-7917450D01*
X15409911Y-7917450D01*
X15409911Y-7917450D01*
X15407509Y-7918093D01*
X15397306Y-7920827D01*
X15397190Y-7920856D01*
X15397182Y-7920860D01*
X15397181Y-7920861D01*
X15385768Y-7927450D01*
X15376450Y-7936768D01*
X15369939Y-7948046D01*
X15369939Y-7948046D01*
X15369861Y-7948181D01*
X15369861Y-7948181D01*
X15369861Y-7948181D01*
X15366450Y-7960911D01*
X14756550Y-7960911D01*
X14756550Y-7834411D01*
X15538950Y-7834411D01*
X15538950Y-7847589D01*
X15542361Y-7860319D01*
X15548950Y-7871731D01*
X15558269Y-7881050D01*
X15569681Y-7887639D01*
X15582411Y-7891050D01*
X15582411Y-7891050D01*
X15595589Y-7891050D01*
X15595589Y-7891050D01*
X15608319Y-7887639D01*
X15619731Y-7881050D01*
X15629050Y-7871731D01*
X15635639Y-7860319D01*
X15636153Y-7858403D01*
X17108950Y-7858403D01*
X17108950Y-7883597D01*
X17112891Y-7908478D01*
X17112891Y-7908480D01*
X17120675Y-7932436D01*
X17120676Y-7932437D01*
X17120676Y-7932437D01*
X17120676Y-7932438D01*
X17120676Y-7932439D01*
X17128697Y-7948181D01*
X17132113Y-7954884D01*
X17136492Y-7960911D01*
X17146921Y-7975266D01*
X17164734Y-7993079D01*
X17185116Y-8007887D01*
X17207562Y-8019324D01*
X17213681Y-8021312D01*
X17231520Y-8027109D01*
X17231521Y-8027109D01*
X17231522Y-8027109D01*
X17231552Y-8027114D01*
X17231552Y-8027114D01*
X17256403Y-8031050D01*
X17256403Y-8031050D01*
X17256404Y-8031050D01*
X17256404Y-8031050D01*
X17281596Y-8031050D01*
X17281596Y-8031050D01*
X17306479Y-8027109D01*
X17306479Y-8027109D01*
X17306480Y-8027109D01*
X17306483Y-8027108D01*
X17306532Y-8027095D01*
X17306660Y-8027050D01*
X17317686Y-8023467D01*
X17330438Y-8019324D01*
X17352885Y-8007887D01*
X17373266Y-7993079D01*
X17391079Y-7975266D01*
X17405887Y-7954884D01*
X17417324Y-7932438D01*
X17422194Y-7917450D01*
X17425050Y-7908659D01*
X17425099Y-7908519D01*
X17425108Y-7908486D01*
X17425109Y-7908479D01*
X17425109Y-7908478D01*
X17429050Y-7883596D01*
X17429050Y-7858404D01*
X17425109Y-7833521D01*
X17425109Y-7833519D01*
X17425104Y-7833506D01*
X17419312Y-7815681D01*
X17419312Y-7815680D01*
X17418278Y-7812498D01*
X17417324Y-7809562D01*
X17405887Y-7787115D01*
X17391079Y-7766734D01*
X17373266Y-7748921D01*
X17353435Y-7734513D01*
X17352884Y-7734113D01*
X17330440Y-7722677D01*
X17330439Y-7722676D01*
X17330438Y-7722676D01*
X17330437Y-7722676D01*
X17330437Y-7722675D01*
X17330436Y-7722675D01*
X17306480Y-7714891D01*
X17306478Y-7714891D01*
X17281597Y-7710950D01*
X17281597Y-7710950D01*
X17281596Y-7710950D01*
X17256404Y-7710950D01*
X17256403Y-7710950D01*
X17256403Y-7710950D01*
X17231522Y-7714891D01*
X17231520Y-7714891D01*
X17207564Y-7722675D01*
X17207562Y-7722676D01*
X17207560Y-7722677D01*
X17185116Y-7734113D01*
X17184565Y-7734513D01*
X17184564Y-7734513D01*
X17164734Y-7748921D01*
X17146921Y-7766734D01*
X17132513Y-7786564D01*
X17132513Y-7786565D01*
X17132113Y-7787116D01*
X17120677Y-7809560D01*
X17120676Y-7809562D01*
X17120675Y-7809564D01*
X17112891Y-7833520D01*
X17112891Y-7833522D01*
X17108950Y-7858403D01*
X15636153Y-7858403D01*
X15639050Y-7847589D01*
X15639050Y-7834411D01*
X15635639Y-7821681D01*
X15629050Y-7810269D01*
X15619731Y-7800950D01*
X15608319Y-7794361D01*
X15595589Y-7790950D01*
X15595589Y-7790950D01*
X15582411Y-7790950D01*
X15582411Y-7790950D01*
X15580009Y-7791593D01*
X15569806Y-7794327D01*
X15569690Y-7794356D01*
X15569682Y-7794360D01*
X15569681Y-7794361D01*
X15558268Y-7800950D01*
X15548950Y-7810268D01*
X15542439Y-7821546D01*
X15542439Y-7821546D01*
X15542361Y-7821681D01*
X15542361Y-7821681D01*
X15542361Y-7821681D01*
X15538950Y-7834411D01*
X14756550Y-7834411D01*
X14756550Y-7753833D01*
X14756586Y-7753050D01*
X14756647Y-7752379D01*
X14757080Y-7750654D01*
X14757414Y-7743939D01*
X14757430Y-7743764D01*
X14757453Y-7743715D01*
X14757547Y-7742932D01*
X14757903Y-7741059D01*
X14758505Y-7739144D01*
X14760915Y-7733762D01*
X14761407Y-7732823D01*
X14762358Y-7731249D01*
X14762364Y-7731240D01*
X14762411Y-7731163D01*
X14762416Y-7731154D01*
X14762521Y-7730976D01*
X14766362Y-7724411D01*
X16108950Y-7724411D01*
X16108950Y-7737589D01*
X16112361Y-7750319D01*
X16118950Y-7761731D01*
X16128269Y-7771050D01*
X16139681Y-7777639D01*
X16152411Y-7781050D01*
X16152411Y-7781050D01*
X16165589Y-7781050D01*
X16165589Y-7781050D01*
X16178319Y-7777639D01*
X16189731Y-7771050D01*
X16199050Y-7761731D01*
X16205639Y-7750319D01*
X16209050Y-7737589D01*
X16209050Y-7724411D01*
X16205639Y-7711681D01*
X16199050Y-7700269D01*
X16189731Y-7690950D01*
X16178319Y-7684361D01*
X16178319Y-7684361D01*
X16178319Y-7684361D01*
X16176671Y-7683919D01*
X16176671Y-7683919D01*
X16170717Y-7682324D01*
X16165589Y-7680950D01*
X16165589Y-7680950D01*
X16152411Y-7680950D01*
X16152411Y-7680950D01*
X16150009Y-7681593D01*
X16139806Y-7684327D01*
X16139690Y-7684356D01*
X16139682Y-7684360D01*
X16139681Y-7684361D01*
X16128268Y-7690950D01*
X16118950Y-7700268D01*
X16112361Y-7711681D01*
X16112360Y-7711682D01*
X16112356Y-7711690D01*
X16112327Y-7711806D01*
X16109653Y-7721787D01*
X16108950Y-7724411D01*
X14766362Y-7724411D01*
X14766928Y-7723443D01*
X14767363Y-7722660D01*
X14767411Y-7722571D01*
X14767805Y-7721783D01*
X14772258Y-7712395D01*
X14772449Y-7711980D01*
X14772472Y-7711929D01*
X14772551Y-7711560D01*
X14772906Y-7710794D01*
X14772968Y-7710731D01*
X14773139Y-7710319D01*
X14773139Y-7710319D01*
X14776550Y-7697589D01*
X14776550Y-7684411D01*
X14773139Y-7671681D01*
X14766550Y-7660269D01*
X14757231Y-7650950D01*
X14745819Y-7644361D01*
X14733089Y-7640950D01*
X14733089Y-7640950D01*
X14719911Y-7640950D01*
X14719911Y-7640950D01*
X14717509Y-7641593D01*
X14707306Y-7644327D01*
X14707190Y-7644356D01*
X14707182Y-7644360D01*
X14707181Y-7644361D01*
X14695768Y-7650950D01*
X14686450Y-7660268D01*
X14679939Y-7671546D01*
X14679939Y-7671546D01*
X14679861Y-7671681D01*
X14679861Y-7671681D01*
X14679861Y-7671681D01*
X14676450Y-7684411D01*
X12089050Y-7684411D01*
X12089050Y-7601225D01*
X12089572Y-7598267D01*
X12089597Y-7598198D01*
X12089997Y-7597098D01*
X12093800Y-7592566D01*
X12093800Y-7592566D01*
X12094418Y-7592209D01*
X12098743Y-7591050D01*
X17538775Y-7591050D01*
X17541733Y-7591572D01*
G37*
%TD.AperFunction*%
%TD*%
%TA.AperFunction,Conductor*%
%TO.N,+12V*%
G36*
X16172899Y-10345409D02*
G01*
X16199615Y-10372126D01*
X16199958Y-10372953D01*
X16199671Y-10373721D01*
X16188143Y-10386973D01*
X16181503Y-10397988D01*
X16179440Y-10401743D01*
X16179389Y-10401827D01*
X16168491Y-10418223D01*
X16167748Y-10418723D01*
X16166869Y-10418550D01*
X16166808Y-10418506D01*
X16144055Y-10401166D01*
X16143833Y-10400945D01*
X16126477Y-10378170D01*
X16126248Y-10377304D01*
X16126698Y-10376530D01*
X16126733Y-10376505D01*
X16137859Y-10368743D01*
X16137946Y-10368689D01*
X16147012Y-10363496D01*
X16156221Y-10358101D01*
X16163301Y-10352762D01*
X16171277Y-10345378D01*
X16172116Y-10345067D01*
X16172899Y-10345409D01*
G37*
%TD.AperFunction*%
%TD*%
%TA.AperFunction,Conductor*%
%TO.N,+12V*%
G36*
X16890970Y-7998698D02*
G01*
X16890999Y-7998738D01*
X16898756Y-8009858D01*
X16898812Y-8009946D01*
X16902310Y-8016055D01*
X16904003Y-8019012D01*
X16909399Y-8028221D01*
X16914738Y-8035301D01*
X16914738Y-8035301D01*
X16922122Y-8043276D01*
X16922433Y-8044116D01*
X16922091Y-8044899D01*
X16895374Y-8071615D01*
X16894547Y-8071958D01*
X16893779Y-8071671D01*
X16880527Y-8060143D01*
X16869512Y-8053503D01*
X16865757Y-8051440D01*
X16865673Y-8051389D01*
X16849277Y-8040491D01*
X16848777Y-8039748D01*
X16848950Y-8038869D01*
X16848994Y-8038808D01*
X16866334Y-8016054D01*
X16866555Y-8015834D01*
X16889330Y-7998477D01*
X16890196Y-7998248D01*
X16890970Y-7998698D01*
G37*
%TD.AperFunction*%
%TD*%
%TA.AperFunction,Conductor*%
%TO.N,/MCLK*%
G36*
X12773977Y-9159988D02*
G01*
X12774608Y-9160623D01*
X12774628Y-9160675D01*
X12778118Y-9170461D01*
X12778148Y-9170558D01*
X12780359Y-9179003D01*
X12780363Y-9179020D01*
X12781232Y-9182549D01*
X12785191Y-9192926D01*
X12785191Y-9192927D01*
X12789129Y-9198716D01*
X12789320Y-9198997D01*
X12795069Y-9205349D01*
X12795370Y-9206192D01*
X12795029Y-9206961D01*
X12782456Y-9219534D01*
X12781629Y-9219876D01*
X12780849Y-9219579D01*
X12773778Y-9213258D01*
X12773777Y-9213257D01*
X12767166Y-9209018D01*
X12767166Y-9209018D01*
X12761019Y-9206565D01*
X12761018Y-9206564D01*
X12754508Y-9204860D01*
X12751883Y-9204222D01*
X12751795Y-9204197D01*
X12736217Y-9199108D01*
X12735537Y-9198525D01*
X12735468Y-9197632D01*
X12735497Y-9197554D01*
X12746244Y-9171381D01*
X12746875Y-9170746D01*
X12773082Y-9159985D01*
X12773977Y-9159988D01*
G37*
%TD.AperFunction*%
%TD*%
%TA.AperFunction,Conductor*%
%TO.N,/MCLK*%
G36*
X13621505Y-9476577D02*
G01*
X13621542Y-9476655D01*
X13632448Y-9502758D01*
X13632451Y-9503653D01*
X13632448Y-9503660D01*
X13621529Y-9529794D01*
X13620894Y-9530425D01*
X13619998Y-9530422D01*
X13619948Y-9530400D01*
X13610560Y-9525947D01*
X13610470Y-9525900D01*
X13602937Y-9521493D01*
X13602922Y-9521484D01*
X13600946Y-9520289D01*
X13599811Y-9519602D01*
X13589673Y-9515063D01*
X13582462Y-9513691D01*
X13582461Y-9513691D01*
X13573905Y-9513264D01*
X13573096Y-9512881D01*
X13572793Y-9512096D01*
X13572793Y-9494315D01*
X13573136Y-9493488D01*
X13573898Y-9493147D01*
X13581276Y-9492734D01*
X13583368Y-9492617D01*
X13584744Y-9492316D01*
X13591040Y-9490939D01*
X13597123Y-9488327D01*
X13602929Y-9484930D01*
X13605241Y-9483522D01*
X13605316Y-9483480D01*
X13619933Y-9476063D01*
X13620825Y-9475994D01*
X13621505Y-9476577D01*
G37*
%TD.AperFunction*%
%TD*%
%TA.AperFunction,Conductor*%
%TO.N,Net-(C14-Pad2)*%
G36*
X14753085Y-7702008D02*
G01*
X14753716Y-7702643D01*
X14753713Y-7703538D01*
X14753691Y-7703589D01*
X14749238Y-7712977D01*
X14749191Y-7713066D01*
X14744783Y-7720599D01*
X14744775Y-7720614D01*
X14742893Y-7723725D01*
X14742893Y-7723725D01*
X14741689Y-7726413D01*
X14738966Y-7732497D01*
X14738354Y-7733863D01*
X14736982Y-7741075D01*
X14736555Y-7749631D01*
X14736172Y-7750441D01*
X14735387Y-7750743D01*
X14717606Y-7750743D01*
X14716779Y-7750401D01*
X14716438Y-7749639D01*
X14715908Y-7740168D01*
X14714529Y-7733863D01*
X14714230Y-7732496D01*
X14711618Y-7726413D01*
X14708221Y-7720607D01*
X14706813Y-7718296D01*
X14706771Y-7718219D01*
X14699354Y-7703604D01*
X14699285Y-7702711D01*
X14699867Y-7702031D01*
X14699944Y-7701995D01*
X14726049Y-7691088D01*
X14726944Y-7691086D01*
X14753085Y-7702008D01*
G37*
%TD.AperFunction*%
%TD*%
%TA.AperFunction,Conductor*%
%TO.N,Net-(C14-Pad2)*%
G36*
X16459924Y-9387725D02*
G01*
X16471301Y-9398309D01*
X16471302Y-9398309D01*
X16471302Y-9398309D01*
X16471302Y-9398309D01*
X16475949Y-9401925D01*
X16482429Y-9406967D01*
X16492746Y-9413321D01*
X16500349Y-9416777D01*
X16502522Y-9417765D01*
X16512025Y-9420690D01*
X16521522Y-9422489D01*
X16541573Y-9424279D01*
X16541575Y-9424279D01*
X16541576Y-9424279D01*
X16541881Y-9424300D01*
X16550093Y-9424857D01*
X16550146Y-9424861D01*
X16576702Y-9428047D01*
X16576835Y-9428071D01*
X16603921Y-9434586D01*
X16604645Y-9435112D01*
X16604785Y-9435997D01*
X16604767Y-9436062D01*
X16579252Y-9520471D01*
X16578684Y-9521163D01*
X16578470Y-9521252D01*
X16494038Y-9546774D01*
X16493147Y-9546685D01*
X16492580Y-9545993D01*
X16492569Y-9545953D01*
X16487897Y-9528098D01*
X16487878Y-9528013D01*
X16484891Y-9511445D01*
X16484878Y-9511350D01*
X16482280Y-9483583D01*
X16482278Y-9483557D01*
X16481664Y-9474644D01*
X16481664Y-9474641D01*
X16479076Y-9455685D01*
X16479076Y-9455684D01*
X16473679Y-9439513D01*
X16473678Y-9439512D01*
X16469286Y-9431128D01*
X16467249Y-9428047D01*
X16463445Y-9422295D01*
X16463445Y-9422294D01*
X16459814Y-9417764D01*
X16457922Y-9415403D01*
X16455310Y-9412145D01*
X16455308Y-9412143D01*
X16445731Y-9401925D01*
X16445415Y-9401087D01*
X16445757Y-9400297D01*
X16458300Y-9387754D01*
X16459128Y-9387411D01*
X16459924Y-9387725D01*
G37*
%TD.AperFunction*%
%TD*%
%TA.AperFunction,Conductor*%
%TO.N,Net-(C14-Pad2)*%
G36*
X15296538Y-8826287D02*
G01*
X15296589Y-8826309D01*
X15305977Y-8830762D01*
X15306065Y-8830809D01*
X15312625Y-8834646D01*
X15313599Y-8835216D01*
X15313614Y-8835225D01*
X15316725Y-8837107D01*
X15326863Y-8841646D01*
X15334075Y-8843018D01*
X15342632Y-8843445D01*
X15343441Y-8843828D01*
X15343743Y-8844613D01*
X15343743Y-8862394D01*
X15343401Y-8863221D01*
X15342639Y-8863562D01*
X15333168Y-8864092D01*
X15325497Y-8865770D01*
X15325496Y-8865770D01*
X15325496Y-8865770D01*
X15323742Y-8866523D01*
X15319414Y-8868382D01*
X15313605Y-8871780D01*
X15311297Y-8873186D01*
X15311218Y-8873230D01*
X15296604Y-8880646D01*
X15295711Y-8880715D01*
X15295031Y-8880132D01*
X15294995Y-8880054D01*
X15289026Y-8865770D01*
X15284088Y-8853951D01*
X15284086Y-8853056D01*
X15284086Y-8853054D01*
X15295008Y-8826915D01*
X15295643Y-8826284D01*
X15296538Y-8826287D01*
G37*
%TD.AperFunction*%
%TD*%
%TA.AperFunction,Conductor*%
%TO.N,Net-(C14-Pad2)*%
G36*
X15249651Y-8804921D02*
G01*
X15256722Y-8811242D01*
X15256723Y-8811243D01*
X15261764Y-8814475D01*
X15263334Y-8815482D01*
X15263334Y-8815482D01*
X15263334Y-8815482D01*
X15269480Y-8817935D01*
X15269481Y-8817935D01*
X15269481Y-8817935D01*
X15269482Y-8817936D01*
X15275990Y-8819639D01*
X15278619Y-8820278D01*
X15278702Y-8820302D01*
X15294283Y-8825392D01*
X15294963Y-8825975D01*
X15295032Y-8826868D01*
X15295002Y-8826949D01*
X15284256Y-8853118D01*
X15283625Y-8853754D01*
X15283618Y-8853756D01*
X15257418Y-8864515D01*
X15256522Y-8864512D01*
X15255891Y-8863877D01*
X15255872Y-8863827D01*
X15252381Y-8854037D01*
X15252352Y-8853941D01*
X15250139Y-8845490D01*
X15249268Y-8841951D01*
X15249268Y-8841951D01*
X15249268Y-8841951D01*
X15245309Y-8831574D01*
X15245308Y-8831573D01*
X15241181Y-8825504D01*
X15241180Y-8825504D01*
X15241180Y-8825504D01*
X15241180Y-8825504D01*
X15236473Y-8820303D01*
X15235431Y-8819151D01*
X15235130Y-8818308D01*
X15235471Y-8817539D01*
X15248044Y-8804966D01*
X15248871Y-8804624D01*
X15249651Y-8804921D01*
G37*
%TD.AperFunction*%
%TD*%
M02*
