%TF.GenerationSoftware,KiCad,Pcbnew,10.0.0*%
%TF.CreationDate,2026-04-11T14:09:48+02:00*%
%TF.ProjectId,BT_Alpha,42545f41-6c70-4686-912e-6b696361645f,rev?*%
%TF.SameCoordinates,Original*%
%TF.FileFunction,Legend,Bot*%
%TF.FilePolarity,Positive*%
%FSLAX45Y45*%
G04 Gerber Fmt 4.5, Leading zero omitted, Abs format (unit mm)*
G04 Created by KiCad (PCBNEW 10.0.0) date 2026-04-11 14:09:48*
%MOMM*%
%LPD*%
G01*
G04 APERTURE LIST*
%ADD10C,0.300000*%
G04 APERTURE END LIST*
D10*
X17317489Y-10392429D02*
X17310346Y-10371000D01*
X17310346Y-10371000D02*
X17303203Y-10363857D01*
X17303203Y-10363857D02*
X17288917Y-10356714D01*
X17288917Y-10356714D02*
X17267489Y-10356714D01*
X17267489Y-10356714D02*
X17253203Y-10363857D01*
X17253203Y-10363857D02*
X17246060Y-10371000D01*
X17246060Y-10371000D02*
X17238917Y-10385286D01*
X17238917Y-10385286D02*
X17238917Y-10442429D01*
X17238917Y-10442429D02*
X17388917Y-10442429D01*
X17388917Y-10442429D02*
X17388917Y-10392429D01*
X17388917Y-10392429D02*
X17381774Y-10378143D01*
X17381774Y-10378143D02*
X17374631Y-10371000D01*
X17374631Y-10371000D02*
X17360346Y-10363857D01*
X17360346Y-10363857D02*
X17346060Y-10363857D01*
X17346060Y-10363857D02*
X17331774Y-10371000D01*
X17331774Y-10371000D02*
X17324631Y-10378143D01*
X17324631Y-10378143D02*
X17317489Y-10392429D01*
X17317489Y-10392429D02*
X17317489Y-10442429D01*
X17388917Y-10313857D02*
X17388917Y-10228143D01*
X17238917Y-10271000D02*
X17388917Y-10271000D01*
X17281774Y-10071000D02*
X17281774Y-9999571D01*
X17238917Y-10085286D02*
X17388917Y-10035286D01*
X17388917Y-10035286D02*
X17238917Y-9985286D01*
X17238917Y-9913857D02*
X17246060Y-9928143D01*
X17246060Y-9928143D02*
X17260346Y-9935286D01*
X17260346Y-9935286D02*
X17388917Y-9935286D01*
X17338917Y-9856714D02*
X17188917Y-9856714D01*
X17331774Y-9856714D02*
X17338917Y-9842429D01*
X17338917Y-9842429D02*
X17338917Y-9813857D01*
X17338917Y-9813857D02*
X17331774Y-9799571D01*
X17331774Y-9799571D02*
X17324631Y-9792429D01*
X17324631Y-9792429D02*
X17310346Y-9785286D01*
X17310346Y-9785286D02*
X17267489Y-9785286D01*
X17267489Y-9785286D02*
X17253203Y-9792429D01*
X17253203Y-9792429D02*
X17246060Y-9799571D01*
X17246060Y-9799571D02*
X17238917Y-9813857D01*
X17238917Y-9813857D02*
X17238917Y-9842429D01*
X17238917Y-9842429D02*
X17246060Y-9856714D01*
X17238917Y-9721000D02*
X17388917Y-9721000D01*
X17238917Y-9656714D02*
X17317489Y-9656714D01*
X17317489Y-9656714D02*
X17331774Y-9663857D01*
X17331774Y-9663857D02*
X17338917Y-9678143D01*
X17338917Y-9678143D02*
X17338917Y-9699571D01*
X17338917Y-9699571D02*
X17331774Y-9713857D01*
X17331774Y-9713857D02*
X17324631Y-9721000D01*
X17238917Y-9521000D02*
X17317489Y-9521000D01*
X17317489Y-9521000D02*
X17331774Y-9528143D01*
X17331774Y-9528143D02*
X17338917Y-9542429D01*
X17338917Y-9542429D02*
X17338917Y-9571000D01*
X17338917Y-9571000D02*
X17331774Y-9585286D01*
X17246060Y-9521000D02*
X17238917Y-9535286D01*
X17238917Y-9535286D02*
X17238917Y-9571000D01*
X17238917Y-9571000D02*
X17246060Y-9585286D01*
X17246060Y-9585286D02*
X17260346Y-9592429D01*
X17260346Y-9592429D02*
X17274631Y-9592429D01*
X17274631Y-9592429D02*
X17288917Y-9585286D01*
X17288917Y-9585286D02*
X17296060Y-9571000D01*
X17296060Y-9571000D02*
X17296060Y-9535286D01*
X17296060Y-9535286D02*
X17303203Y-9521000D01*
X17238917Y-9249571D02*
X17310346Y-9299571D01*
X17238917Y-9335286D02*
X17388917Y-9335286D01*
X17388917Y-9335286D02*
X17388917Y-9278143D01*
X17388917Y-9278143D02*
X17381774Y-9263857D01*
X17381774Y-9263857D02*
X17374631Y-9256714D01*
X17374631Y-9256714D02*
X17360346Y-9249571D01*
X17360346Y-9249571D02*
X17338917Y-9249571D01*
X17338917Y-9249571D02*
X17324631Y-9256714D01*
X17324631Y-9256714D02*
X17317489Y-9263857D01*
X17317489Y-9263857D02*
X17310346Y-9278143D01*
X17310346Y-9278143D02*
X17310346Y-9335286D01*
X17246060Y-9128143D02*
X17238917Y-9142429D01*
X17238917Y-9142429D02*
X17238917Y-9171000D01*
X17238917Y-9171000D02*
X17246060Y-9185286D01*
X17246060Y-9185286D02*
X17260346Y-9192429D01*
X17260346Y-9192429D02*
X17317489Y-9192429D01*
X17317489Y-9192429D02*
X17331774Y-9185286D01*
X17331774Y-9185286D02*
X17338917Y-9171000D01*
X17338917Y-9171000D02*
X17338917Y-9142429D01*
X17338917Y-9142429D02*
X17331774Y-9128143D01*
X17331774Y-9128143D02*
X17317489Y-9121000D01*
X17317489Y-9121000D02*
X17303203Y-9121000D01*
X17303203Y-9121000D02*
X17288917Y-9192429D01*
X17338917Y-9071000D02*
X17238917Y-9035286D01*
X17238917Y-9035286D02*
X17338917Y-8999571D01*
X17253203Y-8942429D02*
X17246060Y-8935286D01*
X17246060Y-8935286D02*
X17238917Y-8942429D01*
X17238917Y-8942429D02*
X17246060Y-8949571D01*
X17246060Y-8949571D02*
X17253203Y-8942429D01*
X17253203Y-8942429D02*
X17238917Y-8942429D01*
X17281774Y-8763857D02*
X17281774Y-8692429D01*
X17238917Y-8778143D02*
X17388917Y-8728143D01*
X17388917Y-8728143D02*
X17238917Y-8678143D01*
M02*
