M48
; DRILL file KiCad 10.0.0 date 2026-04-11T11:36:06
; FORMAT={-:-/ absolute / metric / decimal}
; #@! TF.CreationDate,2026-04-11T11:36:06+02:00
; #@! TF.GenerationSoftware,Kicad,Pcbnew,10.0.0
; #@! TF.FileFunction,Plated,1,4,PTH
FMAT,2
METRIC
; #@! TA.AperFunction,Plated,PTH,ComponentDrill
T1C0.200
; #@! TA.AperFunction,Plated,PTH,ViaDrill
T2C0.300
; #@! TA.AperFunction,Plated,PTH,ComponentDrill
T3C0.300
; #@! TA.AperFunction,Plated,PTH,ComponentDrill
T4C0.750
; #@! TA.AperFunction,Plated,PTH,ComponentDrill
T5C1.000
; #@! TA.AperFunction,Plated,PTH,ComponentDrill
T6C1.100
%
G90
G05
T1
X150.71Y-110.01
X150.71Y-111.01
X151.66Y-110.05
X151.66Y-110.87
X152.44Y-108.23
X152.44Y-109.23
X152.44Y-110.23
X152.44Y-111.23
X153.22Y-110.05
X153.22Y-110.87
X154.17Y-110.01
X154.17Y-111.01
X161.31Y-110.01
X161.31Y-111.01
X162.26Y-110.05
X162.26Y-110.87
X163.04Y-108.23
X163.04Y-109.23
X163.04Y-110.23
X163.04Y-111.23
X163.82Y-110.05
X163.82Y-110.87
X164.77Y-110.01
X164.77Y-111.01
T2
X121.49Y-111.298
X121.515Y-114.935
X121.69Y-85.285
X121.69Y-88.785
X122.09Y-81.46
X122.34Y-95.085
X122.35Y-110.046
X123.165Y-85.285
X123.19Y-112.81
X124.04Y-87.81
X124.09Y-88.91
X124.09Y-90.91
X124.09Y-112.81
X124.115Y-92.41
X124.515Y-114.935
X125.011Y-83.566
X125.015Y-88.985
X125.09Y-85.31
X126.115Y-114.935
X127.29Y-79.91
X127.44Y-86.21
X127.515Y-114.935
X128.715Y-112.635
X129.69Y-82.61
X130.29Y-112.635
X130.515Y-76.66
X131.19Y-85.81
X131.99Y-81.91
X131.99Y-83.31
X132.49Y-92.51
X132.515Y-112.635
X133.04Y-114.185
X133.315Y-77.11
X134.39Y-87.41
X135.035Y-81.629
X135.04Y-112.635
X135.29Y-84.835
X136.315Y-114.16
X136.325Y-92.51
X137.99Y-89.16
X138.29Y-84.835
X138.615Y-108.235
X138.626Y-76.91
X138.94Y-81.66
X139.59Y-84.835
X140.24Y-81.66
X140.99Y-79.61
X141.64Y-83.91
X142.74Y-111.235
X142.915Y-89.41
X143.115Y-83.885
X143.89Y-81.71
X143.89Y-85.71
X143.965Y-87.235
X144.715Y-99.185
X144.865Y-87.035
X144.865Y-90.785
X145.69Y-83.61
X146.015Y-110.585
X146.09Y-102.11
X147.265Y-76.91
X147.29Y-85.01
X147.29Y-88.91
X147.29Y-90.51
X148.19Y-93.185
X148.236Y-111.635
X148.915Y-88.935
X148.994Y-105.014
X149.19Y-98.51
X149.19Y-99.81
X149.24Y-78.46
X149.244Y-112.364
X149.244Y-114.764
X149.376Y-111.527
X149.69Y-92.51
X149.74Y-106.96
X150.465Y-90.56
X151.39Y-85.31
X151.79Y-80.51
X151.79Y-83.61
X151.944Y-105.014
X152.136Y-112.456
X152.136Y-113.556
X152.136Y-114.756
X152.19Y-98.76
X152.79Y-86.11
X152.84Y-88.535
X152.84Y-92.81
X152.89Y-101.31
X153.44Y-82.01
X154.165Y-79.675
X154.19Y-84.06
X155.19Y-109.01
X155.34Y-111.66
X155.615Y-98.91
X155.89Y-78.41
X156.09Y-91.985
X156.515Y-104.985
X156.536Y-111.606
X156.89Y-99.31
X157.286Y-112.364
X157.34Y-114.76
X157.436Y-111.606
X158.19Y-76.41
X158.19Y-83.46
X158.615Y-103.835
X158.69Y-81.01
X158.836Y-111.606
X159.69Y-112.367
X159.744Y-114.764
X160.052Y-98.935
X160.144Y-104.985
X160.49Y-102.91
X160.602Y-99.335
X161.153Y-98.935
X161.59Y-77.31
X162.14Y-104.235
X162.19Y-100.11
X162.265Y-102.135
X162.49Y-86.71
X162.74Y-113.56
X163.04Y-100.285
X163.89Y-105.21
X165.69Y-105.21
X165.74Y-112.56
X165.819Y-114.681
X166.44Y-111.66
X166.915Y-102.91
X166.94Y-101.31
X167.84Y-110.56
X168.665Y-80.16
T3
X128.52Y-103.347
X128.52Y-104.748
X129.22Y-102.647
X129.22Y-104.047
X129.22Y-105.447
X129.92Y-103.347
X129.92Y-104.748
X130.62Y-102.647
X130.62Y-104.047
X130.62Y-105.447
X131.32Y-103.347
X131.32Y-104.748
T4
X169.24Y-83.51
X169.24Y-85.51
X169.24Y-87.51
X169.24Y-89.51
X169.24Y-91.51
X169.24Y-93.51
X169.24Y-98.11
X169.24Y-100.11
X169.24Y-102.11
X169.24Y-104.11
X169.24Y-106.11
X169.24Y-108.11
T5
X152.79Y-95.21
X158.99Y-95.21
X164.89Y-95.21
T6
X127.735Y-90.86
X130.275Y-90.86
X132.815Y-90.86
X135.355Y-90.86
X137.895Y-90.86
M30
