M48
; DRILL file KiCad 10.0.0 date 2026-04-06T21:24:34
; FORMAT={-:-/ absolute / metric / decimal}
; #@! TF.CreationDate,2026-04-06T21:24:34+02:00
; #@! TF.GenerationSoftware,Kicad,Pcbnew,10.0.0
; #@! TF.FileFunction,MixedPlating,1,4
FMAT,2
METRIC
; #@! TA.AperFunction,Plated,PTH,ComponentDrill
T1C0.200
; #@! TA.AperFunction,Plated,PTH,ViaDrill
T2C0.300
; #@! TA.AperFunction,Plated,PTH,ComponentDrill
T3C0.300
; #@! TA.AperFunction,Plated,PTH,ComponentDrill
T4C0.750
; #@! TA.AperFunction,Plated,PTH,ComponentDrill
T5C1.000
; #@! TA.AperFunction,Plated,PTH,ComponentDrill
T6C1.100
; #@! TA.AperFunction,NonPlated,NPTH,ComponentDrill
T7C2.700
%
G90
G05
T1
X153.16Y-110.26
X153.16Y-111.26
X154.11Y-110.3
X154.11Y-111.12
X154.89Y-108.48
X154.89Y-109.48
X154.89Y-110.48
X154.89Y-111.48
X155.67Y-110.3
X155.67Y-111.12
X156.62Y-110.26
X156.62Y-111.26
X163.76Y-110.26
X163.76Y-111.26
X164.71Y-110.3
X164.71Y-111.12
X165.49Y-108.48
X165.49Y-109.48
X165.49Y-110.48
X165.49Y-111.48
X166.27Y-110.3
X166.27Y-111.12
X167.22Y-110.26
X167.22Y-111.26
T2
X121.49Y-111.298
X121.515Y-114.935
X121.69Y-85.285
X121.69Y-88.785
X122.09Y-81.51
X122.34Y-95.085
X122.35Y-110.046
X123.165Y-85.285
X123.19Y-112.81
X123.59Y-96.01
X124.04Y-87.81
X124.09Y-112.81
X124.515Y-114.935
X125.011Y-83.566
X125.015Y-88.985
X125.09Y-85.31
X126.115Y-114.935
X126.89Y-104.11
X127.465Y-91.71
X127.515Y-114.935
X127.965Y-87.185
X127.99Y-90.685
X129.04Y-112.935
X129.69Y-82.61
X130.515Y-76.66
X131.24Y-109.685
X131.99Y-81.91
X131.99Y-83.31
X132.115Y-96.16
X132.115Y-114.935
X132.865Y-88.185
X133.315Y-77.11
X133.465Y-114.935
X134.09Y-88.31
X135.035Y-81.629
X135.04Y-109.735
X135.29Y-84.835
X136.325Y-95.032
X137.99Y-89.16
X138.29Y-84.835
X138.615Y-108.235
X138.626Y-76.91
X138.94Y-81.66
X139.09Y-113.21
X139.09Y-114.71
X139.59Y-84.835
X140.24Y-81.66
X141.64Y-83.91
X142.79Y-100.01
X142.89Y-104.11
X142.89Y-107.61
X142.915Y-89.41
X143.115Y-83.885
X143.865Y-89.76
X143.965Y-87.235
X144.865Y-87.035
X146.89Y-107.91
X146.99Y-100.01
X147.19Y-85.01
X147.265Y-76.91
X147.29Y-88.91
X147.29Y-90.51
X148.19Y-93.185
X148.915Y-88.935
X149.186Y-111.856
X149.24Y-78.46
X149.69Y-92.51
X150.465Y-90.56
X150.686Y-111.885
X151.39Y-85.31
X151.444Y-105.264
X151.694Y-112.614
X151.694Y-115.014
X151.79Y-80.51
X151.79Y-83.61
X151.826Y-111.777
X152.19Y-107.21
X152.79Y-86.11
X152.84Y-88.535
X152.84Y-92.81
X153.44Y-82.01
X154.165Y-79.675
X154.19Y-84.06
X154.394Y-105.264
X154.586Y-112.706
X154.586Y-113.806
X154.586Y-115.006
X155.89Y-78.41
X156.09Y-91.985
X157.79Y-111.91
X158.19Y-83.46
X158.965Y-105.235
X158.986Y-111.856
X159.736Y-112.614
X159.79Y-115.01
X159.886Y-111.856
X161.286Y-111.856
X161.44Y-104.01
X161.59Y-77.31
X162.14Y-112.617
X162.194Y-115.014
X162.594Y-105.235
X165.19Y-113.81
X165.594Y-105.235
X166.215Y-100.21
X168.115Y-115.006
X168.19Y-112.81
X168.665Y-80.16
X168.89Y-111.91
X170.29Y-110.81
X171.165Y-106.214
T3
X128.52Y-103.347
X128.52Y-104.748
X129.22Y-102.647
X129.22Y-104.047
X129.22Y-105.447
X129.92Y-103.347
X129.92Y-104.748
X130.62Y-102.647
X130.62Y-104.047
X130.62Y-105.447
X131.32Y-103.347
X131.32Y-104.748
T4
X169.14Y-83.71
X169.14Y-85.71
X169.14Y-87.71
X169.14Y-89.71
X169.14Y-91.71
X169.14Y-93.71
X169.15Y-99.11
X169.15Y-101.11
X169.15Y-103.11
T5
X152.79Y-95.21
X159.94Y-95.21
X165.79Y-95.21
T6
X130.8Y-90.96
X133.34Y-90.96
X135.88Y-90.96
X138.42Y-90.96
X140.96Y-90.96
T7
X123.69Y-78.71
X172.69Y-78.71
X172.69Y-112.71
M30
